<?xml version="1.0" encoding="iso-8859-1"?>
<!-- Generator: Adobe Illustrator 19.0.0, SVG Export Plug-In . SVG Version: 6.00 Build 0)  -->
<svg version="1.1" id="Capa_1" xmlns="http://www.w3.org/2000/svg" xmlns:xlink="http://www.w3.org/1999/xlink" x="0px" y="0px"
	 viewBox="0 0 512 512" style="enable-background:new 0 0 512 512;" xml:space="preserve">
<g>
	<g>
		<path d="M436.848,103.152C414.184,80.488,384.056,68,352,68c-32.056,0-62.184,12.488-84.848,35.152S232,155.944,232,188
			c0,32.056,12.488,62.184,35.152,84.848S319.944,308,352,308c32.056,0,62.184-12.488,84.848-35.152S472,220.056,472,188
			C472,155.944,459.512,125.816,436.848,103.152z M425.536,261.536C405.888,281.176,379.776,292,352,292
			s-53.888-10.824-73.536-30.464C258.824,241.888,248,215.776,248,188s10.824-53.888,30.464-73.536
			C298.112,94.824,324.224,84,352,84s53.888,10.824,73.536,30.464C445.176,134.112,456,160.224,456,188
			S445.176,241.888,425.536,261.536z"/>
	</g>
</g>
<g>
	<g>
		<path d="M249.456,211.336c-3.128-3.128-8.184-3.128-11.312,0l-86.48,86.488c-3.128,3.128-3.128,8.184,0,11.312
			c1.56,1.56,3.608,2.344,5.656,2.344s4.096-0.784,5.656-2.344l86.48-86.488C252.584,219.52,252.584,214.464,249.456,211.336z"/>
	</g>
</g>
<g>
	<g>
		<path d="M328.64,290.544c-3.128-3.128-8.184-3.128-11.312,0l-86.472,86.472c-3.128,3.128-3.128,8.184,0,11.312
			c1.56,1.56,3.608,2.344,5.656,2.344c2.048,0,4.096-0.784,5.656-2.344l86.472-86.472
			C331.768,298.728,331.768,293.672,328.64,290.544z"/>
	</g>
</g>
<g>
	<g>
		<path d="M374.712,120.216c-3.128-3.128-8.184-3.128-11.312,0l-79.192,79.192c-3.128,3.128-3.128,8.184,0,11.312
			c1.56,1.56,3.608,2.344,5.656,2.344s4.096-0.784,5.656-2.344l79.192-79.192C377.84,128.4,377.84,123.344,374.712,120.216z"/>
	</g>
</g>
<g>
	<g>
		<path d="M403,148.504c-3.128-3.128-8.184-3.128-11.312,0s-3.128,8.184,0,11.312c3.024,3.024,4.688,7.04,4.688,11.312
			c0,4.272-1.664,8.288-4.688,11.312c-6.232,6.232-16.392,6.232-22.624,0c-3.128-3.128-8.184-3.128-11.312,0s-3.128,8.184,0,11.312
			c6.232,6.24,14.432,9.36,22.624,9.36c8.192,0,16.392-3.12,22.624-9.36c6.048-6.04,9.376-14.072,9.376-22.624
			C412.376,162.584,409.048,154.552,403,148.504z"/>
	</g>
</g>
<g>
	<g>
		<path d="M369.064,182.44c-3.128-3.128-8.184-3.128-11.312,0s-3.128,8.184,0,11.312c4.528,4.528,7.032,10.56,7.032,16.976
			c0,6.408-2.504,12.432-7.032,16.968c-9.36,9.36-24.584,9.36-33.944,0c-3.128-3.128-8.184-3.128-11.312,0s-3.128,8.192,0,11.312
			c7.8,7.8,18.048,11.696,28.288,11.696s20.48-3.896,28.28-11.696C384.656,223.416,384.656,198.032,369.064,182.44z"/>
	</g>
</g>
<g>
	<g>
		<path d="M403,148.504l-33.936-33.944c-3.128-3.128-8.184-3.128-11.312,0s-3.128,8.184,0,11.312l33.936,33.944
			c1.56,1.56,3.608,2.344,5.656,2.344c2.048,0,4.096-0.784,5.656-2.344C406.128,156.688,406.128,151.632,403,148.504z"/>
	</g>
</g>
<g>
	<g>
		<path d="M369.064,182.44l-28.28-28.28c-3.128-3.128-8.184-3.128-11.312,0s-3.128,8.184,0,11.312l28.28,28.28
			c1.56,1.56,3.608,2.344,5.656,2.344c2.048,0,4.096-0.784,5.656-2.344C372.192,190.624,372.192,185.568,369.064,182.44z"/>
	</g>
</g>
<g>
	<g>
		<path d="M326.632,230.52l-36.768-36.776c-3.128-3.128-8.184-3.128-11.312,0s-3.128,8.184,0,11.312l36.768,36.776
			c1.56,1.56,3.608,2.344,5.656,2.344s4.096-0.776,5.656-2.344C329.76,238.704,329.76,233.648,326.632,230.52z"/>
	</g>
</g>
<g>
	<g>
		<path d="M386.032,120.208c-3.128-3.128-8.184-3.128-11.312,0l-5.656,5.656c-3.128,3.128-3.128,8.184,0,11.312
			c1.56,1.56,3.608,2.344,5.656,2.344c2.048,0,4.096-0.776,5.656-2.344l5.656-5.656C389.16,128.392,389.16,123.336,386.032,120.208z
			"/>
	</g>
</g>
<g>
	<g>
		<path d="M403,137.192c-3.128-3.128-8.184-3.128-11.312,0l-5.656,5.656c-3.128,3.128-3.128,8.184,0,11.312
			c1.56,1.56,3.608,2.344,5.656,2.344c2.048,0,4.096-0.784,5.656-2.344l5.656-5.656C406.128,145.376,406.128,140.32,403,137.192z"/>
	</g>
</g>
<g>
	<g>
		<path d="M301.176,205.072c-3.128-3.128-8.184-3.128-11.312,0l-5.656,5.656c-3.128,3.128-3.128,8.184,0,11.312
			c1.56,1.56,3.608,2.344,5.656,2.344s4.096-0.784,5.656-2.344l5.656-5.656C304.304,213.256,304.304,208.2,301.176,205.072z"/>
	</g>
</g>
<g>
	<g>
		<path d="M318.144,222.04c-3.128-3.128-8.184-3.128-11.312,0l-5.656,5.656c-3.128,3.128-3.128,8.184,0,11.312
			c1.56,1.56,3.608,2.344,5.656,2.344c2.048,0,4.096-0.784,5.656-2.344l5.656-5.656C321.272,230.224,321.272,225.168,318.144,222.04
			z"/>
	</g>
</g>
<g>
	<g>
		<path d="M168.632,337.408c-1.52-1.504-2.352-3.512-2.352-5.648c0-2.136,0.84-4.144,2.352-5.656c3.128-3.128,3.128-8.184,0-11.312
			s-8.184-3.128-11.312,0c-4.536,4.536-7.04,10.56-7.04,16.968c0,6.416,2.504,12.44,7.04,16.976c1.56,1.552,3.608,2.336,5.656,2.336
			c2.048,0,4.104-0.784,5.664-2.344C171.76,345.592,171.76,340.536,168.632,337.408z"/>
	</g>
</g>
<g>
	<g>
		<path d="M225.192,371.36c-3.128-3.128-8.184-3.128-11.312,0c-3.104,3.104-8.176,3.128-11.312-0.008
			c-3.128-3.112-8.192-3.12-11.32,0.008c-3.12,3.136-3.12,8.192,0.008,11.32c4.68,4.672,10.824,7.008,16.968,7.008
			c6.152,0,12.296-2.336,16.968-7.016C228.32,379.544,228.32,374.488,225.192,371.36z"/>
	</g>
</g>
<g>
	<g>
		<path d="M202.568,371.36l-33.936-33.944c-3.128-3.128-8.184-3.128-11.312,0c-3.128,3.128-3.128,8.184,0,11.312l33.936,33.944
			c1.56,1.56,3.608,2.344,5.656,2.344c2.048,0,4.096-0.784,5.656-2.344C205.696,379.544,205.696,374.488,202.568,371.36z"/>
	</g>
</g>
<g>
	<g>
		<path d="M304.4,314.792c-3.128-3.128-8.184-3.128-11.312,0c-3.128,3.128-3.128,8.184,0,11.312c15.592,15.6,15.592,40.976,0,56.568
			c-3.128,3.128-3.128,8.184,0,11.312c1.56,1.56,3.608,2.344,5.656,2.344c2.048,0,4.088-0.784,5.656-2.344
			C326.232,372.16,326.232,336.624,304.4,314.792z"/>
	</g>
</g>
<g>
	<g>
		<path d="M287.424,399.64l-33.936-33.936c-3.128-3.128-8.184-3.128-11.312,0c-3.128,3.128-3.128,8.184,0,11.312l33.936,33.936
			c1.56,1.56,3.608,2.344,5.656,2.344c2.048,0,4.088-0.784,5.656-2.344C290.552,407.824,290.552,402.768,287.424,399.64z"/>
	</g>
</g>
<g>
	<g>
		<path d="M225.192,235.592c-21.824-21.832-57.352-21.832-79.184,0c-3.128,3.128-3.128,8.184,0,11.312s8.184,3.128,11.312,0
			c15.592-15.592,40.968-15.592,56.56,0c1.56,1.56,3.608,2.344,5.656,2.344c2.048,0,4.096-0.776,5.656-2.344
			C228.32,243.776,228.32,238.72,225.192,235.592z"/>
	</g>
</g>
<g>
	<g>
		<path d="M174.288,286.512l-33.944-33.944c-3.128-3.128-8.184-3.128-11.312,0c-3.128,3.128-3.128,8.184,0,11.312l33.944,33.944
			c1.56,1.56,3.608,2.344,5.656,2.344c2.048,0,4.096-0.784,5.656-2.344C177.416,294.696,177.416,289.64,174.288,286.512z"/>
	</g>
</g>
<g>
	<g>
		<path d="M157.32,235.592c-3.128-3.128-8.184-3.128-11.312,0l-16.976,16.968c-3.128,3.128-3.128,8.184,0,11.312
			c1.56,1.56,3.608,2.344,5.656,2.344c2.048,0,4.096-0.776,5.656-2.344l16.976-16.968
			C160.448,243.776,160.448,238.72,157.32,235.592z"/>
	</g>
</g>
<g>
	<g>
		<path d="M304.4,382.672c-3.128-3.128-8.184-3.128-11.312,0l-16.976,16.968c-3.128,3.128-3.128,8.184,0,11.312
			c1.56,1.56,3.608,2.344,5.656,2.344c2.048,0,4.088-0.784,5.656-2.344l16.976-16.968C307.528,390.856,307.528,385.8,304.4,382.672z
			"/>
	</g>
</g>
<g>
	<g>
		<path d="M242.168,377.016l-79.192-79.192c-3.128-3.128-8.184-3.128-11.312,0c-3.128,3.128-3.128,8.184,0,11.312l79.192,79.192
			c1.56,1.56,3.608,2.344,5.656,2.344c2.048,0,4.096-0.784,5.656-2.344C245.296,385.2,245.296,380.144,242.168,377.016z"/>
	</g>
</g>
<g>
	<g>
		<path d="M230.864,365.704c-3.128-3.128-8.192-3.12-11.32-0.008l-5.664,5.656c-3.128,3.128-3.128,8.184-0.008,11.32
			c1.56,1.56,3.616,2.344,5.664,2.344c2.048,0,4.096-0.784,5.656-2.336l5.664-5.656C233.984,373.896,233.984,368.84,230.864,365.704
			z"/>
	</g>
</g>
<g>
	<g>
		<path d="M174.384,309.232c-3.128-3.128-8.184-3.128-11.312,0l-5.656,5.656c-3.128,3.128-3.128,8.184,0,11.312
			c1.56,1.56,3.608,2.344,5.656,2.344c2.048,0,4.096-0.776,5.656-2.344l5.656-5.656C177.512,317.416,177.512,312.36,174.384,309.232
			z"/>
	</g>
</g>
<g>
	<g>
		<path d="M168.768,371.224c-7.552-7.552-17.6-11.712-28.288-11.712c-10.688,0-20.728,4.16-28.28,11.712
			c-5.024,5.024-65.648,81.432-45.256,101.824c2.992,2.992,7.096,4.504,12.216,4.504c24.864,0,79.304-39.448,89.608-49.76
			C184.352,412.2,184.352,386.816,168.768,371.224z M157.456,416.48c-11.936,11.928-61.608,45.072-78.296,45.072
			c-0.32,0-0.576-0.016-0.776-0.04c-2.32-11.448,29.6-63.432,45.128-78.976c9.064-9.064,24.88-9.064,33.944,0
			C166.808,391.896,166.808,407.12,157.456,416.48z"/>
	</g>
</g>
<g>
	<g>
		<path d="M456.088,452h-48.712c-3.712-18.232-19.872-32-39.192-32c-22.056,0-40,17.944-40,40c0,22.056,17.944,40,40,40h87.912
			c13.232,0,23.992-10.768,23.992-24S469.32,452,456.088,452z M456.088,484h-87.904c-13.232,0-24-10.768-24-24s10.768-24,24-24
			c13.24,0,24,10.768,24,24c0,4.424,3.576,8,8,8h55.904c4.416,0,8,3.584,8,8C464.088,480.416,460.504,484,456.088,484z"/>
	</g>
</g>
<g>
	<g>
		<path d="M436,380c-2.2,0-4-1.8-4-4s1.8-4,4-4c4.424,0,8-3.576,8-8s-3.576-8-8-8c-11.032,0-20,8.968-20,20c0,11.032,8.968,20,20,20
			c4.424,0,8-3.576,8-8S440.424,380,436,380z"/>
	</g>
</g>
<g>
	<g>
		<path d="M480,332c-17.648,0-32,14.352-32,32c0,4.424,3.576,8,8,8s8-3.576,8-8c0-8.824,7.176-16,16-16c8.824,0,16,7.176,16,16
			c0,8.824-7.176,16-16,16c-4.424,0-8,3.576-8,8s3.576,8,8,8c17.648,0,32-14.352,32-32S497.648,332,480,332z"/>
	</g>
</g>
<g>
	<g>
		<path d="M480,380h-44c-4.424,0-8,3.576-8,8s3.576,8,8,8h44c4.424,0,8-3.576,8-8S484.424,380,480,380z"/>
	</g>
</g>
<g>
	<g>
		<path d="M456,356h-20c-4.424,0-8,3.576-8,8s3.576,8,8,8h20c4.424,0,8-3.576,8-8S460.424,356,456,356z"/>
	</g>
</g>
<g>
	<g>
		<path d="M96,60c-26.472,0-48,21.528-48,48s21.528,48,48,48s48-21.528,48-48S122.472,60,96,60z M96,140c-17.648,0-32-14.352-32-32
			s14.352-32,32-32s32,14.352,32,32S113.648,140,96,140z"/>
	</g>
</g>
<g>
	<g>
		<path d="M96,12c-4.424,0-8,3.576-8,8v24c0,4.424,3.576,8,8,8s8-3.576,8-8V20C104,15.576,100.424,12,96,12z"/>
	</g>
</g>
<g>
	<g>
		<path d="M96,164c-4.424,0-8,3.576-8,8v24c0,4.424,3.576,8,8,8s8-3.576,8-8v-24C104,167.576,100.424,164,96,164z"/>
	</g>
</g>
<g>
	<g>
		<path d="M56.4,57.096L39.432,40.12c-3.128-3.128-8.184-3.128-11.312,0s-3.128,8.184,0,11.312l16.968,16.976
			c1.56,1.56,3.608,2.344,5.656,2.344c2.048,0,4.088-0.784,5.656-2.344C59.528,65.28,59.528,60.224,56.4,57.096z"/>
	</g>
</g>
<g>
	<g>
		<path d="M163.88,164.568l-16.968-16.976c-3.128-3.128-8.184-3.128-11.312,0c-3.128,3.128-3.128,8.184,0,11.312l16.968,16.976
			c1.56,1.56,3.608,2.344,5.656,2.344c2.048,0,4.096-0.776,5.656-2.344C167.008,172.752,167.008,167.696,163.88,164.568z"/>
	</g>
</g>
<g>
	<g>
		<path d="M32.008,100H8c-4.424,0-8,3.576-8,8s3.576,8,8,8h24.008c4.424,0,8-3.576,8-8S36.432,100,32.008,100z"/>
	</g>
</g>
<g>
	<g>
		<path d="M184,100l-24-0.008c-4.416,0-8,3.576-8,8c0,4.416,3.576,8,8,8L184,116c4.416,0,8-3.576,8-8
			C192,103.584,188.424,100,184,100z"/>
	</g>
</g>
<g>
	<g>
		<path d="M56.408,147.592c-3.128-3.128-8.184-3.128-11.312,0L28.12,164.568c-3.128,3.128-3.128,8.184,0,11.312
			c1.56,1.56,3.608,2.344,5.656,2.344s4.088-0.776,5.656-2.344l16.976-16.976C59.536,155.776,59.536,150.72,56.408,147.592z"/>
	</g>
</g>
<g>
	<g>
		<path d="M163.88,40.12c-3.128-3.128-8.184-3.128-11.312,0l-16.976,16.968c-3.128,3.128-3.128,8.184,0,11.312
			c1.56,1.56,3.608,2.344,5.656,2.344c2.048,0,4.096-0.784,5.656-2.344l16.976-16.968C167.008,48.304,167.008,43.248,163.88,40.12z"
			/>
	</g>
</g>
<g>
</g>
<g>
</g>
<g>
</g>
<g>
</g>
<g>
</g>
<g>
</g>
<g>
</g>
<g>
</g>
<g>
</g>
<g>
</g>
<g>
</g>
<g>
</g>
<g>
</g>
<g>
</g>
<g>
</g>
</svg>
