<?xml version="1.0" encoding="iso-8859-1"?>
<!-- Generator: Adobe Illustrator 19.0.0, SVG Export Plug-In . SVG Version: 6.00 Build 0)  -->
<svg version="1.1" id="Capa_1" xmlns="http://www.w3.org/2000/svg" xmlns:xlink="http://www.w3.org/1999/xlink" x="0px" y="0px"
	 viewBox="0 0 512.096 512.096" style="enable-background:new 0 0 512.096 512.096;" xml:space="preserve">
<g>
	<g>
		<path d="M392.096,224.048c-66.168,0-120,53.832-120,120s53.832,120,120,120s120-53.832,120-120S458.264,224.048,392.096,224.048z
			 M392.096,448.048c-57.344,0-104-46.656-104-104s46.656-104,104-104s104,46.656,104,104S449.44,448.048,392.096,448.048z"/>
	</g>
</g>
<g>
	<g>
		<path d="M504.096,384.048c-4.424,0-8,3.576-8,8c0,57.344-46.656,104-104,104s-104-46.656-104-104c0-4.424-3.576-8-8-8
			s-8,3.576-8,8c0,66.168,53.832,120,120,120s120-53.832,120-120C512.096,387.624,508.52,384.048,504.096,384.048z"/>
	</g>
</g>
<g>
	<g>
		<path d="M504.08,336.048c-4.424,0-8,3.576-8,8v48c0,4.424,3.576,8,8,8c4.424,0,8-3.576,8-8v-48
			C512.08,339.624,508.504,336.048,504.08,336.048z"/>
	</g>
</g>
<g>
	<g>
		<path d="M280.08,336.048c-4.424,0-8,3.576-8,8v48c0,4.424,3.576,8,8,8c4.424,0,8-3.576,8-8v-48
			C288.08,339.624,284.504,336.048,280.08,336.048z"/>
	</g>
</g>
<g>
	<g>
		<path d="M392.096,448.048c-4.424,0-8,3.576-8,8v48c0,4.424,3.576,8,8,8c4.424,0,8-3.576,8-8v-48
			C400.096,451.624,396.52,448.048,392.096,448.048z"/>
	</g>
</g>
<g>
	<g>
		<path d="M327.952,427.88c-4.424,0-8,3.576-8,8v48c0,4.424,3.576,8,8,8s8-3.584,8-8v-48
			C335.952,431.456,332.376,427.88,327.952,427.88z"/>
	</g>
</g>
<g>
	<g>
		<path d="M455.952,427.88c-4.424,0-8,3.576-8,8v48c0,4.424,3.576,8,8,8s8-3.584,8-8v-48
			C463.952,431.456,460.376,427.88,455.952,427.88z"/>
	</g>
</g>
<g>
	<g>
		<path d="M120.016,0.048c-66.168,0-120,53.832-120,120s53.832,120,120,120c66.176,0,120-53.832,120-120
			S186.184,0.048,120.016,0.048z M120.016,224.048c-57.344,0-104-46.656-104-104s46.656-104,104-104s104,46.656,104,104
			S177.36,224.048,120.016,224.048z"/>
	</g>
</g>
<g>
	<g>
		<path d="M232.016,160.048c-4.424,0-8,3.584-8,8c0,57.344-46.656,104-104,104s-104-46.656-104-104c0-4.416-3.576-8-8-8
			s-8,3.584-8,8c0,66.168,53.832,120,120,120c66.176,0,120-53.832,120-120C240.016,163.632,236.44,160.048,232.016,160.048z"/>
	</g>
</g>
<g>
	<g>
		<path d="M232,112.048c-4.424,0-8,3.584-8,8v48c0,4.416,3.576,8,8,8s8-3.584,8-8v-48C240,115.632,236.424,112.048,232,112.048z"/>
	</g>
</g>
<g>
	<g>
		<path d="M8,112.048c-4.424,0-8,3.584-8,8v48c0,4.416,3.576,8,8,8c4.424,0,8-3.584,8-8v-48C16,115.632,12.424,112.048,8,112.048z"
			/>
	</g>
</g>
<g>
	<g>
		<path d="M120.016,224.048c-4.424,0-8,3.584-8,8v48c0,4.424,3.576,8,8,8s8-3.576,8-8v-48
			C128.016,227.632,124.44,224.048,120.016,224.048z"/>
	</g>
</g>
<g>
	<g>
		<path d="M55.88,203.88c-4.424,0-8,3.584-8,8v48c0,4.424,3.576,8,8,8c4.416,0,8-3.584,8-8v-48
			C63.88,207.464,60.304,203.88,55.88,203.88z"/>
	</g>
</g>
<g>
	<g>
		<path d="M183.88,203.88c-4.424,0-8,3.584-8,8v48c0,4.424,3.576,8,8,8c4.416,0,8-3.584,8-8v-48
			C191.88,207.464,188.304,203.88,183.88,203.88z"/>
	</g>
</g>
<g>
	<g>
		<path d="M88.16,56.048c-4.424,0-8,3.584-8,8v112c0,4.416,3.576,8,8,8c4.416,0,8-3.584,8-8v-112
			C96.16,59.632,92.584,56.048,88.16,56.048z"/>
	</g>
</g>
<g>
	<g>
		<path d="M128.16,56.048c-4.424,0-8,3.584-8,8s3.576,8,8,8c8.824,0,16,7.176,16,16s-7.176,16-16,16c-4.424,0-8,3.584-8,8
			s3.576,8,8,8c17.648,0,32-14.352,32-32S145.808,56.048,128.16,56.048z"/>
	</g>
</g>
<g>
	<g>
		<path d="M128.16,104.048c-4.424,0-8,3.584-8,8s3.576,8,8,8c13.232,0,24,10.768,24,24s-10.768,24-24,24c-4.424,0-8,3.584-8,8
			s3.576,8,8,8c22.056,0,40-17.944,40-40C168.16,121.992,150.216,104.048,128.16,104.048z"/>
	</g>
</g>
<g>
	<g>
		<path d="M128.16,56.048h-48c-4.424,0-8,3.584-8,8s3.576,8,8,8h48c4.416,0,8-3.584,8-8S132.584,56.048,128.16,56.048z"/>
	</g>
</g>
<g>
	<g>
		<path d="M128.16,104.048h-40c-4.424,0-8,3.584-8,8s3.576,8,8,8h40c4.416,0,8-3.584,8-8S132.584,104.048,128.16,104.048z"/>
	</g>
</g>
<g>
	<g>
		<path d="M132.16,168.048h-52c-4.424,0-8,3.584-8,8s3.576,8,8,8h52c4.416,0,8-3.584,8-8S136.584,168.048,132.16,168.048z"/>
	</g>
</g>
<g>
	<g>
		<path d="M96.16,48.048c-4.424,0-8,3.584-8,8v8c0,4.416,3.576,8,8,8c4.416,0,8-3.584,8-8v-8
			C104.16,51.632,100.584,48.048,96.16,48.048z"/>
	</g>
</g>
<g>
	<g>
		<path d="M120.16,48.048c-4.424,0-8,3.584-8,8v8c0,4.416,3.576,8,8,8c4.416,0,8-3.584,8-8v-8
			C128.16,51.632,124.584,48.048,120.16,48.048z"/>
	</g>
</g>
<g>
	<g>
		<path d="M96.16,168.048c-4.424,0-8,3.584-8,8v8c0,4.416,3.576,8,8,8c4.416,0,8-3.584,8-8v-8
			C104.16,171.632,100.584,168.048,96.16,168.048z"/>
	</g>
</g>
<g>
	<g>
		<path d="M120.16,168.048c-4.424,0-8,3.584-8,8v8c0,4.416,3.576,8,8,8c4.416,0,8-3.584,8-8v-8
			C128.16,171.632,124.584,168.048,120.16,168.048z"/>
	</g>
</g>
<g>
	<g>
		<path d="M414.736,275.608c-2.456-3.68-7.416-4.664-11.096-2.216l-48,32c-3.68,2.456-4.672,7.416-2.216,11.096
			c1.536,2.312,4.08,3.56,6.664,3.56c1.52,0,3.064-0.44,4.432-1.344l48-32C416.2,284.248,417.192,279.288,414.736,275.608z"/>
	</g>
</g>
<g>
	<g>
		<path d="M408.08,272.048c-4.424,0-8,3.576-8,8v120c0,4.424,3.576,8,8,8c4.424,0,8-3.576,8-8v-120
			C416.08,275.624,412.504,272.048,408.08,272.048z"/>
	</g>
</g>
<g>
	<g>
		<path d="M376.08,293.384c-4.424,0-8,3.576-8,8v98.664c0,4.424,3.576,8,8,8c4.424,0,8-3.576,8-8v-98.664
			C384.08,296.96,380.504,293.384,376.08,293.384z"/>
	</g>
</g>
<g>
	<g>
		<path d="M424.08,392.048h-64c-4.424,0-8,3.576-8,8s3.576,8,8,8h64c4.424,0,8-3.576,8-8S428.504,392.048,424.08,392.048z"/>
	</g>
</g>
<g>
	<g>
		<path d="M120.016,304.048c-4.424,0-8,3.576-8,8v56c0,4.424,3.576,8,8,8s8-3.576,8-8v-56
			C128.016,307.624,124.44,304.048,120.016,304.048z"/>
	</g>
</g>
<g>
	<g>
		<path d="M248.016,360.048h-128c-4.424,0-8,3.576-8,8s3.576,8,8,8h128c4.424,0,8-3.576,8-8S252.44,360.048,248.016,360.048z"/>
	</g>
</g>
<g>
	<g>
		<path d="M253.672,362.392c-3.128-3.128-8.184-3.128-11.312,0l-24,24c-3.128,3.128-3.128,8.184,0,11.312
			c1.56,1.56,3.608,2.344,5.656,2.344c2.048,0,4.096-0.784,5.656-2.344l24-24C256.8,370.576,256.8,365.52,253.672,362.392z"/>
	</g>
</g>
<g>
	<g>
		<path d="M253.672,362.392l-24-24c-3.128-3.128-8.184-3.128-11.312,0c-3.128,3.128-3.128,8.184,0,11.312l24,24
			c1.56,1.56,3.608,2.344,5.656,2.344c2.048,0,4.096-0.784,5.656-2.344C256.8,370.576,256.8,365.52,253.672,362.392z"/>
	</g>
</g>
<g>
	<g>
		<path d="M392.016,136.048c-4.424,0-8,3.584-8,8v56c0,4.416,3.576,8,8,8s8-3.584,8-8v-56
			C400.016,139.632,396.44,136.048,392.016,136.048z"/>
	</g>
</g>
<g>
	<g>
		<path d="M392.016,136.048h-128c-4.424,0-8,3.584-8,8s3.576,8,8,8h128c4.424,0,8-3.584,8-8S396.44,136.048,392.016,136.048z"/>
	</g>
</g>
<g>
	<g>
		<path d="M293.672,114.392c-3.128-3.128-8.184-3.128-11.312,0l-24,24c-3.128,3.128-3.128,8.184,0,11.312
			c1.56,1.56,3.608,2.344,5.656,2.344c2.048,0,4.096-0.784,5.656-2.344l24-24C296.8,122.576,296.8,117.52,293.672,114.392z"/>
	</g>
</g>
<g>
	<g>
		<path d="M293.672,162.392l-24-24c-3.128-3.128-8.184-3.128-11.312,0c-3.128,3.128-3.128,8.184,0,11.312l24,24
			c1.56,1.56,3.608,2.344,5.656,2.344c2.048,0,4.096-0.784,5.656-2.344C296.8,170.576,296.8,165.52,293.672,162.392z"/>
	</g>
</g>
<g>
</g>
<g>
</g>
<g>
</g>
<g>
</g>
<g>
</g>
<g>
</g>
<g>
</g>
<g>
</g>
<g>
</g>
<g>
</g>
<g>
</g>
<g>
</g>
<g>
</g>
<g>
</g>
<g>
</g>
</svg>
