<?xml version="1.0" encoding="UTF-8"?>
<svg width="71px" height="57px" viewBox="0 0 71 57" version="1.1" xmlns="http://www.w3.org/2000/svg" xmlns:xlink="http://www.w3.org/1999/xlink">
    <!-- Generator: Sketch 51.3 (57544) - http://www.bohemiancoding.com/sketch -->
    <desc>Created with Sketch.</desc>
    <defs></defs>
    <g id="FLOW" stroke="none" stroke-width="1" fill="none" fill-rule="evenodd">
        <path d="M44.125,26.9196795 L49.875,26.9196795 L49.875,21.1597507 L44.125,21.1597507 L44.125,26.9196795 Z M32.625,26.9196795 L38.375,26.9196795 L38.375,21.1597507 L32.625,21.1597507 L32.625,26.9196795 Z M21.125,26.9196795 L26.875,26.9196795 L26.875,21.1597507 L21.125,21.1597507 L21.125,26.9196795 Z M6.75,49.9593946 L6.75,44.1994658 L64.25,44.1994658 L64.252875,49.9593946 L6.75,49.9593946 Z M12.5,6.75992877 L58.5,6.75992877 L58.502875,38.439537 L12.5,38.439537 L12.5,6.75992877 Z M64.25,38.439537 L64.25,6.75992877 C64.25,3.58332805 61.671125,1 58.5,1 L12.5,1 C9.328875,1 6.75,3.58332805 6.75,6.75992877 L6.75,38.439537 L1,38.439537 L1,49.9593946 C1,53.1359953 3.578875,55.7193233 6.75,55.7193233 L64.25,55.7193233 C67.421125,55.7193233 70,53.1359953 70,49.9593946 L70,38.439537 L64.25,38.439537 Z" id="Fill-3" stroke="#FFFFFF" stroke-width="1.9" fill="#FFAF3C"></path>
    </g>
</svg>