<?xml version="1.0" encoding="UTF-8"?>
<svg width="62px" height="62px" viewBox="0 0 62 62" version="1.1" xmlns="http://www.w3.org/2000/svg" xmlns:xlink="http://www.w3.org/1999/xlink">
    <!-- Generator: Sketch 51.3 (57544) - http://www.bohemiancoding.com/sketch -->
    <desc>Created with Sketch.</desc>
    <defs></defs>
    <g id="FLOW" stroke="none" stroke-width="1" fill="none" fill-rule="evenodd">
        <path d="M31.25,6.04166667 C45.149875,6.04166667 56.4583333,17.350125 56.4583333,31.25 C56.4583333,45.149875 45.149875,56.4583333 31.25,56.4583333 C17.350125,56.4583333 6.04166667,45.149875 6.04166667,31.25 C6.04166667,17.350125 17.350125,6.04166667 31.25,6.04166667 Z M31.25,1 C14.5444375,1 1,14.5444375 1,31.25 C1,47.9555625 14.5444375,61.5 31.25,61.5 C47.9555625,61.5 61.5,47.9555625 61.5,31.25 C61.5,14.5444375 47.9555625,1 31.25,1 Z M31.25,46.375 L31.25,42.5660208 L29.9895833,42.5660208 L29.9895833,46.375 L27.46875,46.375 L27.46875,42.5660208 L21.207,42.5660208 L21.8372083,38.8125 L23.1959375,38.8125 C24.3101458,38.8125 24.9479167,37.7411458 24.9479167,36.6597083 L24.9479167,25.457125 C24.9479167,24.4084583 24.337875,23.6875 23.2261875,23.6875 L21.1666667,23.6875 L21.1666667,19.90625 L27.46875,19.90625 L27.46875,16.125 L29.9895833,16.125 L29.9895833,19.90625 L31.25,19.90625 L31.25,16.125 L33.7708333,16.125 L33.7708333,19.9717917 C39.2107917,20.1558125 41.3635833,22.2178542 41.9811875,24.5395417 C42.7122292,27.28725 40.89975,29.5938125 39.3443958,30.1559583 C41.2350208,30.6399583 43.8541667,32.0365 43.8541667,35.2631667 C43.8541667,39.6544583 40.4661667,42.59375 33.7708333,42.59375 L33.7708333,46.375 L31.25,46.375 Z M29.9895833,32.5028542 L29.9895833,38.8125 C34.9909167,38.8125 38.41925,38.3385833 38.41925,35.6412917 C38.41925,32.747375 34.7161458,32.5028542 29.9895833,32.5028542 Z M29.9895833,29.9895833 C32.7751042,29.9895833 37.0201875,29.7929583 37.0201875,26.8385417 C37.0201875,24.3177083 34.4010417,23.6875 29.9895833,23.6875 L29.9895833,29.9895833 Z" id="Shape" stroke="#FFFFFF" stroke-width="0.7" fill="#FFAF3C" fill-rule="nonzero"></path>
    </g>
</svg>