<?xml version="1.0" encoding="iso-8859-1"?>
<!-- Generator: Adobe Illustrator 19.0.0, SVG Export Plug-In . SVG Version: 6.00 Build 0)  -->
<svg version="1.1" id="Capa_1" xmlns="http://www.w3.org/2000/svg" xmlns:xlink="http://www.w3.org/1999/xlink" x="0px" y="0px"
	 viewBox="0 0 511.922 511.922" style="enable-background:new 0 0 511.922 511.922;" xml:space="preserve">
<g>
	<g>
		<path d="M139.568,131.321h-0.088c-4.416,0-7.952,3.576-7.952,8s3.616,8,8.04,8c4.416,0,8-3.576,8-8
			S143.984,131.321,139.568,131.321z"/>
	</g>
</g>
<g>
	<g>
		<path d="M453.968,272.961L218.504,37.505C194.336,13.321,162.184,0.009,128,0.009c-34.192,0-66.336,13.32-90.504,37.496
			C13.312,61.673,0,93.825,0,128.009c0,34.192,13.32,66.336,37.496,90.512l235.456,235.456c1.56,1.56,3.608,2.344,5.656,2.344
			c2.048,0,4.096-0.784,5.656-2.344l169.704-169.704c1.504-1.496,2.344-3.528,2.344-5.656S455.472,274.465,453.968,272.961z
			 M278.616,437.009l-229.8-229.8c-21.16-21.152-32.808-49.28-32.808-79.2c0-29.912,11.648-58.032,32.808-79.192
			c21.144-21.16,49.272-32.808,79.192-32.808c29.912,0,58.04,11.648,79.192,32.8l229.816,229.8L278.616,437.009z"/>
	</g>
</g>
<g>
	<g>
		<path d="M396.44,498.257l-83.888-83.88c-3.128-3.128-8.184-3.128-11.312,0c-3.128,3.128-3.128,8.184,0,11.312l83.896,83.88
			c1.56,1.56,3.608,2.344,5.656,2.344c2.04,0,4.088-0.784,5.648-2.344C399.568,506.441,399.568,501.385,396.44,498.257z"/>
	</g>
</g>
<g>
	<g>
		<path d="M509.576,385.129c-3.128-3.128-8.184-3.128-11.312,0L385.136,498.257c-3.128,3.128-3.128,8.184,0,11.312
			c1.56,1.56,3.608,2.344,5.656,2.344c2.04,0,4.088-0.784,5.656-2.344l113.128-113.128
			C512.704,393.313,512.704,388.257,509.576,385.129z"/>
	</g>
</g>
<g>
	<g>
		<path d="M509.568,385.129l-83.88-83.888c-3.128-3.128-8.184-3.128-11.312,0c-3.128,3.128-3.128,8.184,0,11.312l83.88,83.896
			c1.56,1.56,3.608,2.344,5.656,2.344c2.048,0,4.096-0.784,5.656-2.352C512.696,393.313,512.696,388.257,509.568,385.129z"/>
	</g>
</g>
<g>
	<g>
		<path d="M388.432,399.761c-3.128-3.128-8.184-3.128-11.312,0l-22.632,22.624c-3.128,3.128-3.128,8.184,0,11.312
			c1.56,1.56,3.608,2.344,5.656,2.344c2.048,0,4.096-0.784,5.656-2.344l22.632-22.624
			C391.56,407.945,391.56,402.889,388.432,399.761z"/>
	</g>
</g>
<g>
	<g>
		<path d="M433.688,354.505c-3.128-3.128-8.184-3.128-11.312,0l-22.624,22.632c-3.128,3.128-3.128,8.184,0,11.312
			c1.56,1.56,3.608,2.344,5.656,2.344c2.048,0,4.088-0.784,5.656-2.344l22.624-22.632
			C436.816,362.689,436.816,357.633,433.688,354.505z"/>
	</g>
</g>
<g>
	<g>
		<path d="M365.8,422.385l-5.864-5.864c-3.128-3.128-8.184-3.128-11.312,0c-3.128,3.128-3.128,8.184,0,11.312l5.864,5.864
			c1.56,1.56,3.608,2.344,5.656,2.344c2.048,0,4.096-0.784,5.656-2.344C368.928,430.569,368.928,425.513,365.8,422.385z"/>
	</g>
</g>
<g>
	<g>
		<path d="M388.44,399.761l-5.872-5.872c-3.128-3.128-8.184-3.128-11.312,0c-3.128,3.128-3.128,8.184,0,11.312l5.872,5.872
			c1.56,1.56,3.608,2.344,5.656,2.344c2.04,0,4.088-0.784,5.656-2.344C391.568,407.945,391.568,402.889,388.44,399.761z"/>
	</g>
</g>
<g>
	<g>
		<path d="M411.064,377.129l-5.856-5.864c-3.128-3.128-8.192-3.12-11.32-0.008c-3.128,3.128-3.128,8.184-0.008,11.32l5.856,5.864
			c1.56,1.56,3.616,2.344,5.664,2.344c2.048,0,4.088-0.784,5.656-2.336C414.184,385.321,414.184,380.265,411.064,377.129z"/>
	</g>
</g>
<g>
	<g>
		<path d="M433.696,354.489l-5.872-5.864c-3.128-3.112-8.192-3.12-11.32,0.008c-3.12,3.136-3.12,8.192,0.008,11.32l5.872,5.864
			c1.56,1.552,3.608,2.336,5.656,2.336c2.048,0,4.096-0.776,5.664-2.344C436.824,362.673,436.824,357.617,433.696,354.489z"/>
	</g>
</g>
<g>
	<g>
		<path d="M212.864,111.041c-13.6-13.6-31.68-21.096-50.912-21.096s-37.312,7.496-50.904,21.088
			c-28.08,28.072-28.08,73.752,0,101.832c13.592,13.592,31.672,21.088,50.896,21.088c19.232,0,37.32-7.496,50.92-21.096
			C240.936,184.785,240.936,139.113,212.864,111.041z M201.552,201.537c-10.576,10.584-24.648,16.416-39.608,16.416
			c-14.952,0-29.016-5.832-39.584-16.4c-21.832-21.832-21.832-57.376,0-79.208c10.576-10.568,24.632-16.4,39.592-16.4
			c14.952,0,29.024,5.832,39.6,16.408C223.384,144.185,223.384,179.705,201.552,201.537z"/>
	</g>
</g>
<g>
	<g>
		<path d="M322.696,288.737l-99.944-99.944c-3.128-3.128-8.184-3.128-11.312,0c-3.128,3.128-3.128,8.184,0,11.312l99.944,99.944
			c1.56,1.56,3.608,2.344,5.656,2.344c2.048,0,4.088-0.784,5.656-2.344C325.824,296.921,325.824,291.865,322.696,288.737z"/>
	</g>
</g>
<g>
	<g>
		<path d="M300.056,311.369l-99.944-99.944c-3.128-3.128-8.184-3.128-11.312,0c-3.128,3.128-3.128,8.184,0,11.312l99.952,99.944
			c1.56,1.56,3.608,2.344,5.656,2.344c2.048,0,4.088-0.784,5.648-2.344C303.184,319.553,303.184,314.497,300.056,311.369z"/>
	</g>
</g>
<g>
	<g>
		<path d="M322.696,288.737c-3.128-3.128-8.184-3.128-11.312,0l-22.632,22.632c-3.128,3.128-3.128,8.184,0,11.312
			c1.56,1.56,3.608,2.344,5.656,2.344c2.048,0,4.088-0.784,5.656-2.344l22.632-22.632
			C325.824,296.921,325.824,291.865,322.696,288.737z"/>
	</g>
</g>
<g>
	<g>
		<path d="M286.408,297.713c-3.128-3.128-8.184-3.128-11.312,0l-22.632,22.632c-3.128,3.128-3.128,8.184,0,11.312
			c1.56,1.56,3.608,2.344,5.656,2.344c2.04,0,4.088-0.784,5.656-2.344l22.632-22.632
			C289.536,305.897,289.536,300.841,286.408,297.713z"/>
	</g>
</g>
<g>
	<g>
		<path d="M263.776,320.345l-28.28-28.288c-3.128-3.128-8.184-3.128-11.312,0c-3.128,3.128-3.128,8.184,0,11.312l28.28,28.288
			c1.56,1.56,3.608,2.344,5.656,2.344c2.04,0,4.088-0.784,5.656-2.344C266.904,328.529,266.904,323.473,263.776,320.345z"/>
	</g>
</g>
<g>
	<g>
		<path d="M258.112,269.433c-3.128-3.128-8.184-3.128-11.312,0l-22.624,22.624c-3.128,3.128-3.128,8.184,0,11.312
			c1.56,1.56,3.608,2.344,5.656,2.344c2.048,0,4.096-0.784,5.656-2.344l22.624-22.624
			C261.24,277.617,261.24,272.561,258.112,269.433z"/>
	</g>
</g>
<g>
</g>
<g>
</g>
<g>
</g>
<g>
</g>
<g>
</g>
<g>
</g>
<g>
</g>
<g>
</g>
<g>
</g>
<g>
</g>
<g>
</g>
<g>
</g>
<g>
</g>
<g>
</g>
<g>
</g>
</svg>
