<?xml version="1.0" encoding="iso-8859-1"?>
<!-- Generator: Adobe Illustrator 19.0.0, SVG Export Plug-In . SVG Version: 6.00 Build 0)  -->
<svg version="1.1" id="Capa_1" xmlns="http://www.w3.org/2000/svg" xmlns:xlink="http://www.w3.org/1999/xlink" x="0px" y="0px"
	 viewBox="0 0 512 512" style="enable-background:new 0 0 512 512;" xml:space="preserve">
<g>
	<g>
		<path d="M246.623,0c-48.52,0-88,39.48-88,88s39.48,88,88,88c48.528,0,88-39.48,88-88S295.143,0,246.623,0z M246.623,160
			c-39.704,0-72-32.296-72-72s32.296-72,72-72c39.704,0,72,32.296,72,72S286.327,160,246.623,160z"/>
	</g>
</g>
<g>
	<g>
		<path d="M326.623,111.992c-4.424,0-8,3.576-8,8c0,39.704-32.296,72-72,72c-39.704,0-72-32.296-72-72c0-4.424-3.576-8-8-8
			c-4.424,0-8,3.576-8,8c0,48.52,39.48,88,88,88c48.528,0,88-39.48,88-88C334.623,115.568,331.047,111.992,326.623,111.992z"/>
	</g>
</g>
<g>
	<g>
		<path d="M326.623,80c-4.424,0-8,3.576-8,8v31.992c0,4.424,3.576,8,8,8s8-3.576,8-8V88C334.623,83.576,331.047,80,326.623,80z"/>
	</g>
</g>
<g>
	<g>
		<path d="M230.623,40c-4.424,0-8,3.576-8,8v72c0,4.424,3.576,8,8,8s8-3.576,8-8V48C238.623,43.576,235.047,40,230.623,40z"/>
	</g>
</g>
<g>
	<g>
		<path d="M254.623,40c-4.424,0-8,3.576-8,8s3.576,8,8,8c4.416,0,8,3.584,8,7.992c0,4.416-3.584,8-8,8c-4.424,0-8,3.576-8,8
			s3.576,8,8,8c13.232,0,24-10.768,24-24C278.623,50.768,267.855,40,254.623,40z"/>
	</g>
</g>
<g>
	<g>
		<path d="M258.615,71.984c-4.424,0-8,3.576-8,8s3.576,8,8,8c6.616,0,12.008,5.392,12.008,12.016c0,6.616-5.392,12-12.008,12
			c-4.424,0-8,3.576-8,8s3.576,8,8,8c15.448,0,28.008-12.56,28.008-28C286.623,84.552,274.063,71.984,258.615,71.984z"/>
	</g>
</g>
<g>
	<g>
		<path d="M254.623,40h-32c-4.424,0-8,3.576-8,8s3.576,8,8,8h32c4.424,0,8-3.576,8-8S259.047,40,254.623,40z"/>
	</g>
</g>
<g>
	<g>
		<path d="M258.615,112h-35.992c-4.424,0-8,3.576-8,8s3.576,8,8,8h35.992c4.424,0,8-3.576,8-8S263.039,112,258.615,112z"/>
	</g>
</g>
<g>
	<g>
		<path d="M258.615,71.984c0,0,0,0-0.008,0L230.615,72c-4.416,0-7.992,3.584-7.992,8.008c0,4.416,3.584,7.992,8,7.992l28-0.016
			c4.416,0,7.992-3.584,7.992-8.008C266.615,75.56,263.031,71.984,258.615,71.984z"/>
	</g>
</g>
<g>
	<g>
		<path d="M246.623,31.992c-4.424,0-8,3.576-8,8V48c0,4.424,3.576,8,8,8s8-3.576,8-8v-8.008
			C254.623,35.568,251.047,31.992,246.623,31.992z"/>
	</g>
</g>
<g>
	<g>
		<path d="M246.623,112c-4.424,0-8,3.576-8,8v8c0,4.424,3.576,8,8,8s8-3.576,8-8v-8C254.623,115.576,251.047,112,246.623,112z"/>
	</g>
</g>
<g>
	<g>
		<path d="M246.623,160c-4.424,0-8,3.576-8,8v31.992c0,4.424,3.576,8,8,8s8-3.576,8-8V168C254.623,163.576,251.047,160,246.623,160z
			"/>
	</g>
</g>
<g>
	<g>
		<path d="M286.623,149.296c-4.424,0-8,3.576-8,8v31.984c0,4.424,3.576,8,8,8s8-3.576,8-8v-31.984
			C294.623,152.872,291.047,149.296,286.623,149.296z"/>
	</g>
</g>
<g>
	<g>
		<path d="M206.623,149.296c-4.424,0-8,3.576-8,8v31.984c0,4.424,3.576,8,8,8s8-3.576,8-8v-31.984
			C214.623,152.872,211.047,149.296,206.623,149.296z"/>
	</g>
</g>
<g>
	<g>
		<path d="M166.623,80c-4.424,0-8,3.576-8,8v31.992c0,4.424,3.576,8,8,8s8-3.576,8-8V88C174.623,83.576,171.047,80,166.623,80z"/>
	</g>
</g>
<g>
	<g>
		<path d="M342.535,336H150.719c-4.424,0-8,3.576-8,8v24c0,4.424,3.576,8,8,8h191.808c4.424,0,8-3.576,8.008-8v-24
			C350.535,339.576,346.959,336,342.535,336z M334.535,360H158.719v-8h175.816V360z"/>
	</g>
</g>
<g>
	<g>
		<path d="M190.503,502.608l-24.096-136c-0.768-4.344-4.848-7.256-9.272-6.48c-4.344,0.768-7.256,4.92-6.48,9.272l24.096,136
			c0.688,3.872,4.056,6.6,7.864,6.6c0.464,0,0.928-0.04,1.408-0.12C188.367,511.112,191.279,506.96,190.503,502.608z"/>
	</g>
</g>
<g>
	<g>
		<path d="M335.975,360.12c-4.44-0.792-8.496,2.136-9.272,6.48l-24.096,136c-0.768,4.352,2.136,8.504,6.48,9.272
			c0.48,0.088,0.944,0.128,1.408,0.128c3.8,0,7.176-2.728,7.864-6.608l24.096-136C343.223,365.04,340.319,360.888,335.975,360.12z"
			/>
	</g>
</g>
<g>
	<g>
		<path d="M310.479,496H182.623c-4.424,0-8,3.576-8,8s3.576,8,8,8h127.864c4.416,0,7.992-3.576,7.992-8S314.903,496,310.479,496z"/>
	</g>
</g>
<g>
	<g>
		<path d="M246.631,191.992c-0.008,0-0.008,0-0.008,0c-4.416,0-8,3.576-8,7.992l-0.096,144.008c0,4.424,3.576,8.008,8,8.008
			c4.416,0,8-3.576,8-7.992L254.623,200C254.623,195.576,251.047,191.992,246.631,191.992z"/>
	</g>
</g>
<g>
	<g>
		<path d="M364.183,210.344c-3.384-3.384-8.096-5.104-14.008-5.104c-22.544,0-64.84,27.384-75.928,38.48
			c-7.552,7.544-11.72,17.592-11.72,28.28s4.168,20.736,11.72,28.28c7.544,7.552,17.592,11.72,28.28,11.72s20.736-4.168,28.28-11.72
			c7.672-7.672,19.512-25.456,27.544-41.368C370.639,234.584,372.543,218.696,364.183,210.344z M319.495,288.968
			c-9.064,9.064-24.872,9.064-33.936,0c-4.528-4.528-7.032-10.552-7.032-16.968c0-6.416,2.504-12.44,7.032-16.968
			c10.544-10.56,48.68-33.792,64.616-33.792c1.968,0,2.656,0.392,2.672,0.392C358.023,228.776,334.263,274.208,319.495,288.968z"/>
	</g>
</g>
<g>
	<g>
		<path d="M309.551,264.96c-3.112-3.112-8.184-3.128-11.312,0.016l-57.28,57.376c-3.12,3.128-3.12,8.184,0.016,11.312
			c1.552,1.552,3.6,2.336,5.648,2.336c2.048,0,4.104-0.784,5.664-2.352l57.28-57.376
			C312.687,273.144,312.687,268.088,309.551,264.96z"/>
	</g>
</g>
<g>
	<g>
		<path d="M222.319,232.352c-7.2-7.208-29.232-20.44-43.608-20.44c-6.24,0-9.96,2.416-11.984,4.44
			c-6.048,6.056-5.896,16.496,0.472,31.008c4.168,9.496,10.552,19.608,15.528,24.584c5.296,5.288,12.32,8.2,19.8,8.2
			s14.512-2.92,19.792-8.2C233.231,261.032,233.231,243.264,222.319,232.352z M211.015,260.624c-4.528,4.528-12.44,4.528-16.968,0
			c-7.288-7.28-16.52-26.68-15.808-32.704c0.136-0.008,0.296-0.016,0.48-0.016c8.368,0,26.504,9.968,32.296,15.752
			C215.695,248.336,215.695,255.944,211.015,260.624z"/>
	</g>
</g>
<g>
	<g>
		<path d="M252.127,290.424l-29.8-29.8c-3.128-3.128-8.184-3.128-11.312,0c-3.128,3.128-3.128,8.184,0,11.312l29.8,29.8
			c1.56,1.56,3.608,2.344,5.656,2.344c2.04,0,4.088-0.784,5.656-2.344C255.255,298.608,255.255,293.552,252.127,290.424z"/>
	</g>
</g>
<g>
	<g>
		<path d="M214.527,488c-4.424,0-8,3.576-8,8v8c0,4.424,3.576,8,8,8s8-3.576,8-8v-8C222.527,491.576,218.951,488,214.527,488z"/>
	</g>
</g>
<g>
	<g>
		<path d="M246.527,488c-4.424,0-8,3.576-8,8v8c0,4.424,3.576,8,8,8s8-3.576,8-8v-8C254.527,491.576,250.951,488,246.527,488z"/>
	</g>
</g>
<g>
	<g>
		<path d="M278.527,488c-4.424,0-8,3.576-8,8v8c0,4.424,3.576,8,8,8s8-3.576,8-8v-8C286.527,491.576,282.951,488,278.527,488z"/>
	</g>
</g>
<g>
</g>
<g>
</g>
<g>
</g>
<g>
</g>
<g>
</g>
<g>
</g>
<g>
</g>
<g>
</g>
<g>
</g>
<g>
</g>
<g>
</g>
<g>
</g>
<g>
</g>
<g>
</g>
<g>
</g>
</svg>
