<?xml version="1.0" encoding="iso-8859-1"?>
<!-- Generator: Adobe Illustrator 19.0.0, SVG Export Plug-In . SVG Version: 6.00 Build 0)  -->
<svg version="1.1" id="Capa_1" xmlns="http://www.w3.org/2000/svg" xmlns:xlink="http://www.w3.org/1999/xlink" x="0px" y="0px"
	 viewBox="0 0 512 512" style="enable-background:new 0 0 512 512;" xml:space="preserve">
<g>
	<g>
		<path d="M424,264c-48.52,0-88,39.48-88,88c0,48.52,39.48,88,88,88c48.52,0,88-39.48,88-88C512,303.48,472.52,264,424,264z
			 M424,424c-39.704,0-72-32.296-72-72c0-39.704,32.296-72,72-72c39.704,0,72,32.296,72,72C496,391.704,463.704,424,424,424z"/>
	</g>
</g>
<g>
	<g>
		<path d="M504,376c-4.424,0-8,3.576-8,8c0,39.704-32.296,72-72,72c-39.704,0-72-32.296-72-72c0-4.424-3.576-8-8-8s-8,3.576-8,8
			c0,48.52,39.48,88,88,88c48.52,0,88-39.48,88-88C512,379.576,508.424,376,504,376z"/>
	</g>
</g>
<g>
	<g>
		<path d="M504,344c-4.424,0-8,3.576-8,8v32c0,4.424,3.576,8,8,8s8-3.576,8-8v-32C512,347.576,508.424,344,504,344z"/>
	</g>
</g>
<g>
	<g>
		<path d="M408,304c-4.424,0-8,3.576-8,8v72c0,4.424,3.576,8,8,8s8-3.576,8-8v-72C416,307.576,412.424,304,408,304z"/>
	</g>
</g>
<g>
	<g>
		<path d="M432,304c-4.424,0-8,3.576-8,8s3.576,8,8,8c4.416,0,8,3.584,8,8c0,4.416-3.584,8-8,8c-4.424,0-8,3.576-8,8s3.576,8,8,8
			c13.232,0,24-10.768,24-24S445.232,304,432,304z"/>
	</g>
</g>
<g>
	<g>
		<path d="M435.992,335.984c-4.424,0-8,3.576-8,8s3.576,8,8,8c6.616,0,12.008,5.392,12.008,12.016c0,6.616-5.392,12-12.008,12
			c-4.424,0-8,3.576-8,8s3.576,8,8,8C451.44,392,464,379.44,464,364C464,348.552,451.44,335.984,435.992,335.984z"/>
	</g>
</g>
<g>
	<g>
		<path d="M432,304h-32c-4.424,0-8,3.576-8,8s3.576,8,8,8h32c4.424,0,8-3.576,8-8S436.424,304,432,304z"/>
	</g>
</g>
<g>
	<g>
		<path d="M435.992,376H400c-4.424,0-8,3.576-8,8s3.576,8,8,8h35.992c4.424,0,8-3.576,8-8S440.416,376,435.992,376z"/>
	</g>
</g>
<g>
	<g>
		<path d="M435.992,335.984c0,0,0,0-0.008,0L407.992,336c-4.416,0-7.992,3.584-7.992,8.008c0,4.416,3.584,7.992,8,7.992l28-0.016
			c4.416,0,7.992-3.584,7.992-8.008C443.992,339.56,440.408,335.984,435.992,335.984z"/>
	</g>
</g>
<g>
	<g>
		<path d="M424,296c-4.424,0-8,3.576-8,8v8c0,4.424,3.576,8,8,8s8-3.576,8-8v-8C432,299.576,428.424,296,424,296z"/>
	</g>
</g>
<g>
	<g>
		<path d="M424,376c-4.424,0-8,3.576-8,8v8c0,4.424,3.576,8,8,8s8-3.576,8-8v-8C432,379.576,428.424,376,424,376z"/>
	</g>
</g>
<g>
	<g>
		<path d="M424,424c-4.424,0-8,3.576-8,8v32c0,4.424,3.576,8,8,8s8-3.576,8-8v-32C432,427.576,428.424,424,424,424z"/>
	</g>
</g>
<g>
	<g>
		<path d="M464,413.296c-4.424,0-8,3.576-8,8v31.984c0,4.424,3.576,8,8,8s8-3.576,8-8v-31.984
			C472,416.872,468.424,413.296,464,413.296z"/>
	</g>
</g>
<g>
	<g>
		<path d="M384,413.296c-4.424,0-8,3.576-8,8v31.984c0,4.424,3.576,8,8,8s8-3.576,8-8v-31.984
			C392,416.872,388.424,413.296,384,413.296z"/>
	</g>
</g>
<g>
	<g>
		<path d="M344,344c-4.424,0-8,3.576-8,8v32c0,4.424,3.576,8,8,8s8-3.576,8-8v-32C352,347.576,348.424,344,344,344z"/>
	</g>
</g>
<g>
	<g>
		<path d="M32.24,56h-0.08c-4.416,0-7.96,3.576-7.96,8s3.624,8,8.04,8s8-3.576,8-8S36.656,56,32.24,56z"/>
	</g>
</g>
<g>
	<g>
		<path d="M56.24,56h-0.08c-4.416,0-7.96,3.576-7.96,8s3.624,8,8.04,8s8-3.576,8-8S60.656,56,56.24,56z"/>
	</g>
</g>
<g>
	<g>
		<path d="M80.24,56h-0.088c-4.416,0-7.952,3.576-7.952,8s3.624,8,8.04,8s8-3.576,8-8S84.656,56,80.24,56z"/>
	</g>
</g>
<g>
	<g>
		<path d="M424.144,72h-416c-4.424,0-8,3.576-8,8v288c0,4.424,3.576,8,8,8h335.848c4.424,0,8-3.576,8-8s-3.576-8-8-8H16.144V88h400
			v184c0,4.424,3.576,8,8,8s8-3.576,8-8V80C432.144,75.576,428.568,72,424.144,72z"/>
	</g>
</g>
<g>
	<g>
		<path d="M24,40C10.768,40,0,50.768,0,64c0,4.424,3.576,8,8,8s8-3.576,8-8c0-4.416,3.584-8,8-8c4.424,0,8-3.576,8-8
			S28.424,40,24,40z"/>
	</g>
</g>
<g>
	<g>
		<path d="M8,56c-4.424,0-8,3.576-8,8v16c0,4.424,3.576,8,8,8s8-3.576,8-8V64C16,59.576,12.424,56,8,56z"/>
	</g>
</g>
<g>
	<g>
		<path d="M408,40c-4.424,0-8,3.576-8,8s3.576,8,8,8c4.416,0,8,3.584,8,8c0,4.424,3.576,8,8,8s8-3.576,8-8
			C432,50.768,421.232,40,408,40z"/>
	</g>
</g>
<g>
	<g>
		<path d="M424,56c-4.424,0-8,3.576-8,8v16c0,4.424,3.576,8,8,8s8-3.576,8-8V64C432,59.576,428.424,56,424,56z"/>
	</g>
</g>
<g>
	<g>
		<path d="M408,40H24c-4.424,0-8,3.576-8,8s3.576,8,8,8h384c4.424,0,8-3.576,8-8S412.424,40,408,40z"/>
	</g>
</g>
<g>
	<g>
		<path d="M32,72c-4.424,0-8,3.576-8,8v288c0,4.424,3.576,8,8,8s8-3.576,8-8V80C40,75.576,36.424,72,32,72z"/>
	</g>
</g>
<g>
	<g>
		<path d="M200,104H64c-4.424,0-8,3.576-8,8s3.576,8,8,8h136c4.424,0,8-3.576,8-8S204.424,104,200,104z"/>
	</g>
</g>
<g>
	<g>
		<path d="M224,136H80c-4.424,0-8,3.576-8,8s3.576,8,8,8h144c4.424,0,8-3.576,8-8S228.424,136,224,136z"/>
	</g>
</g>
<g>
	<g>
		<path d="M160,296.096H80c-4.424,0-8,3.576-8,8s3.576,8,8,8h80c4.424,0,8-3.576,8-8S164.424,296.096,160,296.096z"/>
	</g>
</g>
<g>
	<g>
		<path d="M272,136h-16c-4.424,0-8,3.576-8,8s3.576,8,8,8h16c4.424,0,8-3.576,8-8S276.424,136,272,136z"/>
	</g>
</g>
<g>
	<g>
		<path d="M112,328H64c-4.424,0-8,3.576-8,8s3.576,8,8,8h48c4.424,0,8-3.576,8-8S116.424,328,112,328z"/>
	</g>
</g>
<g>
	<g>
		<path d="M128,168H96c-4.424,0-8,3.576-8,8s3.576,8,8,8h32c4.424,0,8-3.576,8-8S132.424,168,128,168z"/>
	</g>
</g>
<g>
	<g>
		<path d="M312,168H160c-4.424,0-8,3.576-8,8s3.576,8,8,8h152c4.424,0,8-3.576,8-8S316.424,168,312,168z"/>
	</g>
</g>
<g>
	<g>
		<path d="M264,200H96c-4.424,0-8,3.576-8,8s3.576,8,8,8h168c4.424,0,8-3.576,8-8S268.424,200,264,200z"/>
	</g>
</g>
<g>
	<g>
		<path d="M184,232H96c-4.424,0-8,3.576-8,8s3.576,8,8,8h88c4.424,0,8-3.576,8-8S188.424,232,184,232z"/>
	</g>
</g>
<g>
	<g>
		<path d="M264,264H144c-4.424,0-8,3.576-8,8s3.576,8,8,8h120c4.424,0,8-3.576,8-8S268.424,264,264,264z"/>
	</g>
</g>
<g>
	<g>
		<path d="M112,264H96c-4.424,0-8,3.576-8,8s3.576,8,8,8h16c4.424,0,8-3.576,8-8S116.424,264,112,264z"/>
	</g>
</g>
<g>
	<g>
		<path d="M328,200h-32c-4.424,0-8,3.576-8,8s3.576,8,8,8h32c4.424,0,8-3.576,8-8S332.424,200,328,200z"/>
	</g>
</g>
<g>
</g>
<g>
</g>
<g>
</g>
<g>
</g>
<g>
</g>
<g>
</g>
<g>
</g>
<g>
</g>
<g>
</g>
<g>
</g>
<g>
</g>
<g>
</g>
<g>
</g>
<g>
</g>
<g>
</g>
</svg>
