<?xml version="1.0" encoding="iso-8859-1"?>
<!-- Generator: Adobe Illustrator 19.0.0, SVG Export Plug-In . SVG Version: 6.00 Build 0)  -->
<svg version="1.1" id="Capa_1" xmlns="http://www.w3.org/2000/svg" xmlns:xlink="http://www.w3.org/1999/xlink" x="0px" y="0px"
	 viewBox="0 0 511.904 511.904" style="enable-background:new 0 0 511.904 511.904;" xml:space="preserve">
<g>
	<g>
		<path d="M231.952,207.904c-4.424,0-8,3.576-8,8v80c0,4.424,3.576,8,8,8s8-3.576,8-8v-80
			C239.952,211.48,236.376,207.904,231.952,207.904z"/>
	</g>
</g>
<g>
	<g>
		<path d="M263.952,207.904c-4.424,0-8,3.576-8,8c0,4.424,3.576,8,8,8c4.416,0,8,3.584,8,7.992c0,4.408-3.584,7.992-8,7.992
			c-4.424,0-8,3.576-8,8c0,4.424,3.576,8,8,8c13.232,0,24-10.768,24-23.992S277.184,207.904,263.952,207.904z"/>
	</g>
</g>
<g>
	<g>
		<path d="M263.936,239.888c-4.424,0-8,3.576-8,8s3.576,8,8,8c8.832,0,16.016,7.184,16.016,16.016c0,8.824-7.184,16-16.016,16
			c-4.424,0-8,3.576-8,8s3.576,8,8,8c17.656,0,32.016-14.352,32.016-32C295.952,254.248,281.592,239.888,263.936,239.888z"/>
	</g>
</g>
<g>
	<g>
		<path d="M263.952,207.904h-40c-4.424,0-8,3.576-8,8c0,4.424,3.576,8,8,8h40c4.424,0,8-3.576,8-8
			C271.952,211.48,268.376,207.904,263.952,207.904z"/>
	</g>
</g>
<g>
	<g>
		<path d="M263.936,287.904h-39.984c-4.424,0-8,3.576-8,8s3.576,8,8,8h39.984c4.424,0,8-3.576,8-8S268.36,287.904,263.936,287.904z"
			/>
	</g>
</g>
<g>
	<g>
		<path d="M263.952,239.888h-32c-4.424,0-8,3.576-8,8c0,4.424,3.576,8,8,8h32c4.424,0,8-3.576,8-8
			C271.952,243.464,268.376,239.888,263.952,239.888z"/>
	</g>
</g>
<g>
	<g>
		<path d="M247.952,199.904c-4.424,0-8,3.576-8,8v8c0,4.424,3.576,8,8,8s8-3.576,8-8v-8
			C255.952,203.48,252.376,199.904,247.952,199.904z"/>
	</g>
</g>
<g>
	<g>
		<path d="M247.952,287.904c-4.424,0-8,3.576-8,8v8c0,4.424,3.576,8,8,8s8-3.576,8-8v-8
			C255.952,291.48,252.376,287.904,247.952,287.904z"/>
	</g>
</g>
<g>
	<g>
		<path d="M356.392,229.088c-7.192-26.832-24.4-49.256-48.456-63.136c-15.8-9.12-33.752-13.952-51.912-13.952
			c-37.08,0-71.616,19.928-90.128,52.008c-13.896,24.056-17.592,52.072-10.4,78.904c7.192,26.832,24.392,49.248,48.456,63.128
			c15.808,9.128,33.76,13.96,51.92,13.96c37.08,0,71.6-19.928,90.12-52.008C359.888,283.936,363.584,255.92,356.392,229.088z
			 M332.128,300c-15.664,27.144-44.88,44.008-76.256,44.008c-15.352,0-30.536-4.088-43.92-11.824
			c-20.36-11.744-34.928-30.712-41-53.408c-6.072-22.696-2.952-46.408,8.808-66.768C195.424,184.856,224.648,168,256.024,168
			c15.352,0,30.528,4.088,43.912,11.816c20.36,11.744,34.92,30.712,41,53.416C347.008,255.928,343.888,279.64,332.128,300z"/>
	</g>
</g>
<g>
	<g>
		<path d="M255.84,112c-4.424,0-8,3.576-8,8v40.016c0,4.424,3.576,8,8,8c4.424,0,8-3.576,8-8V120
			C263.84,115.576,260.264,112,255.84,112z"/>
	</g>
</g>
<g>
	<g>
		<path d="M255.84,343.832c-4.424,0-8,3.576-8,8v40.072c0,4.424,3.576,8,8,8c4.424,0,8-3.576,8-8v-40.072
			C263.84,347.408,260.264,343.832,255.84,343.832z"/>
	</g>
</g>
<g>
	<g>
		<path d="M176.768,201.056l-34.656-20.008c-3.824-2.224-8.712-0.896-10.928,2.928s-0.904,8.72,2.928,10.928l34.656,20.008
			c1.256,0.728,2.632,1.072,3.992,1.072c2.76,0,5.448-1.44,6.936-4C181.912,208.16,180.6,203.264,176.768,201.056z"/>
	</g>
</g>
<g>
	<g>
		<path d="M377.592,317l-34.704-20.04c-3.816-2.216-8.72-0.904-10.928,2.928c-2.216,3.824-0.904,8.72,2.928,10.928l34.704,20.04
			c1.256,0.728,2.632,1.072,3.992,1.072c2.768,0,5.456-1.432,6.936-4C382.736,324.104,381.424,319.208,377.592,317z"/>
	</g>
</g>
<g>
	<g>
		<path d="M179.696,299.92c-2.216-3.832-7.12-5.136-10.928-2.928l-34.656,20.016c-3.824,2.208-5.136,7.096-2.928,10.928
			c1.48,2.568,4.168,4,6.936,4c1.352,0,2.728-0.344,3.992-1.072l34.656-20.016C180.592,308.64,181.904,303.752,179.696,299.92z"/>
	</g>
</g>
<g>
	<g>
		<path d="M380.52,183.968c-2.208-3.832-7.112-5.136-10.928-2.928l-34.704,20.04c-3.824,2.208-5.136,7.096-2.928,10.928
			c1.48,2.568,4.168,4,6.936,4c1.36,0,2.736-0.344,3.992-1.072l34.704-20.04C381.416,192.688,382.728,187.8,380.52,183.968z"/>
	</g>
</g>
<g>
	<g>
		<path d="M255.936,0c-35.288,0-64,28.712-64,64c0,35.288,28.712,64,64,64s64-28.712,64-64C319.936,28.712,291.224,0,255.936,0z
			 M255.936,112c-26.472,0-48-21.528-48-48c0-26.472,21.528-48,48-48s48,21.528,48,48C303.936,90.472,282.408,112,255.936,112z"/>
	</g>
</g>
<g>
	<g>
		<path d="M255.84,39.904c-13.232,0-24,10.768-24,24c0,13.232,10.768,24,24,24c13.24,0,24-10.768,24-24
			C279.84,50.672,269.072,39.904,255.84,39.904z M255.84,71.904c-4.416,0-8-3.584-8-8c0-4.416,3.584-8,8-8c4.416,0,8,3.584,8,8
			C263.84,68.32,260.256,71.904,255.84,71.904z"/>
	</g>
</g>
<g>
	<g>
		<path d="M295.872,109.536c-1.232-21.104-18.776-37.632-39.936-37.632c-21.144,0-38.688,16.52-39.92,37.616
			c-0.264,4.416,3.096,8.2,7.512,8.456c4.384,0.192,8.2-3.104,8.456-7.512c0.744-12.648,11.264-22.552,23.952-22.552
			c12.696,0,23.224,9.912,23.968,22.568c0.248,4.248,3.776,7.528,7.976,7.528c0.16,0,0.32-0.008,0.48-0.016
			C292.768,117.728,296.128,113.952,295.872,109.536z"/>
	</g>
</g>
<g>
	<g>
		<path d="M255.936,383.904c-35.288,0-64,28.712-64,64c0,35.288,28.712,64,64,64s64-28.712,64-64
			C319.936,412.616,291.224,383.904,255.936,383.904z M255.936,495.904c-26.472,0-48-21.528-48-48c0-26.472,21.528-48,48-48
			s48,21.528,48,48C303.936,474.376,282.408,495.904,255.936,495.904z"/>
	</g>
</g>
<g>
	<g>
		<path d="M255.84,423.808c-13.232,0-24,10.768-24,24s10.768,24,24,24c13.24,0,24-10.768,24-24S269.072,423.808,255.84,423.808z
			 M255.84,455.808c-4.416,0-8-3.584-8-8c0-4.416,3.584-8,8-8c4.416,0,8,3.584,8,8C263.84,452.224,260.256,455.808,255.84,455.808z"
			/>
	</g>
</g>
<g>
	<g>
		<path d="M295.872,493.44c-1.232-21.104-18.776-37.632-39.936-37.632c-21.144,0-38.688,16.52-39.92,37.616
			c-0.264,4.416,3.096,8.2,7.512,8.456c4.384,0.24,8.2-3.104,8.456-7.512c0.744-12.648,11.264-22.552,23.952-22.552
			c12.696,0,23.224,9.912,23.968,22.568c0.248,4.248,3.776,7.528,7.976,7.528c0.16,0,0.32-0.008,0.48-0.016
			C292.768,501.632,296.128,497.856,295.872,493.44z"/>
	</g>
</g>
<g>
	<g>
		<path d="M134.96,114.736c-12.088-12.096-28.16-18.752-45.256-18.752c-35.288,0-64,28.712-64,64c0,35.28,28.712,63.992,64,64
			c35.288-0.008,64-28.72,64-63.992C153.712,142.904,147.056,126.824,134.96,114.736z M89.704,207.984
			c-26.472-0.008-48-21.536-48-48c0-26.472,21.528-48,48-48c12.816,0,24.872,4.992,33.944,14.064
			c9.072,9.072,14.064,21.112,14.056,33.936C137.704,186.448,116.176,207.976,89.704,207.984z"/>
	</g>
</g>
<g>
	<g>
		<path d="M89.608,135.888c-13.232,0-24,10.768-24,24c0,13.216,10.768,23.984,24,24c13.232,0,24-10.768,24-24.016
			C113.608,146.648,102.84,135.888,89.608,135.888z M89.616,167.888c-4.416-0.008-8.008-3.592-8.008-8c0-4.416,3.584-8,8-8
			s8,3.576,8,7.984C97.608,164.296,94.024,167.888,89.616,167.888z"/>
	</g>
</g>
<g>
	<g>
		<path d="M129.624,205.528c-1.232-21.112-18.776-37.64-39.92-37.64s-38.688,16.52-39.92,37.624c-0.264,4.416,3.096,8.2,7.512,8.456
			c4.304,0.216,8.2-3.104,8.456-7.512c0.744-12.648,11.264-22.56,23.952-22.56s23.208,9.912,23.952,22.576
			c0.248,4.248,3.776,7.528,7.976,7.528c0.152,0,0.32-0.008,0.48-0.016C126.512,213.72,129.88,209.944,129.624,205.528z"/>
	</g>
</g>
<g>
	<g>
		<path d="M422.152,287.936c-35.272,0-63.968,28.712-63.968,64c0,35.288,28.704,64,63.984,64c17.104,0,33.176-6.656,45.264-18.744
			c12.088-12.088,18.744-28.16,18.736-45.256C486.168,316.648,457.448,287.936,422.152,287.936z M456.12,385.88
			c-9.072,9.064-21.12,14.056-33.952,14.056c-26.464,0-47.984-21.528-47.984-48c0-12.816,4.992-24.872,14.056-33.936
			c9.064-9.072,21.104-14.064,33.928-14.064c26.472,0,48,21.528,48,48.008C470.176,364.752,465.184,376.808,456.12,385.88z"/>
	</g>
</g>
<g>
	<g>
		<path d="M422.08,327.84c-13.232,0-24,10.768-24,24.016c0.024,13.224,10.8,23.984,24.016,23.984c13.208,0,23.976-10.752,24-24.016
			C446.072,338.6,435.296,327.84,422.08,327.84z M422.096,359.84c-4.416,0-8.008-3.592-8.016-8c0-4.416,3.584-8,8-8
			c4.408,0,8.008,3.6,8.016,7.984C430.088,356.248,426.504,359.84,422.096,359.84z"/>
	</g>
</g>
<g>
	<g>
		<path d="M462.112,397.48c-1.232-21.112-18.776-37.64-39.936-37.64c-21.136,0-38.672,16.52-39.904,37.624
			c-0.264,4.416,3.096,8.2,7.512,8.456c4.336,0.184,8.2-3.104,8.456-7.512c0.744-12.648,11.256-22.56,23.936-22.56
			c12.696,0,23.224,9.912,23.968,22.576c0.248,4.248,3.776,7.528,7.976,7.528c0.152,0,0.32-0.008,0.48-0.016
			C459,405.672,462.368,401.896,462.112,397.48z"/>
	</g>
</g>
<g>
	<g>
		<path d="M89.72,287.936c-35.272,0-63.984,28.712-64,64c0,35.28,28.696,63.984,63.992,63.984c0.008,0,0.04,0,0.04,0
			c35.264,0,63.968-28.704,63.984-63.992C153.72,316.648,125.016,287.936,89.72,287.936z M89.752,399.92v8l-0.064-8
			c-26.448,0-47.968-21.52-47.968-47.976c0.016-26.48,21.544-48.008,48.032-48.008c26.44,0,47.968,21.528,47.984,47.992
			C137.72,378.392,116.2,399.92,89.752,399.92z"/>
	</g>
</g>
<g>
	<g>
		<path d="M106.608,334.872c-4.52-4.536-10.552-7.032-16.968-7.032c-13.24,0-24.016,10.76-24.016,23.984c0,13.232,10.768,24,24,24
			s24-10.768,24-24.008C113.624,345.408,111.128,339.392,106.608,334.872z M89.624,359.824c-4.416,0-8-3.584-8-8
			c0-4.408,3.6-7.984,8.032-7.984c4.392,0,7.968,3.584,7.968,7.976C97.624,356.232,94.04,359.824,89.624,359.824z"/>
	</g>
</g>
<g>
	<g>
		<path d="M129.656,397.456c-1.256-21.104-18.792-37.632-39.936-37.632s-38.688,16.52-39.92,37.624
			c-0.264,4.416,3.096,8.2,7.512,8.456c4.288,0.2,8.2-3.104,8.456-7.512c0.744-12.648,11.264-22.56,23.952-22.56
			s23.208,9.92,23.968,22.584c0.248,4.248,3.776,7.52,7.976,7.52c0.16,0,0.32-0.008,0.488-0.016
			C126.552,405.656,129.92,401.872,129.656,397.456z"/>
	</g>
</g>
<g>
	<g>
		<path d="M422.168,95.984c-35.272,0-63.968,28.712-63.968,64c0,35.272,28.704,63.984,63.984,64c35.28,0,64-28.712,64.016-64.008
			C486.184,124.696,457.456,95.984,422.168,95.984z M422.192,207.984c-26.464-0.016-47.992-21.544-47.992-48
			c0-12.816,4.992-24.872,14.056-33.936c9.064-9.072,21.104-14.064,33.928-14.064c26.464,0,48,21.528,48.016,47.992
			C470.184,186.448,448.648,207.984,422.192,207.984z"/>
	</g>
</g>
<g>
	<g>
		<path d="M422.112,135.888c-13.24,0-24.016,10.768-24.016,24c0,13.224,10.776,23.992,24.016,23.992
			c13.208,0,23.976-10.76,24-23.992C446.112,146.656,435.344,135.888,422.112,135.888z M422.112,167.88h-0.016
			c-4.416,0-8-3.584-8-7.992c0-4.416,3.592-8,8.016-8c4.408,0,8,3.584,8,7.984C430.104,164.288,426.52,167.88,422.112,167.88z"/>
	</g>
</g>
<g>
	<g>
		<path d="M462.12,205.528c-1.232-21.112-18.776-37.64-39.936-37.64c-21.128,0-38.664,16.52-39.92,37.608
			c-0.272,4.416,3.088,8.208,7.504,8.464c4.352,0.176,8.2-3.088,8.464-7.504c0.76-12.648,11.272-22.56,23.952-22.56
			c12.696,0,23.224,9.912,23.968,22.576c0.248,4.248,3.776,7.528,7.976,7.528c0.16,0,0.328-0.008,0.48-0.016
			C459.008,213.72,462.376,209.944,462.12,205.528z"/>
	</g>
</g>
<g>
</g>
<g>
</g>
<g>
</g>
<g>
</g>
<g>
</g>
<g>
</g>
<g>
</g>
<g>
</g>
<g>
</g>
<g>
</g>
<g>
</g>
<g>
</g>
<g>
</g>
<g>
</g>
<g>
</g>
</svg>
