<?xml version="1.0" encoding="iso-8859-1"?>
<!-- Generator: Adobe Illustrator 19.0.0, SVG Export Plug-In . SVG Version: 6.00 Build 0)  -->
<svg version="1.1" id="Capa_1" xmlns="http://www.w3.org/2000/svg" xmlns:xlink="http://www.w3.org/1999/xlink" x="0px" y="0px"
	 viewBox="0 0 511.904 511.904" style="enable-background:new 0 0 511.904 511.904;" xml:space="preserve">
<g>
	<g>
		<path d="M401.6,50.24l-48-47.904C352.104,0.84,350.072,0,347.952,0h-272c-4.416,0-8,3.576-8,8v448c0,4.424,3.584,8,8,8h320
			c4.424,0,8-3.576,8-8V55.904C403.952,53.784,403.112,51.744,401.6,50.24z M387.952,448h-304V16H344.64l43.312,43.224V448z"/>
	</g>
</g>
<g>
	<g>
		<path d="M379.952,455.984c-0.008-4.416-3.584-7.984-8-7.984c-0.008,0-0.008,0-0.016,0c-4.424,0.008-7.992,3.592-7.984,8.016
			L364,479.968c0.008,4.416,3.584,7.984,8,7.984c0.008,0,0.008,0,0.016,0c4.424-0.008,7.992-3.592,7.984-8.016L379.952,455.984z"/>
	</g>
</g>
<g>
	<g>
		<path d="M372,471.952H51.952c-4.416,0-8,3.576-8,8s3.584,8,8,8H372c4.424,0,8-3.576,8-8S376.424,471.952,372,471.952z"/>
	</g>
</g>
<g>
	<g>
		<path d="M75.968,24l-23.952-0.048c-0.008,0-0.016,0-0.016,0c-4.408,0-7.992,3.568-8,7.984c-0.008,4.424,3.568,8.008,7.984,8.016
			L75.936,40c0.008,0,0.016,0,0.016,0c4.408,0,7.992-3.568,8-7.984C83.96,27.592,80.384,24.008,75.968,24z"/>
	</g>
</g>
<g>
	<g>
		<path d="M52,23.952c-4.416,0-8,3.576-8,8v448c0,4.424,3.584,8,8,8c4.416,0,8-3.576,8-8v-448C60,27.528,56.416,23.952,52,23.952z"
			/>
	</g>
</g>
<g>
	<g>
		<path d="M355.952,479.936c-0.008-4.416-3.584-7.984-8-7.984c-0.008,0-0.008,0-0.016,0c-4.424,0.008-7.992,3.592-7.984,8.016
			L340,503.92c0.008,4.416,3.584,7.984,8,7.984c0.008,0,0.008,0,0.016,0c4.424-0.008,7.992-3.592,7.984-8.016L355.952,479.936z"/>
	</g>
</g>
<g>
	<g>
		<path d="M348,495.904H27.952c-4.416,0-8,3.576-8,8s3.584,8,8,8H348c4.424,0,8-3.576,8-8S352.424,495.904,348,495.904z"/>
	</g>
</g>
<g>
	<g>
		<path d="M51.968,47.952l-23.952-0.048c-0.008,0-0.016,0-0.016,0c-4.408,0-7.992,3.568-8,7.984
			c-0.008,4.424,3.568,8.008,7.984,8.016l23.952,0.048c0.008,0,0.016,0,0.016,0c4.408,0,7.992-3.568,8-7.984
			C59.96,51.544,56.384,47.96,51.968,47.952z"/>
	</g>
</g>
<g>
	<g>
		<path d="M28,47.904c-4.416,0-8,3.576-8,8v448c0,4.424,3.584,8,8,8c4.416,0,8-3.576,8-8v-448C36,51.48,32.416,47.904,28,47.904z"/>
	</g>
</g>
<g>
	<g>
		<path d="M395.952,47.904h-48c-4.424,0-8,3.576-8,8c0,4.424,3.576,8,8,8h48c4.424,0,8-3.576,8-8
			C403.952,51.48,400.376,47.904,395.952,47.904z"/>
	</g>
</g>
<g>
	<g>
		<path d="M347.952,0c-4.424,0-8,3.576-8,8v46.912c0,4.424,3.576,8,8,8s8-3.576,8-8V8C355.952,3.576,352.376,0,347.952,0z"/>
	</g>
</g>
<g>
	<g>
		<path d="M443.952,79.904c-13.232,0-24,10.768-24,24c0,4.424,3.576,8,8,8s8-3.576,8-8c0-4.416,3.584-8,8-8c4.416,0,8,3.584,8,8
			c0,4.424,3.576,8,8,8s8-3.576,8-8C467.952,90.672,457.184,79.904,443.952,79.904z"/>
	</g>
</g>
<g>
	<g>
		<path d="M427.952,95.904c-4.424,0-8,3.576-8,8v272c0,4.424,3.576,8,8,8s8-3.576,8-8v-272
			C435.952,99.48,432.376,95.904,427.952,95.904z"/>
	</g>
</g>
<g>
	<g>
		<path d="M459.952,95.904c-4.424,0-8,3.576-8,8v272c0,4.424,3.576,8,8,8s8-3.576,8-8v-272
			C467.952,99.48,464.376,95.904,459.952,95.904z"/>
	</g>
</g>
<g>
	<g>
		<path d="M450.608,395.464l-16-24c-2.448-3.672-7.416-4.672-11.096-2.216s-4.672,7.416-2.216,11.096l16,24
			c1.536,2.312,4.08,3.56,6.664,3.56c1.52,0,3.064-0.44,4.432-1.344C452.072,404.104,453.064,399.144,450.608,395.464z"/>
	</g>
</g>
<g>
	<g>
		<path d="M464.392,369.248c-3.688-2.456-8.648-1.456-11.096,2.216l-16,24c-2.456,3.68-1.464,8.64,2.216,11.096
			c1.368,0.904,2.912,1.344,4.432,1.344c2.584,0,5.128-1.248,6.664-3.56l16-24C469.064,376.664,468.072,371.704,464.392,369.248z"/>
	</g>
</g>
<g>
	<g>
		<path d="M443.952,391.904c-4.424,0-8,3.576-8,8v8c0,4.424,3.576,8,8,8s8-3.576,8-8v-8
			C451.952,395.48,448.376,391.904,443.952,391.904z"/>
	</g>
</g>
<g>
	<g>
		<path d="M459.952,351.904h-32c-4.424,0-8,3.576-8,8s3.576,8,8,8h32c4.424,0,8-3.576,8-8S464.376,351.904,459.952,351.904z"/>
	</g>
</g>
<g>
	<g>
		<path d="M467.952,103.904c-4.424,0-8,3.576-8,8c0,4.424,3.576,8,8,8c4.416,0,8,3.584,8,8c0,4.424,3.576,8,8,8s8-3.576,8-8
			C491.952,114.672,481.184,103.904,467.952,103.904z"/>
	</g>
</g>
<g>
	<g>
		<path d="M483.952,119.904c-4.424,0-8,3.576-8,8v96c0,4.424,3.576,8,8,8s8-3.576,8-8v-96
			C491.952,123.48,488.376,119.904,483.952,119.904z"/>
	</g>
</g>
<g>
	<g>
		<path d="M467.952,103.904h-8c-4.424,0-8,3.576-8,8c0,4.424,3.576,8,8,8h8c4.424,0,8-3.576,8-8
			C475.952,107.48,472.376,103.904,467.952,103.904z"/>
	</g>
</g>
<g>
	<g>
		<path d="M459.952,175.904h-32c-4.424,0-8,3.576-8,8c0,4.424,3.576,8,8,8h32c4.424,0,8-3.576,8-8
			C467.952,179.48,464.376,175.904,459.952,175.904z"/>
	</g>
</g>
<g>
	<g>
		<path d="M139.952,55.904c-13.232,0-24,10.768-24,24v24c0,13.232,10.768,24,24,24s24-10.768,24-24v-24
			C163.952,66.672,153.184,55.904,139.952,55.904z M147.952,103.904c0,4.416-3.592,8-8,8s-8-3.584-8-8v-24c0-4.416,3.592-8,8-8
			s8,3.584,8,8V103.904z"/>
	</g>
</g>
<g>
	<g>
		<path d="M139.952,151.904c-13.232,0-24,10.768-24,24v24c0,13.232,10.768,24,24,24s24-10.768,24-24v-24
			C163.952,162.672,153.184,151.904,139.952,151.904z M147.952,199.904c0,4.416-3.592,8-8,8s-8-3.584-8-8v-24c0-4.416,3.592-8,8-8
			s8,3.584,8,8V199.904z"/>
	</g>
</g>
<g>
	<g>
		<path d="M139.952,103.904c-4.416,0-8,3.576-8,8v56c0,4.424,3.584,8,8,8s8-3.576,8-8v-56
			C147.952,107.48,144.368,103.904,139.952,103.904z"/>
	</g>
</g>
<g>
	<g>
		<path d="M139.952,247.904c-13.232,0-24,10.768-24,24v24c0,13.232,10.768,24,24,24s24-10.768,24-24v-24
			C163.952,258.672,153.184,247.904,139.952,247.904z M147.952,295.904c0,4.416-3.592,8-8,8s-8-3.584-8-8v-24c0-4.416,3.592-8,8-8
			s8,3.584,8,8V295.904z"/>
	</g>
</g>
<g>
	<g>
		<path d="M139.952,199.904c-4.416,0-8,3.576-8,8v56c0,4.424,3.584,8,8,8s8-3.576,8-8v-56
			C147.952,203.48,144.368,199.904,139.952,199.904z"/>
	</g>
</g>
<g>
	<g>
		<path d="M139.952,343.904c-13.232,0-24,10.768-24,24v24c0,13.232,10.768,24,24,24s24-10.768,24-24v-24
			C163.952,354.672,153.184,343.904,139.952,343.904z M147.952,391.904c0,4.416-3.592,8-8,8s-8-3.584-8-8v-24c0-4.416,3.592-8,8-8
			s8,3.584,8,8V391.904z"/>
	</g>
</g>
<g>
	<g>
		<path d="M139.952,295.904c-4.416,0-8,3.576-8,8v56c0,4.424,3.584,8,8,8s8-3.576,8-8v-56
			C147.952,299.48,144.368,295.904,139.952,295.904z"/>
	</g>
</g>
<g>
	<g>
		<path d="M347.952,135.904h-144c-4.416,0-8,3.576-8,8c0,4.424,3.584,8,8,8h144c4.424,0,8-3.576,8-8
			C355.952,139.48,352.376,135.904,347.952,135.904z"/>
	</g>
</g>
<g>
	<g>
		<path d="M347.952,183.904h-144c-4.416,0-8,3.576-8,8c0,4.424,3.584,8,8,8h144c4.424,0,8-3.576,8-8
			C355.952,187.48,352.376,183.904,347.952,183.904z"/>
	</g>
</g>
<g>
	<g>
		<path d="M347.952,231.904h-144c-4.416,0-8,3.576-8,8c0,4.424,3.584,8,8,8h144c4.424,0,8-3.576,8-8
			C355.952,235.48,352.376,231.904,347.952,231.904z"/>
	</g>
</g>
<g>
	<g>
		<path d="M347.952,279.904h-144c-4.416,0-8,3.576-8,8s3.584,8,8,8h144c4.424,0,8-3.576,8-8S352.376,279.904,347.952,279.904z"/>
	</g>
</g>
<g>
	<g>
		<path d="M347.952,327.904h-144c-4.416,0-8,3.576-8,8s3.584,8,8,8h144c4.424,0,8-3.576,8-8S352.376,327.904,347.952,327.904z"/>
	</g>
</g>
<g>
</g>
<g>
</g>
<g>
</g>
<g>
</g>
<g>
</g>
<g>
</g>
<g>
</g>
<g>
</g>
<g>
</g>
<g>
</g>
<g>
</g>
<g>
</g>
<g>
</g>
<g>
</g>
<g>
</g>
</svg>
