<?xml version="1.0" encoding="iso-8859-1"?>
<!-- Generator: Adobe Illustrator 19.0.0, SVG Export Plug-In . SVG Version: 6.00 Build 0)  -->
<svg version="1.1" id="Capa_1" xmlns="http://www.w3.org/2000/svg" xmlns:xlink="http://www.w3.org/1999/xlink" x="0px" y="0px"
	 viewBox="0 0 512 512" style="enable-background:new 0 0 512 512;" xml:space="preserve">
<g>
	<g>
		<path d="M232,296c-4.424,0-8,3.576-8,8v80c0,4.424,3.576,8,8,8s8-3.576,8-8v-80C240,299.576,236.424,296,232,296z"/>
	</g>
</g>
<g>
	<g>
		<path d="M264.008,296c-4.424,0-8,3.576-8,8s3.576,8,8,8c4.408,0,7.992,3.584,7.992,7.992c0,4.408-3.584,7.992-7.992,7.992
			c-4.424,0-8,3.576-8,8s3.576,8,8,8c13.224,0,23.992-10.768,23.992-23.992S277.232,296,264.008,296z"/>
	</g>
</g>
<g>
	<g>
		<path d="M263.992,327.984c-4.424,0-8,3.576-8,8s3.576,8,8,8c8.832,0,16.008,7.184,16.008,16.016c0,8.824-7.176,16-16.008,16
			c-4.424,0-8,3.576-8,8s3.576,8,8,8C281.64,392,296,377.648,296,360C296,342.344,281.64,327.984,263.992,327.984z"/>
	</g>
</g>
<g>
	<g>
		<path d="M264.008,296H224c-4.424,0-8,3.576-8,8s3.576,8,8,8h40.008c4.424,0,8-3.576,8-8S268.432,296,264.008,296z"/>
	</g>
</g>
<g>
	<g>
		<path d="M263.992,376H224c-4.424,0-8,3.576-8,8s3.576,8,8,8h39.992c4.424,0,8-3.576,8-8S268.416,376,263.992,376z"/>
	</g>
</g>
<g>
	<g>
		<path d="M264.008,327.984H232c-4.424,0-8,3.576-8,8s3.576,8,8,8h32.008c4.424,0,8-3.576,8-8S268.432,327.984,264.008,327.984z"/>
	</g>
</g>
<g>
	<g>
		<path d="M248,288c-4.424,0-8,3.576-8,8v8c0,4.424,3.576,8,8,8s8-3.576,8-8v-8C256,291.576,252.424,288,248,288z"/>
	</g>
</g>
<g>
	<g>
		<path d="M248,376c-4.424,0-8,3.576-8,8v8c0,4.424,3.576,8,8,8s8-3.576,8-8v-8C256,379.576,252.424,376,248,376z"/>
	</g>
</g>
<g>
	<g>
		<path d="M256,176c-92.632,0-168,75.368-168,168s75.368,168,168,168s168-75.368,168-168S348.632,176,256,176z M256,496
			c-83.816,0-152-68.184-152-152s68.184-152,152-152s152,68.184,152,152S339.816,496,256,496z"/>
	</g>
</g>
<g>
	<g>
		<path d="M256,216c-70.576,0-128,57.424-128,128s57.424,128,128,128s128-57.424,128-128S326.576,216,256,216z M256,456
			c-61.76,0-112-50.24-112-112s50.24-112,112-112s112,50.24,112,112S317.76,456,256,456z"/>
	</g>
</g>
<g>
	<g>
		<path d="M256,248c-52.936,0-96,43.064-96,96c0,52.936,43.064,96,96,96c52.936,0,96-43.064,96-96C352,291.064,308.936,248,256,248z
			 M256,424c-44.112,0-80-35.888-80-80s35.888-80,80-80s80,35.888,80,80S300.112,424,256,424z"/>
	</g>
</g>
<g>
	<g>
		<path d="M256,0c-57.344,0-104,46.656-104,104c0,4.424,3.576,8,8,8s8-3.576,8-8c0-48.52,39.48-88,88-88c48.52,0,88,39.48,88,88
			c0,4.424,3.576,8,8,8s8-3.576,8-8C360,46.656,313.344,0,256,0z"/>
	</g>
</g>
<g>
	<g>
		<path d="M256,32c-39.704,0-72,32.296-72,72c0,4.424,3.576,8,8,8s8-3.576,8-8c0-30.872,25.128-56,56-56s56,25.128,56,56
			c0,4.424,3.576,8,8,8s8-3.576,8-8C328,64.296,295.704,32,256,32z"/>
	</g>
</g>
<g>
	<g>
		<path d="M160,96c-4.424,0-8,3.576-8,8v112.072c0,4.424,3.576,8,8,8s8-3.576,8-8V104C168,99.576,164.424,96,160,96z"/>
	</g>
</g>
<g>
	<g>
		<path d="M352.088,96c-4.424,0-8,3.576-8,8v112.072c0,4.424,3.576,8,8,8c4.416,0,8-3.576,8-8V104
			C360.088,99.576,356.512,96,352.088,96z"/>
	</g>
</g>
<g>
	<g>
		<path d="M192,96c-4.424,0-8,3.576-8,8v93.32c0,4.424,3.576,8,8,8s8-3.576,8-8V104C200,99.576,196.424,96,192,96z"/>
	</g>
</g>
<g>
	<g>
		<path d="M320,96c-4.424,0-8,3.576-8,8v93.32c0,4.424,3.576,8,8,8s8-3.576,8-8V104C328,99.576,324.424,96,320,96z"/>
	</g>
</g>
<g>
	<g>
		<path d="M256,240c-4.424,0-8,3.576-8,8v8c0,4.424,3.576,8,8,8s8-3.576,8-8v-8C264,243.576,260.424,240,256,240z"/>
	</g>
</g>
<g>
	<g>
		<path d="M256,424c-4.424,0-8,3.576-8,8v8c0,4.424,3.576,8,8,8s8-3.576,8-8v-8C264,427.576,260.424,424,256,424z"/>
	</g>
</g>
<g>
	<g>
		<path d="M218.928,263.792l-4-6.928c-2.208-3.824-7.112-5.136-10.928-2.928c-3.824,2.208-5.136,7.096-2.928,10.928l4,6.928
			c1.48,2.56,4.168,4,6.936,4c1.36,0,2.736-0.344,3.992-1.072C219.824,272.512,221.136,267.624,218.928,263.792z"/>
	</g>
</g>
<g>
	<g>
		<path d="M310.928,423.152l-4-6.936c-2.192-3.824-7.088-5.152-10.92-2.936c-3.824,2.2-5.144,7.096-2.936,10.92l4,6.936
			c1.472,2.568,4.168,4.008,6.936,4.008c1.352,0,2.728-0.344,3.984-1.072C311.816,431.872,313.136,426.976,310.928,423.152z"/>
	</g>
</g>
<g>
	<g>
		<path d="M183.792,293.072l-6.928-4c-3.824-2.216-8.712-0.896-10.928,2.928c-2.216,3.824-0.904,8.72,2.928,10.928l6.928,4
			c1.256,0.728,2.632,1.072,3.992,1.072c2.76,0,5.448-1.44,6.936-4C188.936,300.176,187.624,295.28,183.792,293.072z"/>
	</g>
</g>
<g>
	<g>
		<path d="M343.144,385.072l-6.936-4.008c-3.824-2.216-8.72-0.904-10.928,2.928c-2.216,3.816-0.904,8.72,2.928,10.928l6.936,4.008
			c1.256,0.728,2.632,1.072,3.992,1.072c2.76,0,5.448-1.432,6.936-4C348.288,392.184,346.976,387.28,343.144,385.072z"/>
	</g>
</g>
<g>
	<g>
		<path d="M168,336h-8c-4.424,0-8,3.576-8,8s3.576,8,8,8h8c4.424,0,8-3.576,8-8S172.424,336,168,336z"/>
	</g>
</g>
<g>
	<g>
		<path d="M352,336h-8.016c-4.424,0-8,3.576-8,8s3.576,8,8,8H352c4.424,0,8-3.576,8-8S356.424,336,352,336z"/>
	</g>
</g>
<g>
	<g>
		<path d="M186.712,384c-2.208-3.824-7.112-5.136-10.928-2.928l-6.928,4c-3.824,2.208-5.136,7.096-2.928,10.928
			c1.48,2.56,4.168,4,6.936,4c1.36,0,2.736-0.344,3.992-1.072l6.928-4C187.608,392.72,188.92,387.824,186.712,384z"/>
	</g>
</g>
<g>
	<g>
		<path d="M346.064,292c-2.216-3.824-7.112-5.136-10.928-2.928l-6.944,4.008c-3.824,2.208-5.136,7.096-2.928,10.928
			c1.48,2.56,4.168,4,6.936,4c1.36,0,2.736-0.344,3.992-1.072l6.944-4.008C346.96,300.72,348.272,295.832,346.064,292z"/>
	</g>
</g>
<g>
	<g>
		<path d="M215.992,413.28c-3.816-2.208-8.728-0.896-10.92,2.936l-4,6.936c-2.216,3.816-0.896,8.72,2.936,10.92
			c1.256,0.728,2.624,1.072,3.984,1.072c2.768,0,5.464-1.44,6.936-4.008l4-6.936C221.144,420.384,219.824,415.48,215.992,413.28z"/>
	</g>
</g>
<g>
	<g>
		<path d="M308.008,253.944c-3.848-2.248-8.72-0.92-10.928,2.912l-4.016,6.936c-2.224,3.816-0.912,8.72,2.912,10.928
			c1.264,0.736,2.64,1.08,4,1.08c2.768,0,5.448-1.432,6.928-3.992l4.016-6.936C313.144,261.056,311.832,256.152,308.008,253.944z"/>
	</g>
</g>
<g>
</g>
<g>
</g>
<g>
</g>
<g>
</g>
<g>
</g>
<g>
</g>
<g>
</g>
<g>
</g>
<g>
</g>
<g>
</g>
<g>
</g>
<g>
</g>
<g>
</g>
<g>
</g>
<g>
</g>
</svg>
