<svg xmlns="http://www.w3.org/2000/svg" viewBox="0 0 100 100" x="0px" y="0px"><title>•SET8-v2</title><path d="M62.52,15.74a55.51,55.51,0,0,0-10.32,1,52.21,52.21,0,0,0-14.91-2.1c-17.35,0-30.94,7.59-30.94,17.28,0,.18,0,.37,0,.55h0V41q0,.42,0,.84h0v8.34c0,8.46,10.53,15.49,25.22,17v2.51c0,9.69,13.6,17.28,31,17.28S93.46,79.4,93.46,69.71V33C93.46,23.33,79.87,15.74,62.52,15.74ZM90.06,33c0,7.52-12.62,13.87-27.54,13.87S35,40.54,35,33,47.59,19.14,62.52,19.14,90.06,25.49,90.06,33ZM37.29,18a53,53,0,0,1,7.94.61C36.94,21.67,31.57,26.93,31.57,33v9.17c0,.17,0,.33,0,.5h0v2.75C19.2,44.07,9.75,38.29,9.75,31.87,9.75,24.35,22.36,18,37.29,18ZM31.57,48.86v5.75C19,53.25,9.75,47.55,9.75,41V39.85C14,44.48,21.86,47.87,31.57,48.86ZM9.75,50.22V49c4.24,4.63,12.12,8,21.82,9v2.51c0,.18,0,.35,0,.53h0v2.71C19,62.42,9.75,56.72,9.75,50.22ZM90.06,69.71c0,7.52-12.62,13.88-27.54,13.88S35,77.23,35,69.71V68.53c5.08,5.56,15.38,9.28,27.54,9.28S85,74.09,90.06,68.53Zm0-9.72v.55c0,7.52-12.62,13.87-27.54,13.87S35,68.06,35,60.54V59.35c5.08,5.56,15.38,9.29,27.54,9.29S85,64.91,90.06,59.35Zm0-9.19v.56c0,7.53-12.62,13.88-27.54,13.88S35,58.89,35,51.36V50.18c5.08,5.56,15.38,9.29,27.54,9.29S85,55.74,90.06,50.18Zm0-8.61c0,7.52-12.62,13.88-27.54,13.88S35,49.71,35,42.19V41c5.08,5.56,15.38,9.28,27.54,9.28S85,46.57,90.06,41Z"></path></svg>