<svg xmlns:dc="http://purl.org/dc/elements/1.1/" xmlns:cc="http://creativecommons.org/ns#" xmlns:rdf="http://www.w3.org/1999/02/22-rdf-syntax-ns#" xmlns:svg="http://www.w3.org/2000/svg" xmlns="http://www.w3.org/2000/svg" xmlns:sodipodi="http://sodipodi.sourceforge.net/DTD/sodipodi-0.dtd" xmlns:inkscape="http://www.inkscape.org/namespaces/inkscape" viewBox="0 0 53 50.000002" version="1.1" x="0px" y="0px"><g transform="translate(0,-1002.3622)"><path style="color:#000000;font-style:normal;font-variant:normal;font-weight:normal;font-stretch:normal;font-size:medium;line-height:normal;font-family:sans-serif;text-indent:0;text-align:start;text-decoration:none;text-decoration-line:none;text-decoration-style:solid;text-decoration-color:#000000;letter-spacing:normal;word-spacing:normal;text-transform:none;direction:ltr;block-progression:tb;writing-mode:lr-tb;baseline-shift:baseline;text-anchor:start;white-space:normal;clip-rule:nonzero;display:inline;overflow:visible;visibility:visible;opacity:1;isolation:auto;mix-blend-mode:normal;color-interpolation:sRGB;color-interpolation-filters:linearRGB;solid-color:#000000;solid-opacity:1;fill:#000000;fill-opacity:1;fill-rule:evenodd;stroke:none;stroke-width:1.5;stroke-linecap:butt;stroke-linejoin:miter;stroke-miterlimit:4;stroke-dasharray:none;stroke-dashoffset:0;stroke-opacity:1;color-rendering:auto;image-rendering:auto;shape-rendering:auto;text-rendering:auto;enable-background:accumulate" d="m 26.5,1002.4872 -26.25,19.6875 7.5,0 0,22.5 -3,0 0,3.0625 -4.5,0 0,4.5 52.5,0 0,-4.5 -4.5,0 0,-3.0625 -3,0 0,-22.5 7.5,0 -26.25,-19.6875 z m 0,1.875 21.752,16.3125 -43.502,0 21.75,-16.3125 z m 0,1.7266 -18.373,13.3261 36.7441,0 L 26.5,1006.0888 Z m 0,1.8535 13.75,9.9726 -27.498,0 13.748,-9.9726 z m -17.248,14.2324 3,0 0,22.5 -3,0 0,-22.5 z m 4.5,0 4.5,0 0,7.4707 a 8.9248438,8.9248438 0 0 1 1.5,-2.4024 l 0,-5.0683 3,0 0,2.8281 a 8.9248438,8.9248438 0 0 1 1.5,-0.539 l 0,-2.2891 4.5,0 0,2.3047 a 8.9248438,8.9248438 0 0 1 1.5,0.541 l 0,-2.8457 3,0 0,5.1269 a 8.9248438,8.9248438 0 0 1 1.5,2.4571 l 0,-7.584 4.5,0 0,22.5 -4.5,0 0,-8.2383 a 8.9248438,8.9248438 0 0 1 -1.5,2.4707 l 0,5.7676 -3,0 0,-3.4981 a 8.9248438,8.9248438 0 0 1 -1.5,0.5469 l 0,2.9512 -4.5,0 0,-2.9453 a 8.9248438,8.9248438 0 0 1 -1.5,-0.5332 l 0,3.4785 -3,0 0,-5.7285 a 8.9248438,8.9248438 0 0 1 -1.5,-2.4121 l 0,8.1406 -4.5,0 0,-22.5 z m 27,0 3,0 0,22.5 -3,0 0,-22.5 z m -34.5,24 33,0 7.5,0 0,1.5 -40.5,0 0,-1.5 z m -4.5,3.0625 49.5,0 0,1.5 -49.5,0 0,-1.5 z"></path><path style="color:#000000;font-style:normal;font-variant:normal;font-weight:normal;font-stretch:normal;font-size:medium;line-height:normal;font-family:sans-serif;text-indent:0;text-align:start;text-decoration:none;text-decoration-line:none;text-decoration-style:solid;text-decoration-color:#000000;letter-spacing:normal;word-spacing:normal;text-transform:none;direction:ltr;block-progression:tb;writing-mode:lr-tb;baseline-shift:baseline;text-anchor:start;white-space:normal;clip-rule:nonzero;display:inline;overflow:visible;visibility:visible;opacity:1;isolation:auto;mix-blend-mode:normal;color-interpolation:sRGB;color-interpolation-filters:linearRGB;solid-color:#000000;solid-opacity:1;fill:#000000;fill-opacity:1;fill-rule:nonzero;stroke:none;stroke-width:1.49999988;stroke-linecap:butt;stroke-linejoin:miter;stroke-miterlimit:4;stroke-dasharray:none;stroke-dashoffset:0;stroke-opacity:1;color-rendering:auto;image-rendering:auto;shape-rendering:auto;text-rendering:auto;enable-background:accumulate" d="m 26.4785,1023.4247 c -5.3344,0 -9.6738,4.3394 -9.6738,9.6738 0,5.3344 4.3395,9.6758 9.6738,9.6758 5.3344,0 9.6758,-4.3414 9.6758,-9.6758 1e-4,-5.3344 -4.3414,-9.6738 -9.6758,-9.6738 z m 0,1.5 c 4.5238,0 8.1758,3.6501 8.1758,8.1738 0,4.5237 -3.6521,8.1758 -8.1758,8.1758 -4.5237,0 -8.1738,-3.6521 -8.1738,-8.1758 0,-4.5237 3.6501,-8.1738 8.1738,-8.1738 z"></path><path style="color:#000000;font-style:normal;font-variant:normal;font-weight:normal;font-stretch:normal;font-size:medium;line-height:normal;font-family:sans-serif;text-indent:0;text-align:start;text-decoration:none;text-decoration-line:none;text-decoration-style:solid;text-decoration-color:#000000;letter-spacing:normal;word-spacing:normal;text-transform:none;direction:ltr;block-progression:tb;writing-mode:lr-tb;baseline-shift:baseline;text-anchor:start;white-space:normal;clip-rule:nonzero;display:inline;overflow:visible;visibility:visible;opacity:1;isolation:auto;mix-blend-mode:normal;color-interpolation:sRGB;color-interpolation-filters:linearRGB;solid-color:#000000;solid-opacity:1;fill:#000000;fill-opacity:1;fill-rule:evenodd;stroke:none;stroke-width:1.49999988;stroke-linecap:butt;stroke-linejoin:miter;stroke-miterlimit:4;stroke-dasharray:none;stroke-dashoffset:0;stroke-opacity:1;color-rendering:auto;image-rendering:auto;shape-rendering:auto;text-rendering:auto;enable-background:accumulate" d="M 23.507812 25.314453 L 22.261719 26.150391 L 25.599609 31.123047 L 23.783203 31.123047 L 23.783203 32.623047 L 25.728516 32.623047 L 25.728516 33.205078 L 23.783203 33.205078 L 23.783203 34.705078 L 25.728516 34.705078 L 25.728516 36.158203 L 27.228516 36.158203 L 27.228516 34.705078 L 29.175781 34.705078 L 29.175781 33.205078 L 27.228516 33.205078 L 27.228516 32.623047 L 29.175781 32.623047 L 29.175781 31.123047 L 27.357422 31.123047 L 30.697266 26.150391 L 29.451172 25.314453 L 26.480469 29.742188 L 23.507812 25.314453 z " transform="translate(-1.9073487e-6,1002.3622)"></path></g></svg>