<svg xmlns="http://www.w3.org/2000/svg" xmlns:xlink="http://www.w3.org/1999/xlink" version="1.1" x="0px" y="0px" viewBox="0 0 100 100" style="enable-background:new 0 0 100 100;" xml:space="preserve"><path d="M88.9,40.1l-0.1-0.3C86.3,31,69.9,24.6,50,24.6c-19.9,0-36.3,6.4-38.9,15.3l-0.1,0.3l-0.3,18l0,0.1l0,0.1  c0.7,9.8,17.6,17.2,39.2,17.2s38.5-7.4,39.2-17.2l0-0.1L88.9,40.1z M78.3,65.6c-1.1,0.6-2.2,1.1-3.5,1.6V54.1c1.2-0.5,2.4-1,3.5-1.5  V65.6z M25.2,67.3c-1.3-0.5-2.4-1-3.5-1.6v-13c1.1,0.5,2.2,1,3.5,1.5V67.3z M30.6,69.1c-1-0.3-2-0.6-3-0.9V55c1,0.3,2,0.6,3,0.9  V69.1z M36,70.3c-0.8-0.1-1.6-0.3-2.4-0.5V56.5c0.8,0.2,1.6,0.3,2.4,0.5V70.3z M42.1,71.1c-1.2-0.1-2.4-0.3-3.6-0.4V57.4  c1.2,0.2,2.4,0.3,3.6,0.4V71.1z M49,71.4c-1.4,0-2.7-0.1-4-0.1V58c1.3,0.1,2.6,0.1,4,0.1V71.4z M55.5,71.3c-1.1,0.1-2.3,0.1-3.5,0.1  V58.1c1.2,0,2.3-0.1,3.5-0.1V71.3z M61.4,70.7c-1.1,0.2-2.3,0.3-3.5,0.4V57.8c1.2-0.1,2.3-0.2,3.5-0.4V70.7z M67.4,69.6  c-1.1,0.3-2.3,0.5-3.5,0.7V57c1.2-0.2,2.3-0.4,3.5-0.7V69.6z M72.8,68c-1.1,0.4-2.3,0.7-3.5,1.1V55.8c1.2-0.3,2.4-0.7,3.5-1V68z   M50,53.3c-20.3,0-33.2-7.8-33.2-12.6c0-4.8,12.9-11.8,33.2-11.8s33.8,7.8,33.8,12.6C83.8,46.3,70.3,53.3,50,53.3z M14.8,58.1  L15,47.7c1.2,1.4,2.8,2.7,4.8,3.8v12.9C16.7,62.5,15,60.2,14.8,58.1z M80.8,64.1V51.2c1.8-1.1,3.2-2.3,4.3-3.6l0.2,10.4  C85,60.1,83.5,62.2,80.8,64.1z"></path></svg>