<svg xmlns="http://www.w3.org/2000/svg" xmlns:xlink="http://www.w3.org/1999/xlink" version="1.1" x="0px" y="0px" viewBox="0 0 100 100" style="enable-background:new 0 0 100 100;" xml:space="preserve"><style type="text/css">
	.st0{fill:#FFFFFF;}
	.st1{fill:#231F20;}
	.st2{fill:#1D1C1A;}
	.st3{fill:none;stroke:#1D1C1A;stroke-width:2.5;stroke-linecap:round;stroke-linejoin:round;stroke-miterlimit:10;}
	.st4{fill:#FFFFFF;stroke:#231F20;stroke-width:2.5;stroke-linecap:round;stroke-linejoin:round;stroke-miterlimit:10;}
</style><g><path class="st2" d="M68.9736328,57.8857422c-0.6650391-0.1787109-1.3505859,0.2236328-1.5273438,0.890625   c-2.1621094,8.2060547-10.3691406,13.1074219-18.6835938,11.1630859   c-5.8408203-1.3671875-10.5893555-6.1708984-12.0981445-12.2363281c-0.0878906-0.3535767-0.1698608-0.7191162-0.2462769-1.09375   h15.9430542c0.6904297,0,1.25-0.5595703,1.25-1.25s-0.5595703-1.25-1.25-1.25H36.0177002   c-0.3145142-2.6224976-0.3406372-5.5219116,0.0284424-8.3339844h16.3151855c0.6904297,0,1.25-0.5595703,1.25-1.25   s-0.5595703-1.25-1.25-1.25H36.4893188c0.4767456-2.0932617,1.2055664-4.0704956,2.2504272-5.7592773   c2.2817383-3.6870117,5.9345703-6.3500977,10.0224609-7.3071289c8.3217773-1.9453125,16.5229492,2.9575195,18.684082,11.1625977   c0.1767578,0.6679688,0.8652344,1.0668945,1.5273438,0.890625c0.6679688-0.1762695,1.0664062-0.8598633,0.890625-1.5273438   c-2.5097656-9.5244141-12.0273438-15.2172852-21.671875-12.9604492c-4.7294922,1.1074219-8.949707,4.1787109-11.5786133,8.4262695   c-1.2799072,2.0687256-2.1361084,4.5101318-2.6620483,7.074707h-7.256897c-0.6904297,0-1.25,0.5595703-1.25,1.25   s0.5595703,1.25,1.25,1.25h6.8448486c-0.3417969,2.8261108-0.3154907,5.7032471-0.027832,8.3339844h-6.8170166   c-0.6904297,0-1.25,0.5595703-1.25,1.25s0.5595703,1.25,1.25,1.25h7.1838989   c0.1086426,0.585022,0.225769,1.1571655,0.3600464,1.6972656c1.7324219,6.9658203,7.2094727,12.4882812,13.9541016,14.0664062   c1.4233398,0.3339844,2.8432617,0.4931641,4.2397461,0.4931641c8.0595703,0,15.2929688-5.3349609,17.4316406-13.453125   C70.0400391,58.7451172,69.6416016,58.0615234,68.9736328,57.8857422z"></path></g></svg>