<!-- Generated by IcoMoon.io -->
<svg version="1.1" xmlns="http://www.w3.org/2000/svg" width="24" height="24" viewBox="0 0 24 24">
<title>asana</title>
<path d="M18.78 12.653c-2.882 0-5.22 2.336-5.22 5.22s2.338 5.22 5.22 5.22 5.22-2.34 5.22-5.22-2.336-5.22-5.22-5.22zM5.22 12.653c-2.88 0-5.22 2.337-5.22 5.22s2.338 5.22 5.22 5.22 5.22-2.338 5.22-5.22-2.336-5.22-5.22-5.22zM17.22 6.128c0 2.883-2.337 5.22-5.22 5.22-2.882 0-5.22-2.337-5.22-5.22 0-2.88 2.338-5.22 5.22-5.22 2.883 0 5.22 2.34 5.22 5.22z"></path>
</svg>
