<?xml version="1.0" encoding="UTF-8"?>
<!DOCTYPE svg PUBLIC "-//W3C//DTD SVG 1.1//EN" "http://www.w3.org/Graphics/SVG/1.1/DTD/svg11.dtd">
<svg version="1.2" width="328.1mm" height="309.5mm" viewBox="0 0 32810 30950" preserveAspectRatio="xMidYMid" fill-rule="evenodd" stroke-width="28.222" stroke-linejoin="round" xmlns="http://www.w3.org/2000/svg" xmlns:ooo="http://xml.openoffice.org/svg/export" xmlns:xlink="http://www.w3.org/1999/xlink" xmlns:presentation="http://sun.com/xmlns/staroffice/presentation" xmlns:smil="http://www.w3.org/2001/SMIL20/" xmlns:anim="urn:oasis:names:tc:opendocument:xmlns:animation:1.0" xml:space="preserve">
 <defs class="ClipPathGroup">
  <clipPath id="presentation_clip_path" clipPathUnits="userSpaceOnUse">
   <rect x="0" y="0" width="32810" height="30950"/>
  </clipPath>
  <clipPath id="presentation_clip_path_shrink" clipPathUnits="userSpaceOnUse">
   <rect x="32" y="30" width="32745" height="30889"/>
  </clipPath>
 </defs>
 <defs class="TextShapeIndex">
  <g ooo:slide="id1" ooo:id-list="id3 id4 id5 id6 id7 id8 id9 id10 id11 id12 id13 id14 id15 id16 id17"/>
 </defs>
 <defs class="EmbeddedBulletChars">
  <g id="bullet-char-template-57356" transform="scale(0.00048828125,-0.00048828125)">
   <path d="M 580,1141 L 1163,571 580,0 -4,571 580,1141 Z"/>
  </g>
  <g id="bullet-char-template-57354" transform="scale(0.00048828125,-0.00048828125)">
   <path d="M 8,1128 L 1137,1128 1137,0 8,0 8,1128 Z"/>
  </g>
  <g id="bullet-char-template-10146" transform="scale(0.00048828125,-0.00048828125)">
   <path d="M 174,0 L 602,739 174,1481 1456,739 174,0 Z M 1358,739 L 309,1346 659,739 1358,739 Z"/>
  </g>
  <g id="bullet-char-template-10132" transform="scale(0.00048828125,-0.00048828125)">
   <path d="M 2015,739 L 1276,0 717,0 1260,543 174,543 174,936 1260,936 717,1481 1274,1481 2015,739 Z"/>
  </g>
  <g id="bullet-char-template-10007" transform="scale(0.00048828125,-0.00048828125)">
   <path d="M 0,-2 C -7,14 -16,27 -25,37 L 356,567 C 262,823 215,952 215,954 215,979 228,992 255,992 264,992 276,990 289,987 310,991 331,999 354,1012 L 381,999 492,748 772,1049 836,1024 860,1049 C 881,1039 901,1025 922,1006 886,937 835,863 770,784 769,783 710,716 594,584 L 774,223 C 774,196 753,168 711,139 L 727,119 C 717,90 699,76 672,76 641,76 570,178 457,381 L 164,-76 C 142,-110 111,-127 72,-127 30,-127 9,-110 8,-76 1,-67 -2,-52 -2,-32 -2,-23 -1,-13 0,-2 Z"/>
  </g>
  <g id="bullet-char-template-10004" transform="scale(0.00048828125,-0.00048828125)">
   <path d="M 285,-33 C 182,-33 111,30 74,156 52,228 41,333 41,471 41,549 55,616 82,672 116,743 169,778 240,778 293,778 328,747 346,684 L 369,508 C 377,444 397,411 428,410 L 1163,1116 C 1174,1127 1196,1133 1229,1133 1271,1133 1292,1118 1292,1087 L 1292,965 C 1292,929 1282,901 1262,881 L 442,47 C 390,-6 338,-33 285,-33 Z"/>
  </g>
  <g id="bullet-char-template-9679" transform="scale(0.00048828125,-0.00048828125)">
   <path d="M 813,0 C 632,0 489,54 383,161 276,268 223,411 223,592 223,773 276,916 383,1023 489,1130 632,1184 813,1184 992,1184 1136,1130 1245,1023 1353,916 1407,772 1407,592 1407,412 1353,268 1245,161 1136,54 992,0 813,0 Z"/>
  </g>
  <g id="bullet-char-template-8226" transform="scale(0.00048828125,-0.00048828125)">
   <path d="M 346,457 C 273,457 209,483 155,535 101,586 74,649 74,723 74,796 101,859 155,911 209,963 273,989 346,989 419,989 480,963 531,910 582,859 608,796 608,723 608,648 583,586 532,535 482,483 420,457 346,457 Z"/>
  </g>
  <g id="bullet-char-template-8211" transform="scale(0.00048828125,-0.00048828125)">
   <path d="M -4,459 L 1135,459 1135,606 -4,606 -4,459 Z"/>
  </g>
  <g id="bullet-char-template-61548" transform="scale(0.00048828125,-0.00048828125)">
   <path d="M 173,740 C 173,903 231,1043 346,1159 462,1274 601,1332 765,1332 928,1332 1067,1274 1183,1159 1299,1043 1357,903 1357,740 1357,577 1299,437 1183,322 1067,206 928,148 765,148 601,148 462,206 346,322 231,437 173,577 173,740 Z"/>
  </g>
 </defs>
 <defs class="TextEmbeddedBitmaps"/>
 <g>
  <g id="id2" class="Master_Slide">
   <g id="bg-id2" class="Background"/>
   <g id="bo-id2" class="BackgroundObjects"/>
  </g>
 </g>
 <g class="SlideGroup">
  <g>
   <g id="container-id1">
    <g id="id1" class="Slide" clip-path="url(#presentation_clip_path)">
     <g class="Page">
      <g class="com.sun.star.drawing.PolyPolygonShape">
       <g id="id3">
        <rect class="BoundingBox" stroke="none" fill="none" x="0" y="0" width="32880" height="30950"/>
       </g>
      </g>
      <g class="com.sun.star.drawing.ClosedBezierShape">
       <g id="id4">
        <rect class="BoundingBox" stroke="none" fill="none" x="185" y="77" width="32504" height="30806"/>
        <path fill="rgb(0,0,0)" stroke="none" d="M 16437,77 L 185,12267 4829,12267 4829,26200 2971,26200 2971,28095 185,28095 185,30882 32687,30882 32687,28095 29900,28095 29900,26200 28044,26200 28044,12267 32687,12267 16437,77 Z M 16437,1238 L 29902,11338 2971,11338 16437,1238 Z M 16437,2307 L 5061,10558 27809,10558 16437,2307 Z M 16437,3455 L 24949,9630 7924,9630 16437,3455 Z M 5758,12267 L 7615,12267 7615,26200 5758,26200 5758,12267 Z M 8544,12267 L 11329,12267 11329,16894 C 11424,16670 11516,16486 11637,16276 11824,15950 12011,15690 12258,15406 L 12258,12267 14116,12267 14116,14018 C 14431,13872 14708,13772 15044,13685 L 15044,12267 17830,12267 17830,13695 C 18166,13782 18444,13882 18759,14030 L 18759,12267 20616,12267 20616,15442 C 20852,15716 21030,15967 21211,16281 21345,16512 21444,16716 21545,16964 L 21545,12267 24331,12267 24331,26200 21545,26200 21545,21098 C 21442,21352 21341,21560 21205,21796 21025,22107 20850,22356 20616,22628 L 20616,26200 18759,26200 18759,24034 C 18444,24181 18166,24282 17830,24372 L 17830,26200 15044,26200 15044,24376 C 14708,24290 14432,24191 14116,24046 L 14116,26200 12258,26200 12258,22652 C 12013,22371 11828,22112 11642,21788 11518,21573 11426,21387 11329,21160 L 11329,26200 8544,26200 8544,12267 Z M 25260,12267 L 27118,12267 27118,26200 25260,26200 25260,12267 Z M 3901,27129 L 24331,27129 28974,27129 28974,28057 3901,28057 3901,27129 Z M 1115,29024 L 31759,29024 31759,29953 1115,29953 1115,29024 Z"/>
       </g>
      </g>
      <g class="com.sun.star.drawing.PolyPolygonShape">
       <g id="id5">
        <rect class="BoundingBox" stroke="none" fill="none" x="1" y="1" width="32879" height="30948"/>
        <path fill="none" stroke="rgb(0,0,0)" stroke-width="125" stroke-linejoin="miter" d="M 16441,80 L 189,12270 4833,12270 4833,26203 2975,26203 2975,28098 189,28098 189,30885 32691,30885 32691,28098 29905,28098 29905,26203 28049,26203 28049,12270 32691,12270 16441,80 Z"/>
       </g>
      </g>
      <g class="com.sun.star.drawing.PolyPolygonShape">
       <g id="id6">
        <rect class="BoundingBox" stroke="none" fill="none" x="2783" y="1159" width="27308" height="10244"/>
        <path fill="none" stroke="rgb(0,0,0)" stroke-width="125" stroke-linejoin="miter" d="M 16437,1238 L 29902,11339 2971,11339 16437,1238 Z"/>
       </g>
      </g>
      <g class="com.sun.star.drawing.PolyPolygonShape">
       <g id="id7">
        <rect class="BoundingBox" stroke="none" fill="none" x="4868" y="2229" width="23136" height="8394"/>
        <path fill="none" stroke="rgb(0,0,0)" stroke-width="125" stroke-linejoin="miter" d="M 16437,2307 L 5061,10559 27810,10559 16437,2307 Z"/>
       </g>
      </g>
      <g class="com.sun.star.drawing.PolyPolygonShape">
       <g id="id8">
        <rect class="BoundingBox" stroke="none" fill="none" x="7732" y="3376" width="17412" height="6318"/>
        <path fill="none" stroke="rgb(0,0,0)" stroke-width="125" stroke-linejoin="miter" d="M 16438,3454 L 24950,9630 7925,9630 16438,3454 Z"/>
       </g>
      </g>
      <g class="com.sun.star.drawing.PolyPolygonShape">
       <g id="id9">
        <rect class="BoundingBox" stroke="none" fill="none" x="5696" y="12202" width="1985" height="14061"/>
        <path fill="none" stroke="rgb(0,0,0)" stroke-width="125" stroke-linejoin="miter" d="M 5759,12265 L 7617,12265 7617,26199 5759,26199 5759,12265 Z"/>
       </g>
      </g>
      <g class="com.sun.star.drawing.ClosedBezierShape">
       <g id="id10">
        <rect class="BoundingBox" stroke="none" fill="none" x="8482" y="12202" width="15914" height="14061"/>
        <path fill="none" stroke="rgb(0,0,0)" stroke-width="125" stroke-linejoin="miter" d="M 8545,12265 L 11330,12265 11330,16893 C 11425,16669 11516,16485 11638,16275 11825,15949 12011,15689 12259,15405 L 12259,12265 14117,12265 14117,14017 C 14432,13871 14709,13771 15045,13684 L 15045,12265 17831,12265 17831,13694 C 18167,13781 18445,13881 18760,14029 L 18760,12265 20617,12265 20617,15441 C 20854,15715 21031,15966 21212,16280 21346,16511 21445,16715 21546,16963 L 21546,12265 24332,12265 24332,26199 21546,26199 21546,21097 C 21444,21350 21342,21558 21206,21794 21026,22105 20851,22354 20617,22627 L 20617,26199 18760,26199 18760,24032 C 18445,24179 18167,24282 17831,24372 L 17831,26199 15045,26199 15045,24375 C 14709,24289 14433,24189 14117,24044 L 14117,26199 12259,26199 12259,22650 C 12014,22369 11829,22110 11643,21787 11519,21572 11426,21385 11330,21158 L 11330,26199 8545,26199 8545,12265 Z"/>
       </g>
      </g>
      <g class="com.sun.star.drawing.PolyPolygonShape">
       <g id="id11">
        <rect class="BoundingBox" stroke="none" fill="none" x="25196" y="12202" width="1987" height="14061"/>
        <path fill="none" stroke="rgb(0,0,0)" stroke-width="125" stroke-linejoin="miter" d="M 25259,12265 L 27119,12265 27119,26199 25259,26199 25259,12265 Z"/>
       </g>
      </g>
      <g class="com.sun.star.drawing.PolyPolygonShape">
       <g id="id12">
        <rect class="BoundingBox" stroke="none" fill="none" x="3838" y="27063" width="25201" height="1058"/>
        <path fill="none" stroke="rgb(0,0,0)" stroke-width="125" stroke-linejoin="miter" d="M 3901,27126 L 24331,27126 28975,27126 28975,28057 3901,28057 3901,27126 Z"/>
       </g>
      </g>
      <g class="com.sun.star.drawing.PolyPolygonShape">
       <g id="id13">
        <rect class="BoundingBox" stroke="none" fill="none" x="1052" y="28958" width="30771" height="1058"/>
        <path fill="none" stroke="rgb(0,0,0)" stroke-width="125" stroke-linejoin="miter" d="M 1115,29021 L 31759,29021 31759,29952 1115,29952 1115,29021 Z"/>
       </g>
      </g>
      <g class="com.sun.star.drawing.PolyPolygonShape">
       <g id="id14">
        <rect class="BoundingBox" stroke="none" fill="none" x="10371" y="12976" width="12108" height="12111"/>
       </g>
      </g>
      <g class="com.sun.star.drawing.ClosedBezierShape">
       <g id="id15">
        <rect class="BoundingBox" stroke="none" fill="none" x="10434" y="13039" width="11982" height="11985"/>
        <path fill="rgb(0,0,0)" stroke="none" d="M 16423,13039 C 13120,13039 10434,15726 10434,19030 10434,22333 13122,25022 16423,25022 19726,25022 22415,22333 22415,19030 22415,15726 19726,13039 16423,13039 Z M 16423,13968 C 19225,13968 21486,16229 21486,19030 21486,21832 19225,24093 16423,24093 13623,24093 11363,21832 11363,19030 11363,16229 13623,13968 16423,13968 Z"/>
       </g>
      </g>
      <g class="com.sun.star.drawing.ClosedBezierShape">
       <g id="id16">
        <rect class="BoundingBox" stroke="none" fill="none" x="10371" y="12976" width="12108" height="12110"/>
        <path fill="none" stroke="rgb(0,0,0)" stroke-width="125" stroke-linejoin="miter" d="M 16424,13039 C 13120,13039 10434,15726 10434,19030 10434,22333 13122,25022 16424,25022 19726,25022 22415,22333 22415,19030 22415,15726 19726,13039 16424,13039 Z"/>
       </g>
      </g>
      <g class="com.sun.star.drawing.ClosedBezierShape">
       <g id="id17">
        <rect class="BoundingBox" stroke="none" fill="none" x="11298" y="13905" width="10251" height="10253"/>
        <path fill="none" stroke="rgb(0,0,0)" stroke-width="125" stroke-linejoin="miter" d="M 16423,13968 C 19223,13968 21485,16229 21485,19031 21485,21832 19223,24094 16423,24094 13621,24094 11361,21832 11361,19031 11361,16229 13621,13968 16423,13968 Z"/>
       </g>
      </g>
     </g>
    </g>
   </g>
  </g>
 </g>
</svg>