<?xml version="1.0" encoding="iso-8859-1"?>
<!-- Generator: Adobe Illustrator 19.0.0, SVG Export Plug-In . SVG Version: 6.00 Build 0)  -->
<svg version="1.1" id="Capa_1" xmlns="http://www.w3.org/2000/svg" xmlns:xlink="http://www.w3.org/1999/xlink" x="0px" y="0px"
	 viewBox="0 0 512.088 512.088" style="enable-background:new 0 0 512.088 512.088;" xml:space="preserve">
<g>
	<g>
		<path d="M293.624,54.416C261.144,21.928,217.952,4.04,172.008,4.04c-45.952,0-89.144,17.904-121.632,50.384
			C17.888,86.904,0,130.104,0,176.04c0,45.952,17.888,89.136,50.384,121.616C82.856,330.152,126.048,348.04,172,348.04
			c45.944,0,89.144-17.888,121.624-50.376C360.688,230.592,360.688,121.48,293.624,54.416z M282.312,286.352
			C252.84,315.816,213.672,332.04,172,332.04s-80.84-16.224-110.304-45.696C32.224,256.88,16,217.712,16,176.04
			c0-41.664,16.224-80.84,45.688-110.304C91.16,36.264,130.336,20.04,172.008,20.04s80.848,16.224,110.304,45.688
			C343.136,126.544,343.136,225.52,282.312,286.352z"/>
	</g>
</g>
<g>
	<g>
		<path d="M509.728,394.992l-175.544-175.56c-3.128-3.128-8.184-3.128-11.312,0s-3.128,8.184,0,11.312l175.552,175.56
			c1.56,1.56,3.608,2.344,5.656,2.344c2.048,0,4.096-0.776,5.648-2.344C512.856,403.176,512.856,398.12,509.728,394.992z"/>
	</g>
</g>
<g>
	<g>
		<path d="M397.656,494.392L368,464.736v-28.688c0-4.424-3.576-8-8-8h-28.688L320,416.736v-28.688c0-4.424-3.576-8-8-8h-28.688
			l-53.968-53.968c-3.128-3.128-8.184-3.128-11.312,0c-3.128,3.128-3.128,8.184,0,11.312l56.312,56.312
			c1.496,1.504,3.528,2.344,5.656,2.344h24v24c0,2.128,0.84,4.152,2.344,5.656l16,16c1.496,1.504,3.528,2.344,5.656,2.344h24v24
			c0,2.128,0.84,4.152,2.344,5.656l32,32c1.56,1.56,3.608,2.344,5.656,2.344c2.048,0,4.096-0.784,5.656-2.344
			C400.784,502.576,400.784,497.52,397.656,494.392z"/>
	</g>
</g>
<g>
	<g>
		<path d="M504.08,392.656c-4.424,0-8,3.576-8,8v79.176c0,4.424,3.576,8,8,8c4.424,0,8-3.584,8-8v-79.176
			C512.08,396.232,508.504,392.656,504.08,392.656z"/>
	</g>
</g>
<g>
	<g>
		<path d="M511.96,478.416c-0.792-4.344-4.896-7.248-9.296-6.456l-112.08,20.216c-4.344,0.792-7.24,4.944-6.456,9.296
			c0.696,3.864,4.064,6.576,7.864,6.576c0.472,0,0.944-0.04,1.432-0.12l112.08-20.216
			C509.848,486.92,512.744,482.768,511.96,478.416z"/>
	</g>
</g>
<g>
	<g>
		<path d="M458.832,423.264l-151.92-151.912c-3.128-3.128-8.184-3.128-11.312,0c-3.128,3.128-3.128,8.184,0,11.312l151.92,151.912
			c1.56,1.56,3.608,2.344,5.656,2.344c2.04,0,4.088-0.776,5.656-2.344C461.96,431.448,461.96,426.392,458.832,423.264z"/>
	</g>
</g>
<g>
	<g>
		<path d="M144.28,100.36c-4.424,0-8,3.576-8,8v96c0,4.424,3.576,8,8,8c4.424,0,8-3.576,8-8v-96
			C152.28,103.936,148.704,100.36,144.28,100.36z"/>
	</g>
</g>
<g>
	<g>
		<path d="M188.28,140.36c-4.424,0-8,3.576-8,8c0,4.424,3.576,8,8,8c11.032,0,20,8.968,20,20c0,11.032-8.968,20-20,20
			c-4.424,0-8,3.576-8,8c0,4.424,3.576,8,8,8c19.856,0,36-16.152,36-36C224.28,156.512,208.128,140.36,188.28,140.36z"/>
	</g>
</g>
<g>
	<g>
		<path d="M188.28,100.36c-4.424,0-8,3.576-8,8s3.576,8,8,8c6.616,0,12,5.384,12,12c0,6.616-5.384,12-12,12c-4.424,0-8,3.576-8,8
			c0,4.424,3.576,8,8,8c15.44,0,28-12.56,28-28S203.72,100.36,188.28,100.36z"/>
	</g>
</g>
<g>
	<g>
		<path d="M188.28,100.36h-52c-4.424,0-8,3.576-8,8s3.576,8,8,8h52c4.424,0,8-3.576,8-8S192.704,100.36,188.28,100.36z"/>
	</g>
</g>
<g>
	<g>
		<path d="M188.28,140.36h-44c-4.424,0-8,3.576-8,8c0,4.424,3.576,8,8,8h44c4.424,0,8-3.576,8-8
			C196.28,143.936,192.704,140.36,188.28,140.36z"/>
	</g>
</g>
<g>
	<g>
		<path d="M188.28,196.36h-52c-4.424,0-8,3.576-8,8c0,4.424,3.576,8,8,8h52c4.424,0,8-3.576,8-8
			C196.28,199.936,192.704,196.36,188.28,196.36z"/>
	</g>
</g>
<g>
	<g>
		<path d="M168.28,92.36c-4.424,0-8,3.576-8,8v8c0,4.424,3.576,8,8,8c4.424,0,8-3.576,8-8v-8
			C176.28,95.936,172.704,92.36,168.28,92.36z"/>
	</g>
</g>
<g>
	<g>
		<path d="M168.28,196.36c-4.424,0-8,3.576-8,8v8c0,4.424,3.576,8,8,8c4.424,0,8-3.576,8-8v-8
			C176.28,199.936,172.704,196.36,168.28,196.36z"/>
	</g>
</g>
<g>
	<g>
		<path d="M172,52.04c-59.552,0-108,48.456-108,108.008s48.448,108,108,108s108-48.448,108-108S231.552,52.04,172,52.04z
			 M172,252.048c-50.728,0-92-41.272-92-92c0-50.736,41.272-92.008,92-92.008c50.728,0,92,41.272,92,92.008
			C264,210.776,222.728,252.048,172,252.048z"/>
	</g>
</g>
<g>
	<g>
		<path d="M272,184.056c-4.424,0-8,3.576-8,8c0,50.728-41.272,92-92,92c-50.728,0-92-41.272-92-92c0-4.424-3.576-8-8-8s-8,3.576-8,8
			c0,59.552,48.448,108,108,108s108-48.448,108-108C280,187.632,276.424,184.056,272,184.056z"/>
	</g>
</g>
<g>
	<g>
		<path d="M272,152.048c-4.424,0-8,3.576-8,8v32.008c0,4.424,3.576,8,8,8s8-3.576,8-8v-32.008
			C280,155.624,276.424,152.048,272,152.048z"/>
	</g>
</g>
<g>
	<g>
		<path d="M72,152.048c-4.424,0-8,3.576-8,8v32.008c0,4.424,3.576,8,8,8s8-3.576,8-8v-32.008C80,155.624,76.424,152.048,72,152.048z
			"/>
	</g>
</g>
<g>
	<g>
		<path d="M136,245.36c-4.424,0-8,3.576-8,8v32.008c0,4.424,3.576,8,8,8s8-3.576,8-8V253.36C144,248.936,140.424,245.36,136,245.36z
			"/>
	</g>
</g>
<g>
	<g>
		<path d="M208,245.36c-4.424,0-8,3.576-8,8v32.008c0,4.424,3.576,8,8,8s8-3.576,8-8V253.36C216,248.936,212.424,245.36,208,245.36z
			"/>
	</g>
</g>
<g>
</g>
<g>
</g>
<g>
</g>
<g>
</g>
<g>
</g>
<g>
</g>
<g>
</g>
<g>
</g>
<g>
</g>
<g>
</g>
<g>
</g>
<g>
</g>
<g>
</g>
<g>
</g>
<g>
</g>
</svg>
