<?xml version="1.0" encoding="iso-8859-1"?>
<!-- Generator: Adobe Illustrator 19.0.0, SVG Export Plug-In . SVG Version: 6.00 Build 0)  -->
<svg version="1.1" id="Capa_1" xmlns="http://www.w3.org/2000/svg" xmlns:xlink="http://www.w3.org/1999/xlink" x="0px" y="0px"
	 viewBox="0 0 512.144 512.144" style="enable-background:new 0 0 512.144 512.144;" xml:space="preserve">
<g>
	<g>
		<path d="M256,183.976c-48.52,0-88,39.48-88,88c0,48.52,39.48,88,88,88c48.528,0,88-39.48,88-88S304.52,183.976,256,183.976z
			 M256,343.976c-39.704,0-72-32.296-72-72s32.296-72,72-72c39.704,0,72,32.296,72,72C328,311.68,295.704,343.976,256,343.976z"/>
	</g>
</g>
<g>
	<g>
		<path d="M240,223.976c-4.424,0-8,3.576-8,8v72c0,4.424,3.576,8,8,8c4.424,0,8-3.576,8-8v-72
			C248,227.552,244.424,223.976,240,223.976z"/>
	</g>
</g>
<g>
	<g>
		<path d="M264,223.976c-4.424,0-8,3.576-8,8s3.576,8,8,8c4.416,0,8,3.584,8,7.992c0,4.416-3.584,8-8,8c-4.424,0-8,3.576-8,8
			s3.576,8,8,8c13.24,0,24-10.76,24-24C288,234.744,277.232,223.976,264,223.976z"/>
	</g>
</g>
<g>
	<g>
		<path d="M267.992,255.96c-4.424,0-8,3.576-8,8s3.576,8,8,8c6.624,0,12.008,5.392,12.008,12.016c0,6.616-5.384,12-12.008,12
			c-4.424,0-8,3.576-8,8s3.576,8,8,8c15.448,0,28.008-12.56,28.008-28C296,268.528,283.44,255.96,267.992,255.96z"/>
	</g>
</g>
<g>
	<g>
		<path d="M264,223.976h-32c-4.424,0-8,3.576-8,8s3.576,8,8,8h32c4.424,0,8-3.576,8-8S268.424,223.976,264,223.976z"/>
	</g>
</g>
<g>
	<g>
		<path d="M267.992,295.976H232c-4.424,0-8,3.576-8,8s3.576,8,8,8h35.992c4.424,0,8-3.576,8-8S272.416,295.976,267.992,295.976z"/>
	</g>
</g>
<g>
	<g>
		<path d="M267.992,255.96c0,0,0,0-0.008,0l-27.992,0.016c-4.416,0-7.992,3.584-7.992,8.008c0,4.416,3.584,7.992,8,7.992l28-0.016
			c4.416,0,7.992-3.584,7.992-8.008C275.992,259.536,272.408,255.96,267.992,255.96z"/>
	</g>
</g>
<g>
	<g>
		<path d="M256,215.968c-4.424,0-8,3.576-8,8v8.008c0,4.424,3.576,8,8,8c4.424,0,8-3.576,8-8v-8.008
			C264,219.544,260.424,215.968,256,215.968z"/>
	</g>
</g>
<g>
	<g>
		<path d="M256,295.976c-4.424,0-8,3.576-8,8v8c0,4.424,3.576,8,8,8c4.424,0,8-3.576,8-8v-8
			C264,299.552,260.424,295.976,256,295.976z"/>
	</g>
</g>
<g>
	<g>
		<path d="M64,103.976c-4.424,0-8,3.576-8,8v32c0,4.424,3.576,8,8,8c4.424,0,8-3.576,8-8v-32C72,107.552,68.424,103.976,64,103.976z
			"/>
	</g>
</g>
<g>
	<g>
		<path d="M112,103.976c-13.232,0-24,10.768-24,24s10.768,24,24,24c13.24,0,24-10.768,24-24S125.232,103.976,112,103.976z
			 M112,135.976c-4.416,0-8-3.584-8-8s3.584-8,8-8c4.416,0,8,3.584,8,8S116.416,135.976,112,135.976z"/>
	</g>
</g>
<g>
	<g>
		<path d="M160,103.976c-4.424,0-8,3.576-8,8v32c0,4.424,3.576,8,8,8c4.424,0,8-3.576,8-8v-32
			C168,107.552,164.424,103.976,160,103.976z"/>
	</g>
</g>
<g>
	<g>
		<path d="M208,103.976c-13.232,0-24,10.768-24,24s10.768,24,24,24c13.24,0,24-10.768,24-24S221.232,103.976,208,103.976z
			 M208,135.976c-4.416,0-8-3.584-8-8s3.584-8,8-8c4.416,0,8,3.584,8,8S212.416,135.976,208,135.976z"/>
	</g>
</g>
<g>
	<g>
		<path d="M256,103.976c-4.424,0-8,3.576-8,8v32c0,4.424,3.576,8,8,8c4.424,0,8-3.576,8-8v-32
			C264,107.552,260.424,103.976,256,103.976z"/>
	</g>
</g>
<g>
	<g>
		<path d="M304,103.976c-13.232,0-24,10.768-24,24s10.768,24,24,24c13.24,0,24-10.768,24-24S317.232,103.976,304,103.976z
			 M304,135.976c-4.416,0-8-3.584-8-8s3.584-8,8-8c4.416,0,8,3.584,8,8S308.416,135.976,304,135.976z"/>
	</g>
</g>
<g>
	<g>
		<path d="M352,103.976c-4.424,0-8,3.576-8,8v32c0,4.424,3.576,8,8,8c4.424,0,8-3.576,8-8v-32
			C360,107.552,356.424,103.976,352,103.976z"/>
	</g>
</g>
<g>
	<g>
		<path d="M400,103.976c-13.232,0-24,10.768-24,24s10.768,24,24,24c13.24,0,24-10.768,24-24S413.232,103.976,400,103.976z
			 M400,135.976c-4.416,0-8-3.584-8-8s3.584-8,8-8c4.416,0,8,3.584,8,8S404.416,135.976,400,135.976z"/>
	</g>
</g>
<g>
	<g>
		<path d="M448,103.976c-4.424,0-8,3.576-8,8v32c0,4.424,3.576,8,8,8c4.424,0,8-3.576,8-8v-32
			C456,107.552,452.424,103.976,448,103.976z"/>
	</g>
</g>
<g>
	<g>
		<path d="M64,247.976c-4.424,0-8,3.576-8,8v32c0,4.424,3.576,8,8,8c4.424,0,8-3.576,8-8v-32C72,251.552,68.424,247.976,64,247.976z
			"/>
	</g>
</g>
<g>
	<g>
		<path d="M112,247.976c-13.232,0-24,10.768-24,24s10.768,24,24,24c13.24,0,24-10.768,24-24S125.232,247.976,112,247.976z
			 M112,279.976c-4.416,0-8-3.584-8-8c0-4.416,3.584-8,8-8c4.416,0,8,3.584,8,8C120,276.392,116.416,279.976,112,279.976z"/>
	</g>
</g>
<g>
	<g>
		<path d="M112,175.976c-4.424,0-8,3.576-8,8v32c0,4.424,3.576,8,8,8c4.424,0,8-3.576,8-8v-32
			C120,179.552,116.424,175.976,112,175.976z"/>
	</g>
</g>
<g>
	<g>
		<path d="M400,175.976c-4.424,0-8,3.576-8,8v32c0,4.424,3.576,8,8,8c4.424,0,8-3.576,8-8v-32
			C408,179.552,404.424,175.976,400,175.976z"/>
	</g>
</g>
<g>
	<g>
		<path d="M112,319.976c-4.424,0-8,3.576-8,8v32c0,4.424,3.576,8,8,8c4.424,0,8-3.576,8-8v-32
			C120,323.552,116.424,319.976,112,319.976z"/>
	</g>
</g>
<g>
	<g>
		<path d="M400,319.976c-4.424,0-8,3.576-8,8v32c0,4.424,3.576,8,8,8c4.424,0,8-3.576,8-8v-32
			C408,323.552,404.424,319.976,400,319.976z"/>
	</g>
</g>
<g>
	<g>
		<path d="M400,247.976c-13.232,0-24,10.768-24,24s10.768,24,24,24c13.24,0,24-10.768,24-24S413.232,247.976,400,247.976z
			 M400,279.976c-4.416,0-8-3.584-8-8c0-4.416,3.584-8,8-8c4.416,0,8,3.584,8,8C408,276.392,404.416,279.976,400,279.976z"/>
	</g>
</g>
<g>
	<g>
		<path d="M448,175.976c-13.232,0-24,10.768-24,24s10.768,24,24,24c13.24,0,24-10.768,24-24S461.232,175.976,448,175.976z
			 M448,207.976c-4.416,0-8-3.584-8-8s3.584-8,8-8c4.416,0,8,3.584,8,8S452.416,207.976,448,207.976z"/>
	</g>
</g>
<g>
	<g>
		<path d="M448,319.976c-13.232,0-24,10.768-24,24s10.768,24,24,24c13.24,0,24-10.768,24-24S461.232,319.976,448,319.976z
			 M448,351.976c-4.416,0-8-3.584-8-8c0-4.416,3.584-8,8-8c4.416,0,8,3.584,8,8C456,348.392,452.416,351.976,448,351.976z"/>
	</g>
</g>
<g>
	<g>
		<path d="M64,319.976c-13.232,0-24,10.768-24,24s10.768,24,24,24c13.24,0,24-10.768,24-24S77.232,319.976,64,319.976z M64,351.976
			c-4.416,0-8-3.584-8-8c0-4.416,3.584-8,8-8c4.416,0,8,3.584,8,8C72,348.392,68.416,351.976,64,351.976z"/>
	</g>
</g>
<g>
	<g>
		<path d="M64,175.976c-13.232,0-24,10.768-24,24s10.768,24,24,24c13.24,0,24-10.768,24-24S77.232,175.976,64,175.976z M64,207.976
			c-4.416,0-8-3.584-8-8s3.584-8,8-8c4.416,0,8,3.584,8,8S68.416,207.976,64,207.976z"/>
	</g>
</g>
<g>
	<g>
		<path d="M448,247.976c-4.424,0-8,3.576-8,8v32c0,4.424,3.576,8,8,8c4.424,0,8-3.576,8-8v-32
			C456,251.552,452.424,247.976,448,247.976z"/>
	</g>
</g>
<g>
	<g>
		<path d="M64,391.976c-4.424,0-8,3.576-8,8v32c0,4.424,3.576,8,8,8c4.424,0,8-3.576,8-8v-32C72,395.552,68.424,391.976,64,391.976z
			"/>
	</g>
</g>
<g>
	<g>
		<path d="M112,391.976c-13.232,0-24,10.768-24,24s10.768,24,24,24c13.24,0,24-10.768,24-24S125.232,391.976,112,391.976z
			 M112,423.976c-4.416,0-8-3.584-8-8c0-4.416,3.584-8,8-8c4.416,0,8,3.584,8,8C120,420.392,116.416,423.976,112,423.976z"/>
	</g>
</g>
<g>
	<g>
		<path d="M160,391.976c-4.424,0-8,3.576-8,8v32c0,4.424,3.576,8,8,8c4.424,0,8-3.576,8-8v-32
			C168,395.552,164.424,391.976,160,391.976z"/>
	</g>
</g>
<g>
	<g>
		<path d="M208,391.976c-13.232,0-24,10.768-24,24s10.768,24,24,24c13.24,0,24-10.768,24-24S221.232,391.976,208,391.976z
			 M208,423.976c-4.416,0-8-3.584-8-8c0-4.416,3.584-8,8-8c4.416,0,8,3.584,8,8C216,420.392,212.416,423.976,208,423.976z"/>
	</g>
</g>
<g>
	<g>
		<path d="M256,391.976c-4.424,0-8,3.576-8,8v32c0,4.424,3.576,8,8,8c4.424,0,8-3.576,8-8v-32
			C264,395.552,260.424,391.976,256,391.976z"/>
	</g>
</g>
<g>
	<g>
		<path d="M304,391.976c-13.232,0-24,10.768-24,24s10.768,24,24,24c13.24,0,24-10.768,24-24S317.232,391.976,304,391.976z
			 M304,423.976c-4.416,0-8-3.584-8-8c0-4.416,3.584-8,8-8c4.416,0,8,3.584,8,8C312,420.392,308.416,423.976,304,423.976z"/>
	</g>
</g>
<g>
	<g>
		<path d="M352,391.976c-4.424,0-8,3.576-8,8v32c0,4.424,3.576,8,8,8c4.424,0,8-3.576,8-8v-32
			C360,395.552,356.424,391.976,352,391.976z"/>
	</g>
</g>
<g>
	<g>
		<path d="M400,391.976c-13.232,0-24,10.768-24,24s10.768,24,24,24c13.24,0,24-10.768,24-24S413.232,391.976,400,391.976z
			 M400,423.976c-4.416,0-8-3.584-8-8c0-4.416,3.584-8,8-8c4.416,0,8,3.584,8,8C408,420.392,404.416,423.976,400,423.976z"/>
	</g>
</g>
<g>
	<g>
		<path d="M448,391.976c-4.424,0-8,3.576-8,8v32c0,4.424,3.576,8,8,8c4.424,0,8-3.576,8-8v-32
			C456,395.552,452.424,391.976,448,391.976z"/>
	</g>
</g>
<g>
	<g>
		<path d="M32.24,40.168h-0.088c-4.416,0-7.952,3.576-7.952,8s3.616,8,8.04,8c4.416,0,8-3.576,8-8S36.656,40.168,32.24,40.168z"/>
	</g>
</g>
<g>
	<g>
		<path d="M56.24,40.168h-0.088c-4.416,0-7.952,3.576-7.952,8s3.616,8,8.04,8c4.416,0,8-3.576,8-8S60.656,40.168,56.24,40.168z"/>
	</g>
</g>
<g>
	<g>
		<path d="M80.24,40.168h-0.088c-4.416,0-7.952,3.576-7.952,8s3.616,8,8.04,8c4.416,0,8-3.576,8-8S84.656,40.168,80.24,40.168z"/>
	</g>
</g>
<g>
	<g>
		<path d="M504.144,56.168h-496c-4.424,0-8,3.576-8,8v415.808c0,4.424,3.576,8,8,8h496c4.424,0,8-3.576,8-7.992V64.168
			C512.144,59.744,508.568,56.168,504.144,56.168z M496.144,471.976h-480V72.168h480V471.976z"/>
	</g>
</g>
<g>
	<g>
		<path d="M24,24.168c-13.232,0-24,10.768-24,24c0,4.424,3.576,8,8,8c4.424,0,8-3.584,8-8s3.584-8,8-8c4.424,0,8-3.576,8-8
			S28.424,24.168,24,24.168z"/>
	</g>
</g>
<g>
	<g>
		<path d="M8,40.168c-4.424,0-8,3.576-8,8v16c0,4.424,3.576,8,8,8c4.424,0,8-3.584,8-8v-16C16,43.744,12.424,40.168,8,40.168z"/>
	</g>
</g>
<g>
	<g>
		<path d="M488,24.168c-4.424,0-8,3.576-8,8s3.576,8,8,8c4.416,0,8,3.584,8,8c0,4.424,3.576,8,8,8c4.424,0,8-3.584,8-8
			C512,34.936,501.232,24.168,488,24.168z"/>
	</g>
</g>
<g>
	<g>
		<path d="M504,40.168c-4.424,0-8,3.576-8,8v16c0,4.424,3.576,8,8,8c4.424,0,8-3.584,8-8v-16C512,43.744,508.424,40.168,504,40.168z
			"/>
	</g>
</g>
<g>
	<g>
		<path d="M488,24.168H24c-4.424,0-8,3.576-8,8s3.576,8,8,8h464c4.424,0,8-3.576,8-8S492.424,24.168,488,24.168z"/>
	</g>
</g>
<g>
</g>
<g>
</g>
<g>
</g>
<g>
</g>
<g>
</g>
<g>
</g>
<g>
</g>
<g>
</g>
<g>
</g>
<g>
</g>
<g>
</g>
<g>
</g>
<g>
</g>
<g>
</g>
<g>
</g>
</svg>
