<svg xmlns="http://www.w3.org/2000/svg" viewBox="0 0 24 24" x="0px" y="0px"><path d="M6.54558792,9.84755702 L6.54558792,5.5519691 L2.25,5.5519691 L2.25,9.84755702 L6.54558792,9.84755702 Z M2.25,15.8715292 L6.54558792,15.8715292 L6.54558792,11.5759412 L2.25,11.5759412 L2.25,15.8715292 Z M6.54558792,21.8957323 L6.54558792,17.6001451 L2.25,17.6001451 L2.25,21.8957323 L6.54558792,21.8957323 Z M12.5695601,15.8715292 L12.5695601,11.5759412 L8.27397215,11.5759412 L8.27397215,15.8715292 L12.5695601,15.8715292 Z M12.5695601,21.8957323 L12.5695601,17.6001451 L8.27397215,17.6001451 L8.27397215,21.8957323 L12.5695601,21.8957323 Z M18.592837,21.8957323 L18.592837,17.6001451 L14.298176,17.6001451 L14.298176,21.8957323 L18.592837,21.8957323 Z M10.9865638,9.08677186 L14.9345078,7.39216568 L13.2399269,3.44511086 L9.29279238,5.13971704 L10.9865638,9.08677186 Z M19.8458253,15.3873822 L21.2947262,11.3440344 L17.2513784,9.89513345 L15.8024775,13.9384813 L19.8458253,15.3873822 Z M17.4655654,7.15389605 L21.7165629,6.5344294 L21.0971022,2.28347255 L16.8461047,2.90356191 L17.4655654,7.15389605 Z"></path></svg>