<svg xmlns="http://www.w3.org/2000/svg" xmlns:xlink="http://www.w3.org/1999/xlink" version="1.1" x="0px" y="0px" viewBox="0 0 100 100" enable-background="new 0 0 100 100" xml:space="preserve"><g><path d="M10.9,58.7c3.6,0,6.6-2.2,7.7-5.4h8c0.6,4.2,2.3,8,4.8,11.2l-5.6,5.6c-1.1-0.5-2.2-0.8-3.5-0.8c-4.6,0-8.2,3.7-8.2,8.2   c0,4.6,3.7,8.2,8.2,8.2c4.6,0,8.2-3.7,8.2-8.2c0-1.2-0.3-2.4-0.8-3.5l5.6-5.6c3.3,2.6,7.3,4.3,11.7,4.8v2.2v5.8   c-3.2,1.2-5.4,4.2-5.4,7.7c0,4.6,3.7,8.2,8.2,8.2s8.2-3.7,8.2-8.2c0-3.6-2.2-6.6-5.4-7.7v-5.8v-2.2c4.4-0.5,8.4-2.3,11.7-4.8   l5.6,5.6c-0.5,1.1-0.8,2.2-0.8,3.5c0,4.6,3.7,8.2,8.2,8.2s8.2-3.7,8.2-8.2c0-4.6-3.7-8.2-8.2-8.2c-1.2,0-2.4,0.3-3.5,0.8l-5.6-5.6   c2.5-3.2,4.2-7,4.8-11.2h8.2c1.3,2.9,4.2,4.9,7.5,4.9c4.6,0,8.2-3.7,8.2-8.2s-3.7-8.2-8.2-8.2c-3.7,0-6.9,2.5-7.9,5.9h-7.8   c-0.5-4.6-2.2-8.7-4.9-12.1l5.7-5.7c3,1.4,6.8,0.9,9.3-1.7c3.2-3.2,3.2-8.4,0-11.6c-3.2-3.2-8.4-3.2-11.6,0   c-2.5,2.5-3.1,6.2-1.7,9.3L66,30l0,0l-1.5,1.5c-3.3-2.6-7.3-4.3-11.7-4.8v-8c3.2-1.2,5.4-4.2,5.4-7.7c0-4.6-3.7-8.2-8.2-8.2   s-8.2,3.7-8.2,8.2c0,3.6,2.2,6.6,5.4,7.7v8c-4.4,0.5-8.4,2.3-11.7,4.8l-5.6-5.6c0.5-1.1,0.8-2.2,0.8-3.5c0-4.6-3.7-8.2-8.2-8.2   c-4.6,0-8.2,3.7-8.2,8.2c0,4.6,3.7,8.2,8.2,8.2c1.2,0,2.4-0.3,3.5-0.8l5.6,5.6c-2.7,3.4-4.4,7.6-4.9,12.1h-7.9   c-1.2-3.2-4.2-5.4-7.7-5.4c-4.6,0-8.2,3.7-8.2,8.2S6.3,58.7,10.9,58.7z M50,31.9c10,0,18.1,8.1,18.1,18.1c0,10-8.1,18.1-18.1,18.1   S31.9,60,31.9,50C31.9,40,40,31.9,50,31.9z M50,62.5c6.9,0,12.5-5.6,12.5-12.5c0-6.9-5.6-12.5-12.5-12.5S37.5,43.1,37.5,50   C37.5,56.9,43.1,62.5,50,62.5z M45.6,54.9c0.1-0.4,0.2-0.8,0.4-1.2c0.1-0.5,0.3-0.5,0.7-0.3c0.7,0.4,1.5,0.6,2.4,0.7   c0.5,0.1,1.1,0,1.5-0.2c0.9-0.4,1.1-1.5,0.3-2.1c-0.3-0.2-0.6-0.4-0.9-0.5c-0.8-0.4-1.6-0.6-2.4-1.1c-1.2-0.7-2-1.8-1.9-3.3   c0.1-1.7,1.1-2.8,2.6-3.3c0.6-0.2,0.6-0.2,0.6-0.9c0-0.2,0-0.5,0-0.7c0-0.5,0.1-0.6,0.6-0.6c0.2,0,0.3,0,0.5,0c1.1,0,1.1,0,1.1,1.1   c0,0.8,0,0.8,0.8,0.9c0.6,0.1,1.1,0.3,1.7,0.5c0.3,0.1,0.4,0.3,0.3,0.6c-0.1,0.5-0.3,0.9-0.4,1.4c-0.1,0.4-0.3,0.5-0.7,0.3   c-0.8-0.4-1.7-0.6-2.6-0.5c-0.2,0-0.5,0-0.7,0.1c-0.8,0.4-0.9,1.2-0.2,1.8c0.3,0.3,0.7,0.5,1.1,0.6c0.7,0.3,1.4,0.6,2.1,0.9   c2.1,1.2,2.7,3.9,1.2,5.7c-0.5,0.7-1.3,1.1-2.1,1.3c-0.4,0.1-0.5,0.3-0.5,0.7c0,0.4,0,0.7,0,1.1c0,0.3-0.2,0.5-0.5,0.5   c-0.4,0-0.8,0-1.2,0c-0.3,0-0.5-0.2-0.5-0.5c0-0.3,0-0.5,0-0.8c0-0.6,0-0.6-0.6-0.7c-0.7-0.1-1.5-0.3-2.1-0.6   C45.5,55.6,45.5,55.5,45.6,54.9z"></path></g></svg>