<svg data-color="1" xmlns="http://www.w3.org/2000/svg" xmlns:xlink="http://www.w3.org/1999/xlink" version="1.1" x="0px" y="0px" viewBox="10.86400032043457 4.041999816894531 80.6620101928711 92.66199493408203" enable-background="new 0 0 100 100" xml:space="preserve"
fill="orange"
height="142">
<!-- svg height="142" viewBox="0 0 79.6620101928711 91.66199493408203" -->
<g>
<path stroke="#4a1f4f" stroke-width="1.7" d="M50.648,5.042L11.864,27.434v44.878l38.634,22.306l0.15,0.086l38.728-22.305l0.15-0.087V27.434L50.798,5.128  L50.648,5.042z M49.716,49.576H34.383c-0.138,0-0.25,0.112-0.25,0.25s0.112,0.25,0.25,0.25h15.336l-37.255,21.6V28.068  L49.716,49.576z M59.021,63.811l-7.688-13.3l37.344,21.599L50.898,93.867V50.758l7.689,13.302c0.047,0.08,0.131,0.125,0.217,0.125  c0.043,0,0.086-0.012,0.125-0.034C59.05,64.082,59.09,63.93,59.021,63.811z M51.58,50.076h15.428c0.138,0,0.25-0.112,0.25-0.25  s-0.112-0.25-0.25-0.25H51.584l37.343-21.507v43.607L51.58,50.076z M51.333,49.143l7.688-13.254c0.069-0.12,0.029-0.272-0.091-0.342  c-0.118-0.069-0.272-0.03-0.341,0.091l-7.69,13.259V5.878l37.777,21.757L51.333,49.143z M50.398,48.891l-7.643-13.253  c-0.071-0.12-0.225-0.16-0.342-0.092c-0.119,0.069-0.16,0.222-0.092,0.342l7.644,13.255L12.714,27.636L50.398,5.879V48.891z   M49.967,50.51l-7.645,13.301c-0.068,0.119-0.027,0.272,0.092,0.342c0.04,0.021,0.082,0.033,0.125,0.033  c0.086,0,0.171-0.045,0.217-0.126l7.643-13.297v43.104L12.713,72.108L49.967,50.51z">
</path>
</g>
</svg>

