<svg xmlns="http://www.w3.org/2000/svg" xmlns:xlink="http://www.w3.org/1999/xlink" version="1.1" x="0px" y="0px" viewBox="0 0 100 100" enable-background="new 0 0 100 100" xml:space="preserve"><path d="M85.718,23.156L50.041,5L7.989,29.017l6.175,47.597L50.197,95l41.815-23.828L85.718,23.156z M77.315,41.098L59.878,76.563  L38.839,43.991L77.315,41.098z M38.434,39.973l12.334-29.089l25.465,26.247L38.434,39.973z M80.205,44.37l7.156,24.455L64.12,77.087  L80.205,44.37z M82.767,38.751l0.58-2.624l1.094,8.342L82.767,38.751z M79.522,34.723L59.994,14.595l21.553,10.968L79.522,34.723z   M34.268,39.493l-19.77-9.544l31.408-17.937L34.268,39.493z M56.084,78.129l-36.766-4.465L35.388,46.09L56.084,78.129z   M56.207,82.212l-6.586,7.961L27.089,78.676L56.207,82.212z M61.317,82.369l7.684-2.731l-10.263,5.848L61.317,82.369z   M12.647,33.539l19.81,9.563L17.268,69.163L12.647,33.539z"></path></svg>