<svg xmlns="http://www.w3.org/2000/svg" xmlns:xlink="http://www.w3.org/1999/xlink" xml:space="preserve" version="1.1" style="shape-rendering:geometricPrecision;text-rendering:geometricPrecision;image-rendering:optimizeQuality;" viewBox="0 0 847 847" x="0px" y="0px" fill-rule="evenodd" clip-rule="evenodd"><defs><style type="text/css">
   
    .fil0 {fill:black}
   
  </style></defs><g><path class="fil0" d="M495 537c-2,-15 -8,-37 -17,-49 -6,-8 -23,-23 -32,-14 -17,17 -6,72 1,93 8,27 33,16 33,48l-23 12c-20,11 -27,15 -30,17 -1,-88 -1,-148 0,-231 28,-14 30,13 58,8 21,-3 75,-20 83,-42 4,-12 -18,-21 -28,-22 -15,-2 -36,2 -51,7 -9,3 -23,8 -30,14 -12,10 -15,23 -32,30l0 -40c0,0 1,0 2,-1 5,-3 12,-8 18,-10 7,-3 18,0 26,-1 13,-2 30,-12 41,-21 11,-7 31,-26 28,-39 -1,-8 -6,-10 -16,-10 -15,0 -28,5 -42,13 -39,24 -33,44 -38,51 -1,3 -14,10 -19,13l0 -61c3,-2 8,-8 15,-10 3,-1 12,5 31,-7 17,-10 35,-35 40,-53 4,-13 -3,-22 -14,-20 -10,2 -25,11 -34,18 -9,8 -22,23 -26,35 -3,10 0,19 -2,22 -2,4 -7,8 -10,11l0 -3c0,-37 0,-38 3,-42 2,-4 7,-10 11,-17 5,-6 8,-13 11,-20 2,-8 2,-16 3,-26 0,-9 0,-20 -1,-30 -2,-10 -5,-20 -8,-27 -3,-7 -6,-11 -10,-14 -3,-3 -6,-4 -10,-3 -4,0 -8,2 -13,8 -5,6 -10,17 -13,31 -2,13 -3,29 -3,42 1,12 4,21 8,29 4,9 10,17 13,23 3,6 4,11 3,49 -2,-3 -6,-6 -7,-10 -2,-3 1,-11 -2,-22 -3,-12 -15,-28 -24,-36 -8,-7 -23,-17 -33,-20 -11,-3 -18,6 -15,19 5,18 21,45 38,56 18,12 27,7 31,8 5,2 10,7 12,9 0,17 0,39 0,62 -5,-4 -17,-12 -19,-14 -4,-7 2,-28 -35,-54 -14,-9 -27,-14 -42,-15 -9,0 -15,1 -17,10 -2,12 17,32 27,40 11,9 27,20 40,23 8,1 20,-1 26,2 6,2 13,8 18,11 1,1 2,1 2,2 0,12 0,25 0,37 -18,-6 -22,-19 -34,-30 -7,-5 -21,-10 -30,-13 -15,-5 -37,-9 -52,-6 -9,1 -31,10 -26,22 7,22 62,38 84,41 27,4 28,-23 57,-9l1 0c-1,37 -1,156 -1,233 -2,-1 -9,-5 -31,-17l-23 -12c0,-32 25,-21 34,-48 7,-21 17,-76 1,-93 -9,-9 -27,6 -32,14 -9,12 -15,34 -18,49 -1,10 -3,24 -1,33 4,15 13,24 12,43l-35 -19c0,0 0,-1 -1,-2 0,-6 -1,-15 0,-22 1,-6 8,-15 11,-23 4,-12 3,-32 1,-46 -2,-13 -10,-39 -22,-43 -8,-3 -12,1 -16,9 -7,14 -9,28 -8,44 3,45 24,50 28,57 1,3 1,18 2,24l-54 -29c0,-3 -3,-11 -2,-18 1,-3 10,-9 9,-31 -2,-19 -16,-47 -30,-60 -9,-9 -20,-8 -23,4 -3,9 -2,27 0,38 3,11 10,30 19,39 8,7 17,9 18,12 3,4 4,10 5,14l-2 -2c-33,-17 -34,-17 -36,-21 -2,-4 -6,-11 -10,-18 -3,-7 -7,-14 -13,-19 -6,-5 -13,-10 -21,-15 -9,-4 -18,-9 -27,-13 -10,-4 -20,-5 -28,-6 -8,0 -13,1 -17,2 -3,2 -6,5 -7,8 -2,4 -2,8 1,16 3,7 11,16 22,25 10,9 24,17 35,22 11,5 20,7 30,7 9,1 19,-1 26,-1 7,0 11,2 45,20 -4,1 -8,2 -12,2 -4,0 -10,-6 -21,-9 -11,-3 -31,1 -43,5 -10,4 -25,13 -32,20 -8,9 -4,19 10,22 18,5 49,2 66,-7 19,-11 19,-21 22,-24 4,-4 10,-6 14,-7 14,8 34,18 54,29 -6,2 -18,10 -21,10 -8,1 -24,-14 -64,7 -14,7 -25,17 -32,30 -5,8 -6,13 0,19 10,8 37,0 48,-5 13,-5 31,-15 39,-25 5,-7 9,-18 14,-22 5,-4 13,-8 18,-11 1,0 2,0 2,-1 12,6 23,12 33,18 -14,13 -27,10 -42,16 -8,3 -18,14 -25,21 -11,11 -25,28 -30,43 -2,9 -5,32 8,34 23,3 62,-38 75,-56 16,-22 -7,-36 19,-55l0 0 29 15c19,10 26,14 29,16 0,36 0,61 1,61 0,0 7,0 7,0 0,-22 -1,-43 -1,-62 3,-1 11,-5 29,-15l29 -15 0 0c26,19 3,33 19,55 13,18 51,59 74,56 13,-2 11,-25 8,-34 -4,-15 -18,-32 -29,-43 -7,-7 -18,-18 -26,-21 -14,-6 -28,-3 -42,-16 11,-6 22,-12 33,-18 1,1 1,1 2,1 6,3 14,7 19,11 5,4 9,15 14,22 8,10 25,20 38,25 12,5 39,13 48,5 7,-6 6,-11 1,-19 -7,-13 -19,-23 -32,-30 -41,-21 -56,-6 -64,-7 -3,0 -15,-8 -21,-10 20,-11 39,-21 54,-29 4,1 10,3 14,7 2,3 2,13 22,24 17,9 48,12 66,7 13,-3 18,-13 10,-22 -7,-7 -23,-16 -33,-20 -11,-4 -31,-8 -43,-5 -10,3 -17,9 -20,9 -4,0 -8,-1 -12,-2 34,-18 37,-20 44,-20 7,0 17,2 27,1 9,0 18,-2 30,-7 11,-5 24,-13 35,-22 11,-9 18,-18 22,-25 3,-8 2,-12 1,-16 -2,-3 -4,-6 -8,-8 -4,-1 -9,-2 -16,-2 -8,1 -18,2 -28,6 -10,4 -19,9 -27,13 -8,5 -16,10 -21,15 -6,5 -10,12 -14,19 -3,7 -7,14 -9,18 -3,4 -4,4 -36,21l-3 2c1,-4 2,-10 5,-14 2,-3 11,-5 19,-12 8,-9 16,-28 18,-39 3,-11 3,-29 1,-38 -3,-12 -14,-13 -24,-4 -13,13 -28,41 -29,60 -1,22 8,28 8,31 2,7 -1,15 -1,18l-54 29c0,-6 1,-21 2,-24 4,-7 25,-12 28,-57 1,-16 -1,-30 -8,-44 -4,-8 -8,-12 -17,-9 -12,4 -19,30 -21,43 -2,14 -3,34 1,46 3,8 10,17 11,23 1,7 0,16 -1,22 0,1 0,2 0,2l-35 19c-2,-19 8,-28 12,-43 2,-9 0,-23 -2,-33z"></path></g></svg>