<svg xmlns="http://www.w3.org/2000/svg" xmlns:xlink="http://www.w3.org/1999/xlink" version="1.1" x="0px" y="0px" viewBox="0 0 128 128" enable-background="new 0 0 128 128" xml:space="preserve"><g><path d="M10.3,45.6c0.4,0,0.8-0.3,0.8-0.8V33.5c0-0.4-0.3-0.8-0.8-0.8c-0.4,0-0.8,0.3-0.8,0.8v11.4C9.5,45.3,9.9,45.6,10.3,45.6z"></path><path d="M11,52.3v-3.7c0-0.4-0.3-0.8-0.8-0.8c-0.4,0-0.8,0.3-0.8,0.8v3.7c0,0.4,0.3,0.8,0.8,0.8C10.7,53.1,11,52.7,11,52.3z"></path><path d="M110.2,84.8c-0.4,0-0.8,0.3-0.8,0.8v11.4c0,0.4,0.3,0.8,0.8,0.8c0.4,0,0.8-0.3,0.8-0.8V85.5   C111,85.1,110.7,84.8,110.2,84.8z"></path><path d="M110.2,99.9c-0.4,0-0.8,0.3-0.8,0.8v3.7c0,0.4,0.3,0.8,0.8,0.8c0.4,0,0.8-0.3,0.8-0.8v-3.7   C111,100.3,110.7,99.9,110.2,99.9z"></path><path d="M111.6,59.7c-0.3-0.3-0.8-0.3-1.1,0c-0.3,0.3-0.3,0.8,0,1.1l1.7,1.7c0.1,0.1,0.3,0.2,0.5,0.2c0.2,0,0.4-0.1,0.5-0.2   c0.3-0.3,0.3-0.8,0-1.1L111.6,59.7z"></path><path d="M117.2,65.4c-0.3-0.3-0.8-0.3-1.1,0c-0.3,0.3-0.3,0.8,0,1.1l1.7,1.7c0.1,0.1,0.3,0.2,0.5,0.2c0.2,0,0.4-0.1,0.5-0.2   c0.3-0.3,0.3-0.8,0-1.1L117.2,65.4z"></path><path d="M112.3,65.4l-1.7,1.7c-0.3,0.3-0.3,0.8,0,1.1c0.1,0.1,0.3,0.2,0.5,0.2c0.2,0,0.4-0.1,0.5-0.2l1.7-1.7   c0.3-0.3,0.3-0.8,0-1.1C113,65.1,112.6,65.1,112.3,65.4z"></path><path d="M119,59.7c-0.3-0.3-0.8-0.3-1.1,0l-1.7,1.7c-0.3,0.3-0.3,0.8,0,1.1c0.1,0.1,0.3,0.2,0.5,0.2c0.2,0,0.4-0.1,0.5-0.2l1.7-1.7   C119.2,60.5,119.2,60,119,59.7z"></path><path d="M87.2,117.8c-0.3-0.3-0.8-0.3-1.1,0c-0.3,0.3-0.3,0.8,0,1.1l1.7,1.7c0.1,0.1,0.3,0.2,0.5,0.2c0.2,0,0.4-0.1,0.5-0.2   c0.3-0.3,0.3-0.8,0-1.1L87.2,117.8z"></path><path d="M92.8,123.5c-0.3-0.3-0.8-0.3-1.1,0c-0.3,0.3-0.3,0.8,0,1.1l1.7,1.7c0.1,0.1,0.3,0.2,0.5,0.2c0.2,0,0.4-0.1,0.5-0.2   c0.3-0.3,0.3-0.8,0-1.1L92.8,123.5z"></path><path d="M87.9,123.5l-1.7,1.7c-0.3,0.3-0.3,0.8,0,1.1c0.1,0.1,0.3,0.2,0.5,0.2c0.2,0,0.4-0.1,0.5-0.2l1.7-1.7   c0.3-0.3,0.3-0.8,0-1.1C88.6,123.2,88.2,123.2,87.9,123.5z"></path><path d="M93.5,117.8l-1.7,1.7c-0.3,0.3-0.3,0.8,0,1.1c0.1,0.1,0.3,0.2,0.5,0.2c0.2,0,0.4-0.1,0.5-0.2l1.7-1.7   c0.3-0.3,0.3-0.8,0-1.1S93.8,117.5,93.5,117.8z"></path><path d="M6.3,83.7c-0.3-0.3-0.8-0.3-1.1,0c-0.3,0.3-0.3,0.8,0,1.1l1.7,1.7c0.1,0.1,0.3,0.2,0.5,0.2c0.2,0,0.4-0.1,0.5-0.2   c0.3-0.3,0.3-0.8,0-1.1L6.3,83.7z"></path><path d="M13.6,92.1c0.3-0.3,0.3-0.8,0-1.1l-1.7-1.7c-0.3-0.3-0.8-0.3-1.1,0c-0.3,0.3-0.3,0.8,0,1.1l1.7,1.7   c0.1,0.1,0.3,0.2,0.5,0.2C13.3,92.3,13.5,92.2,13.6,92.1z"></path><path d="M6.9,89.3L5.2,91c-0.3,0.3-0.3,0.8,0,1.1c0.1,0.1,0.3,0.2,0.5,0.2c0.2,0,0.4-0.1,0.5-0.2L8,90.3c0.3-0.3,0.3-0.8,0-1.1   C7.7,89,7.2,89,6.9,89.3z"></path><path d="M12.5,83.7l-1.7,1.7c-0.3,0.3-0.3,0.8,0,1.1c0.1,0.1,0.3,0.2,0.5,0.2c0.2,0,0.4-0.1,0.5-0.2l1.7-1.7c0.3-0.3,0.3-0.8,0-1.1   C13.3,83.4,12.8,83.4,12.5,83.7z"></path><path d="M15.7,10.5c2.1,0,3.9-1.7,3.9-3.9c0-2.1-1.7-3.9-3.9-3.9c-2.1,0-3.9,1.7-3.9,3.9C11.8,8.8,13.6,10.5,15.7,10.5z M15.7,4.3   C17,4.3,18,5.4,18,6.7C18,8,17,9,15.7,9S13.3,8,13.3,6.7C13.3,5.4,14.4,4.3,15.7,4.3z"></path><path d="M119.2,118.2c-2.1,0-3.9,1.7-3.9,3.9c0,2.1,1.7,3.9,3.9,3.9c2.1,0,3.9-1.7,3.9-3.9C123,119.9,121.3,118.2,119.2,118.2z    M119.2,124.4c-1.3,0-2.3-1.1-2.3-2.3c0-1.3,1.1-2.3,2.3-2.3c1.3,0,2.3,1.1,2.3,2.3C121.5,123.3,120.5,124.4,119.2,124.4z"></path><path d="M105.5,32.5c-2.1,0-3.9,1.7-3.9,3.9c0,2.1,1.7,3.9,3.9,3.9c2.1,0,3.9-1.7,3.9-3.9C109.4,34.2,107.6,32.5,105.5,32.5z    M105.5,38.7c-1.3,0-2.3-1.1-2.3-2.3c0-1.3,1.1-2.3,2.3-2.3c1.3,0,2.3,1.1,2.3,2.3C107.9,37.7,106.8,38.7,105.5,38.7z"></path><path d="M111,1.3c0-0.4-0.3-0.8-0.8-0.8H96.5c-0.4,0-0.8,0.3-0.8,0.8S96.1,2,96.5,2h13.7C110.7,2,111,1.7,111,1.3z"></path><path d="M114.7,2h4.4c0.4,0,0.8-0.3,0.8-0.8s-0.3-0.8-0.8-0.8h-4.4c-0.4,0-0.8,0.3-0.8,0.8S114.3,2,114.7,2z"></path><path d="M119.9,6c0-0.4-0.3-0.8-0.8-0.8h-9.6c-0.4,0-0.8,0.3-0.8,0.8s0.3,0.8,0.8,0.8h9.6C119.6,6.7,119.9,6.4,119.9,6z"></path><path d="M102.4,5.2c-0.4,0-0.8,0.3-0.8,0.8s0.3,0.8,0.8,0.8h3.1c0.4,0,0.8-0.3,0.8-0.8s-0.3-0.8-0.8-0.8H102.4z"></path><path d="M36.1,126H22.4c-0.4,0-0.8,0.3-0.8,0.8c0,0.4,0.3,0.8,0.8,0.8h13.7c0.4,0,0.8-0.3,0.8-0.8C36.9,126.3,36.5,126,36.1,126z"></path><path d="M17.9,126h-4.4c-0.4,0-0.8,0.3-0.8,0.8c0,0.4,0.3,0.8,0.8,0.8h4.4c0.4,0,0.8-0.3,0.8-0.8C18.7,126.3,18.3,126,17.9,126z"></path><path d="M12.7,122c0,0.4,0.3,0.8,0.8,0.8H23c0.4,0,0.8-0.3,0.8-0.8c0-0.4-0.3-0.8-0.8-0.8h-9.6C13.1,121.3,12.7,121.6,12.7,122z"></path><path d="M30.2,122.8c0.4,0,0.8-0.3,0.8-0.8c0-0.4-0.3-0.8-0.8-0.8h-3.1c-0.4,0-0.8,0.3-0.8,0.8c0,0.4,0.3,0.8,0.8,0.8H30.2z"></path><path d="M22.1,42c0.4,0,0.8-0.3,0.8-0.8C22.8,22.4,38.2,7,57,7c18.9,0,34.2,15.4,34.2,34.2v35.4c0,0.4,0.3,0.8,0.8,0.8   c0.4,0,0.8-0.3,0.8-0.8V41.3c0-19.7-16-35.7-35.7-35.7c-19.7,0-35.7,16-35.7,35.7C21.3,41.7,21.6,42,22.1,42z"></path><path d="M92,86.7c-5.5,0-10-4.5-10-10V41.3c0-13.7-11.2-24.9-24.9-24.9c-13.7,0-24.9,11.2-24.9,24.9c0,0,0,0.1,0,0.1   c0,0,0,0.1,0,0.1c0,5.5-4.5,10-10,10c-0.4,0-0.8,0.3-0.8,0.8c0,0.4,0.3,0.8,0.8,0.8c6.4,0,11.5-5.2,11.5-11.5c0,0,0-0.1,0-0.1   c0,0,0-0.1,0-0.1c0-12.9,10.5-23.4,23.4-23.4c12.9,0,23.4,10.5,23.4,23.4v35.4c0,6.4,5.2,11.5,11.5,11.5c0.4,0,0.8-0.3,0.8-0.8   C92.7,87.1,92.4,86.7,92,86.7z"></path><path d="M92,81.3c-2.5,0-4.6-2.1-4.6-4.6V41.3c0-16.7-13.6-30.3-30.3-30.3c-16.7,0-30.3,13.6-30.3,30.3c0,0,0,0.1,0,0.1   c0,0,0,0.1,0,0.1c0,2.5-2.1,4.6-4.6,4.6c-0.4,0-0.8,0.3-0.8,0.8s0.3,0.8,0.8,0.8c3.4,0,6.1-2.7,6.1-6.1c0,0,0-0.1,0-0.1   c0,0,0-0.1,0-0.1c0-15.9,12.9-28.8,28.8-28.8c15.9,0,28.8,12.9,28.8,28.8v35.4c0,3.4,2.7,6.1,6.1,6.1c0.4,0,0.8-0.3,0.8-0.8   C92.7,81.6,92.4,81.3,92,81.3z"></path><path d="M64.9,40.6c-0.4,0-0.8,0.3-0.8,0.8l0,35.3c0,7.4,2.9,14.4,8.1,19.6c4.3,4.3,9.7,7.1,15.6,7.9c0,0,0.1,0,0.1,0   c0.4,0,0.7-0.3,0.7-0.7c0.1-0.4-0.2-0.8-0.6-0.8c-5.6-0.8-10.7-3.3-14.8-7.5c-5-5-7.7-11.6-7.7-18.6l0-35.3   C65.7,41,65.4,40.6,64.9,40.6z"></path><path d="M90.4,97.5c-5-0.4-9.6-2.5-13.2-6.1c-3.9-3.9-6.1-9.2-6.1-14.8l0-35.4c0-3.8-1.5-7.3-4.1-9.9c-2.7-2.7-6.2-4.1-9.9-4.1   c-0.4,0-0.8,0.3-0.8,0.8c0,0.4,0.3,0.8,0.8,0.8c3.4,0,6.5,1.3,8.9,3.7c2.4,2.4,3.7,5.5,3.7,8.9l0,35.4c0,6,2.3,11.6,6.6,15.8   C80,96.3,85,98.6,90.3,99c0,0,0,0,0.1,0c0.4,0,0.7-0.3,0.8-0.7C91.1,97.9,90.8,97.5,90.4,97.5z"></path><path d="M91.7,93.6l0.3,0c0.4,0,0.8-0.3,0.8-0.8c0-0.4-0.3-0.8-0.8-0.8l-0.3,0C83.3,92,76.5,85,76.5,76.7V41.3   c0-10.7-8.7-19.5-19.5-19.5c-10.7,0-19.5,8.7-19.5,19.5v0.2C37.6,50,30.6,57,22.1,57c-0.4,0-0.8,0.3-0.8,0.8c0,0.4,0.3,0.8,0.8,0.8   c9.4,0,17-7.6,17-17v-0.2c0-9.9,8.1-18,18-18c9.9,0,18,8.1,18,18v35.4C75,85.9,82.5,93.5,91.7,93.6z"></path><path d="M44.5,63.9c-6,6-13.9,9.3-22.4,9.3c-0.4,0-0.8,0.3-0.8,0.8s0.3,0.8,0.8,0.8c8.9,0,17.2-3.5,23.5-9.7   c6.3-6.3,9.7-14.6,9.7-23.5v-0.2c0-1.9-1.6-3.5-3.5-3.5c-1.7,0-3.1,1.2-3.4,2.8c0,0,0,0.1,0,0.1l0,0.8c0,7-2.7,13.6-7.7,18.6   c-5,5-11.6,7.7-18.6,7.7c-0.4,0-0.8,0.3-0.8,0.8c0,0.4,0.3,0.8,0.8,0.8c7.4,0,14.4-2.9,19.6-8.1c5.3-5.3,8.1-12.2,8.1-19.7l0-0.7   c0.2-0.9,1-1.5,1.9-1.5c1.1,0,2,0.9,2,2v0.2C53.8,50,50.5,57.9,44.5,63.9z"></path><path d="M32.8,106.3c1.2-0.2,2.3-0.4,3.5-0.7c1.1-0.3,2.3-0.5,3.5-0.9c1.2-0.3,2.3-0.7,3.4-1c1.1-0.4,2.2-0.8,3.3-1.2   c0.4-0.2,0.6-0.6,0.4-1c-0.2-0.4-0.6-0.6-1-0.4c-1.1,0.4-2.2,0.8-3.3,1.2c-1.1,0.4-2.2,0.7-3.3,1c-1.1,0.3-2.3,0.6-3.4,0.8   c-1.1,0.2-2.3,0.5-3.4,0.7c-0.4,0.1-0.7,0.5-0.6,0.9c0.1,0.4,0.4,0.6,0.7,0.6C32.7,106.3,32.8,106.3,32.8,106.3z"></path><path d="M52.5,106.5c0.3,0.5,0.7,0.9,1.1,1.3c0.4,0.4,0.7,0.9,1.1,1.3c0.4,0.4,0.8,0.9,1.2,1.3c0.4,0.4,0.8,0.8,1.2,1.2   c1.2,1.2,2.4,2.3,3.6,3.3c0.1,0.1,0.3,0.2,0.5,0.2c0.2,0,0.4-0.1,0.6-0.3c0.3-0.3,0.2-0.8-0.1-1.1c-1.2-1-2.4-2.1-3.5-3.2   c-0.4-0.4-0.8-0.8-1.2-1.2c-0.4-0.4-0.8-0.8-1.1-1.2c-0.4-0.4-0.7-0.8-1.1-1.3c-0.3-0.4-0.7-0.9-1-1.3c-0.3-0.4-0.7-0.9-1-1.3   c-0.3-0.4-0.6-0.9-0.9-1.4c-0.2-0.3-0.7-0.4-1-0.2c-0.3,0.2-0.4,0.7-0.2,1c0.3,0.5,0.6,0.9,1,1.4C51.8,105.6,52.2,106,52.5,106.5z"></path><path d="M50.4,118.2c-1.6-1.6-3.1-3.3-4.5-5c-0.2-0.2-0.5-0.3-0.8-0.2c-2.9,0.9-5.8,1.7-8.8,2.2c-0.4,0.1-0.7,0.5-0.6,0.9   c0.1,0.4,0.5,0.7,0.9,0.6c2.8-0.5,5.7-1.3,8.5-2.1c1.3,1.7,2.8,3.3,4.3,4.8c1.3,1.3,2.7,2.6,4.1,3.8c0.1,0.1,0.3,0.2,0.5,0.2   c0.2,0,0.4-0.1,0.6-0.3c0.3-0.3,0.2-0.8-0.1-1.1C53.1,120.8,51.7,119.5,50.4,118.2z"></path><path d="M63,121.5c-3.1-2-6.1-4.4-8.8-7.1c-2.3-2.3-4.5-4.9-6.3-7.6c-0.2-0.3-0.6-0.4-0.9-0.3c-5.1,1.9-10.4,3.3-15.9,4   c-0.4,0.1-0.7,0.4-0.6,0.8c0.1,0.4,0.4,0.7,0.8,0.7c5.4-0.7,10.6-2,15.7-3.9c1.8,2.6,3.9,5.1,6.2,7.3c2.8,2.8,5.8,5.2,9,7.3   c0.1,0.1,0.3,0.1,0.4,0.1c0.2,0,0.5-0.1,0.6-0.3C63.5,122.2,63.4,121.8,63,121.5z"></path><path d="M76.4,116.3c-5.4-2.1-10.3-5.3-14.5-9.5c-4-4-7.2-8.7-9.3-14c-0.1-0.2-0.2-0.4-0.5-0.4c-0.2-0.1-0.4,0-0.6,0.1   c-8.2,4.8-17.3,7.4-26.9,7.8c-0.4,0-0.7,0.4-0.7,0.8c0,0.4,0.4,0.7,0.8,0.7c9.6-0.4,18.6-2.9,26.9-7.6c2.2,5.1,5.3,9.7,9.3,13.7   c4.3,4.3,9.4,7.7,15,9.9c0.1,0,0.2,0.1,0.3,0.1c0.3,0,0.6-0.2,0.7-0.5C77,116.9,76.8,116.4,76.4,116.3z"></path><path d="M81.4,112.3c-5.8-1.7-11.2-5-15.6-9.3c-5.1-5.1-8.6-11.5-10.1-18.5c-0.1-0.3-0.2-0.5-0.5-0.6c-0.2-0.1-0.5-0.1-0.7,0.1   c-9.1,7-20,10.7-31.5,10.9c-0.4,0-0.7,0.3-0.7,0.8c0,0.4,0.4,0.7,0.8,0.7c11.4-0.2,22.3-3.8,31.4-10.5c1.7,6.8,5.2,13.1,10.2,18.2   c4.5,4.5,10.2,7.9,16.2,9.7c0.1,0,0.1,0,0.2,0c0.3,0,0.6-0.2,0.7-0.5C82,112.8,81.8,112.4,81.4,112.3z"></path><path d="M85.3,107.7c-5.9-1.3-11.4-4.2-15.7-8.6c-6-6-9.3-13.9-9.3-22.4l0-4c0-0.1,0-0.1,0-0.2c-0.1-0.4-0.4-0.6-0.8-0.6   c-0.3,0-0.5,0.2-0.6,0.4C58,73.4,57,74.4,56,75.4c-9,9-20.9,14-33.6,14c-0.4,0-0.8,0.3-0.7,0.8c0,0.4,0.3,0.7,0.8,0.7c0,0,0,0,0,0   c13.1-0.1,25.4-5.2,34.7-14.5c0.6-0.6,1.2-1.2,1.7-1.8v2c0,8.9,3.5,17.2,9.7,23.5c4.6,4.6,10.3,7.7,16.5,9c0.1,0,0.1,0,0.2,0   c0.3,0,0.7-0.2,0.7-0.6C86,108.2,85.7,107.8,85.3,107.7z"></path><path d="M53.2,72.6c3.2-3.2,5.9-6.9,8-10.9c0.2-0.4,0-0.8-0.3-1c-0.4-0.2-0.8,0-1,0.3c-2,3.9-4.6,7.4-7.7,10.6   c-8,8-18.7,12.5-30.1,12.5c-0.4,0-0.8,0.3-0.8,0.8c0,0.4,0.3,0.8,0.8,0.8C33.9,85.5,44.9,81,53.2,72.6z"></path><path d="M51.8,32.3c-4.9,0-8.9,4-8.9,8.9c0,0.1,0,0.2,0.1,0.3c0,5.6-2.2,10.8-6.1,14.7c-3.9,3.9-9.2,6.1-14.8,6.1   c-0.4,0-0.8,0.3-0.8,0.8s0.3,0.8,0.8,0.8c6,0,11.6-2.3,15.8-6.6c4.2-4.2,6.6-9.8,6.6-15.8v-0.2c0-0.1,0-0.2-0.1-0.3   c0.1-4,3.4-7.1,7.4-7.1c4.1,0,7.4,3.3,7.4,7.4v0.2c0,9.9-3.9,19.2-10.9,26.2c-7,7-16.3,10.9-26.2,10.9c-0.4,0-0.8,0.3-0.8,0.8   s0.3,0.8,0.8,0.8c10.3,0,20-4,27.3-11.3c7.3-7.3,11.3-17,11.3-27.3v-0.2C60.7,36.3,56.7,32.3,51.8,32.3z"></path></g></svg>