<svg xmlns="http://www.w3.org/2000/svg" xmlns:xlink="http://www.w3.org/1999/xlink" viewBox="0 0 24 24" version="1.1" x="0px" y="0px"><title>geo-1</title><desc>Created with Sketch.</desc><g stroke="none" stroke-width="1" fill="none" fill-rule="evenodd"><g fill="#000000"><path d="M7.2453,4.7573 L11.4413,11.7503 L7.2453,18.7423 L3.5163,11.7503 L7.2453,4.7573 Z M16.0913,4.5003 L20.2913,11.5003 L11.8743,11.5003 L7.6743,4.5003 L16.0913,4.5003 Z M20.9703,11.7793 C20.9723,11.7683 20.9823,11.7613 20.9823,11.7503 C20.9823,11.7383 20.9723,11.7323 20.9703,11.7203 C20.9683,11.6973 20.9613,11.6803 20.9523,11.6583 C20.9473,11.6463 20.9533,11.6333 20.9473,11.6213 L16.4473,4.1213 C16.4413,4.1113 16.4283,4.1113 16.4213,4.1033 C16.4013,4.0763 16.3763,4.0643 16.3463,4.0473 C16.3173,4.0313 16.2943,4.0163 16.2623,4.0123 C16.2513,4.0103 16.2443,4.0003 16.2323,4.0003 L7.2323,4.0003 C7.2193,4.0003 7.2103,4.0123 7.1973,4.0143 C7.1743,4.0183 7.1573,4.0213 7.1363,4.0303 C7.1253,4.0353 7.1143,4.0293 7.1043,4.0353 C7.0943,4.0413 7.0943,4.0543 7.0853,4.0613 C7.0663,4.0753 7.0553,4.0893 7.0413,4.1083 C7.0333,4.1183 7.0183,4.1203 7.0123,4.1323 L3.0123,11.6323 C3.0073,11.6403 3.0133,11.6493 3.0093,11.6573 C2.9963,11.6883 3.0003,11.7163 3.0003,11.7503 C3.0003,11.7833 2.9963,11.8123 3.0093,11.8423 C3.0133,11.8503 3.0073,11.8593 3.0123,11.8673 L7.0123,19.3673 C7.0203,19.3833 7.0353,19.3903 7.0463,19.4033 C7.0563,19.4163 7.0643,19.4253 7.0773,19.4353 C7.0863,19.4443 7.0923,19.4563 7.1033,19.4633 C7.1033,19.4633 7.1033,19.4643 7.1043,19.4643 L7.1043,19.4643 C7.1433,19.4873 7.1873,19.5003 7.2323,19.5003 L16.2323,19.5003 C16.2903,19.5003 16.3423,19.4733 16.3883,19.4363 C16.3993,19.4263 16.4083,19.4183 16.4173,19.4063 C16.4273,19.3963 16.4393,19.3903 16.4473,19.3783 L20.9473,11.8783 C20.9533,11.8663 20.9473,11.8533 20.9523,11.8413 C20.9613,11.8193 20.9683,11.8023 20.9703,11.7793 L20.9703,11.7793 Z"></path></g></g></svg>