<!-- Generated by IcoMoon.io -->
<svg version="1.1" xmlns="http://www.w3.org/2000/svg" width="24" height="24" viewBox="0 0 24 24">
<title>graphql</title>
<path fill="#e10098" d="M14.051 2.751l4.935 2.85c0.816-0.859 2.173-0.893 3.032-0.077 0.148 0.14 0.274 0.301 0.377 0.477 0.589 1.028 0.232 2.339-0.796 2.928-0.174 0.1-0.361 0.175-0.558 0.223v5.699c1.146 0.273 1.854 1.423 1.58 2.569-0.048 0.204-0.127 0.4-0.232 0.581-0.592 1.023-1.901 1.374-2.927 0.782-0.196-0.113-0.375-0.259-0.526-0.429l-4.905 2.832c0.372 1.124-0.238 2.335-1.361 2.706-0.217 0.071-0.442 0.108-0.67 0.108-1.181 0.001-2.139-0.955-2.14-2.136 0-0.205 0.029-0.41 0.088-0.609l-4.936-2.847c-0.816 0.854-2.171 0.887-3.026 0.070-0.854-0.816-0.886-2.171-0.070-3.026 0.283-0.297 0.646-0.506 1.044-0.603l0.001-5.699c-1.15-0.276-1.858-1.433-1.581-2.584 0.047-0.198 0.123-0.389 0.224-0.566 0.592-1.024 1.902-1.374 2.927-0.782 0.177 0.101 0.339 0.228 0.48 0.377l4.938-2.85c-0.336-1.133 0.311-2.322 1.441-2.657 0.197-0.059 0.404-0.088 0.61-0.088 1.181-0.001 2.139 0.954 2.14 2.134 0.001 0.209-0.030 0.418-0.089 0.617zM13.536 3.628c-0.019 0.021-0.037 0.039-0.058 0.058l6.461 11.19c0.026-0.009 0.056-0.016 0.082-0.023v-5.707c-1.145-0.283-1.842-1.442-1.558-2.588 0.006-0.024 0.012-0.049 0.019-0.072l-4.946-2.858zM10.521 3.687l-0.060-0.060-4.946 2.852c0.327 1.135-0.327 2.318-1.461 2.645-0.026 0.008-0.051 0.014-0.076 0.021v5.708l0.084 0.023 6.459-11.189zM12.597 4.194c-0.39 0.112-0.803 0.112-1.192 0l-6.46 11.189c0.294 0.283 0.502 0.645 0.6 1.041h12.911c0.097-0.398 0.307-0.761 0.603-1.044l-6.462-11.186zM13.583 20.421l4.913-2.838c-0.015-0.047-0.027-0.094-0.038-0.142h-12.916l-0.021 0.083 4.939 2.852c0.388-0.404 0.934-0.653 1.54-0.653 0.627 0 1.19 0.269 1.583 0.698z"></path>
</svg>
