<!-- Generated by IcoMoon.io -->
<svg version="1.1" xmlns="http://www.w3.org/2000/svg" width="24" height="24" viewBox="0 0 24 24">
<title>gravatar</title>
<path fill="#1e8cbe" d="M12 0c-1.326 0-2.4 1.074-2.4 2.4v8.4c0 1.324 1.074 2.398 2.4 2.398s2.4-1.074 2.4-2.398v-5.59c2.795 0.99 4.799 3.654 4.799 6.789 0 3.975-3.225 7.199-7.199 7.199s-7.199-3.223-7.199-7.198c0-1.989 0.805-3.789 2.108-5.091 0.938-0.938 0.938-2.458 0-3.396s-2.458-0.938-3.396 0c-2.169 2.173-3.513 5.173-3.513 8.487 0 6.627 5.373 12 12 12s12-5.373 12-12-5.373-12-12-12z"></path>
</svg>
