<svg xmlns="http://www.w3.org/2000/svg" xmlns:xlink="http://www.w3.org/1999/xlink" version="1.1" x="0px" y="0px" viewBox="0 0 100 100" style="enable-background:new 0 0 100 100;" xml:space="preserve"><style type="text/css">
	.st0{fill-rule:evenodd;clip-rule:evenodd;}
	.st1{fill-rule:evenodd;clip-rule:evenodd;fill:none;stroke:#000000;stroke-width:1.4173;stroke-miterlimit:22.9256;}
	.st2{fill-rule:evenodd;clip-rule:evenodd;fill:none;stroke:#000000;stroke-width:0.7087;stroke-miterlimit:22.9256;}
	.st3{fill-rule:evenodd;clip-rule:evenodd;stroke:#000000;stroke-width:0.216;stroke-miterlimit:22.9256;}
	.st4{fill-rule:evenodd;clip-rule:evenodd;fill:none;stroke:#000000;stroke-width:0.5669;stroke-miterlimit:22.9256;}
	.st5{fill-rule:evenodd;clip-rule:evenodd;stroke:#000000;stroke-width:0.5669;stroke-miterlimit:22.9256;}
</style><path class="st0" d="M49.886,7c-6.7,2.455-10.93,11.361-10.93,17.579c0,5.753,3.621,13.809,9.471,16.928V51.67l-3.262-1.883  c-0.16-6.727-5.995-14.104-11.419-17.156c-5.897-3.31-16.423-4.367-22.031,0.165c-0.952,7.15,5.432,15.584,11.329,18.894  c5.487,3.084,14.988,4.216,20.799,0.701l4.584,2.647v16.505l-4.271-1.039c-1.902-6.452-9.442-12.062-15.467-13.605  c-6.553-1.671-16.994,0.032-21.238,5.861c0.931,7.153,9.28,13.647,15.833,15.318c5.996,1.533,15.439-0.269,20.219-4.969l4.925,1.294  v17.376c0,0.6,0.613,1.223,1.458,1.223c0.845,0,1.458-0.729,1.458-1.223l-0.019-17.301l5.203-1.188  c4.769,4.737,14.174,6.55,20.19,5.013c6.556-1.671,14.9-8.166,15.833-15.318c-4.245-5.826-14.685-7.532-21.238-5.861  c-6.014,1.537-13.534,7.125-15.457,13.561l-4.513,0.859V55.037l4.586-2.648c5.813,3.516,15.313,2.383,20.802-0.701  c5.9-3.31,12.278-11.744,11.329-18.894c-5.608-4.529-16.134-3.475-22.031-0.165c-5.426,3.05-11.262,10.427-11.422,17.157  l-3.264,1.884V41.508c5.848-3.118,9.471-11.175,9.471-16.929C60.813,18.361,56.584,9.455,49.886,7L49.886,7z M51.353,23.897  l6.401-3.696c0.328,1.292,0.518,2.75,0.528,4.378c0,0.348-0.018,0.709-0.052,1.081l-6.88,3.958L51.353,23.897L51.353,23.897z   M57.389,29.501c-1.115,3.308-3.224,6.645-6.037,8.359v-4.874L57.389,29.501L57.389,29.501z M48.435,37.892  c-2.838-1.704-4.951-5.063-6.064-8.393l6.064,3.486V37.892L48.435,37.892z M41.537,25.654c-0.033-0.369-0.051-0.729-0.051-1.074  c-0.011-1.633,0.162-3.094,0.476-4.389l6.464,3.706l0.009,5.722L41.537,25.654L41.537,25.654z M42.969,17.407  c1.296-2.559,3.302-4.065,5.439-4.522l0,7.662L42.969,17.407L42.969,17.407z M51.326,12.907c2.109,0.484,4.091,1.993,5.397,4.523  l-5.381,3.106C51.342,16.527,51.33,15.745,51.326,12.907L51.326,12.907z M74.334,65.998l-5.556,1.369l2.044-7.087  c0.412-0.145,0.814-0.269,1.202-0.368c1.535-0.392,2.962-0.615,4.276-0.695L74.334,65.998L74.334,65.998z M67.321,61.924  l-1.811,6.248l-5.637,1.387C61.084,66.545,64.149,63.771,67.321,61.924L67.321,61.924z M60.335,72.449l5.871-1.445l4.757,4.975  C67.095,75.852,62.82,74.748,60.335,72.449L60.335,72.449z M74.793,75.76l-5.317-5.561l5.559-1.359l5.012,5.253  c-1.182,0.55-2.526,1.031-4.042,1.417C75.623,75.608,75.218,75.692,74.793,75.76L74.793,75.76z M82.647,72.595l-4.356-4.538  l8.428-2.074C86.698,68.223,85.394,70.639,82.647,72.595L82.647,72.595z M86,63.156c-3.615,0.887-4.079,0.986-8.4,2.05l1.713-5.907  C82.634,59.713,84.918,61.206,86,63.156L86,63.156z M26.288,65.998l-2.019-6.961c1.154,0.104,2.391,0.316,3.707,0.652  c0.58,0.149,1.194,0.35,1.826,0.598l2.042,7.081L26.288,65.998L26.288,65.998z M33.345,62.074c2.996,1.851,5.784,4.486,6.858,7.351  l-5.09-1.253L33.345,62.074L33.345,62.074z M39.505,72.256c-2.305,2.038-6.026,3.138-9.557,3.419l4.467-4.671L39.505,72.256  L39.505,72.256z M25.952,75.632c-0.7-0.078-1.358-0.193-1.956-0.346c-1.271-0.324-2.42-0.715-3.455-1.156l5.047-5.29l5.559,1.359  L25.952,75.632L25.952,75.632z M17.861,72.714c-3.063-1.993-4.529-4.53-4.58-6.884l9.05,2.227L17.861,72.714L17.861,72.714z   M13.966,62.995c1.124-2.085,3.609-3.662,7.262-3.977l1.795,6.188C18.453,64.081,18.196,64.034,13.966,62.995L13.966,62.995z   M28.86,40.466v-7.043c1.122,0.407,2.299,0.946,3.523,1.633c0.47,0.264,0.954,0.576,1.442,0.928l-0.011,7.344L28.86,40.466  L28.86,40.466z M36.731,38.525c2.561,2.659,4.71,6.131,4.963,9.351l-4.963-2.865L36.731,38.525L36.731,38.525z M40.186,50.374  c-2.998,1.469-7.259,1.469-10.932,0.652l6.018-3.49L40.186,50.374L40.186,50.374z M25.517,49.82  c-0.394-0.176-0.766-0.361-1.112-0.555c-1.381-0.775-2.569-1.597-3.58-2.445l6.57-3.82l4.96,2.854L25.517,49.82L25.517,49.82z   M18.698,44.7c-2.322-2.799-2.913-5.679-2.159-7.947l7.947,4.588l-5.676,3.277C18.772,44.641,18.734,44.668,18.698,44.7L18.698,44.7  z M18.134,34.306c1.678-1.534,4.388-2.281,7.81-1.677v6.166C21.969,36.5,21.649,36.333,18.134,34.306L18.134,34.306z M70.767,40.466  l-4.954,2.862l-0.011-7.239c0.538-0.396,1.072-0.744,1.588-1.035c1.171-0.657,2.299-1.18,3.377-1.58V40.466L70.767,40.466z   M62.896,38.674l0,6.337l-4.847,2.798C58.339,44.67,60.413,41.294,62.896,38.674L62.896,38.674z M59.457,50.364l4.897-2.827  l6.065,3.517C66.72,51.868,62.44,51.862,59.457,50.364L59.457,50.364z M74.173,49.856l-6.902-4.003L72.231,43l6.656,3.87  c-0.998,0.829-2.165,1.634-3.518,2.394C74.999,49.471,74.598,49.669,74.173,49.856L74.173,49.856z M81.009,44.781  c-0.06-0.068-0.125-0.124-0.193-0.163l-5.676-3.277l8.069-4.658C84.007,38.983,83.412,41.928,81.009,44.781L81.009,44.781z   M81.584,34.253c-3.601,2.076-3.892,2.226-7.901,4.541v-6.14C77.136,32.011,79.878,32.732,81.584,34.253z"></path></svg>