<svg xmlns="http://www.w3.org/2000/svg" xmlns:xlink="http://www.w3.org/1999/xlink" version="1.1" x="0px" y="0px" viewBox="0 0 100 100" enable-background="new 0 0 100 100" xml:space="preserve"><path fill="#000000" d="M43.498,61.845h-22.9c-0.138,0-0.25,0.112-0.25,0.25v14.984h-9.919c-0.138,0-0.25,0.112-0.25,0.25v2.543  c0,0.138,0.112,0.25,0.25,0.25h22.884c0.138,0,0.25-0.112,0.25-0.25v-7.635c0-0.138-0.112-0.25-0.25-0.25h-2.526  c-0.138,0-0.25,0.112-0.25,0.25v4.842h-7.142V64.886h17.302v4.795c0,0.138,0.112,0.25,0.25,0.25H61.05v9.941  c0,0.138,0.112,0.25,0.25,0.25h25.171v9.938c0,0.138,0.111,0.25,0.25,0.25h2.547c0.138,0,0.25-0.112,0.25-0.25v-12.73  c0-0.138-0.112-0.25-0.25-0.25H64.093V67.19c0-0.138-0.112-0.25-0.25-0.25H43.748v-4.846C43.748,61.957,43.636,61.845,43.498,61.845  z"></path><path fill="#000000" d="M71.214,46.815v22.866c0,0.138,0.112,0.25,0.25,0.25h17.804c0.138,0,0.25-0.112,0.25-0.25V56.999  c0-0.138-0.112-0.25-0.25-0.25h-7.616c-0.138,0-0.25,0.112-0.25,0.25v2.543c0,0.138,0.112,0.25,0.25,0.25h4.819v7.148H74.257V49.607  h15.011c0.138,0,0.25-0.112,0.25-0.25V11.201c0-0.138-0.112-0.25-0.25-0.25h-2.547c-0.139,0-0.25,0.112-0.25,0.25v35.364H71.464  C71.326,46.565,71.214,46.677,71.214,46.815z"></path><path fill="#000000" d="M79.1,90.31c0.139,0,0.25-0.112,0.25-0.25v-2.551c0-0.138-0.111-0.25-0.25-0.25H53.902v-9.93  c0-0.138-0.112-0.25-0.25-0.25H40.946c-0.138,0-0.25,0.112-0.25,0.25v9.93H10.429c-0.138,0-0.25,0.112-0.25,0.25v2.551  c0,0.138,0.112,0.25,0.25,0.25h33.069c0.138,0,0.25-0.112,0.25-0.25v-9.938h7.112v7.137h-2.027v-4.836c0-0.138-0.112-0.25-0.25-0.25  h-2.542c-0.138,0-0.25,0.112-0.25,0.25v9.928H8.136v-7.135h30.269c0.138,0,0.25-0.112,0.25-0.25V67.19c0-0.138-0.112-0.25-0.25-0.25  H25.692c-0.138,0-0.25,0.112-0.25,0.25v7.59c0,0.138,0.112,0.25,0.25,0.25h2.545c0.138,0,0.25-0.112,0.25-0.25v-4.85h7.118v12.242  H8.136V75.03h9.911c0.138,0,0.25-0.112,0.25-0.25V46.815c0-0.138-0.112-0.25-0.25-0.25h-2.546c-0.138,0-0.25,0.112-0.25,0.25v25.172  H8.136V39.443h30.269c0.138,0,0.25-0.112,0.25-0.25v-2.545c0-0.138-0.112-0.25-0.25-0.25h-9.917v-7.136h9.917  c0.138,0,0.25-0.112,0.25-0.25V16.294c0-0.138-0.112-0.25-0.25-0.25H15.501c-0.138,0-0.25,0.112-0.25,0.25v2.551  c0,0.138,0.112,0.25,0.25,0.25h20.104v7.118H15.501c-0.138,0-0.25,0.112-0.25,0.25v2.548c0,0.138,0.112,0.25,0.25,0.25h9.941v7.136  H8.136V8.908h37.655v20.104c0,0.138,0.112,0.25,0.25,0.25h22.872c0.139,0,0.25-0.112,0.25-0.25V16.294c0-0.138-0.111-0.25-0.25-0.25  h-9.916v-4.843c0-0.138-0.111-0.25-0.25-0.25h-2.539c-0.139,0-0.25,0.112-0.25,0.25v7.645c0,0.138,0.111,0.25,0.25,0.25h9.938v7.118  H48.833V6.13c0-0.138-0.112-0.25-0.25-0.25H5.334c-0.138,0-0.25,0.112-0.25,0.25v89.023c0,0.138,0.112,0.25,0.25,0.25h43.248  c0.138,0,0.25-0.112,0.25-0.25V90.31H79.1z"></path><path fill="#000000" d="M94.354,5.88H51.109c-0.138,0-0.25,0.112-0.25,0.25v17.812c0,0.138,0.112,0.25,0.25,0.25h12.733  c0.138,0,0.25-0.112,0.25-0.25v-2.555c0-0.138-0.112-0.25-0.25-0.25h-9.94V8.908h22.406v27.49H46.041c-0.138,0-0.25,0.112-0.25,0.25  v2.545c0,0.138,0.112,0.25,0.25,0.25h4.819v7.122H30.786c-0.138,0-0.25,0.112-0.25,0.25v2.542c0,0.138,0.112,0.25,0.25,0.25h22.866  c0.138,0,0.25-0.112,0.25-0.25v-9.914H79.1c0.139,0,0.25-0.112,0.25-0.25V8.908h12.219v42.75h-15.01c-0.139,0-0.25,0.112-0.25,0.25  v12.729c0,0.138,0.111,0.25,0.25,0.25h7.614c0.138,0,0.25-0.112,0.25-0.25v-2.541c0-0.138-0.112-0.25-0.25-0.25H79.35V54.7h12.219  v17.287H69.162V44.513h15.011c0.138,0,0.25-0.112,0.25-0.25V11.201c0-0.138-0.112-0.25-0.25-0.25h-2.521  c-0.138,0-0.25,0.112-0.25,0.25v30.288H56.207c-0.139,0-0.25,0.112-0.25,0.25v9.918h-27.47v-7.144h20.095  c0.138,0,0.25-0.112,0.25-0.25v-2.524c0-0.138-0.112-0.25-0.25-0.25h-4.835v-7.133h30.259c0.138,0,0.25-0.112,0.25-0.25V11.201  c0-0.138-0.112-0.25-0.25-0.25H61.3c-0.138,0-0.25,0.112-0.25,0.25v2.551c0,0.138,0.112,0.25,0.25,0.25h9.914v17.306H43.748V11.201  c0-0.138-0.112-0.25-0.25-0.25H10.429c-0.138,0-0.25,0.112-0.25,0.25v22.905c0,0.138,0.112,0.25,0.25,0.25h12.715  c0.138,0,0.25-0.112,0.25-0.25v-2.548c0-0.138-0.112-0.25-0.25-0.25h-9.917v-7.116h20.086c0.138,0,0.25-0.112,0.25-0.25v-2.555  c0-0.138-0.112-0.25-0.25-0.25H13.227v-7.135h27.47v17.306h-9.91c-0.138,0-0.25,0.112-0.25,0.25v2.548c0,0.138,0.112,0.25,0.25,0.25  h9.91v7.133H25.692c-0.138,0-0.25,0.112-0.25,0.25V54.45c0,0.138,0.112,0.25,0.25,0.25h33.054c0.139,0,0.25-0.112,0.25-0.25v-9.937  h7.148v17.332H48.833v-2.053h15.01c0.138,0,0.25-0.112,0.25-0.25V46.815c0-0.138-0.112-0.25-0.25-0.25H61.3  c-0.138,0-0.25,0.112-0.25,0.25v9.934H23.394v-15.01c0-0.138-0.112-0.25-0.25-0.25H10.429c-0.138,0-0.25,0.112-0.25,0.25v27.942  c0,0.138,0.112,0.25,0.25,0.25h2.548c0.138,0,0.25-0.112,0.25-0.25V44.513h7.121v15.029c0,0.138,0.112,0.25,0.25,0.25h25.193v4.844  c0,0.138,0.112,0.25,0.25,0.25h20.104v9.895c0,0.138,0.111,0.25,0.25,0.25h25.174v17.32h-7.146v-9.928c0-0.138-0.112-0.25-0.25-0.25  H58.996v-9.936c0-0.138-0.111-0.25-0.25-0.25h-17.8c-0.138,0-0.25,0.112-0.25,0.25v2.543c0,0.138,0.112,0.25,0.25,0.25h15.011v9.936  c0,0.138,0.111,0.25,0.25,0.25h25.194v7.135H51.109c-0.138,0-0.25,0.112-0.25,0.25v2.553c0,0.138,0.112,0.25,0.25,0.25h43.245  c0.138,0,0.25-0.112,0.25-0.25V6.13C94.604,5.992,94.492,5.88,94.354,5.88z"></path></svg>