<!-- Generated by IcoMoon.io -->
<svg version="1.1" xmlns="http://www.w3.org/2000/svg" width="24" height="24" viewBox="0 0 24 24">
<title>meetup1</title>
<path fill="#ed1c40" d="M23.978 20.238c-0.304-1.931-3.874-0.444-4.096-2.559-0.313-2.998 4.15-9.459 3.797-11.972-0.313-2.255-1.841-2.73-3.165-2.756-1.284-0.020-1.623 0.182-2.058 0.435-0.253 0.146-0.612 0.435-1.112-0.041-0.334-0.318-0.557-0.536-0.905-0.819-0.182-0.142-0.466-0.324-0.945-0.395-0.476-0.071-1.098 0-1.492 0.167-0.395 0.172-0.702 0.466-1.026 0.749-0.323 0.283-1.147 1.198-1.911 0.859-0.335-0.145-1.458-0.706-2.272-1.055-1.563-0.677-3.822 0.42-4.636 1.866-1.213 2.149-3.6 10.603-3.964 11.715-0.809 2.502 1.032 4.54 3.509 4.424 1.052-0.051 1.75-0.43 2.412-1.638 0.384-0.693 3.979-10.087 4.248-10.543 0.197-0.323 0.844-0.753 1.39-0.475 0.551 0.283 0.662 0.869 0.581 1.421-0.136 0.895-2.669 6.629-2.771 7.275-0.162 1.103 0.359 1.714 1.507 1.774 0.784 0.041 1.567-0.237 2.184-1.41 0.349-0.652 4.349-8.666 4.702-9.202 0.39-0.586 0.703-0.779 1.103-0.758 0.309 0.015 0.799 0.096 0.678 1.016-0.122 0.905-3.343 6.78-3.676 8.221-0.456 1.927 0.602 3.874 2.341 4.728 1.112 0.546 5.97 1.476 5.577-1.027z"></path>
</svg>
