<svg xmlns="http://www.w3.org/2000/svg" xmlns:xlink="http://www.w3.org/1999/xlink" version="1.1" x="0px" y="0px" viewBox="0 0 100 100" enable-background="new 0 0 100 100" xml:space="preserve"><path fill-rule="evenodd" clip-rule="evenodd" d="M81.5,61.5c-6.075,0-11-4.926-11-11s4.925-11,11-11s11,4.925,11,11  S87.575,61.5,81.5,61.5z M81.5,41.5c-4.971,0-9,4.029-9,9s4.029,9,9,9s9-4.029,9-9S86.471,41.5,81.5,41.5z M81.5,30.5  c-6.075,0-11-4.925-11-11s4.925-11,11-11s11,4.925,11,11S87.575,30.5,81.5,30.5z M81.5,10.5c-4.971,0-9,4.029-9,9  c0,4.97,4.029,9,9,9s9-4.03,9-9C90.5,14.529,86.471,10.5,81.5,10.5z M50.5,92.5c-6.075,0-11-4.926-11-11c0-6.075,4.925-11,11-11  s11,4.925,11,11C61.5,87.574,56.575,92.5,50.5,92.5z M50.5,72.5c-4.971,0-9,4.029-9,9s4.029,9,9,9s9-4.029,9-9  S55.471,72.5,50.5,72.5z M50.5,61.5c-6.075,0-11-4.926-11-11s4.925-11,11-11s11,4.925,11,11S56.575,61.5,50.5,61.5z M50.5,41.5  c-4.971,0-9,4.029-9,9s4.029,9,9,9s9-4.029,9-9S55.471,41.5,50.5,41.5z M50.5,30.5c-6.075,0-11-4.925-11-11s4.925-11,11-11  s11,4.925,11,11S56.575,30.5,50.5,30.5z M50.5,10.5c-4.971,0-9,4.029-9,9c0,4.97,4.029,9,9,9s9-4.03,9-9  C59.5,14.529,55.471,10.5,50.5,10.5z M19.5,92.5c-6.075,0-11-4.926-11-11c0-6.075,4.925-11,11-11s11,4.925,11,11  C30.5,87.574,25.575,92.5,19.5,92.5z M19.5,72.5c-4.971,0-9,4.029-9,9s4.029,9,9,9s9-4.029,9-9S24.471,72.5,19.5,72.5z M19.5,61.5  c-6.075,0-11-4.926-11-11s4.925-11,11-11s11,4.925,11,11S25.575,61.5,19.5,61.5z M19.5,41.5c-4.971,0-9,4.029-9,9s4.029,9,9,9  s9-4.029,9-9S24.471,41.5,19.5,41.5z M19.5,30.5c-6.075,0-11-4.925-11-11s4.925-11,11-11s11,4.925,11,11S25.575,30.5,19.5,30.5z   M19.5,10.5c-4.971,0-9,4.029-9,9c0,4.97,4.029,9,9,9s9-4.03,9-9C28.5,14.529,24.471,10.5,19.5,10.5z M81.5,70.5  c6.075,0,11,4.925,11,11c0,6.074-4.925,11-11,11s-11-4.926-11-11C70.5,75.425,75.425,70.5,81.5,70.5z M81.5,90.5  c4.971,0,9-4.029,9-9s-4.029-9-9-9s-9,4.029-9,9S76.529,90.5,81.5,90.5z"></path></svg>