<svg xmlns="http://www.w3.org/2000/svg" xmlns:xlink="http://www.w3.org/1999/xlink" version="1.1" x="0px" y="0px" viewBox="0 0 100 100" enable-background="new 0 0 100 100" xml:space="preserve"><path d="M90,55h-2.5v-7.5H85V45h-2.5v2.5V50H85v2.5h-2.5V50H80v2.5V55h-2.5v-5H80v-2.5V45h-2.5v2.5H75V50h-5v-2.5h-2.5V45H65v2.5V50  h2.5v2.5H70v5h-2.5v-5H65V50h-2.5v-5h-5v2.5H60v5h2.5V55H65v2.5h-2.5V55H60v2.5h-2.5V55H60v-2.5h-2.5v-5H55V45h-2.5v2.5V50H55v2.5  h-2.5V55H55v2.5h-2.5V55H50v2.5h-2.5V55H50v-2.5h2.5V50H50v-2.5V45h-2.5H45v2.5h2.5v5H45v-5h-2.5v5H40V55h-2.5v-2.5H40V50v-2.5h-2.5  V50H35v5h-2.5v2.5H30V55h2.5v-5H35v-2.5h-5V45h-2.5v5H30v2.5h-2.5V50H25v-5h-2.5v2.5H20V50h2.5v2.5H25V55h2.5v2.5H25V60h2.5v2.5H25  V60h-2.5v-2.5H25V55h-2.5v-2.5H20V55h-2.5v-2.5H20V50h-2.5v-2.5H15V45h-2.5v5H15v5h-2.5v-5H10v-5H7.5v5H5v45h90V60h-2.5v-2.5H95V55  h-2.5v-2.5H95V50h-2.5v-2.5H90V55z M17.5,57.5H20V60h-2.5V57.5z M12.5,57.5H15V60h-2.5V57.5z M7.5,52.5H10v5H7.5V52.5z M7.5,60H10  v2.5H7.5V60z M10,70H7.5v-2.5H10V65h2.5v2.5H10V70z M15,75h-2.5v-2.5H15V75z M15,62.5h2.5V65H15V62.5z M20,70h-2.5v-2.5H20V65h2.5  v2.5H20V70z M25,75h-2.5v-2.5H25V75z M72.5,52.5H75V55h-2.5V52.5z M60,60h2.5v2.5H60V60z M50,60h2.5v2.5H50V60z M40,57.5h2.5V55H45  v2.5h-2.5V60H40V57.5z M35,57.5h2.5V60H35V57.5z M30,60h2.5v2.5H30V60z M30,70h-2.5v-2.5H30V65h2.5v2.5H30V70z M35,75h-2.5v-2.5H35  V75z M35,65v-2.5h2.5V65H40v2.5h-2.5V65H35z M42.5,75H40v-2.5h2.5V75z M45,70h-2.5v-2.5H45V70z M45,60h2.5v2.5H45V60z M47.5,65H50  v2.5h-2.5V65z M52.5,75H50v-2.5h2.5V75z M55,70h-2.5v-2.5H55V70z M55,60h2.5v2.5H55V60z M57.5,65H60v2.5h-2.5V65z M62.5,75H60v-1.25  V72.5h2.5V75z M65,70h-2.5v-2.5H65V70z M67.5,65H65v-2.5h2.5V60H70v2.5h-2.5V65z M72.5,75H70v-2.5h2.5V75z M72.5,67.5H70V65h2.5  V67.5z M72.5,57.5H75V60h2.5v2.5H75V60h-2.5V57.5z M75,65h2.5v2.5H75V65z M80,75h-2.5v-2.5H80V75z M85,67.5h-2.5V70H80v-2.5h2.5V65  H85V67.5z M85,57.5h-2.5V60H85v2.5h-2.5V60H80v-2.5h2.5V55H85V57.5z M87.5,57.5H90V60h-2.5V57.5z M90,75h-2.5v-2.5H90V75z   M92.5,67.5H90V65h-2.5v-2.5H90V65h2.5V67.5z"></path><rect x="62.5" y="32.5" width="2.5" height="7.5"></rect><rect x="72.5" y="12.5" width="2.5" height="2.5"></rect><rect x="50" y="12.5" width="2.5" height="2.5"></rect><rect x="35" y="15" width="2.5" height="2.5"></rect><rect x="30" y="20" width="2.5" height="2.5"></rect><rect x="25" y="22.5" width="2.5" height="2.5"></rect><rect x="25" y="27.5" width="2.5" height="2.5"></rect><rect x="25" y="32.5" width="2.5" height="2.5"></rect><rect x="25" y="37.5" width="2.5" height="2.5"></rect><rect x="25" y="42.5" width="2.5" height="2.5"></rect><rect x="22.5" y="40" width="2.5" height="2.5"></rect><rect x="20" y="42.5" width="2.5" height="2.5"></rect><rect x="17.5" y="40" width="2.5" height="2.5"></rect><rect x="15" y="42.5" width="2.5" height="2.5"></rect><rect x="12.5" y="40" width="2.5" height="2.5"></rect><rect x="10" y="42.5" width="2.5" height="2.5"></rect><rect x="7.5" y="40" width="2.5" height="2.5"></rect><rect x="5" y="42.5" width="2.5" height="2.5"></rect><rect x="5" y="35" width="2.5" height="5"></rect><rect x="5" y="30" width="2.5" height="2.5"></rect><rect x="5" y="25" width="2.5" height="2.5"></rect><rect x="20" y="17.5" width="2.5" height="2.5"></rect><rect x="10" y="15" width="2.5" height="2.5"></rect><rect x="10" y="22.5" width="2.5" height="2.5"></rect><rect x="15" y="22.5" width="2.5" height="2.5"></rect><rect x="20" y="25" width="2.5" height="2.5"></rect><rect x="17.5" y="27.5" width="2.5" height="2.5"></rect><rect x="20" y="30" width="2.5" height="2.5"></rect><rect x="17.5" y="32.5" width="2.5" height="2.5"></rect><rect x="20" y="35" width="2.5" height="5"></rect><rect x="15" y="37.5" width="2.5" height="2.5"></rect><rect x="10" y="37.5" width="2.5" height="2.5"></rect><rect x="12.5" y="35" width="2.5" height="2.5"></rect><rect x="10" y="32.5" width="2.5" height="2.5"></rect><rect x="12.5" y="30" width="2.5" height="2.5"></rect><rect x="27.5" y="30" width="2.5" height="2.5"></rect><rect x="27.5" y="35" width="2.5" height="2.5"></rect><rect x="27.5" y="40" width="2.5" height="2.5"></rect><rect x="30" y="37.5" width="5" height="2.5"></rect><rect x="35" y="40" width="2.5" height="2.5"></rect><rect x="40" y="40" width="2.5" height="2.5"></rect><rect x="37.5" y="42.5" width="2.5" height="2.5"></rect><rect x="30" y="42.5" width="5" height="2.5"></rect><rect x="17.5" y="45" width="2.5" height="2.5"></rect><rect x="35" y="45" width="2.5" height="2.5"></rect><rect x="40" y="45" width="2.5" height="2.5"></rect><rect x="42.5" y="42.5" width="2.5" height="2.5"></rect><rect x="42.5" y="37.5" width="2.5" height="2.5"></rect><rect x="42.5" y="32.5" width="2.5" height="2.5"></rect><rect x="42.5" y="27.5" width="2.5" height="2.5"></rect><rect x="42.5" y="20" width="2.5" height="2.5"></rect><rect x="37.5" y="22.5" width="2.5" height="2.5"></rect><rect x="37.5" y="27.5" width="2.5" height="2.5"></rect><rect x="32.5" y="25" width="2.5" height="2.5"></rect><rect x="50" y="42.5" width="2.5" height="2.5"></rect><rect x="50" y="27.5" width="2.5" height="2.5"></rect><rect x="50" y="22.5" width="2.5" height="2.5"></rect><rect x="45" y="25" width="2.5" height="2.5"></rect><rect x="45" y="30" width="2.5" height="2.5"></rect><rect x="45" y="35" width="2.5" height="2.5"></rect><rect x="55" y="37.5" width="2.5" height="2.5"></rect><rect x="55" y="32.5" width="2.5" height="2.5"></rect><rect x="55" y="27.5" width="2.5" height="2.5"></rect><rect x="55" y="20" width="2.5" height="2.5"></rect><rect x="60" y="15" width="2.5" height="2.5"></rect><rect x="62.5" y="22.5" width="2.5" height="2.5"></rect><rect x="57.5" y="25" width="2.5" height="2.5"></rect><rect x="62.5" y="27.5" width="2.5" height="2.5"></rect><rect x="57.5" y="30" width="2.5" height="2.5"></rect><rect x="57.5" y="35" width="2.5" height="2.5"></rect><rect x="52.5" y="40" width="2.5" height="2.5"></rect><rect x="55" y="42.5" width="2.5" height="2.5"></rect><rect x="57.5" y="40" width="5" height="2.5"></rect><rect x="62.5" y="42.5" width="2.5" height="2.5"></rect><rect x="65" y="40" width="2.5" height="2.5"></rect><rect x="67.5" y="37.5" width="2.5" height="2.5"></rect><rect x="70" y="35" width="2.5" height="2.5"></rect><rect x="67.5" y="32.5" width="2.5" height="2.5"></rect><rect x="67.5" y="27.5" width="2.5" height="2.5"></rect><rect x="70" y="25" width="2.5" height="2.5"></rect><rect x="67.5" y="20" width="2.5" height="2.5"></rect><rect x="75" y="22.5" width="2.5" height="2.5"></rect><rect x="75" y="27.5" width="2.5" height="2.5"></rect><rect x="72.5" y="30" width="2.5" height="2.5"></rect><rect x="77.5" y="32.5" width="2.5" height="2.5"></rect><rect x="80" y="30" width="2.5" height="2.5"></rect><rect x="85" y="27.5" width="2.5" height="2.5"></rect><rect x="80" y="25" width="2.5" height="2.5"></rect><rect x="80" y="20" width="2.5" height="2.5"></rect><rect x="87.5" y="20" width="2.5" height="2.5"></rect><rect x="87.5" y="25" width="2.5" height="2.5"></rect><rect x="87.5" y="30" width="2.5" height="2.5"></rect><rect x="85" y="32.5" width="2.5" height="2.5"></rect><rect x="82.5" y="35" width="2.5" height="2.5"></rect><rect x="80" y="37.5" width="2.5" height="2.5"></rect><rect x="77.5" y="40" width="2.5" height="2.5"></rect><rect x="75" y="42.5" width="2.5" height="2.5"></rect><rect x="70" y="45" width="5" height="2.5"></rect><rect x="67.5" y="42.5" width="2.5" height="2.5"></rect><rect x="80" y="42.5" width="2.5" height="2.5"></rect><rect x="82.5" y="40" width="2.5" height="2.5"></rect><rect x="85" y="37.5" width="2.5" height="2.5"></rect><rect x="87.5" y="40" width="2.5" height="2.5"></rect><rect x="90" y="42.5" width="2.5" height="2.5"></rect><rect x="92.5" y="45" width="2.5" height="2.5"></rect><rect x="85" y="42.5" width="2.5" height="2.5"></rect><rect x="87.5" y="45" width="2.5" height="2.5"></rect><rect x="92.5" y="40" width="2.5" height="2.5"></rect><rect x="92.5" y="32.5" width="2.5" height="2.5"></rect><rect x="92.5" y="25" width="2.5" height="5"></rect><rect x="10" y="27.5" width="2.5" height="2.5"></rect><rect x="32.5" y="30" width="2.5" height="5"></rect><rect x="50" y="32.5" width="2.5" height="7.5"></rect><rect x="37.5" y="32.5" width="2.5" height="7.5"></rect><rect x="75" y="35" width="2.5" height="5"></rect><rect x="90" y="35" width="2.5" height="5"></rect><rect x="70" y="40" width="5" height="2.5"></rect><rect x="45" y="40" width="5" height="2.5"></rect></svg>