<svg xmlns="http://www.w3.org/2000/svg" xmlns:sodipodi="http://sodipodi.sourceforge.net/DTD/sodipodi-0.dtd" viewBox="0 0 100 100" x="0px" y="0px"><path d="m 17.933594,49.999999 c 0,2.311891 -1.874159,4.186049 -4.186049,4.186049 -2.311889,0 -4.186045,-1.874158 -4.186045,-4.186049 0,-2.311889 1.874156,-4.186048 4.186045,-4.186048 2.31189,0 4.186049,1.874159 4.186049,4.186048 z" color="#000"></path><path d="m 36.0597,81.395348 c 0,2.311891 -1.874159,4.186049 -4.186049,4.186049 -2.311887,0 -4.186044,-1.874158 -4.186044,-4.186049 0,-2.31189 1.874156,-4.186047 4.186044,-4.186047 2.311893,0 4.186049,1.874157 4.186049,4.186047 z" color="#000"></path><path d="m 72.311923,81.395348 c 0,2.311891 -1.874157,4.186049 -4.186048,4.186049 -2.311886,0 -4.186044,-1.874158 -4.186044,-4.186049 0,-2.31189 1.874155,-4.186047 4.186044,-4.186047 2.311893,0 4.186048,1.874157 4.186048,4.186047 z" color="#000"></path><path d="m 90.438041,49.999999 c 0,2.311891 -1.874159,4.186049 -4.186048,4.186049 -2.311889,0 -4.186045,-1.874158 -4.186045,-4.186049 0,-2.311889 1.874156,-4.186048 4.186045,-4.186048 2.311889,0 4.186048,1.874159 4.186048,4.186048 z" color="#000"></path><path d="m 72.311928,18.604651 c 0,2.311891 -1.874159,4.186048 -4.186048,4.186048 -2.311889,0 -4.186045,-1.874157 -4.186045,-4.186048 0,-2.31189 1.874156,-4.186049 4.186045,-4.186049 2.311889,0 4.186048,1.874159 4.186048,4.186049 z" color="#000"></path><path d="m 36.059704,18.604651 c 0,2.311891 -1.874158,4.186048 -4.186049,4.186048 -2.311888,0 -4.186045,-1.874157 -4.186045,-4.186048 0,-2.31189 1.874157,-4.186049 4.186045,-4.186049 2.311891,0 4.186049,1.874159 4.186049,4.186049 z" color="#000"></path><path d="m 56.278834,49.999999 c 0,3.467838 -2.811236,6.279071 -6.279072,6.279071 -3.467834,0 -6.279068,-2.811233 -6.279068,-6.279071 0,-3.467836 2.811234,-6.279069 6.279068,-6.279069 3.467836,0 6.279072,2.811233 6.279072,6.279069 z" color="#000"></path><path d="m 73.358437,60.465116 c 0,2.889863 -2.342696,5.232558 -5.232557,5.232558 -2.889863,0 -5.232557,-2.342695 -5.232557,-5.232558 0,-2.889862 2.342694,-5.232558 5.232557,-5.232558 2.889861,0 5.232557,2.342696 5.232557,5.232558 z" color="#000"></path><path d="m 55.232324,70.930233 c 0,2.889861 -2.342696,5.232558 -5.232558,5.232558 -2.889862,0 -5.232556,-2.342697 -5.232556,-5.232558 0,-2.889863 2.342694,-5.232559 5.232556,-5.232559 2.889862,0 5.232558,2.342696 5.232558,5.232559 z" color="#000"></path><path d="m 37.106214,60.465116 c 0,2.889863 -2.342696,5.232558 -5.232559,5.232558 -2.889863,0 -5.232556,-2.342695 -5.232556,-5.232558 0,-2.889862 2.342693,-5.232558 5.232556,-5.232558 2.889863,0 5.232559,2.342696 5.232559,5.232558 z" color="#000"></path><path d="m 73.358435,39.534884 c 0,2.889862 -2.342694,5.232558 -5.232558,5.232558 -2.889863,0 -5.232556,-2.342696 -5.232556,-5.232558 0,-2.889863 2.342693,-5.232558 5.232556,-5.232558 2.889864,0 5.232558,2.342695 5.232558,5.232558 z" color="#000"></path><path d="m 55.232326,29.069767 c 0,2.889863 -2.342694,5.232559 -5.232558,5.232559 -2.889864,0 -5.232558,-2.342696 -5.232558,-5.232559 0,-2.889863 2.342694,-5.232558 5.232558,-5.232558 2.889864,0 5.232558,2.342695 5.232558,5.232558 z" color="#000"></path><path d="m 37.106211,39.534884 c 0,2.889862 -2.342693,5.232558 -5.232558,5.232558 -2.889858,0 -5.232551,-2.342696 -5.232551,-5.232558 0,-2.889863 2.342693,-5.232558 5.232551,-5.232558 2.889865,0 5.232558,2.342695 5.232558,5.232558 z" color="#000"></path><path d="m 16.887078,29.069767 c 0,1.733917 -1.405616,3.139536 -3.139536,3.139536 -1.733916,0 -3.139535,-1.405619 -3.139535,-3.139536 0,-1.733919 1.405619,-3.139535 3.139535,-3.139535 1.73392,0 3.139536,1.405619 3.139536,3.139535 z" color="#000"></path><path d="m 53.1393,8.1395352 c 0,1.7339167 -1.405616,3.1395338 -3.139536,3.1395338 -1.733916,0 -3.139535,-1.4056171 -3.139535,-3.1395338 C 46.860229,6.4056161 48.265848,5 49.999764,5 51.733684,5 53.1393,6.4056173 53.1393,8.1395352 z" color="#000"></path><path d="m 16.887078,70.930233 c 0,1.733916 -1.405616,3.139535 -3.139536,3.139535 -1.733916,0 -3.139535,-1.405619 -3.139535,-3.139535 0,-1.73392 1.405619,-3.139536 3.139535,-3.139536 1.73392,0 3.139536,1.405619 3.139536,3.139536 z" color="#000"></path><path d="M 53.1393,91.860465 C 53.1393,93.594381 51.733684,95 49.999764,95 c -1.733916,0 -3.139535,-1.405619 -3.139535,-3.139535 0,-1.733919 1.405619,-3.139535 3.139535,-3.139535 1.73392,0 3.139536,1.405618 3.139536,3.139535 z" color="#000"></path><path d="m 89.391525,70.930233 c 0,1.733916 -1.405616,3.139535 -3.139535,3.139535 -1.733917,0 -3.139535,-1.405619 -3.139535,-3.139535 0,-1.73392 1.405618,-3.139536 3.139535,-3.139536 1.733919,0 3.139535,1.405619 3.139535,3.139536 z" color="#000"></path><path d="m 89.391527,29.069767 c 0,1.733917 -1.405615,3.139536 -3.139534,3.139536 -1.733917,0 -3.139536,-1.405619 -3.139536,-3.139536 0,-1.733919 1.405619,-3.139535 3.139536,-3.139535 1.733919,0 3.139534,1.405619 3.139534,3.139535 z" color="#000"></path></svg>