<svg xmlns="http://www.w3.org/2000/svg" xmlns:xlink="http://www.w3.org/1999/xlink" version="1.1" x="0px" y="0px" viewBox="0 0 100 100" enable-background="new 0 0 100 100" xml:space="preserve"><circle cx="15.2" cy="84.8" r="10.2"></circle><circle cx="15.2" cy="67.4" r="2"></circle><circle cx="32.6" cy="50" r="2"></circle><circle cx="32.6" cy="84.8" r="2"></circle><circle cx="32.6" cy="67.4" r="10.2"></circle><circle cx="15.2" cy="50" r="10.2"></circle><circle cx="15.2" cy="32.6" r="2"></circle><circle cx="32.6" cy="15.2" r="2"></circle><circle cx="15.2" cy="15.2" r="10.2"></circle><circle cx="32.6" cy="32.6" r="10.2"></circle><circle cx="50" cy="84.8" r="10.2"></circle><circle cx="50" cy="67.4" r="2"></circle><circle cx="67.4" cy="50" r="2"></circle><circle cx="67.4" cy="84.8" r="2"></circle><circle cx="67.4" cy="67.4" r="10.2"></circle><circle cx="50" cy="50" r="10.2"></circle><circle cx="50" cy="32.6" r="2"></circle><circle cx="67.4" cy="15.2" r="2"></circle><circle cx="50" cy="15.2" r="10.2"></circle><circle cx="84.8" cy="84.8" r="10.2"></circle><circle cx="84.8" cy="67.4" r="2"></circle><circle cx="84.8" cy="50" r="10.2"></circle><circle cx="84.8" cy="32.6" r="2"></circle><circle cx="84.8" cy="15.2" r="10.2"></circle><circle cx="67.4" cy="32.6" r="10.2"></circle></svg>