<svg xmlns="http://www.w3.org/2000/svg" xmlns:xlink="http://www.w3.org/1999/xlink" version="1.1" x="0px" y="0px" viewBox="0 0 100 100" enable-background="new 0 0 100 100" xml:space="preserve"><g><circle fill-rule="evenodd" clip-rule="evenodd" cx="39.914" cy="50.17" r="4.971"></circle><circle fill-rule="evenodd" clip-rule="evenodd" cx="39.914" cy="68.683" r="4.971"></circle><circle fill-rule="evenodd" clip-rule="evenodd" cx="39.914" cy="31.613" r="4.971"></circle><path fill-rule="evenodd" clip-rule="evenodd" d="M50.381,8.312v83.407l44.755-41.907L50.381,8.312z M60.162,73.653   c-2.745,0-4.971-2.225-4.971-4.971c0-2.745,2.225-4.971,4.971-4.971c2.745,0,4.971,2.225,4.971,4.971   C65.133,71.428,62.908,73.653,60.162,73.653z M60.162,55.14c-2.745,0-4.971-2.225-4.971-4.971c0-2.745,2.225-4.971,4.971-4.971   c2.745,0,4.971,2.225,4.971,4.971C65.133,52.915,62.908,55.14,60.162,55.14z M60.162,36.829c-2.745,0-4.971-2.225-4.971-4.971   c0-2.745,2.225-4.971,4.971-4.971c2.745,0,4.971,2.225,4.971,4.971C65.133,34.604,62.908,36.829,60.162,36.829z M76.273,55.14   c-2.745,0-4.971-2.225-4.971-4.971c0-2.745,2.225-4.971,4.971-4.971c2.745,0,4.971,2.225,4.971,4.971   C81.243,52.915,79.018,55.14,76.273,55.14z"></path><circle fill-rule="evenodd" clip-rule="evenodd" cx="23.507" cy="50.17" r="4.971"></circle></g></svg>