<svg xmlns="http://www.w3.org/2000/svg" xmlns:xlink="http://www.w3.org/1999/xlink" version="1.0" x="0px" y="0px" viewBox="0 0 100 100" enable-background="new 0 0 100 100" xml:space="preserve"><circle stroke="#000000" stroke-width="2" stroke-linecap="round" stroke-linejoin="round" stroke-miterlimit="10" cx="81.999" cy="18" r="8"></circle><path stroke="#000000" stroke-width="2" stroke-linecap="round" stroke-linejoin="round" stroke-miterlimit="10" d="M60.998,24.75  c-3.727,0-6.748-3.022-6.748-6.749c0-3.729,3.021-6.752,6.748-6.752c3.73,0,6.751,3.022,6.751,6.752  C67.749,21.728,64.729,24.75,60.998,24.75z"></path><circle stroke="#000000" stroke-width="2" stroke-linecap="round" stroke-linejoin="round" stroke-miterlimit="10" cx="42.5" cy="18" r="5.5"></circle><circle stroke="#000000" stroke-width="2" stroke-linecap="round" stroke-linejoin="round" stroke-miterlimit="10" cx="26.499" cy="18" r="4.25"></circle><circle stroke="#000000" stroke-width="2" stroke-linecap="round" stroke-linejoin="round" stroke-miterlimit="10" cx="12.999" cy="18" r="2.999"></circle><circle stroke="#000000" stroke-width="2" stroke-linecap="round" stroke-linejoin="round" stroke-miterlimit="10" cx="81.999" cy="34" r="8"></circle><path stroke="#000000" stroke-width="2" stroke-linecap="round" stroke-linejoin="round" stroke-miterlimit="10" d="M60.998,40.749  c-3.727,0-6.748-3.021-6.748-6.749s3.021-6.751,6.748-6.751c3.73,0,6.751,3.023,6.751,6.751S64.729,40.749,60.998,40.749z"></path><circle stroke="#000000" stroke-width="2" stroke-linecap="round" stroke-linejoin="round" stroke-miterlimit="10" cx="42.5" cy="33.999" r="5.499"></circle><circle stroke="#000000" stroke-width="2" stroke-linecap="round" stroke-linejoin="round" stroke-miterlimit="10" cx="26.499" cy="33.999" r="4.25"></circle><circle stroke="#000000" stroke-width="2" stroke-linecap="round" stroke-linejoin="round" stroke-miterlimit="10" cx="12.999" cy="33.999" r="3"></circle><circle stroke="#000000" stroke-width="2" stroke-linecap="round" stroke-linejoin="round" stroke-miterlimit="10" cx="81.999" cy="49.999" r="7.999"></circle><path stroke="#000000" stroke-width="2" stroke-linecap="round" stroke-linejoin="round" stroke-miterlimit="10" d="M60.998,56.748  c-3.727,0-6.748-3.021-6.748-6.749c0-3.728,3.021-6.749,6.748-6.749c3.73,0,6.751,3.021,6.751,6.749  C67.749,53.727,64.729,56.748,60.998,56.748z"></path><circle stroke="#000000" stroke-width="2" stroke-linecap="round" stroke-linejoin="round" stroke-miterlimit="10" cx="42.5" cy="49.999" r="5.498"></circle><circle stroke="#000000" stroke-width="2" stroke-linecap="round" stroke-linejoin="round" stroke-miterlimit="10" cx="26.499" cy="50" r="4.25"></circle><circle stroke="#000000" stroke-width="2" stroke-linecap="round" stroke-linejoin="round" stroke-miterlimit="10" cx="12.999" cy="49.998" r="3"></circle><circle stroke="#000000" stroke-width="2" stroke-linecap="round" stroke-linejoin="round" stroke-miterlimit="10" cx="81.999" cy="65.999" r="8"></circle><path stroke="#000000" stroke-width="2" stroke-linecap="round" stroke-linejoin="round" stroke-miterlimit="10" d="M60.998,72.749  c-3.727,0-6.748-3.021-6.748-6.749s3.021-6.751,6.748-6.751c3.73,0,6.751,3.021,6.751,6.751  C67.749,69.729,64.729,72.749,60.998,72.749z"></path><circle stroke="#000000" stroke-width="2" stroke-linecap="round" stroke-linejoin="round" stroke-miterlimit="10" cx="42.5" cy="65.999" r="5.499"></circle><circle stroke="#000000" stroke-width="2" stroke-linecap="round" stroke-linejoin="round" stroke-miterlimit="10" cx="26.499" cy="65.999" r="4.25"></circle><circle stroke="#000000" stroke-width="2" stroke-linecap="round" stroke-linejoin="round" stroke-miterlimit="10" cx="12.999" cy="65.999" r="3"></circle><circle stroke="#000000" stroke-width="2" stroke-linecap="round" stroke-linejoin="round" stroke-miterlimit="10" cx="81.999" cy="82" r="8"></circle><path stroke="#000000" stroke-width="2" stroke-linecap="round" stroke-linejoin="round" stroke-miterlimit="10" d="M60.998,88.749  c-3.727,0-6.748-3.021-6.748-6.749s3.021-6.75,6.748-6.75c3.73,0,6.751,3.021,6.751,6.75S64.729,88.749,60.998,88.749z"></path><circle stroke="#000000" stroke-width="2" stroke-linecap="round" stroke-linejoin="round" stroke-miterlimit="10" cx="42.5" cy="82" r="5.5"></circle><circle stroke="#000000" stroke-width="2" stroke-linecap="round" stroke-linejoin="round" stroke-miterlimit="10" cx="26.499" cy="82" r="4.25"></circle><circle stroke="#000000" stroke-width="2" stroke-linecap="round" stroke-linejoin="round" stroke-miterlimit="10" cx="12.999" cy="82" r="3"></circle></svg>