<!-- Generated by IcoMoon.io -->
<svg version="1.1" xmlns="http://www.w3.org/2000/svg" width="24" height="24" viewBox="0 0 24 24">
<title>signal1</title>
<path fill="#2592e9" d="M12.012 2.598c-5.22 0-9.452 3.9-9.452 8.709 0 3.016 1.219 5.301 3.155 6.774h-0.005l0.234 3.042v0.004c0 0.017 0 0.031 0.004 0.046v0.006c0.024 0.144 0.15 0.255 0.301 0.255 0.053 0 0.1-0.015 0.144-0.035l0.011-0.008 2.896-1.674c0.854 0.196 1.767 0.299 2.71 0.299 5.22 0 9.452-3.899 9.452-8.71 0-4.81-4.233-8.709-9.454-8.709l0.004 0.001zM10.39 0.72c0.525-0.065 1.061-0.104 1.605-0.104 0.38 0 0.75 0.020 1.119 0.052l0.057-0.614c-0.39-0.035-0.779-0.054-1.174-0.054-0.57 0-1.135 0.036-1.691 0.109l0.083 0.612 0.001-0.001zM14.187 0.814c0.915 0.165 1.785 0.436 2.61 0.795l0.252-0.567c-0.132-0.056-0.263-0.112-0.397-0.165-0.762-0.3-1.551-0.524-2.355-0.671l-0.11 0.608zM23.356 11.37c-0.015 0.915-0.155 1.806-0.405 2.655l0.59 0.175c0.267-0.903 0.416-1.854 0.431-2.831l-0.616 0.001zM6.745 1.814c0.811-0.389 1.678-0.698 2.586-0.902l-0.135-0.604c-0.631 0.141-1.251 0.329-1.853 0.569-0.297 0.117-0.586 0.245-0.867 0.381l0.269 0.556zM20.395 3.213c-0.706-0.649-1.485-1.207-2.329-1.673l-0.311 0.541c0.811 0.445 1.561 0.981 2.224 1.596l0.416-0.462v-0.002zM15.151 22.051c0.945-0.24 1.845-0.591 2.686-1.030l-0.315-0.533c-0.786 0.413-1.631 0.738-2.521 0.967l0.15 0.596zM3.677 4.005c0.63-0.638 1.347-1.2 2.13-1.675l-0.327-0.529c-0.698 0.422-1.35 0.914-1.945 1.473-0.102 0.094-0.2 0.191-0.3 0.289l0.439 0.441 0.003 0.001zM23.157 15.285l-0.568-0.236c-0.349 0.833-0.803 1.614-1.354 2.332l0.495 0.369c0.577-0.758 1.061-1.586 1.424-2.465h0.003zM20.726 4.433c0.606 0.675 1.122 1.425 1.534 2.228l0.555-0.275c-0.435-0.852-0.979-1.645-1.627-2.366l-0.465 0.413h0.003zM23.28 7.436l-0.568 0.244c0.313 0.828 0.521 1.703 0.604 2.61l0.615-0.061c-0.088-0.956-0.305-1.892-0.651-2.793zM6.386 22.849l-0.969 0.425-0.332-1.025-0.585 0.19 0.438 1.347c0.029 0.083 0.090 0.151 0.167 0.188 0.041 0.017 0.083 0.026 0.126 0.026s0.084-0.009 0.123-0.026l1.283-0.563-0.251-0.562zM10.209 21.656c-0.078-0.016-0.157-0.027-0.237-0.041l-0.465-0.079c-0.061-0.009-0.12 0-0.172 0.023l-1.951 0.853 0.271 0.554 1.845-0.803c0.125 0.021 0.25 0.041 0.371 0.059 0.068 0.017 0.139 0.026 0.209 0.038l0.129-0.604zM13.937 21.676c-0.633 0.104-1.281 0.156-1.942 0.156-0.273 0-0.525-0.015-0.772-0.038l-0.019 0.615c0.251 0.024 0.511 0.040 0.791 0.040 0.698 0 1.383-0.058 2.048-0.166l-0.104-0.606-0.002-0.001zM1.517 7.116c0.37-0.825 0.852-1.598 1.425-2.302l-0.47-0.407c-0.61 0.745-1.116 1.557-1.508 2.427l-0.010 0.021 0.563 0.261zM20.532 18.21c-0.612 0.651-1.31 1.229-2.070 1.728l0.339 0.515c0.806-0.524 1.541-1.14 2.19-1.829l-0.459-0.414zM0.97 14.551c-0.188-0.796-0.293-1.676-0.323-2.671h-0.616c0.030 1.071 0.145 2.005 0.345 2.843l0.594-0.172zM0.538 7.925c-0.297 0.91-0.468 1.853-0.51 2.813l0.615 0.030c0.042-0.923 0.209-1.816 0.487-2.662l-0.592-0.181zM4.737 21.185l-0.59-1.815c-0.020-0.060-0.056-0.109-0.105-0.147-0.232-0.182-0.449-0.366-0.66-0.558l-0.422 0.446c0.194 0.184 0.408 0.362 0.629 0.541l0.561 1.717 0.587-0.184zM2.632 17.893c-0.591-0.691-1.037-1.449-1.355-2.315l-0.573 0.229c0.041 0.107 0.083 0.216 0.126 0.322 0.33 0.796 0.771 1.509 1.342 2.175l0.46-0.411z"></path>
</svg>
