<svg xmlns:dc="http://purl.org/dc/elements/1.1/" xmlns:cc="http://creativecommons.org/ns#" xmlns:rdf="http://www.w3.org/1999/02/22-rdf-syntax-ns#" xmlns:svg="http://www.w3.org/2000/svg" xmlns="http://www.w3.org/2000/svg" xmlns:sodipodi="http://sodipodi.sourceforge.net/DTD/sodipodi-0.dtd" xmlns:inkscape="http://www.inkscape.org/namespaces/inkscape" version="1.1" x="0px" y="0px" viewBox="0 0 100 100"><g transform="translate(0,-952.36218)"><path style="font-size:medium;font-style:normal;font-variant:normal;font-weight:normal;font-stretch:normal;text-indent:0;text-align:start;text-decoration:none;line-height:normal;letter-spacing:normal;word-spacing:normal;text-transform:none;direction:ltr;block-progression:tb;writing-mode:lr-tb;text-anchor:start;baseline-shift:baseline;opacity:1;color:#000000;fill:#000000;fill-opacity:1;stroke:none;stroke-width:6;marker:none;visibility:visible;display:inline;overflow:visible;enable-background:accumulate;font-family:Sans;-inkscape-font-specification:Sans" d="M 17.96875 7.9375 A 3.0003 3.0003 0 0 0 15 11 L 15 54.4375 C 10.404406 55.757085 7 60.001157 7 65 C 7 69.998156 10.405366 74.242289 15 75.5625 L 15 89 A 3.0003 3.0003 0 1 0 21 89 L 21 75.5625 C 25.594634 74.242289 29 69.998156 29 65 C 29 60.001157 25.595595 55.757085 21 54.4375 L 21 11 A 3.0003 3.0003 0 0 0 17.96875 7.9375 z M 49.96875 7.9375 A 3.0003 3.0003 0 0 0 47 11 L 47 24.4375 C 42.404406 25.757085 39 30.001157 39 35 C 39 39.998156 42.405366 44.242289 47 45.5625 L 47 89 A 3.0003 3.0003 0 1 0 53 89 L 53 45.5625 C 57.594634 44.242289 61 39.998156 61 35 C 61 30.001157 57.595595 25.757085 53 24.4375 L 53 11 A 3.0003 3.0003 0 0 0 49.96875 7.9375 z M 81.96875 7.9375 A 3.0003 3.0003 0 0 0 79 11 L 79 54.4375 C 74.404421 55.757064 71 60.001074 71 65 C 71 69.998156 74.405366 74.242289 79 75.5625 L 79 89 A 3.0003 3.0003 0 1 0 85 89 L 85 75.5625 C 89.594634 74.242289 93 69.998156 93 65 C 93 60.001074 89.59558 55.757064 85 54.4375 L 85 11 A 3.0003 3.0003 0 0 0 81.96875 7.9375 z M 50 30 C 52.796928 30 55 32.203 55 35 C 55 37.797 52.796928 40 50 40 C 47.203073 40 45 37.797 45 35 C 45 32.203 47.203073 30 50 30 z M 18 60 C 20.796928 60 23 62.203 23 65 C 23 67.797 20.796928 70 18 70 C 15.203073 70 13 67.797 13 65 C 13 62.203 15.203073 60 18 60 z M 82 60 C 84.796973 60 87 62.2029 87 65 C 87 67.797 84.796928 70 82 70 C 79.203073 70 77 67.797 77 65 C 77 62.2029 79.203028 60 82 60 z " transform="translate(0,952.36218)"></path></g></svg>