<svg xmlns="http://www.w3.org/2000/svg" xmlns:xlink="http://www.w3.org/1999/xlink" version="1.1" x="0px" y="0px" viewBox="0 0 100 100" enable-background="new 0 0 100 100" xml:space="preserve"><path d="M50.494,8.995c-22.356,0-40.482,18.135-40.482,40.506s18.126,40.505,40.482,40.505c22.36,0,40.482-18.134,40.482-40.505  S72.854,8.995,50.494,8.995z M63.998,67.641c-4.896,3.208-10.133,3.208-13.847,1.855c-3.716-1.182-6.41,0.17-10.976,4.567  l-3.942,4.044c-5.462-2.922-9.984-7.364-13.011-12.764l4.803-4.458c3.878-4.225,4.895-5.912,3.878-10.813  c-1.181-5.408-1.181-11.997,5.405-17.91c1.011-0.845,3.547-2.364,3.547-2.705c10.296-6.081,21.274-0.505,21.274-0.505l0.84,1.352  c0,0-9.455,6.25-10.638,6.926c-1.352,0.845-5.399,5.405-0.504,12.672c4.729,7.263,9.959,4.898,11.483,3.716  c1.179-0.676,10.633-6.758,10.633-6.758l0.844,1.352C73.787,48.211,74.465,60.886,63.998,67.641z"></path></svg>