<!-- Generated by IcoMoon.io -->
<svg version="1.1" xmlns="http://www.w3.org/2000/svg" width="24" height="24" viewBox="0 0 24 24">
<title>uber</title>
<path d="M11.97 0.006c-0 0-0.001 0-0.001 0-6.202 0-11.305 4.707-11.931 10.744l-0.004 0.051h8.336v-1.8c0.001-0.331 0.269-0.599 0.6-0.599 0 0 0 0 0 0h5.997c0.334 0 0.6 0.268 0.6 0.6v5.997c0 0 0 0 0 0 0 0.331-0.268 0.599-0.599 0.6h-6c-0.33-0.001-0.598-0.269-0.598-0.599 0-0 0-0.001 0-0.001v0-1.799h-8.335c0.663 6.592 6.543 11.397 13.134 10.735 6.592-0.663 11.397-6.543 10.734-13.134-0.63-6.088-5.732-10.795-11.933-10.795h-0z"></path>
</svg>
