<svg xmlns="http://www.w3.org/2000/svg" viewBox="0 0 512.096 512.096"><path d="M392.096 224.048c-66.168 0-120 53.832-120 120s53.832 120 120 120 120-53.832 120-120-53.832-120-120-120zm0 224c-57.344 0-104-46.656-104-104s46.656-104 104-104 104 46.656 104 104-46.656 104-104 104z"/><path d="M504.096 384.048c-4.424 0-8 3.576-8 8 0 57.344-46.656 104-104 104s-104-46.656-104-104c0-4.424-3.576-8-8-8s-8 3.576-8 8c0 66.168 53.832 120 120 120s120-53.832 120-120c0-4.424-3.576-8-8-8z"/><path d="M504.08 336.048c-4.424 0-8 3.576-8 8v48c0 4.424 3.576 8 8 8 4.424 0 8-3.576 8-8v-48c0-4.424-3.576-8-8-8zM280.08 336.048c-4.424 0-8 3.576-8 8v48c0 4.424 3.576 8 8 8 4.424 0 8-3.576 8-8v-48c0-4.424-3.576-8-8-8zM392.096 448.048c-4.424 0-8 3.576-8 8v48c0 4.424 3.576 8 8 8 4.424 0 8-3.576 8-8v-48c0-4.424-3.576-8-8-8zM327.952 427.88c-4.424 0-8 3.576-8 8v48c0 4.424 3.576 8 8 8s8-3.584 8-8v-48c0-4.424-3.576-8-8-8zM455.952 427.88c-4.424 0-8 3.576-8 8v48c0 4.424 3.576 8 8 8s8-3.584 8-8v-48c0-4.424-3.576-8-8-8zM120.016.048c-66.168 0-120 53.832-120 120s53.832 120 120 120c66.176 0 120-53.832 120-120s-53.832-120-120-120zm0 224c-57.344 0-104-46.656-104-104s46.656-104 104-104 104 46.656 104 104-46.656 104-104 104z"/><path d="M232.016 160.048c-4.424 0-8 3.584-8 8 0 57.344-46.656 104-104 104s-104-46.656-104-104c0-4.416-3.576-8-8-8s-8 3.584-8 8c0 66.168 53.832 120 120 120 66.176 0 120-53.832 120-120 0-4.416-3.576-8-8-8z"/><path d="M232 112.048c-4.424 0-8 3.584-8 8v48c0 4.416 3.576 8 8 8s8-3.584 8-8v-48c0-4.416-3.576-8-8-8zM8 112.048c-4.424 0-8 3.584-8 8v48c0 4.416 3.576 8 8 8 4.424 0 8-3.584 8-8v-48c0-4.416-3.576-8-8-8zM120.016 224.048c-4.424 0-8 3.584-8 8v48c0 4.424 3.576 8 8 8s8-3.576 8-8v-48c0-4.416-3.576-8-8-8zM55.88 203.88c-4.424 0-8 3.584-8 8v48c0 4.424 3.576 8 8 8 4.416 0 8-3.584 8-8v-48c0-4.416-3.576-8-8-8zM183.88 203.88c-4.424 0-8 3.584-8 8v48c0 4.424 3.576 8 8 8 4.416 0 8-3.584 8-8v-48c0-4.416-3.576-8-8-8zM88.16 56.048c-4.424 0-8 3.584-8 8v112c0 4.416 3.576 8 8 8 4.416 0 8-3.584 8-8v-112c0-4.416-3.576-8-8-8zM128.16 56.048c-4.424 0-8 3.584-8 8s3.576 8 8 8c8.824 0 16 7.176 16 16s-7.176 16-16 16c-4.424 0-8 3.584-8 8s3.576 8 8 8c17.648 0 32-14.352 32-32s-14.352-32-32-32z"/><path d="M128.16 104.048c-4.424 0-8 3.584-8 8s3.576 8 8 8c13.232 0 24 10.768 24 24s-10.768 24-24 24c-4.424 0-8 3.584-8 8s3.576 8 8 8c22.056 0 40-17.944 40-40s-17.944-40-40-40zM128.16 56.048h-48c-4.424 0-8 3.584-8 8s3.576 8 8 8h48c4.416 0 8-3.584 8-8s-3.576-8-8-8z"/><path d="M128.16 104.048h-40c-4.424 0-8 3.584-8 8s3.576 8 8 8h40c4.416 0 8-3.584 8-8s-3.576-8-8-8zM132.16 168.048h-52c-4.424 0-8 3.584-8 8s3.576 8 8 8h52c4.416 0 8-3.584 8-8s-3.576-8-8-8zM96.16 48.048c-4.424 0-8 3.584-8 8v8c0 4.416 3.576 8 8 8 4.416 0 8-3.584 8-8v-8c0-4.416-3.576-8-8-8zM120.16 48.048c-4.424 0-8 3.584-8 8v8c0 4.416 3.576 8 8 8 4.416 0 8-3.584 8-8v-8c0-4.416-3.576-8-8-8z"/><path d="M96.16 168.048c-4.424 0-8 3.584-8 8v8c0 4.416 3.576 8 8 8 4.416 0 8-3.584 8-8v-8c0-4.416-3.576-8-8-8zM120.16 168.048c-4.424 0-8 3.584-8 8v8c0 4.416 3.576 8 8 8 4.416 0 8-3.584 8-8v-8c0-4.416-3.576-8-8-8zM414.736 275.608c-2.456-3.68-7.416-4.664-11.096-2.216l-48 32c-3.68 2.456-4.672 7.416-2.216 11.096 1.536 2.312 4.08 3.56 6.664 3.56 1.52 0 3.064-.44 4.432-1.344l48-32c3.68-2.456 4.672-7.416 2.216-11.096z"/><path d="M408.08 272.048c-4.424 0-8 3.576-8 8v120c0 4.424 3.576 8 8 8 4.424 0 8-3.576 8-8v-120c0-4.424-3.576-8-8-8zM376.08 293.384c-4.424 0-8 3.576-8 8v98.664c0 4.424 3.576 8 8 8 4.424 0 8-3.576 8-8v-98.664c0-4.424-3.576-8-8-8z"/><path d="M424.08 392.048h-64c-4.424 0-8 3.576-8 8s3.576 8 8 8h64c4.424 0 8-3.576 8-8s-3.576-8-8-8zM120.016 304.048c-4.424 0-8 3.576-8 8v56c0 4.424 3.576 8 8 8s8-3.576 8-8v-56c0-4.424-3.576-8-8-8z"/><path d="M248.016 360.048h-128c-4.424 0-8 3.576-8 8s3.576 8 8 8h128c4.424 0 8-3.576 8-8s-3.576-8-8-8z"/><path d="M253.672 362.392c-3.128-3.128-8.184-3.128-11.312 0l-24 24c-3.128 3.128-3.128 8.184 0 11.312 1.56 1.56 3.608 2.344 5.656 2.344 2.048 0 4.096-.784 5.656-2.344l24-24c3.128-3.128 3.128-8.184 0-11.312z"/><path d="M253.672 362.392l-24-24c-3.128-3.128-8.184-3.128-11.312 0s-3.128 8.184 0 11.312l24 24c1.56 1.56 3.608 2.344 5.656 2.344 2.048 0 4.096-.784 5.656-2.344 3.128-3.128 3.128-8.184 0-11.312zM392.016 136.048c-4.424 0-8 3.584-8 8v56c0 4.416 3.576 8 8 8s8-3.584 8-8v-56c0-4.416-3.576-8-8-8z"/><path d="M392.016 136.048h-128c-4.424 0-8 3.584-8 8s3.576 8 8 8h128c4.424 0 8-3.584 8-8s-3.576-8-8-8z"/><path d="M293.672 114.392c-3.128-3.128-8.184-3.128-11.312 0l-24 24c-3.128 3.128-3.128 8.184 0 11.312 1.56 1.56 3.608 2.344 5.656 2.344 2.048 0 4.096-.784 5.656-2.344l24-24c3.128-3.128 3.128-8.184 0-11.312z"/><path d="M293.672 162.392l-24-24c-3.128-3.128-8.184-3.128-11.312 0s-3.128 8.184 0 11.312l24 24c1.56 1.56 3.608 2.344 5.656 2.344 2.048 0 4.096-.784 5.656-2.344 3.128-3.128 3.128-8.184 0-11.312z"/></svg>