<svg width="62" height="62" viewBox="0 0 62 62" xmlns="http://www.w3.org/2000/svg"><path d="M31.25 6.042c13.9 0 25.208 11.308 25.208 25.208 0 13.9-11.308 25.208-25.208 25.208-13.9 0-25.208-11.308-25.208-25.208 0-13.9 11.308-25.208 25.208-25.208zm0-5.042C14.544 1 1 14.544 1 31.25S14.544 61.5 31.25 61.5 61.5 47.956 61.5 31.25 47.956 1 31.25 1zm0 45.375v-3.81h-1.26v3.81h-2.52v-3.81h-6.263l.63-3.752h1.36c1.113 0 1.75-1.072 1.75-2.153V25.457c0-1.05-.61-1.77-1.72-1.77h-2.06v-3.78h6.302v-3.782h2.52v3.78h1.26v-3.78h2.52v3.847c5.44.184 7.594 2.246 8.21 4.568.732 2.747-1.08 5.054-2.636 5.616 1.89.484 4.51 1.88 4.51 5.107 0 4.39-3.388 7.33-10.083 7.33v3.782h-2.52zm-1.26-13.872v6.31c5 0 8.43-.474 8.43-3.172 0-2.893-3.704-3.137-8.43-3.137zm0-2.513c2.785 0 7.03-.197 7.03-3.15 0-2.522-2.62-3.152-7.03-3.152v6.302z" stroke="#FFF" stroke-width=".7" fill="#FFAF3C" fill-rule="nonzero"/></svg>