<svg width="71" height="57" viewBox="0 0 71 57" xmlns="http://www.w3.org/2000/svg"><path d="M44.125 26.92h5.75v-5.76h-5.75v5.76zm-11.5 0h5.75v-5.76h-5.75v5.76zm-11.5 0h5.75v-5.76h-5.75v5.76zM6.75 49.96V44.2h57.5l.003 5.76H6.75zm5.75-43.2h46l.003 31.68H12.5V6.76zm51.75 31.68V6.76C64.25 3.583 61.67 1 58.5 1h-46C9.33 1 6.75 3.583 6.75 6.76v31.68H1v11.52c0 3.176 2.58 5.76 5.75 5.76h57.5c3.17 0 5.75-2.584 5.75-5.76V38.44h-5.75z" stroke="#FFF" stroke-width="1.9" fill="#FFAF3C" fill-rule="evenodd"/></svg>