<svg xmlns="http://www.w3.org/2000/svg" viewBox="0 0 511.922 511.922"><path d="M139.568 131.32h-.088c-4.416 0-7.952 3.577-7.952 8s3.616 8 8.04 8c4.416 0 8-3.575 8-8s-3.584-8-8-8z"/><path d="M453.968 272.96L218.504 37.506C194.336 13.32 162.184.01 128 .01c-34.192 0-66.336 13.32-90.504 37.495C13.312 61.673 0 93.825 0 128.01c0 34.19 13.32 66.335 37.496 90.51l235.456 235.457c1.56 1.56 3.608 2.344 5.656 2.344 2.048 0 4.096-.783 5.656-2.343l169.704-169.704c1.504-1.496 2.344-3.528 2.344-5.656s-.84-4.152-2.344-5.656zM278.616 437.01l-229.8-229.8c-21.16-21.153-32.808-49.28-32.808-79.2 0-29.913 11.648-58.033 32.808-79.193C69.96 27.657 98.088 16.01 128.008 16.01c29.912 0 58.04 11.647 79.192 32.8l229.816 229.8-158.4 158.4z"/><path d="M396.44 498.257l-83.888-83.88c-3.128-3.128-8.184-3.128-11.312 0s-3.128 8.184 0 11.312l83.896 83.88c1.56 1.56 3.608 2.343 5.656 2.343 2.04 0 4.088-.784 5.648-2.344 3.128-3.13 3.128-8.185 0-11.313z"/><path d="M509.576 385.13c-3.128-3.13-8.184-3.13-11.312 0L385.136 498.256c-3.128 3.128-3.128 8.184 0 11.312 1.56 1.56 3.608 2.343 5.656 2.343 2.04 0 4.088-.784 5.656-2.344l113.128-113.13c3.128-3.127 3.128-8.183 0-11.31z"/><path d="M509.568 385.13l-83.88-83.89c-3.128-3.127-8.184-3.127-11.312 0-3.128 3.13-3.128 8.185 0 11.313l83.88 83.896c1.56 1.56 3.608 2.343 5.656 2.343 2.048 0 4.096-.784 5.656-2.352 3.128-3.127 3.128-8.183 0-11.31zM388.432 399.76c-3.128-3.127-8.184-3.127-11.312 0l-22.632 22.625c-3.128 3.128-3.128 8.184 0 11.312 1.56 1.56 3.608 2.344 5.656 2.344 2.048 0 4.096-.783 5.656-2.343l22.632-22.624c3.128-3.128 3.128-8.184 0-11.312zM433.688 354.505c-3.128-3.128-8.184-3.128-11.312 0l-22.624 22.632c-3.128 3.128-3.128 8.184 0 11.312 1.56 1.56 3.608 2.343 5.656 2.343 2.048 0 4.088-.784 5.656-2.344l22.624-22.633c3.128-3.128 3.128-8.184 0-11.312z"/><path d="M365.8 422.385l-5.864-5.864c-3.128-3.127-8.184-3.127-11.312 0-3.128 3.13-3.128 8.185 0 11.313l5.864 5.864c1.56 1.56 3.608 2.344 5.656 2.344 2.048 0 4.096-.783 5.656-2.343 3.128-3.128 3.128-8.184 0-11.312zM388.44 399.76l-5.872-5.87c-3.128-3.13-8.184-3.13-11.312 0-3.128 3.127-3.128 8.183 0 11.31l5.872 5.873c1.56 1.56 3.608 2.344 5.656 2.344 2.04 0 4.088-.784 5.656-2.344 3.128-3.128 3.128-8.184 0-11.312zM411.064 377.13l-5.856-5.865c-3.128-3.128-8.192-3.12-11.32-.008-3.128 3.128-3.128 8.184-.008 11.32l5.856 5.864c1.56 1.56 3.616 2.345 5.664 2.345 2.048 0 4.088-.784 5.656-2.336 3.128-3.13 3.128-8.185.008-11.32zM433.696 354.49l-5.872-5.865c-3.128-3.112-8.192-3.12-11.32.008-3.12 3.136-3.12 8.192.008 11.32l5.872 5.864c1.56 1.552 3.608 2.336 5.656 2.336 2.048 0 4.096-.776 5.664-2.344 3.12-3.137 3.12-8.193-.008-11.32zM212.864 111.04c-13.6-13.6-31.68-21.095-50.912-21.095s-37.312 7.496-50.904 21.088c-28.08 28.072-28.08 73.752 0 101.832 13.592 13.592 31.672 21.088 50.896 21.088 19.232 0 37.32-7.496 50.92-21.096 28.072-28.072 28.072-73.744 0-101.816zm-11.312 90.497c-10.576 10.584-24.648 16.416-39.608 16.416-14.952 0-29.016-5.832-39.584-16.4-21.832-21.832-21.832-57.376 0-79.208 10.576-10.568 24.632-16.4 39.592-16.4 14.952 0 29.024 5.832 39.6 16.408 21.832 21.832 21.832 57.352 0 79.184z"/><path d="M322.696 288.737l-99.944-99.944c-3.128-3.128-8.184-3.128-11.312 0s-3.128 8.184 0 11.312l99.944 99.944c1.56 1.56 3.608 2.343 5.656 2.343 2.048 0 4.088-.784 5.656-2.344 3.128-3.13 3.128-8.185 0-11.313zM300.056 311.37l-99.944-99.945c-3.128-3.128-8.184-3.128-11.312 0s-3.128 8.184 0 11.312l99.952 99.944c1.56 1.56 3.608 2.345 5.656 2.345 2.048 0 4.088-.784 5.648-2.344 3.128-3.127 3.128-8.183 0-11.31z"/><path d="M322.696 288.737c-3.128-3.128-8.184-3.128-11.312 0l-22.632 22.632c-3.128 3.127-3.128 8.183 0 11.31 1.56 1.56 3.608 2.345 5.656 2.345 2.048 0 4.088-.784 5.656-2.344l22.632-22.63c3.128-3.13 3.128-8.185 0-11.313zM286.408 297.713c-3.128-3.128-8.184-3.128-11.312 0l-22.632 22.632c-3.128 3.128-3.128 8.184 0 11.312 1.56 1.56 3.608 2.344 5.656 2.344 2.04 0 4.088-.783 5.656-2.343l22.632-22.632c3.128-3.128 3.128-8.184 0-11.312z"/><path d="M263.776 320.345l-28.28-28.288c-3.128-3.128-8.184-3.128-11.312 0s-3.128 8.184 0 11.312l28.28 28.287c1.56 1.56 3.608 2.344 5.656 2.344 2.04 0 4.088-.783 5.656-2.343 3.128-3.128 3.128-8.184 0-11.312z"/><path d="M258.112 269.433c-3.128-3.128-8.184-3.128-11.312 0l-22.624 22.624c-3.128 3.128-3.128 8.184 0 11.312 1.56 1.56 3.608 2.343 5.656 2.343 2.048 0 4.096-.784 5.656-2.344l22.624-22.625c3.128-3.128 3.128-8.184 0-11.312z"/></svg>