<svg xmlns="http://www.w3.org/2000/svg" viewBox="0 0 512 512"><path d="M246.623 0c-48.52 0-88 39.48-88 88s39.48 88 88 88c48.528 0 88-39.48 88-88s-39.48-88-88-88zm0 160c-39.704 0-72-32.296-72-72s32.296-72 72-72 72 32.296 72 72-32.296 72-72 72z"/><path d="M326.623 111.992c-4.424 0-8 3.576-8 8 0 39.704-32.296 72-72 72s-72-32.296-72-72c0-4.424-3.576-8-8-8-4.424 0-8 3.576-8 8 0 48.52 39.48 88 88 88 48.528 0 88-39.48 88-88 0-4.424-3.576-8-8-8z"/><path d="M326.623 80c-4.424 0-8 3.576-8 8v31.992c0 4.424 3.576 8 8 8s8-3.576 8-8V88c0-4.424-3.576-8-8-8zM230.623 40c-4.424 0-8 3.576-8 8v72c0 4.424 3.576 8 8 8s8-3.576 8-8V48c0-4.424-3.576-8-8-8zM254.623 40c-4.424 0-8 3.576-8 8s3.576 8 8 8c4.416 0 8 3.584 8 7.992 0 4.416-3.584 8-8 8-4.424 0-8 3.576-8 8s3.576 8 8 8c13.232 0 24-10.768 24-24 0-13.224-10.768-23.992-24-23.992z"/><path d="M258.615 71.984c-4.424 0-8 3.576-8 8s3.576 8 8 8c6.616 0 12.008 5.392 12.008 12.016 0 6.616-5.392 12-12.008 12-4.424 0-8 3.576-8 8s3.576 8 8 8c15.448 0 28.008-12.56 28.008-28 0-15.448-12.56-28.016-28.008-28.016zM254.623 40h-32c-4.424 0-8 3.576-8 8s3.576 8 8 8h32c4.424 0 8-3.576 8-8s-3.576-8-8-8z"/><path d="M258.615 112h-35.992c-4.424 0-8 3.576-8 8s3.576 8 8 8h35.992c4.424 0 8-3.576 8-8s-3.576-8-8-8zM258.615 71.984h-.008L230.615 72c-4.416 0-7.992 3.584-7.992 8.008 0 4.416 3.584 7.992 8 7.992l28-.016c4.416 0 7.992-3.584 7.992-8.008 0-4.416-3.584-7.992-8-7.992zM246.623 31.992c-4.424 0-8 3.576-8 8V48c0 4.424 3.576 8 8 8s8-3.576 8-8v-8.008c0-4.424-3.576-8-8-8z"/><path d="M246.623 112c-4.424 0-8 3.576-8 8v8c0 4.424 3.576 8 8 8s8-3.576 8-8v-8c0-4.424-3.576-8-8-8zM246.623 160c-4.424 0-8 3.576-8 8v31.992c0 4.424 3.576 8 8 8s8-3.576 8-8V168c0-4.424-3.576-8-8-8zM286.623 149.296c-4.424 0-8 3.576-8 8v31.984c0 4.424 3.576 8 8 8s8-3.576 8-8v-31.984c0-4.424-3.576-8-8-8zM206.623 149.296c-4.424 0-8 3.576-8 8v31.984c0 4.424 3.576 8 8 8s8-3.576 8-8v-31.984c0-4.424-3.576-8-8-8zM166.623 80c-4.424 0-8 3.576-8 8v31.992c0 4.424 3.576 8 8 8s8-3.576 8-8V88c0-4.424-3.576-8-8-8zM342.535 336H150.72c-4.425 0-8 3.576-8 8v24c0 4.424 3.575 8 8 8h191.807c4.424 0 8-3.576 8.008-8v-24c0-4.424-3.576-8-8-8zm-8 24H158.72v-8h175.815v8z"/><path d="M190.503 502.608l-24.096-136c-.768-4.344-4.848-7.256-9.272-6.48-4.344.768-7.256 4.92-6.48 9.272l24.096 136c.69 3.872 4.057 6.6 7.865 6.6.464 0 .928-.04 1.408-.12 4.344-.768 7.256-4.92 6.48-9.272zM335.975 360.12c-4.44-.792-8.496 2.136-9.272 6.48l-24.096 136c-.768 4.352 2.136 8.504 6.48 9.272.48.088.944.128 1.408.128 3.8 0 7.176-2.728 7.864-6.608l24.095-136c.768-4.352-2.136-8.504-6.48-9.272z"/><path d="M310.48 496H182.622c-4.424 0-8 3.576-8 8s3.576 8 8 8h127.864c4.416 0 7.992-3.576 7.992-8s-3.577-8-8-8zM246.63 191.992h-.007c-4.416 0-8 3.576-8 7.992l-.096 144.008c0 4.424 3.576 8.008 8 8.008 4.416 0 8-3.576 8-7.992L254.623 200c0-4.424-3.576-8.008-7.992-8.008zM364.183 210.344c-3.384-3.384-8.096-5.104-14.008-5.104-22.544 0-64.84 27.384-75.928 38.48-7.552 7.544-11.72 17.592-11.72 28.28s4.168 20.736 11.72 28.28c7.544 7.552 17.592 11.72 28.28 11.72s20.736-4.168 28.28-11.72c7.672-7.672 19.512-25.456 27.544-41.368 12.29-24.328 14.193-40.216 5.833-48.568zm-44.688 78.624c-9.064 9.064-24.872 9.064-33.936 0-4.53-4.528-7.033-10.552-7.033-16.968s2.504-12.44 7.032-16.968c10.543-10.56 48.68-33.792 64.615-33.792 1.968 0 2.656.392 2.672.392 5.176 7.144-18.584 52.576-33.352 67.336z"/><path d="M309.55 264.96c-3.11-3.112-8.183-3.128-11.31.016l-57.28 57.376c-3.12 3.128-3.12 8.184.015 11.312 1.552 1.552 3.6 2.336 5.648 2.336 2.048 0 4.104-.784 5.664-2.352l57.28-57.376c3.12-3.128 3.12-8.184-.016-11.312zM222.32 232.352c-7.2-7.208-29.233-20.44-43.61-20.44-6.24 0-9.96 2.416-11.983 4.44-6.048 6.056-5.896 16.496.472 31.008 4.167 9.496 10.55 19.608 15.527 24.584 5.296 5.288 12.32 8.2 19.8 8.2s14.512-2.92 19.792-8.2c10.91-10.912 10.91-28.68 0-39.592zm-11.305 28.272c-4.528 4.528-12.44 4.528-16.968 0-7.288-7.28-16.52-26.68-15.808-32.704.135-.008.295-.016.48-.016 8.367 0 26.503 9.968 32.295 15.752 4.68 4.68 4.68 12.288 0 16.968z"/><path d="M252.127 290.424l-29.8-29.8c-3.128-3.128-8.184-3.128-11.312 0s-3.128 8.184 0 11.312l29.8 29.8c1.56 1.56 3.608 2.344 5.656 2.344 2.04 0 4.09-.784 5.657-2.344 3.128-3.128 3.128-8.184 0-11.312zM214.527 488c-4.424 0-8 3.576-8 8v8c0 4.424 3.576 8 8 8s8-3.576 8-8v-8c0-4.424-3.576-8-8-8zM246.527 488c-4.424 0-8 3.576-8 8v8c0 4.424 3.576 8 8 8s8-3.576 8-8v-8c0-4.424-3.576-8-8-8zM278.527 488c-4.424 0-8 3.576-8 8v8c0 4.424 3.576 8 8 8s8-3.576 8-8v-8c0-4.424-3.576-8-8-8z"/></svg>