<svg xmlns="http://www.w3.org/2000/svg" viewBox="0 0 512 512"><path d="M424 264c-48.52 0-88 39.48-88 88s39.48 88 88 88 88-39.48 88-88-39.48-88-88-88zm0 160c-39.704 0-72-32.296-72-72s32.296-72 72-72 72 32.296 72 72-32.296 72-72 72z"/><path d="M504 376c-4.424 0-8 3.576-8 8 0 39.704-32.296 72-72 72s-72-32.296-72-72c0-4.424-3.576-8-8-8s-8 3.576-8 8c0 48.52 39.48 88 88 88s88-39.48 88-88c0-4.424-3.576-8-8-8z"/><path d="M504 344c-4.424 0-8 3.576-8 8v32c0 4.424 3.576 8 8 8s8-3.576 8-8v-32c0-4.424-3.576-8-8-8zM408 304c-4.424 0-8 3.576-8 8v72c0 4.424 3.576 8 8 8s8-3.576 8-8v-72c0-4.424-3.576-8-8-8zM432 304c-4.424 0-8 3.576-8 8s3.576 8 8 8c4.416 0 8 3.584 8 8s-3.584 8-8 8c-4.424 0-8 3.576-8 8s3.576 8 8 8c13.232 0 24-10.768 24-24s-10.768-24-24-24z"/><path d="M435.992 335.984c-4.424 0-8 3.576-8 8s3.576 8 8 8c6.616 0 12.008 5.392 12.008 12.016 0 6.616-5.392 12-12.008 12-4.424 0-8 3.576-8 8s3.576 8 8 8C451.44 392 464 379.44 464 364c0-15.448-12.56-28.016-28.008-28.016zM432 304h-32c-4.424 0-8 3.576-8 8s3.576 8 8 8h32c4.424 0 8-3.576 8-8s-3.576-8-8-8z"/><path d="M435.992 376H400c-4.424 0-8 3.576-8 8s3.576 8 8 8h35.992c4.424 0 8-3.576 8-8s-3.576-8-8-8zM435.992 335.984h-.008l-27.992.016c-4.416 0-7.992 3.584-7.992 8.008 0 4.416 3.584 7.992 8 7.992l28-.016c4.416 0 7.992-3.584 7.992-8.008 0-4.416-3.584-7.992-8-7.992zM424 296c-4.424 0-8 3.576-8 8v8c0 4.424 3.576 8 8 8s8-3.576 8-8v-8c0-4.424-3.576-8-8-8z"/><path d="M424 376c-4.424 0-8 3.576-8 8v8c0 4.424 3.576 8 8 8s8-3.576 8-8v-8c0-4.424-3.576-8-8-8zM424 424c-4.424 0-8 3.576-8 8v32c0 4.424 3.576 8 8 8s8-3.576 8-8v-32c0-4.424-3.576-8-8-8zM464 413.296c-4.424 0-8 3.576-8 8v31.984c0 4.424 3.576 8 8 8s8-3.576 8-8v-31.984c0-4.424-3.576-8-8-8zM384 413.296c-4.424 0-8 3.576-8 8v31.984c0 4.424 3.576 8 8 8s8-3.576 8-8v-31.984c0-4.424-3.576-8-8-8zM344 344c-4.424 0-8 3.576-8 8v32c0 4.424 3.576 8 8 8s8-3.576 8-8v-32c0-4.424-3.576-8-8-8zM32.24 56h-.08c-4.416 0-7.96 3.576-7.96 8s3.624 8 8.04 8 8-3.576 8-8-3.584-8-8-8zM56.24 56h-.08c-4.416 0-7.96 3.576-7.96 8s3.624 8 8.04 8 8-3.576 8-8-3.584-8-8-8zM80.24 56h-.088c-4.416 0-7.952 3.576-7.952 8s3.624 8 8.04 8 8-3.576 8-8-3.584-8-8-8z"/><path d="M424.144 72h-416c-4.424 0-8 3.576-8 8v288c0 4.424 3.576 8 8 8h335.848c4.424 0 8-3.576 8-8s-3.576-8-8-8H16.144V88h400v184c0 4.424 3.576 8 8 8s8-3.576 8-8V80c0-4.424-3.576-8-8-8zM24 40C10.768 40 0 50.768 0 64c0 4.424 3.576 8 8 8s8-3.576 8-8c0-4.416 3.584-8 8-8 4.424 0 8-3.576 8-8s-3.576-8-8-8z"/><path d="M8 56c-4.424 0-8 3.576-8 8v16c0 4.424 3.576 8 8 8s8-3.576 8-8V64c0-4.424-3.576-8-8-8zM408 40c-4.424 0-8 3.576-8 8s3.576 8 8 8c4.416 0 8 3.584 8 8 0 4.424 3.576 8 8 8s8-3.576 8-8c0-13.232-10.768-24-24-24z"/><path d="M424 56c-4.424 0-8 3.576-8 8v16c0 4.424 3.576 8 8 8s8-3.576 8-8V64c0-4.424-3.576-8-8-8zM408 40H24c-4.424 0-8 3.576-8 8s3.576 8 8 8h384c4.424 0 8-3.576 8-8s-3.576-8-8-8zM32 72c-4.424 0-8 3.576-8 8v288c0 4.424 3.576 8 8 8s8-3.576 8-8V80c0-4.424-3.576-8-8-8zM200 104H64c-4.424 0-8 3.576-8 8s3.576 8 8 8h136c4.424 0 8-3.576 8-8s-3.576-8-8-8zM224 136H80c-4.424 0-8 3.576-8 8s3.576 8 8 8h144c4.424 0 8-3.576 8-8s-3.576-8-8-8zM160 296.096H80c-4.424 0-8 3.576-8 8s3.576 8 8 8h80c4.424 0 8-3.576 8-8s-3.576-8-8-8zM272 136h-16c-4.424 0-8 3.576-8 8s3.576 8 8 8h16c4.424 0 8-3.576 8-8s-3.576-8-8-8zM112 328H64c-4.424 0-8 3.576-8 8s3.576 8 8 8h48c4.424 0 8-3.576 8-8s-3.576-8-8-8zM128 168H96c-4.424 0-8 3.576-8 8s3.576 8 8 8h32c4.424 0 8-3.576 8-8s-3.576-8-8-8zM312 168H160c-4.424 0-8 3.576-8 8s3.576 8 8 8h152c4.424 0 8-3.576 8-8s-3.576-8-8-8zM264 200H96c-4.424 0-8 3.576-8 8s3.576 8 8 8h168c4.424 0 8-3.576 8-8s-3.576-8-8-8zM184 232H96c-4.424 0-8 3.576-8 8s3.576 8 8 8h88c4.424 0 8-3.576 8-8s-3.576-8-8-8zM264 264H144c-4.424 0-8 3.576-8 8s3.576 8 8 8h120c4.424 0 8-3.576 8-8s-3.576-8-8-8zM112 264H96c-4.424 0-8 3.576-8 8s3.576 8 8 8h16c4.424 0 8-3.576 8-8s-3.576-8-8-8zM328 200h-32c-4.424 0-8 3.576-8 8s3.576 8 8 8h32c4.424 0 8-3.576 8-8s-3.576-8-8-8z"/></svg>