<svg xmlns="http://www.w3.org/2000/svg" viewBox="0 0 511.904 511.904"><path d="M231.952 207.904c-4.424 0-8 3.576-8 8v80c0 4.424 3.576 8 8 8s8-3.576 8-8v-80c0-4.424-3.576-8-8-8zM263.952 207.904c-4.424 0-8 3.576-8 8 0 4.424 3.576 8 8 8 4.416 0 8 3.584 8 7.992 0 4.408-3.584 7.992-8 7.992-4.424 0-8 3.576-8 8 0 4.424 3.576 8 8 8 13.232 0 24-10.768 24-23.992s-10.768-23.992-24-23.992z"/><path d="M263.936 239.888c-4.424 0-8 3.576-8 8s3.576 8 8 8c8.832 0 16.016 7.184 16.016 16.016 0 8.824-7.184 16-16.016 16-4.424 0-8 3.576-8 8s3.576 8 8 8c17.656 0 32.016-14.352 32.016-32 0-17.656-14.36-32.016-32.016-32.016zM263.952 207.904h-40c-4.424 0-8 3.576-8 8 0 4.424 3.576 8 8 8h40c4.424 0 8-3.576 8-8 0-4.424-3.576-8-8-8z"/><path d="M263.936 287.904h-39.984c-4.424 0-8 3.576-8 8s3.576 8 8 8h39.984c4.424 0 8-3.576 8-8s-3.576-8-8-8zM263.952 239.888h-32c-4.424 0-8 3.576-8 8 0 4.424 3.576 8 8 8h32c4.424 0 8-3.576 8-8 0-4.424-3.576-8-8-8zM247.952 199.904c-4.424 0-8 3.576-8 8v8c0 4.424 3.576 8 8 8s8-3.576 8-8v-8c0-4.424-3.576-8-8-8z"/><path d="M247.952 287.904c-4.424 0-8 3.576-8 8v8c0 4.424 3.576 8 8 8s8-3.576 8-8v-8c0-4.424-3.576-8-8-8z"/><path d="M356.392 229.088c-7.192-26.832-24.4-49.256-48.456-63.136-15.8-9.12-33.752-13.952-51.912-13.952-37.08 0-71.616 19.928-90.128 52.008-13.896 24.056-17.592 52.072-10.4 78.904 7.192 26.832 24.392 49.248 48.456 63.128 15.808 9.128 33.76 13.96 51.92 13.96 37.08 0 71.6-19.928 90.12-52.008 13.896-24.056 17.592-52.072 10.4-78.904zM332.128 300c-15.664 27.144-44.88 44.008-76.256 44.008-15.352 0-30.536-4.088-43.92-11.824-20.36-11.744-34.928-30.712-41-53.408-6.072-22.696-2.952-46.408 8.808-66.768C195.424 184.856 224.648 168 256.024 168c15.352 0 30.528 4.088 43.912 11.816 20.36 11.744 34.92 30.712 41 53.416 6.072 22.696 2.952 46.408-8.808 66.768z"/><path d="M255.84 112c-4.424 0-8 3.576-8 8v40.016c0 4.424 3.576 8 8 8 4.424 0 8-3.576 8-8V120c0-4.424-3.576-8-8-8zM255.84 343.832c-4.424 0-8 3.576-8 8v40.072c0 4.424 3.576 8 8 8 4.424 0 8-3.576 8-8v-40.072c0-4.424-3.576-8-8-8zM176.768 201.056l-34.656-20.008c-3.824-2.224-8.712-.896-10.928 2.928s-.904 8.72 2.928 10.928l34.656 20.008c1.256.728 2.632 1.072 3.992 1.072 2.76 0 5.448-1.44 6.936-4 2.216-3.824.904-8.72-2.928-10.928zM377.592 317l-34.704-20.04c-3.816-2.216-8.72-.904-10.928 2.928-2.216 3.824-.904 8.72 2.928 10.928l34.704 20.04c1.256.728 2.632 1.072 3.992 1.072 2.768 0 5.456-1.432 6.936-4 2.216-3.824.904-8.72-2.928-10.928zM179.696 299.92c-2.216-3.832-7.12-5.136-10.928-2.928l-34.656 20.016c-3.824 2.208-5.136 7.096-2.928 10.928 1.48 2.568 4.168 4 6.936 4 1.352 0 2.728-.344 3.992-1.072l34.656-20.016c3.824-2.208 5.136-7.096 2.928-10.928zM380.52 183.968c-2.208-3.832-7.112-5.136-10.928-2.928l-34.704 20.04c-3.824 2.208-5.136 7.096-2.928 10.928 1.48 2.568 4.168 4 6.936 4 1.36 0 2.736-.344 3.992-1.072l34.704-20.04c3.824-2.208 5.136-7.096 2.928-10.928z"/><path d="M255.936 0c-35.288 0-64 28.712-64 64s28.712 64 64 64 64-28.712 64-64-28.712-64-64-64zm0 112c-26.472 0-48-21.528-48-48s21.528-48 48-48 48 21.528 48 48-21.528 48-48 48z"/><path d="M255.84 39.904c-13.232 0-24 10.768-24 24s10.768 24 24 24c13.24 0 24-10.768 24-24s-10.768-24-24-24zm0 32c-4.416 0-8-3.584-8-8s3.584-8 8-8 8 3.584 8 8-3.584 8-8 8z"/><path d="M295.872 109.536c-1.232-21.104-18.776-37.632-39.936-37.632-21.144 0-38.688 16.52-39.92 37.616-.264 4.416 3.096 8.2 7.512 8.456 4.384.192 8.2-3.104 8.456-7.512.744-12.648 11.264-22.552 23.952-22.552 12.696 0 23.224 9.912 23.968 22.568.248 4.248 3.776 7.528 7.976 7.528.16 0 .32-.008.48-.016 4.408-.264 7.768-4.04 7.512-8.456zM255.936 383.904c-35.288 0-64 28.712-64 64s28.712 64 64 64 64-28.712 64-64-28.712-64-64-64zm0 112c-26.472 0-48-21.528-48-48s21.528-48 48-48 48 21.528 48 48-21.528 48-48 48z"/><path d="M255.84 423.808c-13.232 0-24 10.768-24 24s10.768 24 24 24c13.24 0 24-10.768 24-24s-10.768-24-24-24zm0 32c-4.416 0-8-3.584-8-8s3.584-8 8-8 8 3.584 8 8-3.584 8-8 8z"/><path d="M295.872 493.44c-1.232-21.104-18.776-37.632-39.936-37.632-21.144 0-38.688 16.52-39.92 37.616-.264 4.416 3.096 8.2 7.512 8.456 4.384.24 8.2-3.104 8.456-7.512.744-12.648 11.264-22.552 23.952-22.552 12.696 0 23.224 9.912 23.968 22.568.248 4.248 3.776 7.528 7.976 7.528.16 0 .32-.008.48-.016 4.408-.264 7.768-4.04 7.512-8.456zM134.96 114.736c-12.088-12.096-28.16-18.752-45.256-18.752-35.288 0-64 28.712-64 64 0 35.28 28.712 63.992 64 64 35.288-.008 64-28.72 64-63.992.008-17.088-6.648-33.168-18.744-45.256zm-45.256 93.248c-26.472-.008-48-21.536-48-48 0-26.472 21.528-48 48-48 12.816 0 24.872 4.992 33.944 14.064 9.072 9.072 14.064 21.112 14.056 33.936 0 26.464-21.528 47.992-48 48z"/><path d="M89.608 135.888c-13.232 0-24 10.768-24 24 0 13.216 10.768 23.984 24 24 13.232 0 24-10.768 24-24.016 0-13.224-10.768-23.984-24-23.984zm.008 32c-4.416-.008-8.008-3.592-8.008-8 0-4.416 3.584-8 8-8s8 3.576 8 7.984c0 4.424-3.584 8.016-7.992 8.016z"/><path d="M129.624 205.528c-1.232-21.112-18.776-37.64-39.92-37.64s-38.688 16.52-39.92 37.624c-.264 4.416 3.096 8.2 7.512 8.456 4.304.216 8.2-3.104 8.456-7.512.744-12.648 11.264-22.56 23.952-22.56s23.208 9.912 23.952 22.576c.248 4.248 3.776 7.528 7.976 7.528.152 0 .32-.008.48-.016 4.4-.264 7.768-4.04 7.512-8.456zM422.152 287.936c-35.272 0-63.968 28.712-63.968 64s28.704 64 63.984 64c17.104 0 33.176-6.656 45.264-18.744 12.088-12.088 18.744-28.16 18.736-45.256 0-35.288-28.72-64-64.016-64zm33.968 97.944c-9.072 9.064-21.12 14.056-33.952 14.056-26.464 0-47.984-21.528-47.984-48 0-12.816 4.992-24.872 14.056-33.936 9.064-9.072 21.104-14.064 33.928-14.064 26.472 0 48 21.528 48 48.008.008 12.808-4.984 24.864-14.048 33.936z"/><path d="M422.08 327.84c-13.232 0-24 10.768-24 24.016.024 13.224 10.8 23.984 24.016 23.984 13.208 0 23.976-10.752 24-24.016-.024-13.224-10.8-23.984-24.016-23.984zm.016 32c-4.416 0-8.008-3.592-8.016-8 0-4.416 3.584-8 8-8 4.408 0 8.008 3.6 8.016 7.984-.008 4.424-3.592 8.016-8 8.016z"/><path d="M462.112 397.48c-1.232-21.112-18.776-37.64-39.936-37.64-21.136 0-38.672 16.52-39.904 37.624-.264 4.416 3.096 8.2 7.512 8.456 4.336.184 8.2-3.104 8.456-7.512.744-12.648 11.256-22.56 23.936-22.56 12.696 0 23.224 9.912 23.968 22.576.248 4.248 3.776 7.528 7.976 7.528.152 0 .32-.008.48-.016 4.4-.264 7.768-4.04 7.512-8.456zM89.72 287.936c-35.272 0-63.984 28.712-64 64 0 35.28 28.696 63.984 63.992 63.984h.04c35.264 0 63.968-28.704 63.984-63.992-.016-35.28-28.72-63.992-64.016-63.992zm.032 111.984v8l-.064-8c-26.448 0-47.968-21.52-47.968-47.976.016-26.48 21.544-48.008 48.032-48.008 26.44 0 47.968 21.528 47.984 47.992-.016 26.464-21.536 47.992-47.984 47.992z"/><path d="M106.608 334.872c-4.52-4.536-10.552-7.032-16.968-7.032-13.24 0-24.016 10.76-24.016 23.984 0 13.232 10.768 24 24 24s24-10.768 24-24.008c0-6.408-2.496-12.424-7.016-16.944zm-16.984 24.952c-4.416 0-8-3.584-8-8 0-4.408 3.6-7.984 8.032-7.984 4.392 0 7.968 3.584 7.968 7.976 0 4.416-3.584 8.008-8 8.008z"/><path d="M129.656 397.456c-1.256-21.104-18.792-37.632-39.936-37.632s-38.688 16.52-39.92 37.624c-.264 4.416 3.096 8.2 7.512 8.456 4.288.2 8.2-3.104 8.456-7.512.744-12.648 11.264-22.56 23.952-22.56s23.208 9.92 23.968 22.584c.248 4.248 3.776 7.52 7.976 7.52.16 0 .32-.008.488-.016 4.4-.264 7.768-4.048 7.504-8.464zM422.168 95.984c-35.272 0-63.968 28.712-63.968 64 0 35.272 28.704 63.984 63.984 64 35.28 0 64-28.712 64.016-64.008-.016-35.28-28.744-63.992-64.032-63.992zm.024 112c-26.464-.016-47.992-21.544-47.992-48 0-12.816 4.992-24.872 14.056-33.936 9.064-9.072 21.104-14.064 33.928-14.064 26.464 0 48 21.528 48.016 47.992-.016 26.472-21.552 48.008-48.008 48.008z"/><path d="M422.112 135.888c-13.24 0-24.016 10.768-24.016 24 0 13.224 10.776 23.992 24.016 23.992 13.208 0 23.976-10.76 24-23.992 0-13.232-10.768-24-24-24zm0 31.992h-.016c-4.416 0-8-3.584-8-7.992 0-4.416 3.592-8 8.016-8 4.408 0 8 3.584 8 7.984-.008 4.416-3.592 8.008-8 8.008z"/><path d="M462.12 205.528c-1.232-21.112-18.776-37.64-39.936-37.64-21.128 0-38.664 16.52-39.92 37.608-.272 4.416 3.088 8.208 7.504 8.464 4.352.176 8.2-3.088 8.464-7.504.76-12.648 11.272-22.56 23.952-22.56 12.696 0 23.224 9.912 23.968 22.576.248 4.248 3.776 7.528 7.976 7.528.16 0 .328-.008.48-.016 4.4-.264 7.768-4.04 7.512-8.456z"/></svg>