<svg xmlns="http://www.w3.org/2000/svg" viewBox="0 0 511.904 511.904"><path d="M401.6 50.24l-48-47.904C352.104.84 350.072 0 347.952 0h-272c-4.416 0-8 3.576-8 8v448c0 4.424 3.584 8 8 8h320c4.424 0 8-3.576 8-8V55.904c0-2.12-.84-4.16-2.352-5.664zM387.952 448h-304V16H344.64l43.312 43.224V448z"/><path d="M379.952 455.984c-.008-4.416-3.584-7.984-8-7.984h-.016c-4.424.008-7.992 3.592-7.984 8.016l.048 23.952c.008 4.416 3.584 7.984 8 7.984h.016c4.424-.008 7.992-3.592 7.984-8.016l-.048-23.952z"/><path d="M372 471.952H51.952c-4.416 0-8 3.576-8 8s3.584 8 8 8H372c4.424 0 8-3.576 8-8s-3.576-8-8-8zM75.968 24l-23.952-.048H52c-4.408 0-7.992 3.568-8 7.984-.008 4.424 3.568 8.008 7.984 8.016L75.936 40h.016c4.408 0 7.992-3.568 8-7.984.008-4.424-3.568-8.008-7.984-8.016z"/><path d="M52 23.952c-4.416 0-8 3.576-8 8v448c0 4.424 3.584 8 8 8s8-3.576 8-8v-448c0-4.424-3.584-8-8-8zM355.952 479.936c-.008-4.416-3.584-7.984-8-7.984h-.016c-4.424.008-7.992 3.592-7.984 8.016L340 503.92c.008 4.416 3.584 7.984 8 7.984h.016c4.424-.008 7.992-3.592 7.984-8.016l-.048-23.952z"/><path d="M348 495.904H27.952c-4.416 0-8 3.576-8 8s3.584 8 8 8H348c4.424 0 8-3.576 8-8s-3.576-8-8-8zM51.968 47.952l-23.952-.048H28c-4.408 0-7.992 3.568-8 7.984-.008 4.424 3.568 8.008 7.984 8.016l23.952.048h.016c4.408 0 7.992-3.568 8-7.984.008-4.424-3.568-8.008-7.984-8.016z"/><path d="M28 47.904c-4.416 0-8 3.576-8 8v448c0 4.424 3.584 8 8 8s8-3.576 8-8v-448c0-4.424-3.584-8-8-8zM395.952 47.904h-48c-4.424 0-8 3.576-8 8 0 4.424 3.576 8 8 8h48c4.424 0 8-3.576 8-8 0-4.424-3.576-8-8-8z"/><path d="M347.952 0c-4.424 0-8 3.576-8 8v46.912c0 4.424 3.576 8 8 8s8-3.576 8-8V8c0-4.424-3.576-8-8-8zM443.952 79.904c-13.232 0-24 10.768-24 24 0 4.424 3.576 8 8 8s8-3.576 8-8c0-4.416 3.584-8 8-8s8 3.584 8 8c0 4.424 3.576 8 8 8s8-3.576 8-8c0-13.232-10.768-24-24-24z"/><path d="M427.952 95.904c-4.424 0-8 3.576-8 8v272c0 4.424 3.576 8 8 8s8-3.576 8-8v-272c0-4.424-3.576-8-8-8zM459.952 95.904c-4.424 0-8 3.576-8 8v272c0 4.424 3.576 8 8 8s8-3.576 8-8v-272c0-4.424-3.576-8-8-8z"/><path d="M450.608 395.464l-16-24c-2.448-3.672-7.416-4.672-11.096-2.216s-4.672 7.416-2.216 11.096l16 24c1.536 2.312 4.08 3.56 6.664 3.56 1.52 0 3.064-.44 4.432-1.344 3.68-2.456 4.672-7.416 2.216-11.096z"/><path d="M464.392 369.248c-3.688-2.456-8.648-1.456-11.096 2.216l-16 24c-2.456 3.68-1.464 8.64 2.216 11.096 1.368.904 2.912 1.344 4.432 1.344 2.584 0 5.128-1.248 6.664-3.56l16-24c2.456-3.68 1.464-8.64-2.216-11.096z"/><path d="M443.952 391.904c-4.424 0-8 3.576-8 8v8c0 4.424 3.576 8 8 8s8-3.576 8-8v-8c0-4.424-3.576-8-8-8zM459.952 351.904h-32c-4.424 0-8 3.576-8 8s3.576 8 8 8h32c4.424 0 8-3.576 8-8s-3.576-8-8-8zM467.952 103.904c-4.424 0-8 3.576-8 8 0 4.424 3.576 8 8 8 4.416 0 8 3.584 8 8 0 4.424 3.576 8 8 8s8-3.576 8-8c0-13.232-10.768-24-24-24z"/><path d="M483.952 119.904c-4.424 0-8 3.576-8 8v96c0 4.424 3.576 8 8 8s8-3.576 8-8v-96c0-4.424-3.576-8-8-8zM467.952 103.904h-8c-4.424 0-8 3.576-8 8 0 4.424 3.576 8 8 8h8c4.424 0 8-3.576 8-8 0-4.424-3.576-8-8-8zM459.952 175.904h-32c-4.424 0-8 3.576-8 8 0 4.424 3.576 8 8 8h32c4.424 0 8-3.576 8-8 0-4.424-3.576-8-8-8zM139.952 55.904c-13.232 0-24 10.768-24 24v24c0 13.232 10.768 24 24 24s24-10.768 24-24v-24c0-13.232-10.768-24-24-24zm8 48c0 4.416-3.592 8-8 8s-8-3.584-8-8v-24c0-4.416 3.592-8 8-8s8 3.584 8 8v24zM139.952 151.904c-13.232 0-24 10.768-24 24v24c0 13.232 10.768 24 24 24s24-10.768 24-24v-24c0-13.232-10.768-24-24-24zm8 48c0 4.416-3.592 8-8 8s-8-3.584-8-8v-24c0-4.416 3.592-8 8-8s8 3.584 8 8v24z"/><path d="M139.952 103.904c-4.416 0-8 3.576-8 8v56c0 4.424 3.584 8 8 8s8-3.576 8-8v-56c0-4.424-3.584-8-8-8zM139.952 247.904c-13.232 0-24 10.768-24 24v24c0 13.232 10.768 24 24 24s24-10.768 24-24v-24c0-13.232-10.768-24-24-24zm8 48c0 4.416-3.592 8-8 8s-8-3.584-8-8v-24c0-4.416 3.592-8 8-8s8 3.584 8 8v24z"/><path d="M139.952 199.904c-4.416 0-8 3.576-8 8v56c0 4.424 3.584 8 8 8s8-3.576 8-8v-56c0-4.424-3.584-8-8-8zM139.952 343.904c-13.232 0-24 10.768-24 24v24c0 13.232 10.768 24 24 24s24-10.768 24-24v-24c0-13.232-10.768-24-24-24zm8 48c0 4.416-3.592 8-8 8s-8-3.584-8-8v-24c0-4.416 3.592-8 8-8s8 3.584 8 8v24z"/><path d="M139.952 295.904c-4.416 0-8 3.576-8 8v56c0 4.424 3.584 8 8 8s8-3.576 8-8v-56c0-4.424-3.584-8-8-8zM347.952 135.904h-144c-4.416 0-8 3.576-8 8 0 4.424 3.584 8 8 8h144c4.424 0 8-3.576 8-8 0-4.424-3.576-8-8-8zM347.952 183.904h-144c-4.416 0-8 3.576-8 8 0 4.424 3.584 8 8 8h144c4.424 0 8-3.576 8-8 0-4.424-3.576-8-8-8zM347.952 231.904h-144c-4.416 0-8 3.576-8 8 0 4.424 3.584 8 8 8h144c4.424 0 8-3.576 8-8 0-4.424-3.576-8-8-8zM347.952 279.904h-144c-4.416 0-8 3.576-8 8s3.584 8 8 8h144c4.424 0 8-3.576 8-8s-3.576-8-8-8zM347.952 327.904h-144c-4.416 0-8 3.576-8 8s3.584 8 8 8h144c4.424 0 8-3.576 8-8s-3.576-8-8-8z"/></svg>