<svg xmlns="http://www.w3.org/2000/svg" viewBox="0 0 512 512"><path d="M232 296c-4.424 0-8 3.576-8 8v80c0 4.424 3.576 8 8 8s8-3.576 8-8v-80c0-4.424-3.576-8-8-8zM264.008 296c-4.424 0-8 3.576-8 8s3.576 8 8 8c4.408 0 7.992 3.584 7.992 7.992 0 4.408-3.584 7.992-7.992 7.992-4.424 0-8 3.576-8 8s3.576 8 8 8c13.224 0 23.992-10.768 23.992-23.992S277.232 296 264.008 296z"/><path d="M263.992 327.984c-4.424 0-8 3.576-8 8s3.576 8 8 8c8.832 0 16.008 7.184 16.008 16.016 0 8.824-7.176 16-16.008 16-4.424 0-8 3.576-8 8s3.576 8 8 8C281.64 392 296 377.648 296 360c0-17.656-14.36-32.016-32.008-32.016zM264.008 296H224c-4.424 0-8 3.576-8 8s3.576 8 8 8h40.008c4.424 0 8-3.576 8-8s-3.576-8-8-8z"/><path d="M263.992 376H224c-4.424 0-8 3.576-8 8s3.576 8 8 8h39.992c4.424 0 8-3.576 8-8s-3.576-8-8-8zM264.008 327.984H232c-4.424 0-8 3.576-8 8s3.576 8 8 8h32.008c4.424 0 8-3.576 8-8s-3.576-8-8-8zM248 288c-4.424 0-8 3.576-8 8v8c0 4.424 3.576 8 8 8s8-3.576 8-8v-8c0-4.424-3.576-8-8-8z"/><path d="M248 376c-4.424 0-8 3.576-8 8v8c0 4.424 3.576 8 8 8s8-3.576 8-8v-8c0-4.424-3.576-8-8-8z"/><path d="M256 176c-92.632 0-168 75.368-168 168s75.368 168 168 168 168-75.368 168-168-75.368-168-168-168zm0 320c-83.816 0-152-68.184-152-152s68.184-152 152-152 152 68.184 152 152-68.184 152-152 152z"/><path d="M256 216c-70.576 0-128 57.424-128 128s57.424 128 128 128 128-57.424 128-128-57.424-128-128-128zm0 240c-61.76 0-112-50.24-112-112s50.24-112 112-112 112 50.24 112 112-50.24 112-112 112z"/><path d="M256 248c-52.936 0-96 43.064-96 96s43.064 96 96 96 96-43.064 96-96-43.064-96-96-96zm0 176c-44.112 0-80-35.888-80-80s35.888-80 80-80 80 35.888 80 80-35.888 80-80 80zM256 0c-57.344 0-104 46.656-104 104 0 4.424 3.576 8 8 8s8-3.576 8-8c0-48.52 39.48-88 88-88s88 39.48 88 88c0 4.424 3.576 8 8 8s8-3.576 8-8C360 46.656 313.344 0 256 0z"/><path d="M256 32c-39.704 0-72 32.296-72 72 0 4.424 3.576 8 8 8s8-3.576 8-8c0-30.872 25.128-56 56-56s56 25.128 56 56c0 4.424 3.576 8 8 8s8-3.576 8-8c0-39.704-32.296-72-72-72zM160 96c-4.424 0-8 3.576-8 8v112.072c0 4.424 3.576 8 8 8s8-3.576 8-8V104c0-4.424-3.576-8-8-8zM352.088 96c-4.424 0-8 3.576-8 8v112.072c0 4.424 3.576 8 8 8 4.416 0 8-3.576 8-8V104c0-4.424-3.576-8-8-8z"/><path d="M192 96c-4.424 0-8 3.576-8 8v93.32c0 4.424 3.576 8 8 8s8-3.576 8-8V104c0-4.424-3.576-8-8-8zM320 96c-4.424 0-8 3.576-8 8v93.32c0 4.424 3.576 8 8 8s8-3.576 8-8V104c0-4.424-3.576-8-8-8zM256 240c-4.424 0-8 3.576-8 8v8c0 4.424 3.576 8 8 8s8-3.576 8-8v-8c0-4.424-3.576-8-8-8zM256 424c-4.424 0-8 3.576-8 8v8c0 4.424 3.576 8 8 8s8-3.576 8-8v-8c0-4.424-3.576-8-8-8zM218.928 263.792l-4-6.928c-2.208-3.824-7.112-5.136-10.928-2.928-3.824 2.208-5.136 7.096-2.928 10.928l4 6.928c1.48 2.56 4.168 4 6.936 4 1.36 0 2.736-.344 3.992-1.072 3.824-2.208 5.136-7.096 2.928-10.928zM310.928 423.152l-4-6.936c-2.192-3.824-7.088-5.152-10.92-2.936-3.824 2.2-5.144 7.096-2.936 10.92l4 6.936c1.472 2.568 4.168 4.008 6.936 4.008 1.352 0 2.728-.344 3.984-1.072 3.824-2.2 5.144-7.096 2.936-10.92zM183.792 293.072l-6.928-4c-3.824-2.216-8.712-.896-10.928 2.928-2.216 3.824-.904 8.72 2.928 10.928l6.928 4c1.256.728 2.632 1.072 3.992 1.072 2.76 0 5.448-1.44 6.936-4 2.216-3.824.904-8.72-2.928-10.928zM343.144 385.072l-6.936-4.008c-3.824-2.216-8.72-.904-10.928 2.928-2.216 3.816-.904 8.72 2.928 10.928l6.936 4.008c1.256.728 2.632 1.072 3.992 1.072 2.76 0 5.448-1.432 6.936-4 2.216-3.816.904-8.72-2.928-10.928zM168 336h-8c-4.424 0-8 3.576-8 8s3.576 8 8 8h8c4.424 0 8-3.576 8-8s-3.576-8-8-8zM352 336h-8.016c-4.424 0-8 3.576-8 8s3.576 8 8 8H352c4.424 0 8-3.576 8-8s-3.576-8-8-8zM186.712 384c-2.208-3.824-7.112-5.136-10.928-2.928l-6.928 4c-3.824 2.208-5.136 7.096-2.928 10.928 1.48 2.56 4.168 4 6.936 4 1.36 0 2.736-.344 3.992-1.072l6.928-4c3.824-2.208 5.136-7.104 2.928-10.928zM346.064 292c-2.216-3.824-7.112-5.136-10.928-2.928l-6.944 4.008c-3.824 2.208-5.136 7.096-2.928 10.928 1.48 2.56 4.168 4 6.936 4 1.36 0 2.736-.344 3.992-1.072l6.944-4.008c3.824-2.208 5.136-7.096 2.928-10.928zM215.992 413.28c-3.816-2.208-8.728-.896-10.92 2.936l-4 6.936c-2.216 3.816-.896 8.72 2.936 10.92 1.256.728 2.624 1.072 3.984 1.072 2.768 0 5.464-1.44 6.936-4.008l4-6.936c2.216-3.816.896-8.72-2.936-10.92zM308.008 253.944c-3.848-2.248-8.72-.92-10.928 2.912l-4.016 6.936c-2.224 3.816-.912 8.72 2.912 10.928 1.264.736 2.64 1.08 4 1.08 2.768 0 5.448-1.432 6.928-3.992l4.016-6.936c2.224-3.816.912-8.72-2.912-10.928z"/></svg>