<svg xmlns="http://www.w3.org/2000/svg" viewBox="0 0 100 100"><defs><style>.a{fill:#231f20;}</style></defs><title>100icons2017</title><path class="a" d="M41.55 54a3.19 3.19 0 0 1-.55 0 6.31 6.31 0 0 1-4.38-4c-.07-.18-.14-.35-.22-.52-.42-1-.95-2.22 0-3.26a2.93 2.93 0 0 1 4.12.08 12.09 12.09 0 0 1 2 3.31c1.13 2.62.82 3.45.42 3.88a1.77 1.77 0 0 1-1.39.51zm0-1.52zm-3.26-5.38a.87.87 0 0 0-.66.26c-.18.2-.06.59.3 1.44l.24.57a4.88 4.88 0 0 0 2.54 2.74 2.2 2.2 0 0 0 .85.2 12.78 12.78 0 0 0-2.23-4.77 1.61 1.61 0 0 0-1.04-.44zM64.38 32.18c-1.05 0-2.34-.88-3.11-3.38a13.2 13.2 0 0 1-.36-4.26c.24-1.77 1.13-2.2 1.63-2.29a2.67 2.67 0 0 1 2.61 1.63 19.63 19.63 0 0 1 1.28 5.7 2.34 2.34 0 0 1-1.76 2.58zm-1.52-8.26a1.83 1.83 0 0 0-.26.85 11.82 11.82 0 0 0 .3 3.54c.53 1.72 1.24 2.21 1.51 2.17s.34-.31.33-.87a19.52 19.52 0 0 0-1.06-4.9 1.53 1.53 0 0 0-.82-.79z"/><path class="a" d="M50.73 89.18a15.46 15.46 0 0 1-7.17-1.7c-3.82-2-6.19-4.72-7-8.17-1.09-4.41.57-8.9 1.92-11.58a18.26 18.26 0 0 1-11.12 2.22c-4.46-.67-8.35-3.38-11.55-8-6.18-9-4.32-20.72 5.1-32.2a.85.85 0 0 1 1.5.41c1 6.71 3.5 15.34 6.2 18.86.54.71 1.57 1.3 2 1.15 0 0 .11 0 .17-.18a1.58 1.58 0 0 0-.16-1.2 57.15 57.15 0 0 1-6.45-22.26.85.85 0 0 1 .24-.66l.52-.53a52.07 52.07 0 0 1 13.3-9.52.85.85 0 0 1 .84 0 .84.84 0 0 1 .2.18v-.15a.85.85 0 0 1 .5-.81 46.76 46.76 0 0 1 13.46-3.9.85.85 0 0 1 .94 1C53 17 52.23 29.56 54.43 34.87c.35.83 1.19 1.65 1.68 1.64a.29.29 0 0 0 .24-.14 1.46 1.46 0 0 0 .16-1.13 53.71 53.71 0 0 1 .06-23.78.85.85 0 0 1 .8-.65 41.48 41.48 0 0 1 7.18.4c4.46.65 8.12 1.48 11.06 2.15 5.8 1.32 9 2.05 11.59.08a.85.85 0 0 1 1.24 1.12l-.68 1.13c-1.83 2.7-1.2 5.45-.06 10.44.4 1.74.85 3.71 1.27 6a.85.85 0 0 1-.22.74c-2.32 2.42-7.78 6.46-18.36 6.17-.52 0-1.2.37-1.23.71s.57.78 1.14.9c3.91.82 13.17-1.4 18.35-3.31a.85.85 0 0 1 1.14.74 41.33 41.33 0 0 1-1.63 14.29.85.85 0 0 1-.41.51c-3.42 1.85-12.75 5.6-25.75.54-.72-.28-1.48-.25-1.62 0a.52.52 0 0 0 0 .38 1.27 1.27 0 0 0 .53.76c6.78 3.68 17.61 2.83 24.83 1a.85.85 0 0 1 1 1.13 59.25 59.25 0 0 1-8.42 14.82.84.84 0 0 1-.76.32c-6.42-.64-18.19-2.31-24.93-6.33-.39-.24-1.13-.22-1.35.11s.1 1 .5 1.39c3 2.65 16 5.57 23.29 6.34a.85.85 0 0 1 .55 1.41c-8.42 9.39-17.25 14.43-24.89 14.43zm-9.37-23.72a.85.85 0 0 1-.1.77c0 .07-4.58 6.65-3.09 12.68.73 2.95 2.8 5.32 6.17 7.06 7.86 4.05 18.58-.12 28.88-11.18-7.15-.95-19.26-3.62-22.59-6.56a2.91 2.91 0 0 1-.8-3.59 2.78 2.78 0 0 1 3.65-.64c6.3 3.76 17.39 5.4 23.75 6.06a57.92 57.92 0 0 0 7.29-12.51c-4.7 1-16.37 2.86-24.45-1.52a2.92 2.92 0 0 1-1.37-1.86 2.15 2.15 0 0 1 .3-1.75c.75-1.08 2.37-1.07 3.64-.58 12 4.65 20.57 1.49 24-.29a40 40 0 0 0 1.53-12.23c-5.45 1.87-14 3.86-18.2 3-1.31-.27-2.6-1.36-2.48-2.71a2.83 2.83 0 0 1 3-2.26c9.48.25 14.5-3.1 16.78-5.34-.39-2.08-.8-3.9-1.17-5.51-1-4.42-1.72-7.53-.44-10.42-2.66.69-5.85 0-10.37-1.07-2.91-.67-6.53-1.49-10.93-2.13a39.62 39.62 0 0 0-6.23-.4 51.89 51.89 0 0 0 .08 22.35 3.11 3.11 0 0 1-.45 2.55 2 2 0 0 1-1.53.82c-1.56.08-2.87-1.61-3.32-2.68-2.21-5.3-1.7-16.81-.65-22.53A45.21 45.21 0 0 0 41 16.35c.23 4.47 1.07 17.09 3.5 27 0 .19.1.36.15.53a1.88 1.88 0 0 1 0 1.72 1.46 1.46 0 0 1-1.21.56c-1.58.08-2.87-1.61-3.32-2.68-2-4.81-2.66-17.56-2.4-25.55a50.36 50.36 0 0 0-11.63 8.57l-.23.24a55.3 55.3 0 0 0 6.21 21.18 3.27 3.27 0 0 1 .26 2.64 2 2 0 0 1-1.2 1.18c-1.48.51-3.17-.79-3.89-1.73-2.74-3.56-5-11.32-6.22-17.74-7.9 10.36-9.31 20.73-3.85 28.67 2.93 4.26 6.43 6.72 10.41 7.32 6.6 1 12.36-3.47 12.42-3.52a.85.85 0 0 1 1.37.72zm2-21zm-4-26.25c-.24 8 .45 20.26 2.27 24.65A3.3 3.3 0 0 0 43 44.41c-.06-.19-.13-.4-.18-.62-2.2-8.92-3.11-19.65-3.46-25.58z"/><path class="a" d="M56.7 59.7a3.37 3.37 0 0 1-1.37-.37L55 59.2a3.23 3.23 0 0 1-2.15-2.68 2 2 0 0 1 .83-2c1.3-.81 4.46 1 4.95 1.77a2 2 0 0 1 .28 1.51 2.47 2.47 0 0 1-1.13 1.55 2 2 0 0 1-1.08.35zM54.59 56a.91.91 0 0 0 0 .51 1.6 1.6 0 0 0 1.06 1.07l.37.16c.57.25.69.27.88.16a.77.77 0 0 0 .36-.46.24.24 0 0 0 0-.2A6.42 6.42 0 0 0 54.59 56zm0-.06zM50.78 78.09a6.27 6.27 0 0 1-.87-.06 15.64 15.64 0 0 1-4.51-1.6c-3.08-1.88-2.62-3.62-2.41-4.11.49-1.12 1.93-1.6 3.49-1.15a21.8 21.8 0 0 1 5.73 2.92A2.58 2.58 0 0 1 53 77a2.25 2.25 0 0 1-2.22 1.09zm-5.44-5.39c-.43 0-.72.14-.79.3s.19 1 1.74 2a14.46 14.46 0 0 0 3.86 1.37c1 .14 1.34-.07 1.36-.11s0-.49-.49-.93a21.49 21.49 0 0 0-5-2.5 2.48 2.48 0 0 0-.68-.14zM11.73 84.48a.85.85 0 0 1-.18-1.68c8.33-1.85 17.62-7.74 28.38-18 7.22-6.89 45.43-50 45.81-50.44A.85.85 0 1 1 87 15.48C85.44 17.25 48.38 59.08 41.1 66c-11 10.49-20.54 16.52-29.19 18.43z"/></svg>