<svg xmlns="http://www.w3.org/2000/svg" viewBox="206 206 100 100"><path d="M300.597 275.384v-9.805c0-.446-.36-.81-.808-.81h-13.295c.88-2.545 1.448-5.233 1.66-8.02h5.042c.363 1.444 1.668 2.52 3.224 2.52 1.836 0 3.328-1.493 3.328-3.328 0-1.834-1.492-3.327-3.327-3.327-1.555 0-2.86 1.075-3.223 2.52h-4.96c.01-.286.013-.572.013-.86 0-2.384-.263-4.71-.756-6.95h6.408c.446 0 .808-.36.808-.807v-8.26c1.444-.364 2.52-1.67 2.52-3.225 0-1.834-1.493-3.327-3.327-3.327-1.835 0-3.327 1.493-3.327 3.327 0 1.556 1.074 2.862 2.52 3.224v7.454h-6c-2.84-10.293-10.665-18.54-20.705-21.966v-10.722h8.997c.362 1.444 1.668 2.52 3.223 2.52 1.835 0 3.327-1.494 3.327-3.328 0-1.833-1.492-3.326-3.327-3.326-1.555 0-2.86 1.073-3.223 2.517h-9.806c-.445 0-.807.36-.807.808v11.028c-2.56-.724-5.248-1.14-8.02-1.202v-3.233c1.443-.362 2.518-1.668 2.518-3.224 0-1.833-1.49-3.326-3.325-3.326-1.835 0-3.328 1.492-3.328 3.327 0 1.557 1.075 2.862 2.52 3.225v3.235c-2.698.07-5.314.477-7.81 1.175V218.1c0-.445-.36-.807-.808-.807h-8.26c-.363-1.445-1.67-2.52-3.225-2.52-1.834 0-3.327 1.493-3.327 3.327s1.493 3.327 3.327 3.327c1.556 0 2.86-1.074 3.224-2.52h7.452v4.804c-10.055 3.396-17.904 11.62-20.775 21.903h-11.914v-8.996c1.445-.363 2.52-1.668 2.52-3.224 0-1.834-1.493-3.326-3.328-3.326s-3.326 1.492-3.326 3.327c0 1.555 1.073 2.86 2.518 3.223v9.804c0 .447.362.81.808.81h12.316c-.508 2.27-.778 4.627-.778 7.047 0 .326.006.65.016.974h-4.964c-.363-1.443-1.668-2.516-3.223-2.516-1.834 0-3.327 1.492-3.327 3.326s1.492 3.328 3.327 3.328c1.555 0 2.86-1.074 3.223-2.52h5.052c.217 2.71.77 5.326 1.616 7.808H218.1c-.446 0-.808.36-.808.808v8.262c-1.444.362-2.52 1.67-2.52 3.224 0 1.835 1.493 3.327 3.328 3.327s3.327-1.492 3.327-3.327c0-1.556-1.075-2.86-2.52-3.224v-7.454h7.167c3.493 8.67 10.647 15.485 19.538 18.52v14.17h-8.996c-.362-1.444-1.668-2.52-3.223-2.52-1.834 0-3.327 1.493-3.327 3.328 0 1.834 1.493 3.326 3.327 3.326 1.555 0 2.86-1.073 3.223-2.518h9.804c.446 0 .808-.363.808-.81V285.31c2.56.725 5.25 1.14 8.023 1.204v6.68c-.58.145-1.11.44-1.544.873-.628.628-.975 1.464-.974 2.353 0 1.834 1.493 3.326 3.327 3.326 1.833 0 3.326-1.492 3.326-3.326 0-1.556-1.074-2.86-2.52-3.224v-6.685c2.697-.07 5.314-.476 7.808-1.173v8.562c0 .16.05.31.13.435l.01.016c.004.01.01.015.017.022.026.035.053.07.084.1.15.152.356.237.57.237l8.26-.003c.362 1.445 1.67 2.52 3.225 2.52 1.834 0 3.326-1.492 3.326-3.326s-1.492-3.326-3.327-3.326c-1.556 0-2.86 1.073-3.225 2.52h-7.453v-8.253c8.903-3.005 16.075-9.798 19.596-18.452h13.094v8.996c-1.444.362-2.52 1.668-2.52 3.224 0 1.835 1.492 3.327 3.327 3.327 1.833 0 3.325-1.492 3.325-3.327 0-1.556-1.074-2.86-2.518-3.224zm-4.176-21.154c.944 0 1.713.768 1.713 1.712s-.77 1.71-1.712 1.71c-.94 0-1.707-.764-1.71-1.705v-.005-.005c.002-.942.77-1.707 1.71-1.707zm-4.23-19.198c0-.943.77-1.71 1.713-1.71.943 0 1.712.767 1.712 1.71 0 .944-.77 1.712-1.712 1.712-.945 0-1.712-.768-1.712-1.712zm-57.155-15.222c-.944 0-1.712-.768-1.712-1.71 0-.945.768-1.713 1.712-1.713.943 0 1.71.768 1.71 1.712 0 .943-.767 1.71-1.71 1.71zm-24.532 13.582c0-.943.768-1.71 1.71-1.71.945 0 1.712.766 1.712 1.71 0 .943-.768 1.71-1.71 1.71-.944.002-1.712-.766-1.712-1.71zm9.31 43.575c0 .944-.77 1.712-1.712 1.712s-1.71-.77-1.71-1.713c0-.943.768-1.712 1.71-1.712.944 0 1.712.768 1.712 1.712zm13.58 24.53c-.942 0-1.71-.767-1.71-1.71 0-.944.768-1.712 1.71-1.712.945 0 1.712.77 1.712 1.712s-.767 1.71-1.71 1.71zm45.216-90.995c.943 0 1.71.767 1.71 1.71 0 .944-.767 1.712-1.71 1.712-.944 0-1.712-.768-1.712-1.712 0-.943.767-1.71 1.71-1.71zm-24.38 5.077c0-.944.77-1.712 1.713-1.712.943 0 1.71.768 1.71 1.71s-.767 1.712-1.71 1.712c-.944 0-1.712-.767-1.712-1.71zm-38.65 42.19c-.943 0-1.71-.77-1.71-1.712 0-.943.768-1.71 1.71-1.71.944 0 1.712.767 1.712 1.71 0 .944-.767 1.712-1.71 1.712zm42.19 38.65c0 .944-.767 1.712-1.71 1.712s-1.71-.768-1.71-1.712c0-.457.177-.887.5-1.21.323-.323.752-.5 1.21-.5.944 0 1.71.766 1.71 1.71zm19.2-4.23c.942 0 1.71.767 1.71 1.71 0 .944-.768 1.713-1.71 1.713-.945 0-1.713-.77-1.713-1.712 0-.943.768-1.71 1.712-1.71zM256 284.91c-16.892 0-30.634-13.743-30.634-30.635 0-16.89 13.742-30.634 30.634-30.634 16.89 0 30.633 13.744 30.633 30.635 0 16.892-13.742 30.634-30.633 30.634zm43.786-4.592c-.943 0-1.712-.768-1.712-1.71s.77-1.712 1.712-1.712 1.71.768 1.71 1.71-.766 1.712-1.71 1.712z"/><path d="M279.366 266.81c-.387-.225-.88-.092-1.104.294-3.27 5.66-8.495 9.826-14.718 11.734-.003 0-.005.002-.008.003l-.184.057c-.033.01-.064.02-.096.034-.032.006-.064.014-.097.023l-.195.055c-.43.12-.68.567-.56.997.102.355.426.59.778.59.072 0 .146-.012.22-.032l.203-.058c.035-.01.07-.022.102-.036.035-.007.07-.015.104-.025.07-.02.138-.04.206-.063.003 0 .006 0 .01-.002 6.608-2.03 12.16-6.458 15.633-12.47.224-.384.092-.878-.294-1.1zM279.646 240.612c-.224-.386-.717-.518-1.104-.294-.386.224-.518.718-.294 1.104 2.25 3.89 3.44 8.333 3.44 12.854 0 1.943-.216 3.88-.645 5.756v.002l-.046.195c-.008.03-.014.064-.018.098-.013.03-.022.063-.03.096l-.05.197c-.108.435.154.873.587.98.066.018.132.025.197.025.36 0 .69-.245.783-.61l.05-.205c.01-.035.016-.07.02-.105.013-.033.023-.067.03-.103l.05-.204v-.005-.002c.457-1.993.688-4.05.688-6.114 0-4.805-1.265-9.53-3.66-13.664zM256.03 279.964h-.028c-6.512 0-12.722-2.44-17.488-6.87 0-.002 0-.003-.002-.003l-.145-.135c-.025-.023-.05-.046-.08-.065-.02-.026-.042-.05-.067-.074l-.144-.14c-.32-.312-.83-.305-1.142.015-.312.32-.306.83.014 1.143l.154.15c.026.023.054.046.082.067.022.026.046.053.072.077.052.05.104.1.157.147 5.066 4.71 11.667 7.305 18.59 7.305h.027c.446 0 .807-.362.807-.81 0-.444-.36-.806-.807-.806zM230.313 254.275c0-1.935.216-3.863.642-5.73l.045-.196c.008-.034.013-.067.017-.1.012-.032.02-.064.03-.097l.048-.194c.11-.434-.152-.873-.584-.982-.43-.11-.87.152-.98.584l-.052.208c-.008.035-.015.07-.02.105l-.03.102-.047.202v.004c-.452 1.986-.682 4.035-.682 6.09 0 4.814 1.27 9.548 3.674 13.688.15.26.42.403.7.403.137 0 .276-.036.403-.11.386-.224.517-.718.293-1.104-2.26-3.892-3.455-8.345-3.455-12.875zM232.624 241.766c.127.073.266.108.402.108.28 0 .55-.146.7-.405 3.264-5.663 8.486-9.836 14.707-11.75l.192-.06c.033-.01.064-.02.094-.034.03-.005.064-.012.097-.022l.193-.055c.43-.122.68-.568.558-.998-.12-.43-.567-.68-.997-.558l-.204.06c-.035.01-.068.02-.1.036-.036.005-.07.014-.105.024l-.197.06h-.006c-6.613 2.037-12.163 6.472-15.63 12.488-.223.388-.09.88.297 1.104zM255.945 228.587H256c6.522 0 12.74 2.447 17.51 6.89l.147.138c.025.023.05.045.078.065.02.025.043.05.067.074l.146.14c.157.154.36.23.563.23.21 0 .42-.082.58-.244.31-.32.304-.83-.016-1.142l-.152-.147c-.026-.024-.054-.047-.082-.068-.02-.027-.046-.053-.07-.078l-.152-.143c-.002 0-.003 0-.004-.002h-.003c-5.068-4.724-11.677-7.325-18.612-7.325h-.052c-.446 0-.808.36-.808.808 0 .445.36.807.807.807zM277.092 254.275c0 4.166-1.213 8.194-3.507 11.65l-.002.002-.11.163c-.018.027-.035.056-.05.086-.02.024-.042.05-.062.078l-.112.163c-.257.364-.17.868.195 1.125.14.1.304.147.464.147.254 0 .504-.12.66-.344l.123-.174c.02-.03.038-.06.055-.092.022-.026.045-.054.064-.084.04-.06.08-.118.12-.18 2.47-3.72 3.776-8.06 3.776-12.543 0-2.4-.373-4.766-1.11-7.028-.137-.424-.593-.656-1.017-.518-.426.138-.657.594-.52 1.018.685 2.102 1.032 4.3 1.032 6.53zM249.315 275.98c.068.02.136.04.204.062.034.01.07.02.103.023.032.015.065.026.1.036l.198.057.007.002c1.97.545 4.012.82 6.073.82 4.842 0 9.464-1.503 13.364-4.347.36-.264.44-.77.177-1.13s-.768-.438-1.128-.176c-3.622 2.642-7.914 4.037-12.412 4.037-1.915 0-3.812-.256-5.64-.762l-.19-.054c-.033-.01-.065-.017-.098-.022-.03-.013-.06-.024-.093-.033l-.19-.058c-.425-.13-.877.107-1.01.534s.11.878.535 1.01zM248.635 232.792l-.2.07c-.034.012-.067.026-.098.042-.034.007-.068.017-.102.03-.063.022-.126.046-.19.07l-.01.003c-6.436 2.412-11.537 7.754-13.646 14.29-.138.425.095.88.52 1.017.083.026.166.04.248.04.34 0 .658-.22.77-.56 1.957-6.068 6.69-11.028 12.662-13.27.004 0 .008-.003.012-.004l.185-.068c.032-.012.062-.025.092-.04.03-.007.062-.016.094-.027l.188-.065c.422-.145.646-.604.5-1.026-.146-.423-.606-.647-1.027-.502zM242.68 272.664c.143.104.31.154.473.154.25 0 .496-.116.654-.333.262-.36.182-.866-.18-1.13-5.244-3.805-8.413-9.688-8.696-16.142v-.013l-.007-.196c0-.034-.004-.067-.01-.1.004-.03.005-.064.004-.098l-.004-.198c-.007-.446-.376-.798-.82-.795-.446.007-.802.375-.795.82l.004.212c0 .036.004.07.01.106-.004.036-.005.07-.004.106.002.067.004.133.008.2v.013c.3 6.953 3.714 13.293 9.363 17.394zM255.952 233.185h.05c6.468 0 12.49 2.908 16.52 7.978v.002l.123.155c.02.026.043.05.065.074.017.028.035.056.056.083l.12.158c.157.21.4.322.645.322.17 0 .34-.052.485-.162.356-.268.43-.774.16-1.13-.042-.058-.085-.114-.128-.17-.02-.03-.045-.056-.07-.08-.018-.03-.037-.06-.06-.09l-.126-.16-.005-.005c-4.338-5.46-10.82-8.59-17.79-8.59h-.044c-.445 0-.807.362-.807.808.002.445.364.807.81.807zM273.936 254.26c0-.445-.36-.8-.808-.8s-.808.368-.808.814c0 6.242-3.638 12.02-9.27 14.722l-.172.082c-.03.014-.058.028-.084.045-.03.01-.06.02-.09.034l-.174.078c-.408.18-.594.655-.415 1.064.133.302.43.482.74.482.108 0 .22-.022.324-.068l.19-.085c.03-.016.062-.032.092-.05.033-.01.066-.023.1-.04l.18-.084.006-.003.004-.002c6.186-2.968 10.183-9.317 10.183-16.177v-.012z"/><path d="M255.948 237.956H256c6.248 0 12.03 3.643 14.73 9.28l.08.173.046.082c.01.03.02.06.034.09l.077.173c.132.304.43.485.74.485.107 0 .217-.02.322-.067.408-.178.595-.654.417-1.063l-.085-.192c-.015-.032-.03-.063-.05-.092-.01-.034-.022-.067-.037-.1l-.09-.188v-.002c-2.967-6.194-9.32-10.196-16.184-10.196h-.057c-.446.002-.806.366-.803.812.003.445.364.804.808.804zM248.798 237.846l-.192.085c-.032.015-.063.032-.092.05-.033.01-.066.023-.1.04l-.186.088c-6.173 2.974-10.16 9.32-10.16 16.168v.04c0 .446.36.808.807.808.446 0 .808-.36.808-.808v-.04c0-6.23 3.63-12.006 9.246-14.71.057-.03.114-.056.172-.083.03-.013.057-.028.083-.045.03-.01.06-.02.09-.034l.173-.078c.408-.18.594-.656.415-1.064-.18-.41-.657-.596-1.065-.416zM241.286 261.34s0-.002 0 0c-.03-.06-.056-.117-.083-.175-.014-.03-.03-.058-.045-.084-.01-.028-.02-.06-.034-.087l-.078-.176c-.18-.41-.656-.594-1.064-.414-.41.18-.594.656-.415 1.064l.084.19.05.093c.012.032.024.065.04.097.028.063.058.125.087.187v.003c2.972 6.18 9.32 10.173 16.173 10.173h.026c.446 0 .808-.36.808-.808s-.362-.808-.808-.808H256c-6.234 0-12.01-3.633-14.714-9.255zM250.83 264.942c-.057-.027-.112-.055-.168-.083-.027-.015-.055-.027-.083-.037-.026-.018-.053-.033-.08-.048-.056-.03-.11-.06-.165-.088-.392-.214-.882-.07-1.096.322-.214.39-.07.882.322 1.095l.186.1c.03.017.063.03.096.043.03.02.06.038.093.055l.186.092.003.002c1.84.893 3.815 1.346 5.875 1.346 4.8 0 9.272-2.585 11.673-6.745.223-.387.09-.88-.296-1.104-.386-.223-.88-.09-1.104.296-2.113 3.662-6.05 5.938-10.272 5.938-1.812 0-3.552-.4-5.17-1.186z"/><path d="M255.96 242.424h.042c6.195 0 11.388 4.835 11.822 11.007l.012.19c.002.03.005.06.01.09-.002.03-.003.06 0 .092 0 .062.003.123.005.185.012.44.37.788.808.788h.02c.446-.01.8-.38.788-.827l-.006-.21c-.002-.035-.006-.07-.012-.103.003-.035.003-.07 0-.107-.003-.07-.007-.138-.012-.207-.493-7.016-6.394-12.51-13.44-12.51h-.034c-.446 0-.808.36-.808.808 0 .444.36.806.807.806zM248.96 242.793l-.177.11c-.03.02-.06.04-.085.064-.032.015-.063.033-.093.052-.057.037-.114.075-.17.114h-.003c-3.693 2.515-5.897 6.68-5.897 11.14 0 2.378.628 4.715 1.816 6.76.15.257.422.4.7.4.138 0 .277-.034.405-.108.386-.224.517-.72.293-1.104-1.045-1.798-1.598-3.854-1.598-5.946 0-3.927 1.94-7.592 5.19-9.805l.157-.103c.025-.017.05-.036.073-.055.028-.013.055-.028.08-.045l.158-.098c.38-.235.5-.732.265-1.112-.234-.38-.73-.5-1.112-.265z"/><path d="M261.81 258.957l-.112.135c-.02.022-.036.045-.052.068-.022.02-.043.04-.063.063-.037.044-.076.086-.115.128-.305.327-.287.838.04 1.143.154.146.353.217.55.217.216 0 .432-.086.59-.256.05-.053.098-.105.146-.16.023-.025.045-.054.064-.082.026-.024.052-.05.075-.078.045-.054.09-.107.134-.163 1.297-1.605 2.01-3.628 2.01-5.694 0-5.004-4.07-9.075-9.082-9.075h-.025c-.446 0-.808.363-.808.81 0 .445.362.807.808.807h.033c4.113 0 7.46 3.346 7.46 7.46-.003 1.722-.573 3.34-1.654 4.68zM249.342 248.11l-.142.158c-.024.027-.045.055-.065.084-.026.024-.05.05-.075.078l-.134.163c-1.29 1.605-2 3.622-2 5.682 0 5.004 4.072 9.074 9.075 9.074h.018c.446 0 .8-.362.8-.81 0-.444-.37-.807-.816-.807-4.113 0-7.46-3.346-7.46-7.46 0-1.717.57-3.33 1.642-4.667l.113-.138c.02-.022.036-.045.052-.068.02-.02.04-.04.06-.063l.12-.13c.302-.327.282-.838-.045-1.14-.33-.303-.84-.283-1.143.044z"/><path d="M251.073 254.987c0 .04.004.078.01.117.014.076.028.152.044.227v.003c.492 2.276 2.542 3.928 4.873 3.928 2.75 0 4.985-2.235 4.985-4.984 0-2.75-2.236-4.985-4.985-4.985h-.017c-.446 0-.8.362-.8.81 0 .445.37.807.817.807 1.858 0 3.37 1.512 3.37 3.37s-1.512 3.37-3.37 3.37c-1.576 0-2.96-1.116-3.294-2.653l-.03-.156c-.004-.026-.01-.052-.017-.077 0-.025-.003-.05-.007-.078-.006-.052-.01-.104-.015-.157-.033-.445-.418-.78-.864-.748-.445.033-.78.42-.747.864.005.08.013.156.022.233.006.038.014.076.023.114z"/></svg>