<svg xmlns="http://www.w3.org/2000/svg" viewBox="0 0 100 100"><path d="M50.494 8.995c-22.356 0-40.482 18.135-40.482 40.506s18.126 40.506 40.482 40.506c22.36 0 40.482-18.134 40.482-40.505S72.854 8.996 50.494 8.996zM63.998 67.64c-4.896 3.21-10.133 3.21-13.847 1.856-3.715-1.182-6.41.17-10.975 4.567l-3.942 4.044c-5.462-2.922-9.984-7.364-13.01-12.764l4.802-4.458c3.878-4.225 4.895-5.912 3.878-10.813-1.18-5.408-1.18-11.997 5.405-17.91 1.01-.845 3.547-2.364 3.547-2.705 10.296-6.08 21.274-.505 21.274-.505l.84 1.352s-9.456 6.25-10.64 6.926c-1.35.845-5.398 5.405-.503 12.672 4.73 7.263 9.96 4.898 11.483 3.716 1.18-.676 10.633-6.758 10.633-6.758l.844 1.352s.678 12.674-9.79 19.43z"/></svg>