<svg xmlns="http://www.w3.org/2000/svg" viewBox="0 0 53 50.000002"><g color="#000" font-family="sans-serif" white-space="normal"><path style="line-height:normal;text-indent:0;text-align:start;text-decoration-line:none;text-decoration-style:solid;text-decoration-color:#000000;text-transform:none;block-progression:tb;isolation:auto;mix-blend-mode:normal" d="M26.5.125L.25 19.813h7.5v22.5h-3v3.062H.25v4.5h52.5v-4.5h-4.5v-3.063h-3v-22.5h7.5L26.5.125zM26.5 2l21.752 16.313H4.75L26.5 2zm0 1.727L8.127 17.053H44.87L26.5 3.727zm0 1.853l13.75 9.973H12.752L26.5 5.58zM9.252 19.812h3v22.5h-3v-22.5zm4.5 0h4.5v7.47a8.925 8.925 0 0 1 1.5-2.4v-5.07h3v2.83a8.925 8.925 0 0 1 1.5-.54v-2.29h4.5v2.305a8.925 8.925 0 0 1 1.5.54v-2.845h3v5.127a8.925 8.925 0 0 1 1.5 2.456v-7.584h4.5v22.5h-4.5v-8.238a8.925 8.925 0 0 1-1.5 2.47v5.77l-3-.002v-3.498a8.925 8.925 0 0 1-1.5.547v2.953h-4.5v-2.946a8.925 8.925 0 0 1-1.5-.533v3.478h-3v-5.728a8.925 8.925 0 0 1-1.5-2.412v8.14h-4.5v-22.5zm27 0h3v22.5h-3v-22.5zm-34.5 24h40.5v1.5h-40.5v-1.5zm-4.5 3.063h49.5v1.5h-49.5v-1.5z" overflow="visible" solid-color="#000000" fill-rule="evenodd"/><path style="line-height:normal;text-indent:0;text-align:start;text-decoration-line:none;text-decoration-style:solid;text-decoration-color:#000000;text-transform:none;block-progression:tb;isolation:auto;mix-blend-mode:normal" d="M26.479 21.063c-5.336 0-9.675 4.34-9.675 9.673 0 5.335 4.34 9.676 9.674 9.676 5.333 0 9.674-4.34 9.674-9.676 0-5.334-4.34-9.674-9.676-9.674zm-.002 1.5c4.524 0 8.176 3.65 8.176 8.173 0 4.524-3.652 8.176-8.176 8.176-4.523 0-8.173-3.652-8.173-8.176 0-4.523 3.65-8.174 8.173-8.174z" overflow="visible" solid-color="#000000"/><path style="line-height:normal;text-indent:0;text-align:start;text-decoration-line:none;text-decoration-style:solid;text-decoration-color:#000000;text-transform:none;block-progression:tb;isolation:auto;mix-blend-mode:normal" d="M23.508 25.314l-1.246.836 3.338 4.973h-1.817v1.5h1.946v.582h-1.947v1.5h1.946v1.453h1.5v-1.453h1.946v-1.5H27.23v-.582h1.946v-1.5h-1.82l3.34-4.973-1.245-.836-2.97 4.428-2.972-4.428z" overflow="visible" solid-color="#000000" fill-rule="evenodd"/></g></svg>