<svg xmlns="http://www.w3.org/2000/svg" viewBox="0 0 100 100"><path d="M88.9 40.1l-.1-.3C86.3 31 69.9 24.6 50 24.6S13.7 31 11.1 39.9l-.1.3-.3 18v.2c.7 9.8 17.6 17.2 39.2 17.2s38.5-7.4 39.2-17.2v-.1l-.2-18.2zM78.3 65.6c-1.1.6-2.2 1.1-3.5 1.6V54.1c1.2-.5 2.4-1 3.5-1.5v13zm-53.1 1.7c-1.3-.5-2.4-1-3.5-1.6v-13c1.1.5 2.2 1 3.5 1.5v13.1zm5.4 1.8l-3-.9V55l3 .9v13.2zm5.4 1.2c-.8-.1-1.6-.3-2.4-.5V56.5c.8.2 1.6.3 2.4.5v13.3zm6.1.8c-1.2-.1-2.4-.3-3.6-.4V57.4c1.2.2 2.4.3 3.6.4v13.3zm6.9.3c-1.4 0-2.7-.1-4-.1V58c1.3.1 2.6.1 4 .1v13.3zm6.5-.1c-1.1.1-2.3.1-3.5.1V58.1c1.2 0 2.3-.1 3.5-.1v13.3zm5.9-.6c-1.1.2-2.3.3-3.5.4V57.8c1.2-.1 2.3-.2 3.5-.4v13.3zm6-1.1c-1.1.3-2.3.5-3.5.7V57c1.2-.2 2.3-.4 3.5-.7v13.3zm5.4-1.6c-1.1.4-2.3.7-3.5 1.1V55.8c1.2-.3 2.4-.7 3.5-1V68zM50 53.3c-20.3 0-33.2-7.8-33.2-12.6S29.7 28.9 50 28.9s33.8 7.8 33.8 12.6S70.3 53.3 50 53.3zm-35.2 4.8l.2-10.4c1.2 1.4 2.8 2.7 4.8 3.8v12.9c-3.1-1.9-4.8-4.2-5-6.3zm66 6V51.2c1.8-1.1 3.2-2.3 4.3-3.6l.2 10.4c-.3 2.1-1.8 4.2-4.5 6.1z"/></svg>