<svg xmlns="http://www.w3.org/2000/svg" viewBox="0 0 100 100"><style>.st0{fill:#FFFFFF;} .st1{fill:#231F20;} .st2{fill:#1D1C1A;} .st3{fill:none;stroke:#1D1C1A;stroke-width:2.5;stroke-linecap:round;stroke-linejoin:round;stroke-miterlimit:10;} .st4{fill:#FFFFFF;stroke:#231F20;stroke-width:2.5;stroke-linecap:round;stroke-linejoin:round;stroke-miterlimit:10;}</style><path class="st2" d="M68.974 57.886c-.665-.18-1.35.223-1.528.89-2.162 8.206-10.37 13.108-18.683 11.163-5.84-1.368-10.59-6.17-12.098-12.237-.088-.353-.17-.72-.247-1.094H52.36c.692 0 1.25-.56 1.25-1.25s-.558-1.25-1.25-1.25H36.02c-.315-2.623-.34-5.523.028-8.335H52.36c.692 0 1.25-.56 1.25-1.25s-.558-1.25-1.25-1.25H36.49c.476-2.093 1.205-4.07 2.25-5.76 2.28-3.686 5.934-6.35 10.022-7.306 8.322-1.946 16.523 2.957 18.684 11.162.177.668.866 1.066 1.528.89.668-.176 1.066-.86.89-1.527-2.51-9.525-12.027-15.217-21.672-12.96-4.73 1.107-8.95 4.178-11.578 8.426-1.28 2.07-2.136 4.51-2.662 7.075h-7.257c-.69 0-1.25.56-1.25 1.25s.56 1.25 1.25 1.25h6.845c-.342 2.827-.316 5.704-.028 8.334h-6.817c-.69 0-1.25.56-1.25 1.25s.56 1.25 1.25 1.25h7.184c.107.584.224 1.157.36 1.697 1.73 6.965 7.208 12.488 13.953 14.066 1.423.334 2.843.493 4.24.493 8.06 0 15.293-5.335 17.43-13.453.177-.668-.22-1.35-.89-1.527z"/></svg>