<svg xmlns="http://www.w3.org/2000/svg" viewBox="0 0 100 100"><path style="text-indent:0;text-align:start;line-height:normal;text-transform:none;block-progression:tb;-inkscape-font-specification:Sans" d="M17.97 7.938A3 3 0 0 0 15 11v43.438C10.404 55.758 7 60 7 65c0 4.998 3.405 9.242 8 10.563V89a3 3 0 1 0 6 0V75.562C25.595 74.243 29 70 29 65c0-5-3.404-9.243-8-10.563V11a3 3 0 0 0-3.03-3.063zm32 0A3 3 0 0 0 47 11v13.438C42.404 25.758 39 30 39 35c0 4.998 3.405 9.242 8 10.563V89a3 3 0 1 0 6 0V45.562c4.595-1.32 8-5.564 8-10.562 0-5-3.404-9.243-8-10.563V11a3 3 0 0 0-3.03-3.063zm32 0A3 3 0 0 0 79 11v43.438C74.404 55.758 71 60 71 65c0 4.998 3.405 9.242 8 10.563V89a3 3 0 1 0 6 0V75.562C89.595 74.243 93 70 93 65c0-5-3.404-9.243-8-10.563V11a3 3 0 0 0-3.03-3.063zM50 30c2.797 0 5 2.203 5 5s-2.203 5-5 5-5-2.203-5-5 2.203-5 5-5zM18 60c2.797 0 5 2.203 5 5s-2.203 5-5 5-5-2.203-5-5 2.203-5 5-5zm64 0c2.797 0 5 2.203 5 5s-2.203 5-5 5-5-2.203-5-5 2.203-5 5-5z" color="#000" stroke-width="6" overflow="visible" font-family="Sans"/></svg>