<svg xmlns="http://www.w3.org/2000/svg" width="32" height="28" viewBox="0 0 32 28"><title>address-card-o</title><path d="M16 17.672c0 1.36-.89 2.328-2 2.328H6c-1.11 0-2-.97-2-2.328 0-2.422.594-5.11 3.062-5.11.766.44 1.797 1.19 2.938 1.19s2.172-.75 2.938-1.19c2.47 0 3.062 2.69 3.062 5.11zm-2.453-8.125c0 1.97-1.594 3.547-3.547 3.547s-3.547-1.578-3.547-3.547C6.453 7.594 8.047 6 10 6s3.547 1.594 3.547 3.547zM28 16.5v1c0 .28-.22.5-.5.5h-9c-.28 0-.5-.22-.5-.5v-1c0-.28.22-.5.5-.5h9c.28 0 .5.22.5.5zm0-3.937v.875c0 .313-.25.562-.562.562h-8.875c-.313 0-.562-.25-.562-.562v-.875c0-.313.25-.562.563-.562h8.875c.313 0 .562.25.562.563zM28 8.5v1c0 .28-.22.5-.5.5h-9c-.28 0-.5-.22-.5-.5v-1c0-.28.22-.5.5-.5h9c.28 0 .5.22.5.5zm2 15v-19c0-.266-.234-.5-.5-.5h-27c-.266 0-.5.234-.5.5v19c0 .266.234.5.5.5H8v-1.5c0-.28.22-.5.5-.5h1c.28 0 .5.22.5.5V24h12v-1.5c0-.28.22-.5.5-.5h1c.28 0 .5.22.5.5V24h5.5c.266 0 .5-.234.5-.5zm2-19v19c0 1.375-1.125 2.5-2.5 2.5h-27C1.125 26 0 24.875 0 23.5v-19C0 3.125 1.125 2 2.5 2h27C30.875 2 32 3.125 32 4.5z"/></svg>