<svg xmlns="http://www.w3.org/2000/svg" width="32" height="28" viewBox="0 0 32 28"><title>address-card</title><path d="M16 17.672c0-2.422-.594-5.11-3.063-5.11-.766.44-1.797 1.19-2.938 1.19S7.826 13 7.06 12.56c-2.468 0-3.062 2.69-3.062 5.11 0 1.36.89 2.328 2 2.328h8c1.11 0 2-.97 2-2.328zm-2.453-8.125C13.547 7.594 11.953 6 10 6S6.453 7.594 6.453 9.547c0 1.97 1.594 3.547 3.547 3.547s3.547-1.578 3.547-3.547zM28 17.5v-1c0-.28-.22-.5-.5-.5h-9c-.28 0-.5.22-.5.5v1c0 .28.22.5.5.5h9c.28 0 .5-.22.5-.5zm0-4.062v-.875c0-.313-.25-.562-.562-.562h-8.875c-.313 0-.562.25-.562.563v.875c0 .313.25.562.563.562h8.875c.313 0 .562-.25.562-.562zM28 9.5v-1c0-.28-.22-.5-.5-.5h-9c-.28 0-.5.22-.5.5v1c0 .28.22.5.5.5h9c.28 0 .5-.22.5-.5zm4-5v19c0 1.375-1.125 2.5-2.5 2.5H24v-1.5c0-.28-.22-.5-.5-.5h-1c-.28 0-.5.22-.5.5V26H10v-1.5c0-.28-.22-.5-.5-.5h-1c-.28 0-.5.22-.5.5V26H2.5C1.125 26 0 24.875 0 23.5v-19C0 3.125 1.125 2 2.5 2h27C30.875 2 32 3.125 32 4.5z"/></svg>