<svg xmlns="http://www.w3.org/2000/svg" width="32" height="32" viewBox="0 0 32 32"><title>atom1</title><path d="M24.687 16.037c2.293 2.473 3.32 4.906 2.43 6.466-.89 1.556-3.482 1.877-6.74 1.114-.974 3.26-2.553 5.387-4.34 5.387-1.79 0-3.367-2.135-4.34-5.403-3.293.786-5.916.47-6.812-1.097-.89-1.56.137-3.996 2.43-6.472-2.337-2.495-3.39-4.96-2.49-6.53.9-1.577 3.548-1.888 6.864-1.088.973-3.275 2.557-5.416 4.348-5.416 1.79 0 3.37 2.134 4.342 5.4 3.285-.78 5.904-.463 6.8 1.103.895 1.572-.158 4.038-2.493 6.537zM5.752 10.04c-.688 1.205.26 3.18 2.27 5.266.82-.8 1.762-1.592 2.812-2.354.128-1.266.323-2.467.59-3.56-2.807-.72-4.98-.56-5.672.65zm4.97 4.32c-.72.55-1.378 1.105-1.967 1.66.597.558 1.24 1.118 1.97 1.67-.03-.555-.05-1.116-.05-1.69 0-.556.017-1.102.046-1.64zm.11 4.734c-1.05-.76-1.99-1.55-2.812-2.346-1.973 2.068-2.89 4.02-2.207 5.213.687 1.202 2.838 1.37 5.62.663-.267-1.087-.473-2.27-.6-3.53zm9.257.74c-.447.294-.903.582-1.378.86-.482.28-.964.538-1.444.784.823.35 1.628.655 2.392.89.18-.785.318-1.64.43-2.533zm-4.054 8.086c1.37 0 2.584-1.785 3.37-4.557-1.085-.312-2.23-.746-3.4-1.274-1.146.52-2.268.94-3.336 1.252.784 2.78 1.997 4.578 3.366 4.578zm-3.613-5.578c.742-.23 1.518-.518 2.316-.858-.483-.247-.968-.508-1.452-.79-.45-.263-.88-.533-1.304-.81.11.877.264 1.686.44 2.458zm-.437-10.186c.44-.29.893-.573 1.362-.848.463-.27.926-.52 1.388-.758-.8-.342-1.585-.644-2.33-.877-.175.77-.31 1.61-.42 2.483zm4.05-8.076c-1.373 0-2.594 1.802-3.38 4.594 1.068.314 2.192.745 3.337 1.267 1.172-.536 2.318-.965 3.41-1.283-.785-2.777-1.997-4.577-3.367-4.577zm3.615 5.575c-.767.24-1.57.535-2.397.89.465.24.932.49 1.398.764.503.292.983.597 1.452.907-.11-.915-.27-1.76-.45-2.562zm.59 3.95c-.67-.467-1.378-.922-2.126-1.357-.716-.418-1.426-.783-2.128-1.124-.693.338-1.396.713-2.1 1.124-.714.415-1.395.85-2.036 1.29-.062.798-.104 1.614-.104 2.463 0 .86.035 1.694.097 2.5.627.43 1.29.852 1.98 1.256.737.43 1.467.804 2.19 1.152.712-.346 1.436-.73 2.16-1.152.72-.42 1.403-.855 2.05-1.302.06-.794.104-1.607.104-2.453 0-.82-.03-1.622-.087-2.396zm5.947 8.356c.682-1.19-.242-3.14-2.21-5.202-.802.774-1.72 1.542-2.737 2.28-.128 1.283-.326 2.5-.598 3.605 2.746.685 4.865.508 5.545-.682zm-4.834-4.33c.69-.526 1.32-1.06 1.89-1.59-.57-.54-1.188-1.084-1.886-1.62.025.52.043 1.045.043 1.58 0 .554-.02 1.096-.047 1.63zm4.894-7.59c-.686-1.198-2.83-1.368-5.605-.665.273 1.118.484 2.34.61 3.64 1.02.746 1.93 1.52 2.728 2.3 2.013-2.09 2.957-4.068 2.267-5.274zM16.2 18.063c-1.177 0-2.13-.963-2.13-2.152s.953-2.152 2.13-2.152c1.176 0 2.13.964 2.13 2.152 0 1.19-.954 2.152-2.13 2.152z"/></svg>