<svg xmlns="http://www.w3.org/2000/svg" width="32" height="32" viewBox="0 0 32 32"><title>attachment</title><path d="M20.807 10.22l-2.03-2.03-10.15 10.15c-1.682 1.68-1.682 4.407 0 6.088s4.408 1.68 6.09 0l12.18-12.178c2.804-2.802 2.804-7.346 0-10.148-2.802-2.803-7.347-2.803-10.15 0L3.96 14.89c-.01.008-.02.017-.027.025-3.91 3.91-3.91 10.245 0 14.153 3.908 3.908 10.246 3.908 14.156 0 .008-.01.015-.018.025-.027v.002l8.73-8.728-2.03-2.03-8.73 8.728c-.01.008-.018.018-.026.026-2.785 2.783-7.313 2.783-10.097 0-2.783-2.783-2.783-7.31 0-10.093l.028-.026v-.003L18.78 4.13c1.678-1.678 4.41-1.678 6.09 0s1.678 4.412 0 6.09L12.69 22.398c-.56.56-1.47.56-2.03 0-.56-.56-.56-1.47 0-2.03L20.81 10.22z"/></svg>