<svg xmlns="http://www.w3.org/2000/svg" width="32" height="32" viewBox="0 0 32 32"><title>banknote</title><path d="M31.415 10.586l-10-10C20.92.09 20.2-.11 19.52.06c-.36.087-.68.272-.935.526-.227.227-.398.508-.496.822-.454 1.47-1.237 2.746-2.396 3.904-1.548 1.547-3.564 2.72-5.697 3.958-2.264 1.312-4.603 2.672-6.52 4.588-1.63 1.63-2.738 3.445-3.388 5.55-.22.712-.03 1.48.495 2.007l10 10c.496.496 1.215.695 1.896.527.36-.09.68-.273.935-.527.227-.227.398-.508.496-.824.455-1.468 1.238-2.745 2.398-3.903 1.547-1.547 3.562-2.717 5.697-3.955 2.262-1.314 4.602-2.674 6.518-4.59 1.63-1.63 2.738-3.445 3.39-5.55.217-.71.025-1.483-.498-2.006zM12 30c-3.312-3.312-6.688-6.69-10-10 2.842-9.2 15.16-8.8 18-18l10.002 10C27.16 21.2 14.842 20.8 12 30zm7.562-15.1c-.326-.273-.654-.46-.984-.55-.328-.093-.656-.13-.988-.106-.328.025-.664.1-1 .23-.336.13-.674.272-1.014.437-.537-.616-1.074-1.226-1.61-1.792.24-.22.476-.33.702-.338.227-.01.445.014.652.066.21.053.404.098.582.133.18.034.336-.005.473-.12.145-.125.225-.287.236-.482.01-.197-.063-.39-.228-.576-.21-.242-.465-.39-.77-.443-.3-.054-.61-.05-.93.02-.316.072-.617.19-.902.36s-.514.34-.684.507l-.195-.184c-.07-.066-.16-.102-.27-.1-.108 0-.198.047-.272.133-.072.084-.105.182-.092.285.01.108.053.19.127.253l.195.166c-.256.308-.467.65-.633 1.01-.168.36-.268.718-.305 1.065-.04.35-.002.67.105.967.107.3.305.553.594.793.47.39 1.024.557 1.667.52.64-.04 1.332-.23 2.075-.63.59.683 1.182 1.36 1.773 1.99-.25.21-.47.33-.662.37-.193.04-.365.037-.52-.01-.157-.05-.302-.12-.435-.21s-.264-.17-.395-.233c-.13-.064-.262-.1-.398-.102s-.28.064-.44.2c-.165.144-.247.31-.247.497s.086.375.254.566c.17.19.39.352.658.48s.57.206.9.228c.333.024.683-.026 1.052-.163.37-.135.738-.38 1.1-.742.174.17.35.332.525.488.074.064.164.096.273.088.105-.003.197-.052.27-.14.074-.09.105-.19.094-.293-.01-.105-.053-.186-.125-.244-.177-.14-.353-.29-.528-.445.3-.367.54-.754.717-1.137.177-.384.282-.755.317-1.1.035-.345-.006-.657-.12-.94-.11-.287-.31-.533-.595-.77zm-5.59.678c-.284.012-.53-.082-.747-.29-.092-.09-.156-.196-.195-.323-.04-.127-.055-.266-.04-.418.015-.15.06-.307.138-.465.074-.158.184-.316.324-.47.507.505 1.013 1.058 1.52 1.63-.384.21-.718.324-1 .336zm4.716 2.002c-.09.166-.193.314-.314.443-.56-.566-1.12-1.188-1.68-1.826.143-.064.293-.13.455-.2s.323-.112.485-.14c.166-.025.33-.018.494.02.16.042.315.13.458.27.14.14.23.286.266.444.04.16.04.323.014.49-.03.166-.088.332-.18.5zm-3.97 4.6c.196-.16.486-.15.667.033.196.195.196.514 0 .71-.016.015-.033.026-.05.04v.002c-.632.48-1.152.914-1.713 1.475-.507.506-.965 1.04-1.36 1.58l-.64.875c-.02.036-.044.07-.074.1-.196.195-.515.195-.71 0-.17-.17-.19-.432-.066-.627l-.002-.002.684-.934c.427-.584.918-1.156 1.46-1.7.566-.566 1.176-1.072 1.8-1.552h.003zm3.66-14.465c.506-.506.963-1.037 1.36-1.58l.664-.91c.024-.044.05-.087.088-.124.197-.196.516-.196.713 0 .187.19.195.486.025.685l.002.002-.684.938c-.428.584-.918 1.154-1.46 1.697-.566.565-1.175 1.073-1.8 1.553l-.004-.002c-.2.183-.508.18-.7-.014-.196-.198-.196-.52 0-.716.036-.037.077-.063.118-.086.588-.45 1.155-.92 1.678-1.443z"/></svg>