<svg version="1.2" width="328.1mm" height="309.5mm" viewBox="0 0 32810 30950" preserveAspectRatio="xMidYMid" fill-rule="evenodd" stroke-width="28.222" stroke-linejoin="round" xmlns="http://www.w3.org/2000/svg"><defs class="ClipPathGroup"><clipPath id="a"><path d="M0 0h32810v30950H0z"/></clipPath></defs><g class="SlideGroup Slide Page" clip-path="url(#a)"><path class="com.sun.star.drawing.PolyPolygonShape BoundingBox" fill="none" d="M0 0h32880v30950H0z"/><g class="com.sun.star.drawing.ClosedBezierShape"><path class="BoundingBox" fill="none" d="M185 77h32504v30806H185z"/><path d="M16437 77L185 12267h4644v13933H2971v1895H185v2787h32502v-2787h-2787v-1895h-1856V12267h4643L16437 77zm0 1161l13465 10100H2971L16437 1238zm0 1069L5061 10558h22748L16437 2307zm0 1148l8512 6175H7924l8513-6175zM5758 12267h1857v13933H5758V12267zm2786 0h2785v4627c95-224 187-408 308-618 187-326 374-586 621-870v-3139h1858v1751c315-146 592-246 928-333v-1418h2786v1428c336 87 614 187 929 335v-1763h1857v3175c236 274 414 525 595 839 134 231 233 435 334 683v-4697h2786v13933h-2786v-5102c-103 254-204 462-340 698-180 311-355 560-589 832v3572h-1857v-2166c-315 147-593 248-929 338v1828h-2786v-1824c-336-86-612-185-928-330v2154h-1858v-3548c-245-281-430-540-616-864-124-215-216-401-313-628v5040H8544V12267zm16716 0h1858v13933h-1858V12267zM3901 27129h25073v928H3901v-928zm-2786 1895h30644v929H1115v-929z"/></g><g fill="none" class="com.sun.star.drawing.PolyPolygonShape"><path class="BoundingBox" d="M1 1h32879v30948H1z"/><path stroke="#000" stroke-width="125" stroke-linejoin="miter" d="M16441 80L189 12270h4644v13933H2975v1895H189v2787h32502v-2787h-2786v-1895h-1856V12270h4642L16441 80z"/></g><g fill="none" class="com.sun.star.drawing.PolyPolygonShape"><path class="BoundingBox" d="M2783 1159h27308v10244H2783z"/><path stroke="#000" stroke-width="125" stroke-linejoin="miter" d="M16437 1238l13465 10101H2971L16437 1238z"/></g><g fill="none" class="com.sun.star.drawing.PolyPolygonShape"><path class="BoundingBox" d="M4868 2229h23136v8394H4868z"/><path stroke="#000" stroke-width="125" stroke-linejoin="miter" d="M16437 2307L5061 10559h22749L16437 2307z"/></g><g fill="none" class="com.sun.star.drawing.PolyPolygonShape"><path class="BoundingBox" d="M7732 3376h17412v6318H7732z"/><path stroke="#000" stroke-width="125" stroke-linejoin="miter" d="M16438 3454l8512 6176H7925l8513-6176z"/></g><g fill="none" class="com.sun.star.drawing.PolyPolygonShape"><path class="BoundingBox" d="M5696 12202h1985v14061H5696z"/><path stroke="#000" stroke-width="125" stroke-linejoin="miter" d="M5759 12265h1858v13934H5759V12265z"/></g><g fill="none" class="com.sun.star.drawing.ClosedBezierShape"><path class="BoundingBox" d="M8482 12202h15914v14061H8482z"/><path stroke="#000" stroke-width="125" stroke-linejoin="miter" d="M8545 12265h2785v4628c95-224 186-408 308-618 187-326 373-586 621-870v-3140h1858v1752c315-146 592-246 928-333v-1419h2786v1429c336 87 614 187 929 335v-1764h1857v3176c237 274 414 525 595 839 134 231 233 435 334 683v-4698h2786v13934h-2786v-5102c-102 253-204 461-340 697-180 311-355 560-589 833v3572h-1857v-2167c-315 147-593 250-929 340v1827h-2786v-1824c-336-86-612-186-928-331v2155h-1858v-3549c-245-281-430-540-616-863-124-215-217-402-313-629v5041H8545V12265z"/></g><g fill="none" class="com.sun.star.drawing.PolyPolygonShape"><path class="BoundingBox" d="M25196 12202h1987v14061h-1987z"/><path stroke="#000" stroke-width="125" stroke-linejoin="miter" d="M25259 12265h1860v13934h-1860V12265z"/></g><g fill="none" class="com.sun.star.drawing.PolyPolygonShape"><path class="BoundingBox" d="M3838 27063h25201v1058H3838z"/><path stroke="#000" stroke-width="125" stroke-linejoin="miter" d="M3901 27126h25074v931H3901v-931z"/></g><g fill="none" class="com.sun.star.drawing.PolyPolygonShape"><path class="BoundingBox" d="M1052 28958h30771v1058H1052z"/><path stroke="#000" stroke-width="125" stroke-linejoin="miter" d="M1115 29021h30644v931H1115v-931z"/></g><path class="com.sun.star.drawing.PolyPolygonShape BoundingBox" fill="none" d="M10371 12976h12108v12111H10371z"/><g class="com.sun.star.drawing.ClosedBezierShape"><path class="BoundingBox" fill="none" d="M10434 13039h11982v11985H10434z"/><path d="M16423 13039c-3303 0-5989 2687-5989 5991 0 3303 2688 5992 5989 5992 3303 0 5992-2689 5992-5992 0-3304-2689-5991-5992-5991zm0 929c2802 0 5063 2261 5063 5062 0 2802-2261 5063-5063 5063-2800 0-5060-2261-5060-5063 0-2801 2260-5062 5060-5062z"/></g><g fill="none" class="com.sun.star.drawing.ClosedBezierShape"><path class="BoundingBox" d="M10371 12976h12108v12110H10371z"/><path stroke="#000" stroke-width="125" stroke-linejoin="miter" d="M16424 13039c-3304 0-5990 2687-5990 5991 0 3303 2688 5992 5990 5992s5991-2689 5991-5992c0-3304-2689-5991-5991-5991z"/></g><g fill="none" class="com.sun.star.drawing.ClosedBezierShape"><path class="BoundingBox" d="M11298 13905h10251v10253H11298z"/><path stroke="#000" stroke-width="125" stroke-linejoin="miter" d="M16423 13968c2800 0 5062 2261 5062 5063 0 2801-2262 5063-5062 5063-2802 0-5062-2262-5062-5063 0-2802 2260-5063 5062-5063z"/></g></g></svg>