<svg xmlns="http://www.w3.org/2000/svg" viewBox="0 0 455.731 455.731"><path fill="#CD0300" d="M0 0h455.73v455.73H0z"/><path d="M240.894 357.724h-18.027c-58.383 0-105.882-47.5-105.882-105.882V119.884c0-12.082 9.795-21.877 21.877-21.877 12.082 0 21.877 9.795 21.877 21.877v131.958c0 34.257 27.87 62.127 62.126 62.127h18.027c34.257 0 62.127-27.872 62.127-62.128 0-34.258-27.87-62.128-62.127-62.128h-12.776c-12.082 0-21.877-9.794-21.877-21.877s9.795-21.877 21.877-21.877h12.776c58.383 0 105.882 47.5 105.882 105.883 0 58.382-47.498 105.88-105.88 105.88z" fill="#FFF"/></svg>