<svg xmlns="http://www.w3.org/2000/svg" viewBox="0 0 455.731 455.731"><path fill="#0071B9" d="M0 0h455.73v455.73H0z"/><g fill="#FFF"><path d="M280.887 131.1H369.7v22.092h-88.813zM405.047 255.26c0 3.985-.16 7.82-.477 11.488H290.343c-1.06 25.185 17.32 40.173 38.22 40.173 14.81 0 27.828-7.855 35.33-21.172h37.39c-10.26 37.442-40.404 53.022-75.99 53.022-46.615 0-79.754-37.39-79.754-83.51s35.71-83.508 79.753-83.508 79.754 37.388 79.754 83.508zm-114.704-16.392h70.254c-2.792-20.75-17.453-33.978-35.127-33.978-17.674 0-32.335 13.228-35.127 33.978zM231.842 258.795c2.872 32.034-2.872 51.917-35.57 68.045-12.238 6.036-27.58 7.927-41.975 7.927H50.684V116.962H164.68s57.812 8.395 58.06 50.37c.168 29.022-16.26 42.286-29.984 48.64 0 0 36.214 10.79 39.086 42.823zm-46.668 9.217c0-30.567-34.517-29.772-34.517-29.772H98.625v59.543h52.032s34.517.796 34.517-29.77zm-8.563-88.53c0-25.626-28.94-24.963-28.94-24.963H98.625v49.928h49.045s28.94.662 28.94-24.965z"/></g></svg>