<svg xmlns="http://www.w3.org/2000/svg" width="56" height="32" viewBox="0 0 56 32"><title>bike</title><path d="M45.5 11c-1.924 0-3.723.53-5.276 1.436L33.424 2h9.598c-.013.498-.13 1.33-.7 1.986C41.737 4.66 40.788 5 39.5 5c-.276 0-.5.224-.5.5s.224.5.5.5c1.59 0 2.792-.456 3.576-1.356 1.163-1.336.93-3.136.92-3.212C43.96 1.185 43.75 1 43.5 1h-11c-.184 0-.353.1-.44.262-.087.16-.08.357.022.512l2.83 4.344H19.05L15.965 1H21.5c.276 0 .5-.224.5-.5s-.224-.5-.5-.5h-9c-.276 0-.5.224-.5.5s.224.5.5.5h2.314c.01.023.012.048.025.07l3.41 5.662-3.053 5.39C13.782 11.412 12.19 11 10.5 11 4.71 11 0 15.71 0 21.5S4.71 32 10.5 32c5.588 0 10.157-4.39 10.42-10H32c.03.58-.096 1.368-.644 1.99-.592.67-1.553 1.01-2.856 1.01-.276 0-.5.224-.5.5s.224.5.5.5c1.608 0 2.824-.457 3.614-1.358 1.142-1.304.927-3.036.918-3.11-.033-.248-.245-.434-.496-.434h-3.928l7.047-13.84 3.73 5.724C36.735 14.89 35 17.992 35 21.5 35 27.29 39.71 32 45.5 32S56 27.29 56 21.5 51.29 11 45.5 11zM34.605 7l-6.848 13.568L19.65 7h14.955zm-15.762.715l8.065 13.383H20.98c-.136-3.575-2.062-6.692-4.912-8.484l2.775-4.9zm1.137 13.383h-8.72l4.315-7.615c2.548 1.62 4.27 4.412 4.405 7.615zM10.5 31C5.262 31 1 26.738 1 21.5S5.262 12 10.5 12c1.51 0 2.934.364 4.204.993L9.968 21.35c-.088.155-.087.345.003.5.09.152.255.247.433.15h9.567c-.31 5.057-4.433 9-9.47 9zm35 0c-5.238 0-9.5-4.262-9.5-9.5 0-3.157 1.554-5.952 3.932-7.68l5.247 8.05c.095.147.255.228.418.228.094 0 .188-.026.273-.08.23-.15.297-.462.147-.693l-5.247-8.05C42.165 12.467 43.777 12 45.5 12c5.238 0 9.5 4.262 9.5 9.5S50.738 31 45.5 31z"/></svg>