<svg xmlns="http://www.w3.org/2000/svg" viewBox="0 0 512.088 512.088"><path d="M293.624 54.416C261.144 21.928 217.952 4.04 172.008 4.04c-45.952 0-89.144 17.904-121.632 50.384C17.888 86.904 0 130.104 0 176.04c0 45.952 17.888 89.136 50.384 121.616C82.856 330.152 126.048 348.04 172 348.04c45.944 0 89.144-17.888 121.624-50.376 67.064-67.072 67.064-176.184 0-243.248zm-11.312 231.936C252.84 315.816 213.672 332.04 172 332.04s-80.84-16.224-110.304-45.696C32.224 256.88 16 217.712 16 176.04c0-41.664 16.224-80.84 45.688-110.304C91.16 36.264 130.336 20.04 172.008 20.04s80.848 16.224 110.304 45.688c60.824 60.816 60.824 159.792 0 220.624z"/><path d="M509.728 394.992l-175.544-175.56c-3.128-3.128-8.184-3.128-11.312 0s-3.128 8.184 0 11.312l175.552 175.56c1.56 1.56 3.608 2.344 5.656 2.344 2.048 0 4.096-.776 5.648-2.344 3.128-3.128 3.128-8.184 0-11.312zM397.656 494.392L368 464.736v-28.688c0-4.424-3.576-8-8-8h-28.688L320 416.736v-28.688c0-4.424-3.576-8-8-8h-28.688l-53.968-53.968c-3.128-3.128-8.184-3.128-11.312 0s-3.128 8.184 0 11.312l56.312 56.312c1.496 1.504 3.528 2.344 5.656 2.344h24v24c0 2.128.84 4.152 2.344 5.656l16 16c1.496 1.504 3.528 2.344 5.656 2.344h24v24c0 2.128.84 4.152 2.344 5.656l32 32c1.56 1.56 3.608 2.344 5.656 2.344 2.048 0 4.096-.784 5.656-2.344 3.128-3.128 3.128-8.184 0-11.312z"/><path d="M504.08 392.656c-4.424 0-8 3.576-8 8v79.176c0 4.424 3.576 8 8 8 4.424 0 8-3.584 8-8v-79.176c0-4.424-3.576-8-8-8z"/><path d="M511.96 478.416c-.792-4.344-4.896-7.248-9.296-6.456l-112.08 20.216c-4.344.792-7.24 4.944-6.456 9.296.696 3.864 4.064 6.576 7.864 6.576.472 0 .944-.04 1.432-.12l112.08-20.216c4.344-.792 7.24-4.944 6.456-9.296zM458.832 423.264l-151.92-151.912c-3.128-3.128-8.184-3.128-11.312 0s-3.128 8.184 0 11.312l151.92 151.912c1.56 1.56 3.608 2.344 5.656 2.344 2.04 0 4.088-.776 5.656-2.344 3.128-3.128 3.128-8.184 0-11.312zM144.28 100.36c-4.424 0-8 3.576-8 8v96c0 4.424 3.576 8 8 8 4.424 0 8-3.576 8-8v-96c0-4.424-3.576-8-8-8zM188.28 140.36c-4.424 0-8 3.576-8 8 0 4.424 3.576 8 8 8 11.032 0 20 8.968 20 20s-8.968 20-20 20c-4.424 0-8 3.576-8 8 0 4.424 3.576 8 8 8 19.856 0 36-16.152 36-36s-16.152-36-36-36z"/><path d="M188.28 100.36c-4.424 0-8 3.576-8 8s3.576 8 8 8c6.616 0 12 5.384 12 12s-5.384 12-12 12c-4.424 0-8 3.576-8 8 0 4.424 3.576 8 8 8 15.44 0 28-12.56 28-28s-12.56-28-28-28z"/><path d="M188.28 100.36h-52c-4.424 0-8 3.576-8 8s3.576 8 8 8h52c4.424 0 8-3.576 8-8s-3.576-8-8-8zM188.28 140.36h-44c-4.424 0-8 3.576-8 8 0 4.424 3.576 8 8 8h44c4.424 0 8-3.576 8-8 0-4.424-3.576-8-8-8zM188.28 196.36h-52c-4.424 0-8 3.576-8 8 0 4.424 3.576 8 8 8h52c4.424 0 8-3.576 8-8 0-4.424-3.576-8-8-8z"/><path d="M168.28 92.36c-4.424 0-8 3.576-8 8v8c0 4.424 3.576 8 8 8 4.424 0 8-3.576 8-8v-8c0-4.424-3.576-8-8-8zM168.28 196.36c-4.424 0-8 3.576-8 8v8c0 4.424 3.576 8 8 8 4.424 0 8-3.576 8-8v-8c0-4.424-3.576-8-8-8z"/><path d="M172 52.04c-59.552 0-108 48.456-108 108.008s48.448 108 108 108 108-48.448 108-108S231.552 52.04 172 52.04zm0 200.008c-50.728 0-92-41.272-92-92 0-50.736 41.272-92.008 92-92.008s92 41.272 92 92.008c0 50.728-41.272 92-92 92z"/><path d="M272 184.056c-4.424 0-8 3.576-8 8 0 50.728-41.272 92-92 92s-92-41.272-92-92c0-4.424-3.576-8-8-8s-8 3.576-8 8c0 59.552 48.448 108 108 108s108-48.448 108-108c0-4.424-3.576-8-8-8z"/><path d="M272 152.048c-4.424 0-8 3.576-8 8v32.008c0 4.424 3.576 8 8 8s8-3.576 8-8v-32.008c0-4.424-3.576-8-8-8zM72 152.048c-4.424 0-8 3.576-8 8v32.008c0 4.424 3.576 8 8 8s8-3.576 8-8v-32.008c0-4.424-3.576-8-8-8zM136 245.36c-4.424 0-8 3.576-8 8v32.008c0 4.424 3.576 8 8 8s8-3.576 8-8V253.36c0-4.424-3.576-8-8-8zM208 245.36c-4.424 0-8 3.576-8 8v32.008c0 4.424 3.576 8 8 8s8-3.576 8-8V253.36c0-4.424-3.576-8-8-8z"/></svg>