<svg xmlns="http://www.w3.org/2000/svg" viewBox="0 0 512 512"><path d="M120.016 100c-66.168 0-120 53.832-120 120s53.832 120 120 120 120-53.832 120-120-53.832-120-120-120zm0 224c-57.344 0-104-46.656-104-104s46.656-104 104-104 104 46.656 104 104-46.656 104-104 104z"/><path d="M232.016 252c-4.424 0-8 3.576-8 8 0 57.344-46.656 104-104 104s-104-46.656-104-104c0-4.424-3.576-8-8-8s-8 3.576-8 8c0 66.168 53.832 120 120 120s120-53.832 120-120c0-4.424-3.576-8-8-8z"/><path d="M232 212c-4.424 0-8 3.576-8 8v40c0 4.424 3.576 8 8 8s8-3.576 8-8v-40c0-4.424-3.576-8-8-8zM8 212c-4.424 0-8 3.576-8 8v40c0 4.424 3.576 8 8 8s8-3.576 8-8v-40c0-4.424-3.576-8-8-8zM120.016 324c-4.424 0-8 3.576-8 8v40c0 4.424 3.576 8 8 8s8-3.576 8-8v-40c0-4.424-3.576-8-8-8zM55.872 303.832c-4.424 0-8 3.576-8 8v40c0 4.424 3.576 8 8 8s8-3.584 8-8v-40c0-4.424-3.576-8-8-8zM183.872 303.832c-4.424 0-8 3.576-8 8v40c0 4.424 3.576 8 8 8s8-3.584 8-8v-40c0-4.424-3.576-8-8-8zM88.144 156c-4.424 0-8 3.576-8 8v112c0 4.424 3.576 8 8 8 4.416 0 8-3.576 8-8V164c0-4.424-3.576-8-8-8zM128.144 156c-4.424 0-8 3.576-8 8s3.576 8 8 8c8.824 0 16 7.176 16 16s-7.176 16-16 16c-4.424 0-8 3.576-8 8s3.576 8 8 8c17.648 0 32-14.352 32-32s-14.352-32-32-32z"/><path d="M128.144 204c-4.424 0-8 3.576-8 8s3.576 8 8 8c13.232 0 24 10.768 24 24s-10.768 24-24 24c-4.424 0-8 3.576-8 8s3.576 8 8 8c22.048 0 40-17.944 40-40s-17.944-40-40-40zM128.144 156h-48c-4.424 0-8 3.576-8 8s3.576 8 8 8h48c4.416 0 8-3.576 8-8s-3.576-8-8-8z"/><path d="M128.144 204h-40c-4.424 0-8 3.576-8 8s3.576 8 8 8h40c4.416 0 8-3.576 8-8s-3.576-8-8-8zM132.144 268h-52c-4.424 0-8 3.576-8 8s3.576 8 8 8h52c4.416 0 8-3.576 8-8s-3.576-8-8-8zM96.144 148c-4.424 0-8 3.576-8 8v8c0 4.424 3.576 8 8 8 4.416 0 8-3.576 8-8v-8c0-4.424-3.576-8-8-8zM120.144 148c-4.424 0-8 3.576-8 8v8c0 4.424 3.576 8 8 8 4.416 0 8-3.576 8-8v-8c0-4.424-3.576-8-8-8z"/><path d="M96.144 268c-4.424 0-8 3.576-8 8v8c0 4.424 3.576 8 8 8 4.416 0 8-3.576 8-8v-8c0-4.424-3.576-8-8-8zM120.144 268c-4.424 0-8 3.576-8 8v8c0 4.424 3.576 8 8 8 4.416 0 8-3.576 8-8v-8c0-4.424-3.576-8-8-8zM392.144 388c-4.424 0-8 3.576-8 8v40c0 4.424 3.576 8 8 8 4.416 0 8-3.576 8-8v-40c0-4.424-3.576-8-8-8zM328 388c-4.424 0-8 3.576-8 8v40c0 4.424 3.576 8 8 8s8-3.576 8-8v-40c0-4.424-3.576-8-8-8zM456 388c-4.424 0-8 3.576-8 8v40c0 4.424 3.576 8 8 8s8-3.576 8-8v-40c0-4.424-3.576-8-8-8z"/><path d="M504 388H280c-4.424 0-8 3.576-8 8v40c0 4.424 3.576 8 8 8h224c4.424 0 8-3.576 8-8v-40c0-4.424-3.576-8-8-8zm-8 40H288v-24h208v24zM120.144 388c-4.424 0-8 3.576-8 8v40c0 4.424 3.576 8 8 8 4.416 0 8-3.576 8-8v-40c0-4.424-3.576-8-8-8zM56 388c-4.424 0-8 3.576-8 8v40c0 4.424 3.576 8 8 8s8-3.576 8-8v-40c0-4.424-3.576-8-8-8zM184 388c-4.424 0-8 3.576-8 8v40c0 4.424 3.576 8 8 8s8-3.576 8-8v-40c0-4.424-3.576-8-8-8z"/><path d="M232 388H8c-4.424 0-8 3.576-8 8v40c0 4.424 3.576 8 8 8h224c4.424 0 8-3.576 8-8v-40c0-4.424-3.576-8-8-8zm-8 40H16v-24h208v24zM392.144 324c-4.424 0-8 3.576-8 8v40c0 4.424 3.576 8 8 8 4.416 0 8-3.576 8-8v-40c0-4.424-3.576-8-8-8zM328 324c-4.424 0-8 3.576-8 8v40c0 4.424 3.576 8 8 8s8-3.576 8-8v-40c0-4.424-3.576-8-8-8zM456 324c-4.424 0-8 3.576-8 8v40c0 4.424 3.576 8 8 8s8-3.576 8-8v-40c0-4.424-3.576-8-8-8z"/><path d="M504 324H280c-4.424 0-8 3.576-8 8v40c0 4.424 3.576 8 8 8h224c4.424 0 8-3.576 8-8v-40c0-4.424-3.576-8-8-8zm-8 40H288v-24h208v24zM392.144 260c-4.424 0-8 3.576-8 8v40c0 4.424 3.576 8 8 8 4.416 0 8-3.576 8-8v-40c0-4.424-3.576-8-8-8zM328 260c-4.424 0-8 3.576-8 8v40c0 4.424 3.576 8 8 8s8-3.576 8-8v-40c0-4.424-3.576-8-8-8zM456 260c-4.424 0-8 3.576-8 8v40c0 4.424 3.576 8 8 8s8-3.576 8-8v-40c0-4.424-3.576-8-8-8z"/><path d="M504 260H280c-4.424 0-8 3.576-8 8v40c0 4.424 3.576 8 8 8h224c4.424 0 8-3.576 8-8v-40c0-4.424-3.576-8-8-8zm-8 40H288v-24h208v24zM392.144 196c-4.424 0-8 3.576-8 8v40c0 4.424 3.576 8 8 8 4.416 0 8-3.576 8-8v-40c0-4.424-3.576-8-8-8zM328 196c-4.424 0-8 3.576-8 8v40c0 4.424 3.576 8 8 8s8-3.576 8-8v-40c0-4.424-3.576-8-8-8zM456 196c-4.424 0-8 3.576-8 8v40c0 4.424 3.576 8 8 8s8-3.576 8-8v-40c0-4.424-3.576-8-8-8z"/><path d="M504 196H280c-4.424 0-8 3.576-8 8v40c0 4.424 3.576 8 8 8h224c4.424 0 8-3.576 8-8v-40c0-4.424-3.576-8-8-8zm-8 40H288v-24h208v24zM392.144 132c-4.424 0-8 3.576-8 8v40c0 4.424 3.576 8 8 8 4.416 0 8-3.576 8-8v-40c0-4.424-3.576-8-8-8zM328 132c-4.424 0-8 3.576-8 8v40c0 4.424 3.576 8 8 8s8-3.576 8-8v-40c0-4.424-3.576-8-8-8zM456 132c-4.424 0-8 3.576-8 8v40c0 4.424 3.576 8 8 8s8-3.576 8-8v-40c0-4.424-3.576-8-8-8z"/><path d="M504 132H280c-4.424 0-8 3.576-8 8v40c0 4.424 3.576 8 8 8h224c4.424 0 8-3.576 8-8v-40c0-4.424-3.576-8-8-8zm-8 40H288v-24h208v24zM392.144 68c-4.424 0-8 3.576-8 8v40c0 4.424 3.576 8 8 8 4.416 0 8-3.576 8-8V76c0-4.424-3.576-8-8-8zM328 68c-4.424 0-8 3.576-8 8v40c0 4.424 3.576 8 8 8s8-3.576 8-8V76c0-4.424-3.576-8-8-8zM456 68c-4.424 0-8 3.576-8 8v40c0 4.424 3.576 8 8 8s8-3.576 8-8V76c0-4.424-3.576-8-8-8z"/><path d="M504 68H280c-4.424 0-8 3.576-8 8v40c0 4.424 3.576 8 8 8h224c4.424 0 8-3.576 8-8V76c0-4.424-3.576-8-8-8zm-8 40H288V84h208v24z"/></svg>