<svg xmlns="http://www.w3.org/2000/svg" viewBox="0 0 512.144 512.144"><path d="M256 183.976c-48.52 0-88 39.48-88 88s39.48 88 88 88c48.528 0 88-39.48 88-88s-39.48-88-88-88zm0 160c-39.704 0-72-32.296-72-72s32.296-72 72-72 72 32.296 72 72-32.296 72-72 72z"/><path d="M240 223.976c-4.424 0-8 3.576-8 8v72c0 4.424 3.576 8 8 8 4.424 0 8-3.576 8-8v-72c0-4.424-3.576-8-8-8zM264 223.976c-4.424 0-8 3.576-8 8s3.576 8 8 8c4.416 0 8 3.584 8 7.992 0 4.416-3.584 8-8 8-4.424 0-8 3.576-8 8s3.576 8 8 8c13.24 0 24-10.76 24-24 0-13.224-10.768-23.992-24-23.992z"/><path d="M267.992 255.96c-4.424 0-8 3.576-8 8s3.576 8 8 8c6.624 0 12.008 5.392 12.008 12.016 0 6.616-5.384 12-12.008 12-4.424 0-8 3.576-8 8s3.576 8 8 8c15.448 0 28.008-12.56 28.008-28 0-15.448-12.56-28.016-28.008-28.016zM264 223.976h-32c-4.424 0-8 3.576-8 8s3.576 8 8 8h32c4.424 0 8-3.576 8-8s-3.576-8-8-8z"/><path d="M267.992 295.976H232c-4.424 0-8 3.576-8 8s3.576 8 8 8h35.992c4.424 0 8-3.576 8-8s-3.576-8-8-8zM267.992 255.96h-.008l-27.992.016c-4.416 0-7.992 3.584-7.992 8.008 0 4.416 3.584 7.992 8 7.992l28-.016c4.416 0 7.992-3.584 7.992-8.008 0-4.416-3.584-7.992-8-7.992zM256 215.968c-4.424 0-8 3.576-8 8v8.008c0 4.424 3.576 8 8 8 4.424 0 8-3.576 8-8v-8.008c0-4.424-3.576-8-8-8z"/><path d="M256 295.976c-4.424 0-8 3.576-8 8v8c0 4.424 3.576 8 8 8 4.424 0 8-3.576 8-8v-8c0-4.424-3.576-8-8-8zM64 103.976c-4.424 0-8 3.576-8 8v32c0 4.424 3.576 8 8 8 4.424 0 8-3.576 8-8v-32c0-4.424-3.576-8-8-8zM112 103.976c-13.232 0-24 10.768-24 24s10.768 24 24 24c13.24 0 24-10.768 24-24s-10.768-24-24-24zm0 32c-4.416 0-8-3.584-8-8s3.584-8 8-8 8 3.584 8 8-3.584 8-8 8zM160 103.976c-4.424 0-8 3.576-8 8v32c0 4.424 3.576 8 8 8 4.424 0 8-3.576 8-8v-32c0-4.424-3.576-8-8-8zM208 103.976c-13.232 0-24 10.768-24 24s10.768 24 24 24c13.24 0 24-10.768 24-24s-10.768-24-24-24zm0 32c-4.416 0-8-3.584-8-8s3.584-8 8-8 8 3.584 8 8-3.584 8-8 8zM256 103.976c-4.424 0-8 3.576-8 8v32c0 4.424 3.576 8 8 8 4.424 0 8-3.576 8-8v-32c0-4.424-3.576-8-8-8zM304 103.976c-13.232 0-24 10.768-24 24s10.768 24 24 24c13.24 0 24-10.768 24-24s-10.768-24-24-24zm0 32c-4.416 0-8-3.584-8-8s3.584-8 8-8 8 3.584 8 8-3.584 8-8 8zM352 103.976c-4.424 0-8 3.576-8 8v32c0 4.424 3.576 8 8 8 4.424 0 8-3.576 8-8v-32c0-4.424-3.576-8-8-8zM400 103.976c-13.232 0-24 10.768-24 24s10.768 24 24 24c13.24 0 24-10.768 24-24s-10.768-24-24-24zm0 32c-4.416 0-8-3.584-8-8s3.584-8 8-8 8 3.584 8 8-3.584 8-8 8zM448 103.976c-4.424 0-8 3.576-8 8v32c0 4.424 3.576 8 8 8 4.424 0 8-3.576 8-8v-32c0-4.424-3.576-8-8-8zM64 247.976c-4.424 0-8 3.576-8 8v32c0 4.424 3.576 8 8 8 4.424 0 8-3.576 8-8v-32c0-4.424-3.576-8-8-8zM112 247.976c-13.232 0-24 10.768-24 24s10.768 24 24 24c13.24 0 24-10.768 24-24s-10.768-24-24-24zm0 32c-4.416 0-8-3.584-8-8s3.584-8 8-8 8 3.584 8 8-3.584 8-8 8zM112 175.976c-4.424 0-8 3.576-8 8v32c0 4.424 3.576 8 8 8 4.424 0 8-3.576 8-8v-32c0-4.424-3.576-8-8-8zM400 175.976c-4.424 0-8 3.576-8 8v32c0 4.424 3.576 8 8 8 4.424 0 8-3.576 8-8v-32c0-4.424-3.576-8-8-8zM112 319.976c-4.424 0-8 3.576-8 8v32c0 4.424 3.576 8 8 8 4.424 0 8-3.576 8-8v-32c0-4.424-3.576-8-8-8zM400 319.976c-4.424 0-8 3.576-8 8v32c0 4.424 3.576 8 8 8 4.424 0 8-3.576 8-8v-32c0-4.424-3.576-8-8-8zM400 247.976c-13.232 0-24 10.768-24 24s10.768 24 24 24c13.24 0 24-10.768 24-24s-10.768-24-24-24zm0 32c-4.416 0-8-3.584-8-8s3.584-8 8-8 8 3.584 8 8-3.584 8-8 8zM448 175.976c-13.232 0-24 10.768-24 24s10.768 24 24 24c13.24 0 24-10.768 24-24s-10.768-24-24-24zm0 32c-4.416 0-8-3.584-8-8s3.584-8 8-8 8 3.584 8 8-3.584 8-8 8zM448 319.976c-13.232 0-24 10.768-24 24s10.768 24 24 24c13.24 0 24-10.768 24-24s-10.768-24-24-24zm0 32c-4.416 0-8-3.584-8-8s3.584-8 8-8 8 3.584 8 8-3.584 8-8 8zM64 319.976c-13.232 0-24 10.768-24 24s10.768 24 24 24c13.24 0 24-10.768 24-24s-10.768-24-24-24zm0 32c-4.416 0-8-3.584-8-8s3.584-8 8-8 8 3.584 8 8-3.584 8-8 8zM64 175.976c-13.232 0-24 10.768-24 24s10.768 24 24 24c13.24 0 24-10.768 24-24s-10.768-24-24-24zm0 32c-4.416 0-8-3.584-8-8s3.584-8 8-8 8 3.584 8 8-3.584 8-8 8zM448 247.976c-4.424 0-8 3.576-8 8v32c0 4.424 3.576 8 8 8 4.424 0 8-3.576 8-8v-32c0-4.424-3.576-8-8-8zM64 391.976c-4.424 0-8 3.576-8 8v32c0 4.424 3.576 8 8 8 4.424 0 8-3.576 8-8v-32c0-4.424-3.576-8-8-8zM112 391.976c-13.232 0-24 10.768-24 24s10.768 24 24 24c13.24 0 24-10.768 24-24s-10.768-24-24-24zm0 32c-4.416 0-8-3.584-8-8s3.584-8 8-8 8 3.584 8 8-3.584 8-8 8zM160 391.976c-4.424 0-8 3.576-8 8v32c0 4.424 3.576 8 8 8 4.424 0 8-3.576 8-8v-32c0-4.424-3.576-8-8-8zM208 391.976c-13.232 0-24 10.768-24 24s10.768 24 24 24c13.24 0 24-10.768 24-24s-10.768-24-24-24zm0 32c-4.416 0-8-3.584-8-8s3.584-8 8-8 8 3.584 8 8-3.584 8-8 8zM256 391.976c-4.424 0-8 3.576-8 8v32c0 4.424 3.576 8 8 8 4.424 0 8-3.576 8-8v-32c0-4.424-3.576-8-8-8zM304 391.976c-13.232 0-24 10.768-24 24s10.768 24 24 24c13.24 0 24-10.768 24-24s-10.768-24-24-24zm0 32c-4.416 0-8-3.584-8-8s3.584-8 8-8 8 3.584 8 8-3.584 8-8 8zM352 391.976c-4.424 0-8 3.576-8 8v32c0 4.424 3.576 8 8 8 4.424 0 8-3.576 8-8v-32c0-4.424-3.576-8-8-8zM400 391.976c-13.232 0-24 10.768-24 24s10.768 24 24 24c13.24 0 24-10.768 24-24s-10.768-24-24-24zm0 32c-4.416 0-8-3.584-8-8s3.584-8 8-8 8 3.584 8 8-3.584 8-8 8zM448 391.976c-4.424 0-8 3.576-8 8v32c0 4.424 3.576 8 8 8 4.424 0 8-3.576 8-8v-32c0-4.424-3.576-8-8-8zM32.24 40.168h-.088c-4.416 0-7.952 3.576-7.952 8s3.616 8 8.04 8c4.416 0 8-3.576 8-8s-3.584-8-8-8zM56.24 40.168h-.088c-4.416 0-7.952 3.576-7.952 8s3.616 8 8.04 8c4.416 0 8-3.576 8-8s-3.584-8-8-8zM80.24 40.168h-.088c-4.416 0-7.952 3.576-7.952 8s3.616 8 8.04 8c4.416 0 8-3.576 8-8s-3.584-8-8-8z"/><path d="M504.144 56.168h-496c-4.424 0-8 3.576-8 8v415.808c0 4.424 3.576 8 8 8h496c4.424 0 8-3.576 8-7.992V64.168c0-4.424-3.576-8-8-8zm-8 415.808h-480V72.168h480v399.808zM24 24.168c-13.232 0-24 10.768-24 24 0 4.424 3.576 8 8 8 4.424 0 8-3.584 8-8s3.584-8 8-8c4.424 0 8-3.576 8-8s-3.576-8-8-8z"/><path d="M8 40.168c-4.424 0-8 3.576-8 8v16c0 4.424 3.576 8 8 8 4.424 0 8-3.584 8-8v-16c0-4.424-3.576-8-8-8zM488 24.168c-4.424 0-8 3.576-8 8s3.576 8 8 8c4.416 0 8 3.584 8 8 0 4.424 3.576 8 8 8 4.424 0 8-3.584 8-8 0-13.232-10.768-24-24-24z"/><path d="M504 40.168c-4.424 0-8 3.576-8 8v16c0 4.424 3.576 8 8 8 4.424 0 8-3.584 8-8v-16c0-4.424-3.576-8-8-8zM488 24.168H24c-4.424 0-8 3.576-8 8s3.576 8 8 8h464c4.424 0 8-3.576 8-8s-3.576-8-8-8z"/></svg>