<svg version="1.2" width="262.5mm" height="262.5mm" viewBox="0 0 26250 26250" preserveAspectRatio="xMidYMid" fill-rule="evenodd" stroke-width="28.222" stroke-linejoin="round" xmlns="http://www.w3.org/2000/svg"><defs class="ClipPathGroup"><clipPath id="a"><path d="M0 0h26250v26250H0z"/></clipPath></defs><g class="SlideGroup Slide Page" clip-path="url(#a)"><g class="com.sun.star.drawing.ClosedBezierShape"><path class="BoundingBox" fill="none" d="M13948 11484h12304v12305H13948z"/><path d="M20100 11485c-3392 0-6152 2760-6152 6152s2760 6151 6152 6151 6151-2759 6151-6151-2759-6152-6151-6152zm0 11483c-2940 0-5332-2392-5332-5331 0-2940 2392-5332 5332-5332 2939 0 5331 2392 5331 5332 0 2939-2392 5331-5331 5331z"/></g><g class="com.sun.star.drawing.ClosedBezierShape"><path class="BoundingBox" fill="none" d="M13948 19686h12304v6563H13948z"/><path d="M25841 19686c-227 0-410 183-410 410 0 2940-2392 5332-5331 5332-2940 0-5332-2392-5332-5332 0-227-183-410-410-410s-410 183-410 410c0 3392 2760 6152 6152 6152s6151-2760 6151-6152c0-227-183-410-410-410z"/></g><g class="com.sun.star.drawing.ClosedBezierShape"><path class="BoundingBox" fill="none" d="M25429 17226h822v3284h-822z"/><path d="M25840 17226c-227 0-411 183-411 410v2461c0 227 184 411 411 411s410-184 410-411v-2461c0-227-183-410-410-410z"/></g><g class="com.sun.star.drawing.ClosedBezierShape"><path class="BoundingBox" fill="none" d="M13947 17226h822v3284h-822z"/><path d="M14358 17226c-227 0-411 183-411 410v2461c0 227 184 411 411 411s410-184 410-411v-2461c0-227-183-410-410-410z"/></g><g class="com.sun.star.drawing.ClosedBezierShape"><path class="BoundingBox" fill="none" d="M19689 22967h822v3283h-822z"/><path d="M20100 22967c-227 0-411 183-411 410v2461c0 227 184 411 411 411s410-184 410-411v-2461c0-227-183-410-410-410z"/></g><g class="com.sun.star.drawing.ClosedBezierShape"><path class="BoundingBox" fill="none" d="M16401 21933h822v3284h-822z"/><path d="M16812 21933c-227 0-411 183-411 410v2461c0 227 184 411 411 411s410-184 410-411v-2461c0-227-183-410-410-410z"/></g><g class="com.sun.star.drawing.ClosedBezierShape"><path class="BoundingBox" fill="none" d="M22962 21933h822v3284h-822z"/><path d="M23373 21933c-227 0-411 183-411 410v2461c0 227 184 411 411 411s410-184 410-411v-2461c0-227-183-410-410-410z"/></g><g class="com.sun.star.drawing.ClosedBezierShape"><path class="BoundingBox" fill="none" d="M1 2h12304v12304H1z"/><path d="M6153 2C2761 2 1 2762 1 6154s2760 6151 6152 6151 6151-2759 6151-6151S9545 2 6153 2zm0 11483c-2940 0-5332-2392-5332-5331 0-2940 2392-5332 5332-5332 2939 0 5331 2392 5331 5332 0 2939-2392 5331-5331 5331z"/></g><g class="com.sun.star.drawing.ClosedBezierShape"><path class="BoundingBox" fill="none" d="M1 8204h12304v6563H1z"/><path d="M11894 8204c-227 0-410 184-410 410 0 2940-2392 5332-5331 5332-2940 0-5332-2392-5332-5332 0-226-183-410-410-410S1 8388 1 8614c0 3392 2760 6152 6152 6152s6151-2760 6151-6152c0-226-183-410-410-410z"/></g><g class="com.sun.star.drawing.ClosedBezierShape"><path class="BoundingBox" fill="none" d="M11482 5744h822v3283h-822z"/><path d="M11893 5744c-227 0-411 184-411 410v2461c0 227 184 411 411 411s410-184 410-411V6154c0-226-183-410-410-410z"/></g><g class="com.sun.star.drawing.ClosedBezierShape"><path class="BoundingBox" fill="none" d="M0 5744h822v3283H0z"/><path d="M411 5744c-227 0-411 184-411 410v2461c0 227 184 411 411 411s410-184 410-411V6154c0-226-183-410-410-410z"/></g><g class="com.sun.star.drawing.ClosedBezierShape"><path class="BoundingBox" fill="none" d="M5742 11485h822v3283h-822z"/><path d="M6153 11485c-227 0-411 184-411 410v2461c0 227 184 411 411 411s410-184 410-411v-2461c0-226-183-410-410-410z"/></g><g class="com.sun.star.drawing.ClosedBezierShape"><path class="BoundingBox" fill="none" d="M2453 10451h823v3284h-823z"/><path d="M2865 10451c-227 0-411 184-411 410v2461c0 227 184 411 411 411 226 0 410-184 410-411v-2461c0-226-183-410-410-410z"/></g><g class="com.sun.star.drawing.ClosedBezierShape"><path class="BoundingBox" fill="none" d="M9016 10451h822v3284h-822z"/><path d="M9427 10451c-227 0-411 184-411 410v2461c0 227 184 411 411 411 226 0 410-184 410-411v-2461c0-226-183-410-410-410z"/></g><g class="com.sun.star.drawing.ClosedBezierShape"><path class="BoundingBox" fill="none" d="M5598 6339h2375v823H5598z"/><path d="M7674 6340H5895c-164 0-297 184-297 411 0 226 133 410 297 410h1779c164 0 297-184 297-410 0-227-133-411-297-411z"/></g><g class="com.sun.star.drawing.ClosedBezierShape"><path class="BoundingBox" fill="none" d="M5599 2800h823v1095h-823z"/><path d="M6011 2800c-227 0-411 164-411 364v366c0 200 184 364 411 364 226 0 410-164 410-364v-366c0-200-183-364-410-364z"/></g><g class="com.sun.star.drawing.ClosedBezierShape"><path class="BoundingBox" fill="none" d="M5447 8074h822v1233h-822z"/><path d="M5858 8075c-227 0-411 184-411 410v411c0 226 184 410 411 410 226 0 410-184 410-410v-411c0-226-183-410-410-410z"/></g><g class="com.sun.star.drawing.ClosedBezierShape"><path class="BoundingBox" fill="none" d="M18047 13945h3284v2464h-3284z"/><path d="M21260 14128c-126-189-380-240-569-114l-2461 1641c-189 126-240 380-114 569 79 119 209 183 342 183 78 0 157-23 227-69l2461-1641c189-126 240-381 114-569z"/></g><g class="com.sun.star.drawing.ClosedBezierShape"><path class="BoundingBox" fill="none" d="M20508 13944h822v6974h-822z"/><path d="M20919 13945c-227 0-411 183-411 410v6152c0 227 184 410 411 410s410-183 410-410v-6152c0-227-183-410-410-410z"/></g><g class="com.sun.star.drawing.ClosedBezierShape"><path class="BoundingBox" fill="none" d="M18868 15039h822v5880h-822z"/><path d="M19279 15039c-227 0-411 183-411 410v5059c0 226 184 410 411 410s410-184 410-410v-5059c0-227-183-410-410-410z"/></g><g class="com.sun.star.drawing.ClosedBezierShape"><path class="BoundingBox" fill="none" d="M18047 20095h4104v823h-4104z"/><path d="M21740 20096h-3282c-227 0-410 184-410 411s183 410 410 410h3282c226 0 410-183 410-410s-184-411-410-411z"/></g><g class="com.sun.star.drawing.ClosedBezierShape"><path class="BoundingBox" fill="none" d="M5742 15585h822v3693h-822z"/><path d="M6153 15585c-227 0-411 183-411 410v2872c0 226 184 410 411 410s410-184 410-410v-2872c0-227-183-410-410-410z"/></g><g class="com.sun.star.drawing.ClosedBezierShape"><path class="BoundingBox" fill="none" d="M5742 18455h7383v823H5742z"/><path d="M12714 18456H6152c-227 0-410 184-410 411s183 410 410 410h6562c227 0 410-183 410-410s-183-411-410-411z"/></g><g class="com.sun.star.drawing.ClosedBezierShape"><path class="BoundingBox" fill="none" d="M11073 18456h2053v2052h-2053z"/><path d="M13004 18576c-160-160-419-160-580 0l-1231 1231c-160 161-160 420 0 580 80 80 185 120 290 120s210-40 290-120l1231-1231c161-160 161-419 0-580z"/></g><g class="com.sun.star.drawing.ClosedBezierShape"><path class="BoundingBox" fill="none" d="M11073 17225h2053v2053h-2053z"/><path d="M13004 18577l-1231-1231c-160-160-419-160-580 0-160 161-160 420 0 580l1231 1231c80 80 185 120 290 120s210-40 290-120c161-160 161-419 0-580z"/></g><g class="com.sun.star.drawing.ClosedBezierShape"><path class="BoundingBox" fill="none" d="M19685 6974h822v3693h-822z"/><path d="M20096 6974c-227 0-411 184-411 410v2872c0 226 184 410 411 410s410-184 410-410V7384c0-226-183-410-410-410z"/></g><g class="com.sun.star.drawing.ClosedBezierShape"><path class="BoundingBox" fill="none" d="M13123 6974h7383v822h-7383z"/><path d="M20095 6974h-6562c-227 0-410 184-410 411 0 226 183 410 410 410h6562c227 0 410-184 410-410 0-227-183-411-410-411z"/></g><g class="com.sun.star.drawing.ClosedBezierShape"><path class="BoundingBox" fill="none" d="M13123 5743h2053v2052h-2053z"/><path d="M15054 5863c-160-160-419-160-580 0l-1231 1231c-160 161-160 420 0 580 80 80 185 120 290 120s210-40 290-120l1231-1231c161-160 161-419 0-580z"/></g><g class="com.sun.star.drawing.ClosedBezierShape"><path class="BoundingBox" fill="none" d="M13123 6974h2053v2052h-2053z"/><path d="M15054 8325l-1231-1231c-160-160-419-160-580 0-160 161-160 420 0 580l1231 1231c80 80 185 120 290 120s210-40 290-120c161-160 161-419 0-580z"/></g><g class="com.sun.star.drawing.ClosedBezierShape"><path class="BoundingBox" fill="none" d="M3898 6300h4103v2462H3898z"/><path d="M8000 6710c0-227-184-410-410-410-227 0-410 183-410 410 0 679-552 1231-1231 1231-678 0-1230-552-1230-1231 0-227-184-410-411-410-226 0-410 183-410 410 0 1131 920 2051 2051 2051s2051-920 2051-2051z"/></g><g class="com.sun.star.drawing.ClosedBezierShape"><path class="BoundingBox" fill="none" d="M3899 3338h4104v2463H3899z"/><path d="M8002 5390c0 227-184 410-410 410-227 0-410-183-410-410 0-679-552-1231-1231-1231-678 0-1230 552-1230 1231 0 227-184 410-411 410-226 0-410-183-410-410 0-1131 920-2051 2051-2051s2051 920 2051 2051z"/></g></g></svg>