<svg xmlns="http://www.w3.org/2000/svg" width="32" height="32" viewBox="0 0 32 32"><title>bitcoin</title><path d="M31.517 19.872C29.38 28.445 20.7 33.66 12.127 31.52 3.56 29.4-1.658 20.7.484 12.14 2.616 3.56 11.3-1.657 19.867.477c8.573 2.14 13.79 10.82 11.65 19.397v-.003zm-8.466-6.15c.32-2.12-1.298-3.268-3.52-4.04l.72-2.872-1.752-.44-.7 2.81c-.46-.117-.94-.224-1.42-.334l.702-2.836-1.76-.44-.72 2.887c-.38-.09-.753-.176-1.12-.267l-2.42-.6-.467 1.876s1.3.3 1.273.315c.713.182.84.65.82 1.022l-1.97 7.893c-.1.22-.32.54-.818.42.02.026-1.28-.32-1.28-.32l-.88 2.012 2.28.568 1.24.323-.72 2.92 1.76.436.72-2.893c.48.134.94.254 1.4.365l-.68 2.872 1.76.44.727-2.92c2.987.57 5.24.343 6.187-2.365.76-2.183-.04-3.44-1.623-4.26 1.138-.258 2-1.014 2.24-2.574h.012zm-4.013 5.626c-.54 2.187-4.21 1-5.4.707l.96-3.867c1.195.307 5.01.893 4.44 3.16zm.547-5.653c-.493 1.987-3.55.98-4.54.733l.872-3.52c.992.24 4.183.7 3.667 2.78v.007z"/></svg>