<svg viewBox="0 0 55.6 55.6" xmlns="http://www.w3.org/2000/svg"><style>.st0{fill:#26B67C;} .st1{fill:#F09F2E;} .st2{fill:#EA5D72;} .st3{fill:#CE311D;} .st4{fill:#1B7A51;} .st5{fill:#B56610;} .st6{fill:#BA354E;} .st7{fill:#932D0D;} .st8{fill:#00D177;} .st9{fill:#FFB300;} .st10{fill:#F7636B;} .st11{fill:#D0230C;} .st12{fill:#46C190;} .st13{fill:#F2AD4D;} .st14{fill:#ED7587;} .st15{fill:#D5503F;} .st16{fill:#68CCA4;} .st17{fill:#F5BC6D;} .st18{fill:#F08E9D;} .st19{fill:#DD6F61;} .st20{fill:#92DABD;} .st21{fill:#F7CF96;} .st22{fill:#F4AEB8;} .st23{fill:#E6988E;} .st24{fill:#BDE9D7;} .st25{fill:#FAE2C0;} .st26{fill:#F9CED4;} .st27{fill:#F0C1BB;} .st28{fill:#DFF4EB;} .st29{fill:#FDF1E0;} .st30{fill:#FCE7EA;} .st31{fill:#F8E0DD;} .st32{fill:none;stroke:#CE311D;stroke-width:5;stroke-linecap:round;stroke-linejoin:round;stroke-miterlimit:10;} .st33{fill:#808080;} .st34{fill:#FFFFFF;} .st35{fill:#EE9E7F;} .st36{fill:none;stroke:#DD3E00;stroke-width:2;stroke-linecap:round;stroke-linejoin:round;stroke-miterlimit:10;} .st37{fill:#88D7B7;stroke:#26B67C;stroke-width:2;stroke-linecap:round;stroke-linejoin:round;stroke-miterlimit:10;} .st38{fill:#F7CA8C;stroke:#F09F2E;stroke-width:2;stroke-linecap:round;stroke-linejoin:round;stroke-miterlimit:10;} .st39{fill:#F3A6B2;stroke:#EA5D72;stroke-width:2;stroke-linecap:round;stroke-linejoin:round;stroke-miterlimit:10;} .st40{fill:#EC9573;stroke:#DD3E00;stroke-width:2;stroke-linecap:round;stroke-linejoin:round;stroke-miterlimit:10;} .st41{fill:#FFFFFF;stroke:#F09F2E;stroke-width:2;stroke-linecap:round;stroke-linejoin:round;stroke-miterlimit:10;} .st42{opacity:0.22;fill:#26B67C;} .st43{opacity:0.22;fill:#F09F2E;} .st44{opacity:0.22;fill:#EA5D72;} .st45{opacity:0.22;fill:#CE311D;} .st46{fill:#58B582;} .st47{fill:#FFD79E;} .st48{fill:#F0BF7D;} .st49{fill:#E53A05;} .st50{fill:#CC2D02;} .st51{fill:#F7AB9A;} .st52{fill:#F09F2E;stroke:#B56610;stroke-miterlimit:10;} .st53{fill:#DD3E00;stroke:#932D0D;stroke-miterlimit:10;} .st54{fill:#EA5D72;stroke:#BA354E;stroke-miterlimit:10;} .st55{fill:#26B67C;stroke:#1B7A51;stroke-miterlimit:10;} .st56{fill:#00D177;stroke:#1B7A51;stroke-miterlimit:10;} .st57{fill:#F7636B;stroke:#BA354E;stroke-miterlimit:10;} .st58{fill:#D0230C;stroke-miterlimit:10;} .st59{fill:#FFB300;stroke:#B56610;stroke-miterlimit:10;} .st60{fill:none;stroke:#B3B3B3;stroke-miterlimit:10;} .st61{fill:#A0A0A0;} .st62{fill:none;} .st63{fill:#FFFFFF;stroke:#EA5D72;stroke-width:4;stroke-linecap:round;stroke-linejoin:round;stroke-miterlimit:10;} .st64{fill:#FFFFFF;stroke:#26B67C;stroke-width:4;stroke-linecap:round;stroke-linejoin:round;stroke-miterlimit:10;} .st65{fill:none;stroke:#CE311D;stroke-width:4;stroke-linecap:round;stroke-linejoin:round;stroke-miterlimit:10;} .st66{fill:#FFFFFF;stroke:#CE311D;stroke-width:4;stroke-linecap:round;stroke-linejoin:round;stroke-miterlimit:10;} .st67{fill:#FFFFFF;stroke:#F09F2E;stroke-width:4;stroke-linecap:round;stroke-linejoin:round;stroke-miterlimit:10;} .st68{fill:#FFFFFF;stroke:#EA5D72;stroke-width:5;stroke-linecap:round;stroke-linejoin:round;stroke-miterlimit:10;} .st69{fill:#FFFFFF;stroke:#26B67C;stroke-width:5;stroke-linecap:round;stroke-linejoin:round;stroke-miterlimit:10;} .st70{fill:#FFFFFF;stroke:#CE311D;stroke-width:5;stroke-linecap:round;stroke-linejoin:round;stroke-miterlimit:10;} .st71{fill:#FFFFFF;stroke:#F09F2E;stroke-width:5;stroke-linecap:round;stroke-linejoin:round;stroke-miterlimit:10;} .st72{fill:none;stroke:#F09F2E;stroke-width:4;stroke-linecap:round;stroke-linejoin:round;stroke-miterlimit:10;} .st73{opacity:0.19;fill:#F09F2E;} .st74{fill:#FFFFFF;stroke:#DD3E00;stroke-width:4;stroke-linecap:round;stroke-linejoin:round;stroke-miterlimit:10;} .st75{fill:none;stroke:#DD3E00;stroke-width:4;stroke-linecap:round;stroke-linejoin:round;stroke-miterlimit:10;} .st76{opacity:0.14;fill:#DD3E00;} .st77{fill:none;stroke:#26B67C;stroke-width:4;stroke-linecap:round;stroke-linejoin:round;stroke-miterlimit:10;} .st78{opacity:0.19;} .st79{opacity:0.19;fill:#26B67C;} .st80{fill:none;stroke:#EA5D72;stroke-width:4;stroke-linecap:round;stroke-linejoin:round;stroke-miterlimit:10;} .st81{opacity:0.19;fill:#EA5D72;} .st82{fill:#B3B3B3;} .st83{fill:#CCCCCC;} .st84{fill:none;stroke:#CCCCCC;stroke-miterlimit:10;} .st85{fill:#666666;} .st86{fill:none;stroke:#666666;stroke-width:12;stroke-linecap:round;stroke-linejoin:round;stroke-miterlimit:10;} .st87{fill:none;stroke:#EA5D72;stroke-width:12;stroke-linecap:round;stroke-linejoin:round;stroke-miterlimit:10;} .st88{fill:#FFFFFF;stroke:#666666;stroke-width:12;stroke-linecap:round;stroke-linejoin:round;stroke-miterlimit:10;} .st89{fill:#FFFFFF;stroke:#EA5D72;stroke-width:12;stroke-linecap:round;stroke-linejoin:round;stroke-miterlimit:10;} .st90{opacity:0.46;} .st91{opacity:0.75;} .st92{fill:#F2F2F2;} .st93{fill:#5CB85C;} .st94{fill:none;stroke:#FFFFFF;stroke-miterlimit:10;} .st95{fill:#5E8AFB;} .st96{fill:#767676;} .st97{fill:#757575;} .st98{fill:none;stroke:#767676;stroke-width:2;stroke-miterlimit:10;} .st99{fill:#FBE7CB;} .st100{fill:#F3CBC6;} .st101{fill:#FAD6DC;} .st102{fill:#C9EDDE;}</style><title>Layer 1</title><circle class="st58" cx="27.8" cy="27.8" r="26.5" id="svg_1"/><g id="XMLID_25_"><path class="st34" d="M26.1 9.5c0-1.4 1.3-1.5 1.6-1.5.9 0 1.9.6 1.9 1.5 0 1.8.1 13.8.1 13.8 0 .3.2.5.5.5s.5-.2.6-.5c0 0 .1-10.1.1-12.3 0-.8.7-1.3 1.4-1.3.3 0 1.2 0 1.4 1.4.1.9.1 16.7.4 17 .3.2.6.3.8.2 1-.5 2.3-2.7 3.4-5.1.4-.9 1.4-1 1.9-1 .8 0 1.4.3 1.5.5-.7 1.2-2.7 7.4-3.5 10.4-.4 1.4-1.9 2.9-3.3 4.2-1.5 1.4-2.7 2.6-2.7 3.7v5.2H21.7c0-1.7.1-5.9-.3-6.7-.2-.5-.7-1-1.2-1.6-.7-.8-1.5-1.7-1.6-2.4-.3-1.3-.5-17.3-.4-19.8 0-.5.2-.9.5-1.2.3-.3.6-.4 1-.4.3 0 .9.1.9 1v8.5s0 .5.6.5c.4 0 .5-.3.5-.6 0 0 .2-11.1.2-13 0-.7.8-1.2 1.6-1.2.3 0 1.3 0 1.4 1 .1.9.1 1.6.1 2.2v10.8c-.1.5.5.5.5.5.3 0 .5-.2.5-.5V12.5c.1-.8.1-1.8.1-3z" id="svg_2"/><path class="st7" d="M20.8 10.5c0-1.4 1.4-2.2 2.7-2.3.7 0 1.3.2 1.7.5.3-1.2 1.4-1.7 2.5-1.7 1.4 0 2.8.9 3 2.3.4-.4 1-.6 1.5-.6 1.1 0 2.3.7 2.5 2.3.1.9.2 15.8.2 15.8.4-.3 1.6-2.5 2.3-4 .5-1 1.4-1.5 2.6-1.6 1.2 0 2.4.4 2.7 1.1.2.3.2.7 0 1.1-.6 1-2.6 7.2-3.4 10.2-.5 1.7-2.1 3.3-3.6 4.7-1.1 1.1-2.4 2.3-2.4 2.9v5.7c0 .3-.2.5-.5.5H21.1c-.1 0-.3-.1-.4-.2-.1-.1-.2-.3-.2-.4.1-3 .1-6.3-.2-6.8-.1-.3-.6-.8-1-1.3-.8-.9-1.7-2-1.9-2.9-.3-1.5-.5-18-.4-20.1 0-1.7 1.3-2.7 2.6-2.7.4 0 .7.1 1 .3.1-1 .2-2.1.2-2.8zm-.6 27.4c.5.6 1 1.2 1.2 1.6.4.9.3 5 .3 6.7h10.6V41c0-1.1 1.3-2.3 2.7-3.7 1.4-1.3 2.9-2.8 3.3-4.2.8-3 2.8-9.3 3.5-10.4-.1-.2-.7-.5-1.5-.5-.5 0-1.5.1-1.9 1-1.1 2.3-2.5 4.6-3.4 5.1-.2.1-.4 0-.8-.2-.3-.2-.3-16.1-.4-17-.2-1.3-1.1-1.4-1.4-1.4-.7 0-1.3.5-1.4 1.3-.1 2.2-.1 12.3-.1 12.3 0 .3-.3.5-.6.5s-.5-.3-.5-.5c0 0-.1-12.1-.1-13.8 0-.9-1-1.5-1.9-1.5-.4 0-1.6.1-1.6 1.5v13.7c0 .3-.3.5-.5.5 0 0-.6 0-.5-.5V12.4c0-.6-.1-1.4-.1-2.2-.1-1-1.1-1-1.4-1-.8 0-1.6.5-1.6 1.2 0 1.9-.2 13-.2 13 0 .3-.1.6-.5.6-.6 0-.6-.5-.6-.5V15c0-.9-.6-1-.9-1-.4 0-.7.1-1 .4-.3.3-.5.7-.5 1.2-.1 2.5.1 18.6.4 19.8-.1.8.7 1.7 1.4 2.5z" id="svg_3"/></g><path class="st7" d="M18.494 48.383v-4.2h17.1v4.2h-17.1z" id="svg_4"/></svg>