<svg xmlns="http://www.w3.org/2000/svg" viewBox="0 0 455.731 455.731"><path fill="#F89029" d="M0 0h455.73v455.73H0z"/><path d="M349.922 190.236H335.85c-11.015 0-19.944-8.93-19.944-19.944v-1.39c0-46.25-37.495-83.746-83.747-83.746H169.61c-46.252 0-83.747 37.495-83.747 83.747V286.83c0 46.252 37.495 83.747 83.747 83.747H286.12c46.25 0 83.746-37.495 83.746-83.747v-76.65c0-11.015-8.93-19.944-19.944-19.944zm-176.726-32.66h66.74c9.02 0 16.33 7.31 16.33 16.33s-7.31 16.33-16.33 16.33h-66.74c-9.02 0-16.33-7.31-16.33-16.33s7.31-16.33 16.33-16.33zm110.76 140.58h-110.76c-9.02 0-16.33-7.31-16.33-16.33s7.31-16.33 16.33-16.33h110.76c9.02 0 16.33 7.31 16.33 16.33 0 9.018-7.312 16.33-16.33 16.33z" fill="#FFF"/></svg>