<svg xmlns="http://www.w3.org/2000/svg" width="42" height="32" viewBox="0 0 42 32"><title>book-open</title><path d="M37.5 1h-16c-.397 0-.74.136-1 .362-.26-.226-.603-.362-1-.362h-16C2.63 1 2 1.63 2 2.5v28c0 .87.63 1.5 1.5 1.5h16c.397 0 .74-.136 1-.362.26.226.603.362 1 .362h16c.87 0 1.5-.63 1.5-1.5v-28c0-.87-.63-1.5-1.5-1.5zm-18 30h-16c-.313 0-.5-.187-.5-.5v-28c0-.313.187-.5.5-.5h16c.313 0 .5.187.5.5v28c0 .313-.187.5-.5.5zm18.5-.5c0 .313-.187.5-.5.5h-16c-.313 0-.5-.187-.5-.5v-28c0-.313.187-.5.5-.5h16c.313 0 .5.187.5.5v28zM40.5 3c-.276 0-.5.224-.5.5v26c0 .276.224.5.5.5s.5-.224.5-.5v-26c0-.276-.224-.5-.5-.5zM.5 30c.276 0 .5-.224.5-.5v-26C1 3.224.776 3 .5 3s-.5.224-.5.5v26c0 .276.224.5.5.5zm17-20h-12c-.276 0-.5.224-.5.5s.224.5.5.5h12c.276 0 .5-.224.5-.5s-.224-.5-.5-.5zm0 4h-12c-.276 0-.5.224-.5.5s.224.5.5.5h12c.276 0 .5-.224.5-.5s-.224-.5-.5-.5zm0-8h-12c-.276 0-.5.224-.5.5s.224.5.5.5h12c.276 0 .5-.224.5-.5s-.224-.5-.5-.5zm0 12h-12c-.276 0-.5.224-.5.5s.224.5.5.5h12c.276 0 .5-.224.5-.5s-.224-.5-.5-.5zm0 4h-12c-.276 0-.5.224-.5.5s.224.5.5.5h12c.276 0 .5-.224.5-.5s-.224-.5-.5-.5zm0 4h-12c-.276 0-.5.224-.5.5s.224.5.5.5h12c.276 0 .5-.224.5-.5s-.224-.5-.5-.5zm18-16h-12c-.276 0-.5.224-.5.5s.224.5.5.5h12c.276 0 .5-.224.5-.5s-.224-.5-.5-.5zm0 4h-12c-.276 0-.5.224-.5.5s.224.5.5.5h12c.276 0 .5-.224.5-.5s-.224-.5-.5-.5zm0-8h-12c-.276 0-.5.224-.5.5s.224.5.5.5h12c.276 0 .5-.224.5-.5s-.224-.5-.5-.5zm0 12h-12c-.276 0-.5.224-.5.5s.224.5.5.5h12c.276 0 .5-.224.5-.5s-.224-.5-.5-.5zm0 4h-12c-.276 0-.5.224-.5.5s.224.5.5.5h12c.276 0 .5-.224.5-.5s-.224-.5-.5-.5zm0 4h-12c-.276 0-.5.224-.5.5s.224.5.5.5h12c.276 0 .5-.224.5-.5s-.224-.5-.5-.5z"/></svg>