<svg xmlns="http://www.w3.org/2000/svg" width="48" height="48" viewBox="0 0 48 48"><title>camera12</title><path d="M27 27.5c0-1.38 1.12-2.5 2.5-2.5s2.5 1.12 2.5 2.5-1.12 2.5-2.5 2.5-2.5-1.12-2.5-2.5zm2.5-6.5c-3.59 0-6.5 2.91-6.5 6.5s2.91 6.5 6.5 6.5 6.5-2.91 6.5-6.5-2.91-6.5-6.5-6.5zM0 39c0 2.21 1.79 4 4 4h40c2.21 0 4-1.79 4-4V16c0-2.21-1.79-4-4-4h-3.75l-5.12-5.12C34.54 6.29 33.77 6 33 6h-6.99c-.77 0-1.55.29-2.13.88L18.78 12H15V9.75C15 8.78 14.22 8 13.25 8h-6.5C5.78 8 5 8.78 5 9.75V12H4c-2.21 0-4 1.79-4 4v23zm13-18H7c-1.1 0-2-.9-2-2s.9-2 2-2h6c1.1 0 2 .9 2 2s-.9 2-2 2zm16.5-4C35.3 17 40 21.7 40 27.5S35.3 38 29.5 38 19 33.3 19 27.5 23.7 17 29.5 17z"/></svg>