<svg xmlns="http://www.w3.org/2000/svg" width="42" height="32" viewBox="0 0 42 32"><title>chat2</title><path d="M35.652 14.023c-.264-.082-.544.062-.628.325-.083.263.062.544.325.628C39.256 16.22 41 18.078 41 21c0 2.6-2.37 4.616-3.783 5.588-.136.094-.217.247-.217.412v3.823c-.73-.272-2.003-.89-3.126-2.155-.117-.13-.295-.19-.468-.16-.285.056-.576.134-.87.213-.51.138-1.037.28-1.536.28-2.568 0-4.366-.552-6.204-1.903-.224-.164-.535-.115-.7.107-.163.223-.115.535.107.7C26.23 29.393 28.2 30 31 30c.63 0 1.223-.16 1.795-.313.178-.05.355-.097.53-.138 1.87 1.973 3.983 2.422 4.075 2.44.033.007.066.01.1.01.114 0 .227-.04.316-.113.117-.095.184-.237.184-.387v-4.24c2.582-1.84 4-4.056 4-6.26 0-3.38-2.017-5.598-6.348-6.977zM33 13.5C33 5.804 25.982 0 16.677 0 7.325 0 0 5.93 0 13.502c0 4.54 3.21 7.79 6 9.76v6.635c0 .17.086.327.228.42.083.053.177.08.272.08.07 0 .14-.015.205-.044.146-.065 3.56-1.616 6.48-4.81 1.264.236 2.695.462 3.993.462C26.64 26.005 33 20.98 33 13.5zM17.177 25.005c-1.31 0-2.8-.25-4.083-.496-.173-.032-.35.027-.468.158-2.05 2.312-4.46 3.78-5.626 4.414V23c0-.165-.08-.318-.217-.412C4.145 20.773 1 17.725 1 13.502 1 6.492 7.886 1 16.677 1 25.413 1 32 6.374 32 13.5c0 6.882-5.957 11.505-14.823 11.505zM16.5 11.5c-1.103 0-2 .897-2 2s.897 2 2 2 2-.897 2-2-.897-2-2-2zm0 3c-.55 0-1-.448-1-1s.45-1 1-1 1 .448 1 1-.45 1-1 1zm7-3c-1.103 0-2 .897-2 2s.897 2 2 2 2-.897 2-2-.897-2-2-2zm0 3c-.55 0-1-.448-1-1s.45-1 1-1 1 .448 1 1-.45 1-1 1zm-14-2.905c-1.103 0-2 .897-2 2s.897 2 2 2 2-.897 2-2-.897-2-2-2zm0 3c-.55 0-1-.448-1-1s.45-1 1-1 1 .448 1 1-.45 1-1 1z"/></svg>