<svg xmlns="http://www.w3.org/2000/svg" width="30" height="28" viewBox="0 0 30 28"><title>cogs2</title><path d="M14 14c0-2.203-1.797-4-4-4s-4 1.797-4 4 1.797 4 4 4 4-1.797 4-4zm12 8c0-1.094-.906-2-2-2s-2 .906-2 2c0 1.11.906 2 2 2 1.11 0 2-.906 2-2zm0-16c0-1.094-.906-2-2-2s-2 .906-2 2c0 1.11.906 2 2 2 1.11 0 2-.906 2-2zm-6 6.578v2.89c0 .204-.156.44-.36.47l-2.42.375c-.126.406-.298.797-.5 1.188.437.626.905 1.204 1.405 1.798.063.094.11.187.11.313 0 .11-.032.22-.11.298-.313.422-2.063 2.328-2.516 2.328-.126 0-.235-.047-.33-.11l-1.796-1.405c-.39.204-.78.36-1.203.485-.077.797-.155 1.656-.358 2.422-.063.22-.25.375-.47.375H8.548c-.22 0-.438-.172-.47-.39L7.72 21.22c-.407-.125-.798-.297-1.173-.484l-1.844 1.39c-.078.08-.203.11-.313.11-.125 0-.234-.047-.328-.125-.406-.374-2.25-2.046-2.25-2.5 0-.108.047-.202.11-.296.452-.594.92-1.172 1.374-1.78-.22-.423-.406-.845-.547-1.282l-2.376-.375c-.22-.03-.375-.234-.375-.453v-2.89c0-.204.155-.44.358-.47l2.422-.375c.125-.407.297-.798.5-1.19-.438-.624-.906-1.202-1.406-1.796-.063-.094-.11-.203-.11-.313s.032-.218.11-.312c.313-.422 2.063-2.312 2.516-2.312.125 0 .234.047.328.11L6.515 7.28c.39-.202.78-.358 1.203-.5.078-.78.156-1.64.36-2.405.062-.22.25-.375.468-.375h2.906c.22 0 .438.172.47.39l.358 2.392c.406.125.797.297 1.172.484l1.844-1.39c.094-.08.203-.11.313-.11.124 0 .233.047.327.125.406.376 2.25 2.064 2.25 2.5 0 .11-.047.204-.11.298-.452.61-.92 1.172-1.358 1.78.202.423.39.845.53 1.282l2.375.36c.22.046.375.25.375.468zm10 8.328v2.188c0 .234-2.016.453-2.328.484-.125.297-.28.562-.47.812.142.313.798 1.875.798 2.156 0 .047-.016.078-.063.11-.187.108-1.86 1.108-1.937 1.108-.203 0-1.375-1.563-1.53-1.797-.157.016-.314.03-.47.03s-.313-.015-.47-.03c-.155.234-1.327 1.797-1.53 1.797-.078 0-1.75-1-1.937-1.11-.047-.03-.063-.077-.063-.108 0-.266.656-1.844.797-2.156-.187-.25-.344-.516-.47-.812-.312-.03-2.327-.25-2.327-.484v-2.188c0-.234 2.016-.453 2.328-.484.125-.28.28-.562.47-.812-.142-.313-.798-1.89-.798-2.156 0-.03.016-.078.063-.11.187-.093 1.86-1.093 1.937-1.093.203 0 1.375 1.548 1.53 1.782.157-.016.314-.03.47-.03s.313.015.47.03c.437-.61.905-1.22 1.436-1.75l.094-.03c.078 0 1.75.983 1.937 1.093.047.03.063.078.063.11 0 .28-.656 1.843-.797 2.155.187.25.344.53.47.812.312.03 2.327.25 2.327.484zm0-16v2.187c0 .234-2.016.453-2.328.484-.125.297-.28.562-.47.812.142.312.798 1.874.798 2.155 0 .047-.016.078-.063.11-.187.108-1.86 1.108-1.937 1.108-.203 0-1.375-1.563-1.53-1.797-.157.016-.314.03-.47.03s-.313-.015-.47-.03c-.155.234-1.327 1.797-1.53 1.797-.078 0-1.75-1-1.937-1.11-.047-.03-.063-.077-.063-.108 0-.266.656-1.844.797-2.156-.187-.25-.344-.517-.47-.813-.312-.03-2.327-.25-2.327-.484V4.905c0-.234 2.016-.453 2.328-.484.125-.28.28-.56.47-.81C20.655 3.295 20 1.717 20 1.452c0-.03.016-.078.063-.11C20.25 1.25 21.923.25 22 .25c.203 0 1.375 1.547 1.53 1.78.157-.015.314-.03.47-.03s.313.016.47.03c.437-.608.905-1.218 1.436-1.75L26 .25c.078 0 1.75.984 1.937 1.094.047.03.063.078.063.11 0 .28-.656 1.843-.797 2.155.187.25.344.53.47.81.312.032 2.327.25 2.327.485z"/></svg>