<svg xmlns="http://www.w3.org/2000/svg" width="28" height="28" viewBox="0 0 28 28"><title>creative-commons</title><path d="M9.453 19.266c2.562 0 3.953-1.563 4.016-1.625.124-.155.155-.39.046-.56l-.703-1.282c-.063-.14-.22-.234-.375-.266-.156-.016-.313.047-.422.172-.016 0-1 1.047-2.438 1.047-1.578 0-2.72-1.155-2.72-2.765 0-1.594 1.11-2.734 2.657-2.734 1.297 0 2.156.876 2.156.876.11.11.25.172.407.156s.297-.094.375-.22l.828-1.218c.125-.187.11-.438-.03-.61-.048-.062-1.314-1.5-3.798-1.5-3.078 0-5.375 2.267-5.375 5.267 0 3.048 2.25 5.267 5.375 5.267zm9.844 0c2.578 0 3.953-1.563 4.016-1.625.125-.155.156-.39.063-.56l-.703-1.282c-.078-.14-.22-.234-.39-.266-.157-.016-.314.047-.423.172-.016 0-1 1.047-2.438 1.047-1.578 0-2.72-1.155-2.72-2.765 0-1.594 1.11-2.734 2.657-2.734 1.312 0 2.155.876 2.155.876.11.11.25.172.406.156s.298-.094.376-.22l.828-1.218c.125-.187.11-.438-.03-.61-.048-.062-1.314-1.5-3.798-1.5-3.063 0-5.375 2.267-5.375 5.267 0 3.048 2.25 5.267 5.376 5.267zM14 2.5C7.656 2.5 2.5 7.656 2.5 14S7.656 25.5 14 25.5 25.5 20.344 25.5 14 20.344 2.5 14 2.5zM14 0c7.734 0 14 6.266 14 14s-6.266 14-14 14S0 21.734 0 14 6.266 0 14 0z"/></svg>