<svg xmlns="http://www.w3.org/2000/svg" width="20" height="20" viewBox="0 0 20 20"><title>creative-commons-sharealike</title><path d="M9.988.4c-2.66 0-4.91.928-6.752 2.784C1.346 5.104.4 7.376.4 10s.946 4.88 2.836 6.768S7.376 19.6 9.988 19.6c2.643 0 4.934-.952 6.873-2.856 1.827-1.808 2.74-4.056 2.74-6.744s-.928-4.96-2.787-6.816C14.953 1.328 12.68.4 9.988.4zm.024 1.728c2.18 0 4.03.768 5.55 2.304 1.54 1.52 2.308 3.376 2.308 5.568 0 2.208-.753 4.04-2.26 5.496-1.585 1.568-3.45 2.352-5.598 2.352s-3.997-.776-5.55-2.328C2.906 13.968 2.13 12.128 2.13 10s.785-3.984 2.355-5.568c1.506-1.536 3.348-2.304 5.527-2.304z"/><path d="M5.733 8.645c.383-2.415 2.083-3.707 4.214-3.707 3.065 0 4.933 2.224 4.933 5.19 0 2.893-1.987 5.14-4.98 5.14-2.06 0-3.903-1.266-4.238-3.753H8.08c.072 1.29.91 1.746 2.107 1.746 1.365 0 2.25-1.267 2.25-3.204 0-2.033-.765-3.11-2.202-3.11-1.053 0-1.963.384-2.155 1.7l.703-.005-1.904 1.904L4.974 8.64l.758.005z"/></svg>