<svg xmlns="http://www.w3.org/2000/svg" viewBox="0 0 100 100"><path d="M10.9 58.7c3.6 0 6.6-2.2 7.7-5.4h8c.6 4.2 2.3 8 4.8 11.2l-5.6 5.6c-1.1-.5-2.2-.8-3.5-.8-4.6 0-8.2 3.7-8.2 8.2 0 4.6 3.7 8.2 8.2 8.2 4.6 0 8.2-3.7 8.2-8.2 0-1.2-.3-2.4-.8-3.5l5.6-5.6c3.3 2.6 7.3 4.3 11.7 4.8v8c-3.2 1.2-5.4 4.2-5.4 7.7 0 4.6 3.7 8.2 8.2 8.2s8.2-3.7 8.2-8.2c0-3.6-2.2-6.6-5.4-7.7v-8c4.4-.5 8.4-2.3 11.7-4.8l5.6 5.6c-.5 1.1-.8 2.2-.8 3.5 0 4.6 3.7 8.2 8.2 8.2s8.2-3.7 8.2-8.2c0-4.6-3.7-8.2-8.2-8.2-1.2 0-2.4.3-3.5.8l-5.6-5.6c2.5-3.2 4.2-7 4.8-11.2h8.2c1.3 2.9 4.2 4.9 7.5 4.9 4.6 0 8.2-3.7 8.2-8.2s-3.7-8.2-8.2-8.2c-3.7 0-6.9 2.5-7.9 5.9H73c-.5-4.6-2.2-8.7-4.9-12.1l5.7-5.7c3 1.4 6.8.9 9.3-1.7 3.2-3.2 3.2-8.4 0-11.6-3.2-3.2-8.4-3.2-11.6 0-2.5 2.5-3.1 6.2-1.7 9.3L66 30l-1.5 1.5c-3.3-2.6-7.3-4.3-11.7-4.8v-8c3.2-1.2 5.4-4.2 5.4-7.7 0-4.6-3.7-8.2-8.2-8.2s-8.2 3.7-8.2 8.2c0 3.6 2.2 6.6 5.4 7.7v8c-4.4.5-8.4 2.3-11.7 4.8l-5.6-5.6c.5-1.1.8-2.2.8-3.5 0-4.6-3.7-8.2-8.2-8.2-4.6 0-8.2 3.7-8.2 8.2 0 4.6 3.7 8.2 8.2 8.2 1.2 0 2.4-.3 3.5-.8l5.6 5.6c-2.7 3.4-4.4 7.6-4.9 12.1h-7.9c-1.2-3.2-4.2-5.4-7.7-5.4-4.6 0-8.2 3.7-8.2 8.2s3.4 8.4 8 8.4zM50 31.9c10 0 18.1 8.1 18.1 18.1 0 10-8.1 18.1-18.1 18.1S31.9 60 31.9 50c0-10 8.1-18.1 18.1-18.1zm0 30.6c6.9 0 12.5-5.6 12.5-12.5S56.9 37.5 50 37.5 37.5 43.1 37.5 50 43.1 62.5 50 62.5zm-4.4-7.6c.1-.4.2-.8.4-1.2.1-.5.3-.5.7-.3.7.4 1.5.6 2.4.7.5.1 1.1 0 1.5-.2.9-.4 1.1-1.5.3-2.1-.3-.2-.6-.4-.9-.5-.8-.4-1.6-.6-2.4-1.1-1.2-.7-2-1.8-1.9-3.3.1-1.7 1.1-2.8 2.6-3.3.6-.2.6-.2.6-.9V42c0-.5.1-.6.6-.6h.5c1.1 0 1.1 0 1.1 1.1 0 .8 0 .8.8.9.6.1 1.1.3 1.7.5.3.1.4.3.3.6-.1.5-.3.9-.4 1.4-.1.4-.3.5-.7.3-.8-.4-1.7-.6-2.6-.5-.2 0-.5 0-.7.1-.8.4-.9 1.2-.2 1.8.3.3.7.5 1.1.6l2.1.9c2.1 1.2 2.7 3.9 1.2 5.7-.5.7-1.3 1.1-2.1 1.3-.4.1-.5.3-.5.7v1.1c0 .3-.2.5-.5.5h-1.2c-.3 0-.5-.2-.5-.5v-.8c0-.6 0-.6-.6-.7-.7-.1-1.5-.3-2.1-.6-.7-.2-.7-.3-.6-.9z"/></svg>