<svg data-color="1" xmlns="http://www.w3.org/2000/svg" viewBox="10.86400032043457 4.041999816894531 80.6620101928711 92.66199493408203" fill="orange" height="142"><path stroke="#4a1f4f" stroke-width="1.7" d="M50.648 5.042L11.864 27.434v44.878l38.634 22.306.15.086L89.376 72.4l.15-.088V27.434L50.798 5.128l-.15-.086zm-.932 44.534H34.383c-.138 0-.25.112-.25.25s.112.25.25.25H49.72l-37.256 21.6V28.068l37.252 21.508zM59.02 63.81l-7.687-13.3 37.344 21.6-37.78 21.757v-43.11l7.69 13.303c.047.08.13.125.217.125.043 0 .086-.012.125-.034.12-.068.16-.22.09-.34zm-7.44-13.734h15.428c.138 0 .25-.112.25-.25s-.112-.25-.25-.25H51.584L88.927 28.07v43.606l-37.347-21.6zm-.247-.933L59.02 35.89c.07-.12.03-.273-.09-.343-.118-.07-.272-.03-.34.09l-7.69 13.26V5.877l37.776 21.758-37.343 21.508zm-.935-.252L42.755 35.64c-.07-.12-.225-.16-.342-.092-.12.07-.16.222-.092.342l7.645 13.255-37.25-21.507L50.397 5.88v43.01zm-.43 1.62l-7.646 13.3c-.068.12-.027.273.092.343.04.02.082.033.125.033.085 0 .17-.045.216-.126L50.4 50.763v43.104l-37.687-21.76L49.967 50.51z"/></svg>