<svg xmlns="http://www.w3.org/2000/svg" width="34" height="28" viewBox="0 0 34 28"><title>cubes</title><path d="M10 25.5l6-3v-4.906l-6 2.562V25.5zm-1-7.094l6.312-2.703L9 13l-6.312 2.703zM26 25.5l6-3v-4.906l-6 2.562V25.5zm-1-7.094l6.312-2.703L25 13l-6.312 2.703zm-7-4.578l6-2.578V7.094l-6 2.562v4.172zm-1-5.922l6.89-2.953L17 2l-6.89 2.953zM34 16v6.5c0 .75-.422 1.453-1.11 1.78l-7 3.5c-.28.157-.577.22-.89.22s-.61-.063-.89-.22l-7-3.5c-.048-.015-.08-.03-.11-.062-.03.03-.063.047-.11.063l-7 3.5c-.28.157-.577.22-.89.22s-.61-.063-.89-.22l-7-3.5C.42 23.954 0 23.25 0 22.5V16c0-.797.484-1.516 1.22-1.844L8 11.25V5c0-.797.484-1.516 1.22-1.844l7-3C16.47.046 16.734 0 17 0s.53.047.78.156l7 3C25.516 3.484 26 4.203 26 5v6.25l6.78 2.906C33.53 14.484 34 15.203 34 16z"/></svg>