<svg xmlns="http://www.w3.org/2000/svg" width="32" height="32" viewBox="0 0 32 32"><title>dice</title><path d="M27 6H11c-2.75 0-5 2.25-5 5v16c0 2.75 2.25 5 5 5h16c2.75 0 5-2.25 5-5V11c0-2.75-2.25-5-5-5zM13 28c-1.657 0-3-1.343-3-3s1.343-3 3-3 3 1.343 3 3-1.343 3-3 3zm0-12c-1.657 0-3-1.343-3-3s1.343-3 3-3 3 1.343 3 3-1.343 3-3 3zm6 6c-1.657 0-3-1.343-3-3s1.343-3 3-3 3 1.343 3 3-1.343 3-3 3zm6 6c-1.657 0-3-1.343-3-3s1.343-3 3-3 3 1.343 3 3-1.343 3-3 3zm0-12c-1.657 0-3-1.343-3-3s1.343-3 3-3 3 1.343 3 3-1.343 3-3 3zm.9-12c-.468-2.275-2.492-4-4.9-4H5C2.25 0 0 2.25 0 5v16c0 2.408 1.725 4.432 4 4.9V6c0-1.1.9-2 2-2h19.9z"/></svg>