<svg xmlns="http://www.w3.org/2000/svg" viewBox="0 0 455.731 455.731"><path fill="#229CFF" d="M0 0h455.73v455.73H0z"/><g fill="#FFF"><path d="M234.13 184.302h-20.32v86.304h20.32c23.837 0 43.153-19.316 43.153-43.152 0-23.827-19.316-43.152-43.152-43.152z"/><path d="M234.532 59.376c-93.053 0-168.49 75.437-168.49 168.49 0 24.84 5.38 48.413 15.023 69.647l-28.357 67.62 73.546-8.175c29.29 24.585 67.053 39.4 108.278 39.4 93.054 0 168.49-75.438 168.49-168.49 0-93.056-75.436-168.492-168.49-168.492zm5.16 253.698h-73.29v-171.23h73.29c23.636 0 45.044 9.58 60.533 25.078 15.498 15.49 25.08 36.887 25.08 60.532-.002 47.29-38.332 85.62-85.612 85.62z"/></g></svg>