<svg xmlns="http://www.w3.org/2000/svg" viewBox="0 0 100 100"><path d="M85.718 23.156L50.04 5 7.99 29.017l6.174 47.597L50.197 95l41.815-23.828-6.294-48.016zm-8.403 17.942L59.878 76.563 38.838 43.99 77.316 41.1zm-38.88-1.125l12.333-29.09 25.465 26.248-37.8 2.843zm41.77 4.397l7.156 24.455-23.24 8.262L80.205 44.37zm2.562-5.62l.58-2.623 1.094 8.342-1.673-5.72zm-3.245-4.027L59.994 14.595l21.553 10.968-2.025 9.16zm-45.254 4.77l-19.77-9.544L45.906 12.01l-11.638 27.48zM56.084 78.13l-36.766-4.466 16.07-27.574 20.696 32.04zm.123 4.082l-6.586 7.96-22.53-11.496 29.117 3.536zm5.11.157L69 79.637 58.74 85.486l2.58-3.117zm-48.67-48.83l19.81 9.562-15.19 26.06-4.62-35.623z"/></svg>