<svg xmlns="http://www.w3.org/2000/svg" width="32" height="32" viewBox="0 0 32 32"><title>dollar</title><path d="M0 25V7h32v18H0zM2 8.938V23h28V8.938H2zM21 16c0-3.313-2.238-6-5-6h13v12H16c2.762 0 5-2.687 5-6zm4 2c.828 0 1.5-.896 1.5-2s-.672-2-1.5-2-1.5.896-1.5 2 .672 2 1.5 2zm-6.882-4.522c-.015.055-.036.094-.062.12-.027.024-.063.036-.11.036s-.117-.028-.218-.086c-.1-.06-.223-.12-.368-.19-.146-.067-.314-.13-.506-.186s-.402-.083-.63-.083c-.18 0-.337.02-.47.064s-.245.104-.334.18c-.09.077-.156.17-.2.277s-.065.223-.065.343c0 .18.05.335.147.466s.23.247.394.35c.165.102.35.197.56.286.207.09.42.185.637.284.217.1.43.214.637.34s.395.28.557.457.293.385.394.624c.1.24.15.522.15.848 0 .425-.078.797-.236 1.118s-.373.588-.645.802c-.272.215-.588.376-.95.484-.046.014-.096.02-.143.03v1.093h-.983v-.963l-.036.002c-.28 0-.54-.022-.778-.067s-.45-.1-.634-.164-.336-.13-.46-.2-.21-.133-.264-.187c-.054-.054-.093-.132-.116-.234-.023-.103-.035-.25-.035-.44 0-.13.005-.238.014-.326s.022-.158.04-.213.044-.093.076-.116c.03-.022.067-.034.11-.034.057 0 .14.034.246.103s.243.145.41.228c.166.084.364.16.596.23.23.067.5.102.803.102.2 0 .38-.024.537-.072s.293-.115.403-.203.194-.195.253-.324c.06-.13.088-.273.088-.433 0-.183-.05-.34-.15-.472-.1-.13-.23-.246-.39-.35-.16-.1-.343-.196-.547-.286s-.415-.185-.632-.284c-.216-.1-.427-.213-.63-.34s-.387-.28-.547-.456c-.16-.177-.29-.387-.39-.628s-.15-.53-.15-.868c0-.388.073-.728.216-1.02s.337-.538.58-.73.532-.34.863-.435c.17-.05.345-.085.525-.11V10.81h.983v1.034c.04.005.078.003.117.01.19.028.37.067.537.117.167.05.314.105.444.168.13.062.214.113.256.155s.07.076.085.105c.014.03.026.068.037.116s.018.108.02.182c.005.072.007.163.007.27 0 .122-.002.225-.008.31-.01.078-.02.148-.034.202zM11 16c0 3.313 2.238 6 5 6H3V10h13c-2.762 0-5 2.687-5 6zm-4-2c-.83 0-1.5.896-1.5 2s.67 2 1.5 2c.828 0 1.5-.896 1.5-2s-.672-2-1.5-2z"/></svg>