<svg xmlns="http://www.w3.org/2000/svg" viewBox="0 0 455.731 455.731"><path fill="#ED4989" d="M0 0h455.73v455.73H0z"/><path d="M227.866 55.375c-95.27 0-172.49 77.23-172.49 172.49s77.22 172.492 172.49 172.492c95.26 0 172.49-77.23 172.49-172.49s-77.23-172.492-172.49-172.492zm145.51 170.577c-19.72-5.696-40.564-8.75-62.118-8.75-13.018 0-25.776 1.113-38.184 3.25-4.025-9.603-8.194-18.794-12.407-27.536 58.92-25.2 80.356-56.53 80.356-56.53l.01-.01c19.855 24.53 31.903 55.65 32.343 89.576zM227.866 82.346c37.034 0 70.85 13.836 96.537 36.63l-.01.008c-19.62 22.614-46.8 38.74-75.818 50.232-28.004-51.993-54.59-82.9-54.59-82.9 10.872-2.596 22.22-3.97 33.88-3.97zM164.85 96.658s25.443 32.64 53.097 82.935c-66.6 19.146-132.475 18.13-132.475 18.13h-.01c9.408-44.66 39.3-81.776 79.387-101.065zM82.336 227.866c0-1.276.018-2.543.045-3.81h.01c62.234.333 110.902-8.21 148.385-20.088 3.872 7.736 7.736 15.777 11.51 24.078-51.59 16.72-94.957 51.687-122.485 97.292-23.288-25.804-37.465-59.98-37.465-97.472zm145.53 145.52c-33.17 0-63.736-11.097-88.22-29.775 24.492-43.196 64.823-76.23 113.087-91.208 13.8 34.114 25.31 71.57 30.79 109.95-17.142 7.116-35.947 11.033-55.658 11.033zm80.83-24.5c-5.048-37.358-14.446-72.1-25.784-103.294 9.254-1.34 18.723-2.03 28.346-2.03 20.915 0 41.067 3.252 59.98 9.3-6.91 39.96-30.126 74.335-62.542 96.023z" fill="#FFF"/></svg>