<svg xmlns="http://www.w3.org/2000/svg" width="32" height="32" viewBox="0 0 32 32"><title>droplet</title><path d="M27.02 14.786C24.965 9.054 20.61 3.906 16 0 11.39 3.907 7.035 9.054 4.98 14.786c-1.27 3.545-1.396 7.393.393 10.794C7.43 29.49 11.58 32 16 32s8.568-2.51 10.625-6.42c1.79-3.4 1.664-7.25.393-10.794zm-3.934 8.93C21.716 26.32 18.936 28 16 28c-1.723 0-3.39-.58-4.753-1.583.414.054.832.083 1.254.083 3.67 0 7.147-2.1 8.857-5.35 1.402-2.666 1.28-5.434.746-7.637.455.88.84 1.756 1.15 2.623.707 1.97 1.252 4.886-.167 7.58z"/></svg>