<svg xmlns="http://www.w3.org/2000/svg" width="24" height="24" viewBox="0 0 24 24"><title>fiber_new</title><path d="M20.484 14.016V9h-1.22v4.5H18.14V9.984h-1.266V13.5H15.75V9h-1.267v5.016c0 .563.47.984 1.03.984H19.5c.563 0 .984-.422.984-.984zm-6.984-3.75V9H9.516v6H13.5v-1.266h-2.484v-1.078H13.5V11.39h-2.484v-1.125H13.5zM8.484 15V9h-1.22v3.516L4.735 9h-1.22v6h1.22v-3.516L7.312 15h1.172zM20.016 3.984c1.125 0 1.97.89 1.97 2.016v12c0 1.125-.845 2.016-1.97 2.016H3.986c-1.126 0-1.97-.89-1.97-2.016V6c0-1.125.844-2.016 1.97-2.016h16.03z"/></svg>