<svg xmlns="http://www.w3.org/2000/svg" width="32" height="32" viewBox="0 0 32 32"><title>fitbit</title><path d="M17.73 2.433c0 1.3-1.08 2.38-2.38 2.38-1.296 0-2.38-1.08-2.38-2.38 0-1.297 1.085-2.38 2.38-2.38 1.3 0 2.38 1.084 2.38 2.38zm-2.38 4.324c-1.404 0-2.485 1.08-2.485 2.488 0 1.404 1.08 2.487 2.487 2.487 1.404 0 2.487-1.08 2.487-2.487s-1.1-2.488-2.5-2.488h.01zm0 6.706c-1.404 0-2.594 1.188-2.594 2.593s1.192 2.593 2.596 2.593 2.595-1.19 2.595-2.594-1.192-2.593-2.595-2.593h-.003zm0 6.81c-1.404 0-2.485 1.08-2.485 2.484s1.08 2.488 2.487 2.488c1.404 0 2.487-1.08 2.487-2.488 0-1.296-1.1-2.485-2.5-2.485h.01zm0 6.92c-1.297 0-2.38 1.08-2.38 2.38 0 1.292 1.084 2.374 2.38 2.374 1.302 0 2.38-1.08 2.38-2.38 0-1.296-1.08-2.374-2.38-2.374zM21.946 6.43c-1.515 0-2.81 1.304-2.81 2.816s1.296 2.81 2.81 2.81c1.513 0 2.808-1.3 2.808-2.81 0-1.513-1.296-2.812-2.808-2.812V6.43zm0 6.707c-1.62 0-2.92 1.297-2.92 2.92 0 1.62 1.3 2.916 2.92 2.916s2.92-1.295 2.92-2.92c0-1.62-1.3-2.916-2.92-2.916zm0 6.81c-1.515 0-2.81 1.302-2.81 2.81 0 1.513 1.296 2.812 2.81 2.812s2.808-1.302 2.808-2.813-1.295-2.81-2.808-2.81zm6.808-7.136c-1.728 0-3.24 1.408-3.24 3.246 0 1.73 1.4 3.244 3.24 3.244 1.84 0 3.245-1.42 3.245-3.26-.11-1.842-1.513-3.24-3.245-3.24v.01zM8.648 7.084c-1.19 0-2.16.973-2.16 2.164 0 1.188.972 2.16 2.16 2.16 1.19 0 2.16-.972 2.16-2.16 0-1.19-.97-2.16-2.16-2.16v-.004zm0 6.702c-1.297 0-2.27.972-2.27 2.27 0 1.3.96 2.272 2.26 2.272s2.26-.973 2.26-2.27c0-1.3-.98-2.272-2.28-2.272h.03zm0 6.81c-1.19 0-2.16.975-2.16 2.16 0 1.193.972 2.164 2.16 2.164 1.19 0 2.16-.98 2.16-2.18s-.97-2.16-2.16-2.16v.015zm-6.7-6.484C.864 14.11 0 14.973 0 16.057 0 17.136.864 18 1.947 18c1.08 0 1.945-.863 1.945-1.944s-.864-1.945-1.944-1.945z"/></svg>