<svg xmlns="http://www.w3.org/2000/svg" width="24" height="24" viewBox="0 0 24 24"><title>flag13</title><path d="M5 13.397v-9.86c.06-.028.126-.06.203-.09C5.69 3.244 6.573 3 8 3c.398 0 .778.04 1.15.113.246.047.49.108.733.18.168.048.337.103.506.162.407.14.81.302 1.24.474.297.118.608.243.925.36.132.05.267.1.403.146.194.067.393.132.597.19.295.087.6.164.917.225.482.094.99.15 1.528.15 1.292 0 2.273-.173 3-.397v9.86c-.06.028-.126.06-.203.09-.487.202-1.37.447-2.797.447-.398 0-.778-.04-1.15-.113-.247-.047-.49-.108-.733-.18-.168-.048-.337-.103-.506-.162-.118-.04-.237-.084-.357-.13-.29-.107-.58-.223-.88-.344-.422-.167-.87-.346-1.33-.506-.194-.067-.393-.132-.597-.19-.295-.087-.6-.164-.917-.225C9.045 13.055 8.54 13 8 13c-1.292 0-2.273.173-3 .397zM5 22v-6.462c.06-.03.126-.06.203-.092C5.69 15.246 6.573 15 8 15c.398 0 .778.04 1.15.113.247.047.49.108.733.18.168.048.337.103.506.162.407.14.81.302 1.24.474.297.118.608.243.925.36.132.05.267.1.403.146.194.067.393.132.597.19.295.087.6.164.917.225.482.094.99.15 1.528.15 1.66 0 2.807-.285 3.562-.598.713-.295 1.057-.607 1.145-.695.195-.195.293-.45.293-.707V3c0-.552-.448-1-1-1-.265 0-.506.103-.685.27-.026.022-.183.145-.52.284C18.31 2.754 17.43 3 16 3c-.398 0-.778-.04-1.15-.113-.247-.047-.49-.108-.733-.18-.168-.048-.337-.103-.506-.162-.118-.04-.237-.084-.357-.13-.29-.107-.58-.223-.88-.344-.422-.167-.87-.346-1.33-.506-.194-.067-.393-.132-.597-.19-.295-.087-.6-.164-.917-.225C9.045 1.055 8.54 1 8 1c-1.66 0-2.807.285-3.562.598-.713.295-1.057.607-1.145.695C3.098 2.488 3 2.743 3 3v19c0 .552.448 1 1 1s1-.448 1-1z"/></svg>