<svg xmlns="http://www.w3.org/2000/svg" width="24" height="28" viewBox="0 0 24 28"><title>floppy-o</title><path d="M6 24h12v-6H6v6zm14 0h2V10c0-.297-.266-.938-.47-1.14l-4.39-4.392c-.22-.22-.828-.47-1.14-.47v6.5c0 .83-.673 1.5-1.5 1.5h-9c-.83 0-1.5-.67-1.5-1.5V4H2v20h2v-6.5c0-.827.67-1.5 1.5-1.5h13c.827 0 1.5.673 1.5 1.5V24zM14 9.5v-5c0-.266-.234-.5-.5-.5h-3c-.266 0-.5.234-.5.5v5c0 .266.234.5.5.5h3c.266 0 .5-.234.5-.5zm10 .5v14.5c0 .828-.672 1.5-1.5 1.5h-21C.672 26 0 25.328 0 24.5v-21C0 2.672.672 2 1.5 2H16c.828 0 1.97.47 2.562 1.062l4.375 4.375C23.53 8.03 24 9.17 24 10z"/></svg>