<svg xmlns="http://www.w3.org/2000/svg" viewBox="0 0 128 128"><path d="M10.3 45.6c.4 0 .8-.3.8-.8V33.5c0-.4-.3-.8-.8-.8-.4 0-.8.3-.8.8v11.4c0 .4.4.7.8.7zM11 52.3v-3.7c0-.4-.3-.8-.8-.8-.4 0-.8.3-.8.8v3.7c0 .4.3.8.8.8s.8-.4.8-.8zM110.2 84.8c-.4 0-.8.3-.8.8V97c0 .4.3.8.8.8.4 0 .8-.3.8-.8V85.5c0-.4-.3-.7-.8-.7zM110.2 99.9c-.4 0-.8.3-.8.8v3.7c0 .4.3.8.8.8.4 0 .8-.3.8-.8v-3.7c0-.4-.3-.8-.8-.8zM111.6 59.7c-.3-.3-.8-.3-1.1 0-.3.3-.3.8 0 1.1l1.7 1.7c.1.1.3.2.5.2s.4-.1.5-.2c.3-.3.3-.8 0-1.1l-1.6-1.7zM117.2 65.4c-.3-.3-.8-.3-1.1 0-.3.3-.3.8 0 1.1l1.7 1.7c.1.1.3.2.5.2s.4-.1.5-.2c.3-.3.3-.8 0-1.1l-1.6-1.7zM112.3 65.4l-1.7 1.7c-.3.3-.3.8 0 1.1.1.1.3.2.5.2s.4-.1.5-.2l1.7-1.7c.3-.3.3-.8 0-1.1-.3-.3-.7-.3-1 0zM119 59.7c-.3-.3-.8-.3-1.1 0l-1.7 1.7c-.3.3-.3.8 0 1.1.1.1.3.2.5.2s.4-.1.5-.2l1.7-1.7c.3-.3.3-.8.1-1.1zM87.2 117.8c-.3-.3-.8-.3-1.1 0-.3.3-.3.8 0 1.1l1.7 1.7c.1.1.3.2.5.2s.4-.1.5-.2c.3-.3.3-.8 0-1.1l-1.6-1.7zM92.8 123.5c-.3-.3-.8-.3-1.1 0-.3.3-.3.8 0 1.1l1.7 1.7c.1.1.3.2.5.2s.4-.1.5-.2c.3-.3.3-.8 0-1.1l-1.6-1.7zM87.9 123.5l-1.7 1.7c-.3.3-.3.8 0 1.1.1.1.3.2.5.2s.4-.1.5-.2l1.7-1.7c.3-.3.3-.8 0-1.1-.3-.3-.7-.3-1 0zM93.5 117.8l-1.7 1.7c-.3.3-.3.8 0 1.1.1.1.3.2.5.2s.4-.1.5-.2l1.7-1.7c.3-.3.3-.8 0-1.1s-.7-.3-1 0zM6.3 83.7c-.3-.3-.8-.3-1.1 0-.3.3-.3.8 0 1.1l1.7 1.7c.1.1.3.2.5.2s.4-.1.5-.2c.3-.3.3-.8 0-1.1l-1.6-1.7zM13.6 92.1c.3-.3.3-.8 0-1.1l-1.7-1.7c-.3-.3-.8-.3-1.1 0-.3.3-.3.8 0 1.1l1.7 1.7c.1.1.3.2.5.2.3 0 .5-.1.6-.2zM6.9 89.3L5.2 91c-.3.3-.3.8 0 1.1.1.1.3.2.5.2s.4-.1.5-.2L8 90.3c.3-.3.3-.8 0-1.1-.3-.2-.8-.2-1.1.1zM12.5 83.7l-1.7 1.7c-.3.3-.3.8 0 1.1.1.1.3.2.5.2s.4-.1.5-.2l1.7-1.7c.3-.3.3-.8 0-1.1-.2-.3-.7-.3-1 0zM15.7 10.5c2.1 0 3.9-1.7 3.9-3.9 0-2.1-1.7-3.9-3.9-3.9-2.1 0-3.9 1.7-3.9 3.9s1.8 3.9 3.9 3.9zm0-6.2C17 4.3 18 5.4 18 6.7 18 8 17 9 15.7 9s-2.4-1-2.4-2.3c0-1.3 1.1-2.4 2.4-2.4zM119.2 118.2c-2.1 0-3.9 1.7-3.9 3.9 0 2.1 1.7 3.9 3.9 3.9 2.1 0 3.9-1.7 3.9-3.9-.1-2.2-1.8-3.9-3.9-3.9zm0 6.2c-1.3 0-2.3-1.1-2.3-2.3 0-1.3 1.1-2.3 2.3-2.3 1.3 0 2.3 1.1 2.3 2.3 0 1.2-1 2.3-2.3 2.3zM105.5 32.5c-2.1 0-3.9 1.7-3.9 3.9 0 2.1 1.7 3.9 3.9 3.9 2.1 0 3.9-1.7 3.9-3.9s-1.8-3.9-3.9-3.9zm0 6.2c-1.3 0-2.3-1.1-2.3-2.3 0-1.3 1.1-2.3 2.3-2.3 1.3 0 2.3 1.1 2.3 2.3.1 1.3-1 2.3-2.3 2.3zM111 1.3c0-.4-.3-.8-.8-.8H96.5c-.4 0-.8.3-.8.8s.4.7.8.7h13.7c.5 0 .8-.3.8-.7zM114.7 2h4.4c.4 0 .8-.3.8-.8s-.3-.8-.8-.8h-4.4c-.4 0-.8.3-.8.8s.4.8.8.8zM119.9 6c0-.4-.3-.8-.8-.8h-9.6c-.4 0-.8.3-.8.8s.3.8.8.8h9.6c.5-.1.8-.4.8-.8zM102.4 5.2c-.4 0-.8.3-.8.8s.3.8.8.8h3.1c.4 0 .8-.3.8-.8s-.3-.8-.8-.8h-3.1zM36.1 126H22.4c-.4 0-.8.3-.8.8 0 .4.3.8.8.8h13.7c.4 0 .8-.3.8-.8s-.4-.8-.8-.8zM17.9 126h-4.4c-.4 0-.8.3-.8.8 0 .4.3.8.8.8h4.4c.4 0 .8-.3.8-.8s-.4-.8-.8-.8zM12.7 122c0 .4.3.8.8.8H23c.4 0 .8-.3.8-.8 0-.4-.3-.8-.8-.8h-9.6c-.3.1-.7.4-.7.8zM30.2 122.8c.4 0 .8-.3.8-.8 0-.4-.3-.8-.8-.8h-3.1c-.4 0-.8.3-.8.8 0 .4.3.8.8.8h3.1zM22.1 42c.4 0 .8-.3.8-.8C22.8 22.4 38.2 7 57 7c18.9 0 34.2 15.4 34.2 34.2v35.4c0 .4.3.8.8.8.4 0 .8-.3.8-.8V41.3c0-19.7-16-35.7-35.7-35.7-19.7 0-35.7 16-35.7 35.7-.1.4.2.7.7.7z"/><path d="M92 86.7c-5.5 0-10-4.5-10-10V41.3c0-13.7-11.2-24.9-24.9-24.9S32.2 27.6 32.2 41.3v.2c0 5.5-4.5 10-10 10-.4 0-.8.3-.8.8 0 .4.3.8.8.8 6.4 0 11.5-5.2 11.5-11.5v-.1-.1C33.7 28.5 44.2 18 57.1 18 70 18 80.5 28.5 80.5 41.4v35.4c0 6.4 5.2 11.5 11.5 11.5.4 0 .8-.3.8-.8-.1-.4-.4-.8-.8-.8z"/><path d="M92 81.3c-2.5 0-4.6-2.1-4.6-4.6V41.3C87.4 24.6 73.8 11 57.1 11c-16.7 0-30.3 13.6-30.3 30.3v.2c0 2.5-2.1 4.6-4.6 4.6-.4 0-.8.3-.8.8s.3.8.8.8c3.4 0 6.1-2.7 6.1-6.1v-.1-.1c0-15.9 12.9-28.8 28.8-28.8s28.8 12.9 28.8 28.8v35.4c0 3.4 2.7 6.1 6.1 6.1.4 0 .8-.3.8-.8-.1-.5-.4-.8-.8-.8z"/><path d="M64.9 40.6c-.4 0-.8.3-.8.8v35.3c0 7.4 2.9 14.4 8.1 19.6 4.3 4.3 9.7 7.1 15.6 7.9h.1c.4 0 .7-.3.7-.7.1-.4-.2-.8-.6-.8-5.6-.8-10.7-3.3-14.8-7.5-5-5-7.7-11.6-7.7-18.6V41.3c.2-.3-.1-.7-.6-.7z"/><path d="M90.4 97.5c-5-.4-9.6-2.5-13.2-6.1-3.9-3.9-6.1-9.2-6.1-14.8V41.2c0-3.8-1.5-7.3-4.1-9.9-2.7-2.7-6.2-4.1-9.9-4.1-.4 0-.8.3-.8.8 0 .4.3.8.8.8 3.4 0 6.5 1.3 8.9 3.7 2.4 2.4 3.7 5.5 3.7 8.9v35.4c0 6 2.3 11.6 6.6 15.8 3.7 3.7 8.7 6 14 6.4h.1c.4 0 .7-.3.8-.7-.1-.4-.4-.8-.8-.8z"/><path d="M91.7 93.6h.3c.4 0 .8-.3.8-.8 0-.4-.3-.8-.8-.8h-.3c-8.4 0-15.2-7-15.2-15.3V41.3c0-10.7-8.7-19.5-19.5-19.5-10.7 0-19.5 8.7-19.5 19.5v.2C37.6 50 30.6 57 22.1 57c-.4 0-.8.3-.8.8 0 .4.3.8.8.8 9.4 0 17-7.6 17-17v-.2c0-9.9 8.1-18 18-18s18 8.1 18 18v35.4c-.1 9.1 7.4 16.7 16.6 16.8z"/><path d="M44.5 63.9c-6 6-13.9 9.3-22.4 9.3-.4 0-.8.3-.8.8s.3.8.8.8c8.9 0 17.2-3.5 23.5-9.7 6.3-6.3 9.7-14.6 9.7-23.5v-.2c0-1.9-1.6-3.5-3.5-3.5-1.7 0-3.1 1.2-3.4 2.8v.9c0 7-2.7 13.6-7.7 18.6-5 5-11.6 7.7-18.6 7.7-.4 0-.8.3-.8.8 0 .4.3.8.8.8 7.4 0 14.4-2.9 19.6-8.1 5.3-5.3 8.1-12.2 8.1-19.7V41c.2-.9 1-1.5 1.9-1.5 1.1 0 2 .9 2 2v.2c.1 8.3-3.2 16.2-9.2 22.2zM32.8 106.3c1.2-.2 2.3-.4 3.5-.7 1.1-.3 2.3-.5 3.5-.9 1.2-.3 2.3-.7 3.4-1l3.3-1.2c.4-.2.6-.6.4-1-.2-.4-.6-.6-1-.4l-3.3 1.2c-1.1.4-2.2.7-3.3 1-1.1.3-2.3.6-3.4.8-1.1.2-2.3.5-3.4.7-.4.1-.7.5-.6.9.1.4.4.6.7.6h.2zM52.5 106.5c.3.5.7.9 1.1 1.3.4.4.7.9 1.1 1.3.4.4.8.9 1.2 1.3l1.2 1.2c1.2 1.2 2.4 2.3 3.6 3.3.1.1.3.2.5.2s.4-.1.6-.3c.3-.3.2-.8-.1-1.1-1.2-1-2.4-2.1-3.5-3.2l-1.2-1.2c-.4-.4-.8-.8-1.1-1.2-.4-.4-.7-.8-1.1-1.3-.3-.4-.7-.9-1-1.3-.3-.4-.7-.9-1-1.3-.3-.4-.6-.9-.9-1.4-.2-.3-.7-.4-1-.2-.3.2-.4.7-.2 1 .3.5.6.9 1 1.4.1.6.5 1 .8 1.5zM50.4 118.2c-1.6-1.6-3.1-3.3-4.5-5-.2-.2-.5-.3-.8-.2-2.9.9-5.8 1.7-8.8 2.2-.4.1-.7.5-.6.9.1.4.5.7.9.6 2.8-.5 5.7-1.3 8.5-2.1 1.3 1.7 2.8 3.3 4.3 4.8 1.3 1.3 2.7 2.6 4.1 3.8.1.1.3.2.5.2s.4-.1.6-.3c.3-.3.2-.8-.1-1.1-1.4-1.2-2.8-2.5-4.1-3.8z"/><path d="M63 121.5c-3.1-2-6.1-4.4-8.8-7.1-2.3-2.3-4.5-4.9-6.3-7.6-.2-.3-.6-.4-.9-.3-5.1 1.9-10.4 3.3-15.9 4-.4.1-.7.4-.6.8.1.4.4.7.8.7 5.4-.7 10.6-2 15.7-3.9 1.8 2.6 3.9 5.1 6.2 7.3 2.8 2.8 5.8 5.2 9 7.3.1.1.3.1.4.1.2 0 .5-.1.6-.3.3-.3.2-.7-.2-1z"/><path d="M76.4 116.3c-5.4-2.1-10.3-5.3-14.5-9.5-4-4-7.2-8.7-9.3-14-.1-.2-.2-.4-.5-.4-.2-.1-.4 0-.6.1-8.2 4.8-17.3 7.4-26.9 7.8-.4 0-.7.4-.7.8s.4.7.8.7c9.6-.4 18.6-2.9 26.9-7.6 2.2 5.1 5.3 9.7 9.3 13.7 4.3 4.3 9.4 7.7 15 9.9.1 0 .2.1.3.1.3 0 .6-.2.7-.5.1-.5-.1-1-.5-1.1z"/><path d="M81.4 112.3c-5.8-1.7-11.2-5-15.6-9.3-5.1-5.1-8.6-11.5-10.1-18.5-.1-.3-.2-.5-.5-.6-.2-.1-.5-.1-.7.1-9.1 7-20 10.7-31.5 10.9-.4 0-.7.3-.7.8 0 .4.4.7.8.7 11.4-.2 22.3-3.8 31.4-10.5 1.7 6.8 5.2 13.1 10.2 18.2 4.5 4.5 10.2 7.9 16.2 9.7h.2c.3 0 .6-.2.7-.5.2-.5 0-.9-.4-1z"/><path d="M85.3 107.7c-5.9-1.3-11.4-4.2-15.7-8.6-6-6-9.3-13.9-9.3-22.4v-4-.2c-.1-.4-.4-.6-.8-.6-.3 0-.5.2-.6.4-.9 1.1-1.9 2.1-2.9 3.1-9 9-20.9 14-33.6 14-.4 0-.8.3-.7.8 0 .4.3.7.8.7 13.1-.1 25.4-5.2 34.7-14.5.6-.6 1.2-1.2 1.7-1.8v2c0 8.9 3.5 17.2 9.7 23.5 4.6 4.6 10.3 7.7 16.5 9h.2c.3 0 .7-.2.7-.6 0-.3-.3-.7-.7-.8z"/><path d="M53.2 72.6c3.2-3.2 5.9-6.9 8-10.9.2-.4 0-.8-.3-1-.4-.2-.8 0-1 .3-2 3.9-4.6 7.4-7.7 10.6-8 8-18.7 12.5-30.1 12.5-.4 0-.8.3-.8.8 0 .4.3.8.8.8 11.8-.2 22.8-4.7 31.1-13.1z"/><path d="M51.8 32.3c-4.9 0-8.9 4-8.9 8.9 0 .1 0 .2.1.3 0 5.6-2.2 10.8-6.1 14.7-3.9 3.9-9.2 6.1-14.8 6.1-.4 0-.8.3-.8.8s.3.8.8.8c6 0 11.6-2.3 15.8-6.6 4.2-4.2 6.6-9.8 6.6-15.8v-.2c0-.1 0-.2-.1-.3.1-4 3.4-7.1 7.4-7.1 4.1 0 7.4 3.3 7.4 7.4v.2c0 9.9-3.9 19.2-10.9 26.2S32 78.6 22.1 78.6c-.4 0-.8.3-.8.8s.3.8.8.8c10.3 0 20-4 27.3-11.3 7.3-7.3 11.3-17 11.3-27.3v-.2c0-5.1-4-9.1-8.9-9.1z"/></svg>