<svg xmlns="http://www.w3.org/2000/svg" width="20" height="20" viewBox="0 0 20 20"><title>gauge</title><path d="M8.127 13.6c-.69 1.197-.225 2.18.732 2.732.955.553 2.04.465 2.73-.732.69-1.195 5.048-11.865 4.67-12.084S8.816 12.404 8.126 13.6zM10 6c.438 0 .864.037 1.28.11.44-.55.93-1.155 1.406-1.73C11.834 4.136 10.934 4 10 4 4.393 4 0 8.73 0 14.766c0 .37.016.742.05 1.103.048.55.54.954 1.083.907.55-.05.957-.535.908-1.086-.026-.3-.04-.614-.04-.924C2 9.85 5.514 6 10 6zm7.22 1.25c-.28.75-.575 1.514-.835 2.174C17.4 10.894 18 12.738 18 14.766c0 .316-.015.635-.043.943-.05.55.355 1.036.905 1.087.03.002.06.004.092.004.51 0 .948-.39.995-.91.032-.37.05-.747.05-1.124 0-2.954-1.053-5.59-2.78-7.516z"/></svg>