<svg xmlns="http://www.w3.org/2000/svg" width="42" height="32" viewBox="0 0 42 32"><title>gears</title><path d="M3.692 21.72c.176.042.415.26.484.457l.35.844c.08.163.064.484-.03.638L3.1 25.942c-.3.49-.238 1.184.164 1.634l1.183 1.182c.412.366 1.14.432 1.613.145l2.284-1.397c.143-.088.45-.12.665-.018l.842.348c.17.06.387.297.43.473l.626 2.603c.133.552.66 1.006 1.226 1.058 0 0 .347.033.867.033s.868-.032.87-.032c.564-.05 1.09-.505 1.224-1.057l.628-2.604c.042-.176.258-.415.456-.484l.844-.35c.15-.073.494-.058.637.03l2.283 1.397c.2.123.44.188.696.188.344 0 .678-.12.937-.35l1.182-1.184c.38-.43.443-1.123.144-1.613l-1.397-2.284c-.094-.155-.11-.476-.018-.666l.347-.843c.06-.17.297-.386.473-.428l2.604-.627c.552-.133 1.006-.66 1.058-1.226 0 0 .032-.348.032-.868s-.032-.867-.032-.868c-.05-.565-.506-1.092-1.058-1.226l-2.603-.626c-.175-.042-.414-.26-.483-.457l-.35-.844c-.08-.16-.064-.482.03-.636l1.397-2.284c.3-.49.237-1.184-.165-1.634l-1.184-1.182c-.413-.367-1.14-.433-1.613-.145l-2.284 1.396c-.144.087-.452.12-.666.018l-.843-.348c-.17-.06-.385-.297-.427-.473l-.628-2.604c-.133-.553-.66-1.007-1.226-1.06-.003.002-.35-.03-.87-.03s-.867.032-.868.032c-.565.05-1.092.506-1.226 1.058l-.626 2.602c-.042.176-.26.415-.457.484l-.844.35c-.15.073-.495.057-.638-.03L6.06 9.1c-.474-.29-1.186-.24-1.635.163l-1.182 1.183c-.382.43-.444 1.123-.145 1.613l1.397 2.283c.094.154.11.475.018.665l-.348.843c-.06.17-.297.388-.473.43l-2.604.627c-.552.133-1.006.66-1.058 1.226.002 0-.03.347-.03.867s.032.867.032.868c.05.565.506 1.092 1.058 1.226l2.602.626zM1 19c0-.458.027-.767.028-.777.012-.135.165-.312.296-.344l2.604-.628c.505-.122 1.014-.584 1.172-1.047l.324-.787c.228-.467.196-1.153-.075-1.597L3.95 11.54c-.067-.11-.048-.33.018-.406L5.11 9.99c.092-.08.324-.1.428-.038l2.284 1.397c.433.264 1.175.282 1.568.087l.788-.326c.49-.168.953-.677 1.075-1.183l.626-2.603c.03-.132.208-.285.343-.297.01 0 .32-.027.777-.027s.767.027.777.028c.135.012.312.165.344.296l.628 2.603c.122.505.583 1.015 1.047 1.173l.787.324c.457.224 1.165.19 1.597-.075L20.46 9.95c.104-.063.35-.03.406.018l1.142 1.14c.086.098.105.317.038.428l-1.397 2.284c-.27.443-.302 1.13-.087 1.568l.326.788c.168.49.677.953 1.183 1.075l2.603.626c.132.03.285.208.297.343 0 .01.027.32.027.777s-.027.767-.028.777c-.012.135-.165.312-.296.344l-2.604.628c-.505.122-1.014.584-1.172 1.047l-.324.787c-.228.467-.196 1.153.075 1.597l1.398 2.282c.067.11.048.33-.018.406l-1.14 1.142c-.055.048-.153.08-.252.08-.07 0-.133-.016-.175-.042L18.18 26.65c-.433-.263-1.175-.282-1.57-.087l-.787.326c-.49.168-.953.678-1.074 1.183l-.628 2.603c-.032.132-.21.285-.344.297-.01 0-.32.027-.778.027s-.767-.027-.777-.028c-.135-.012-.312-.165-.344-.296l-.628-2.604c-.122-.505-.584-1.014-1.047-1.172l-.787-.324c-.204-.1-.45-.152-.715-.152-.33 0-.642.08-.882.228L5.54 28.05c-.104.062-.35.028-.406-.02L3.99 26.89c-.086-.098-.105-.317-.038-.428l1.397-2.284c.27-.443.302-1.13.087-1.568l-.326-.788c-.168-.49-.677-.953-1.183-1.075l-2.603-.626c-.132-.03-.285-.208-.297-.343 0-.01-.027-.32-.027-.777zm12 5.5c3.033 0 5.5-2.467 5.5-5.5s-2.467-5.5-5.5-5.5-5.5 2.467-5.5 5.5 2.467 5.5 5.5 5.5zm0-10c2.48 0 4.5 2.02 4.5 4.5s-2.02 4.5-4.5 4.5-4.5-2.02-4.5-4.5 2.02-4.5 4.5-4.5zm14.477-9.186c-.04.06-.185.138-.26.138l-1.86-.018c-.452 0-.905.32-1.053.746 0 0-.082.233-.172.59s-.128.6-.128.6c-.07.452.18.95.584 1.162l1.64.86c.064.033.157.172.167.273l.093.635c.015.07-.033.23-.084.28l-1.322 1.296c-.33.324-.418.878-.19 1.313l.6 1c.252.37.8.56 1.23.427l1.824-.558c.1 0 .198.037.254.082l.515.38c.06.04.14.187.138.26l-.018 1.85c-.004.457.316.914.746 1.064 0 0 .234.082.59.172s.602.128.602.128c.026.004.13.012.156.012.408 0 .822-.245 1.005-.596l.86-1.64c.033-.064.172-.157.273-.167l.663-.096c.1 0 .217.05.25.085l1.296 1.322c.315.322.846.437 1.313.19l.998-.6c.382-.26.567-.79.43-1.23l-.553-1.767c-.02-.068.012-.232.078-.31l.38-.516c.04-.06.185-.138.26-.138l1.86.018c.452 0 .905-.32 1.053-.746 0 0 .082-.233.172-.59s.128-.6.128-.6c.07-.452-.18-.95-.584-1.162l-1.64-.86c-.064-.033-.157-.172-.167-.273l-.092-.633c-.015-.07.033-.23.084-.28l1.322-1.296c.33-.324.417-.878.19-1.313l-.6-1c-.253-.37-.8-.562-1.23-.428l-1.826.558c-.1 0-.198-.038-.254-.083l-.515-.38c-.06-.04-.14-.187-.138-.26l.018-1.85C36.57.91 36.25.452 35.82.302c0 0-.234-.082-.59-.172s-.602-.127-.602-.127c-.026-.003-.13-.01-.156-.01-.408 0-.822.244-1.005.595l-.86 1.64c-.033.064-.172.157-.273.167l-.663.095c-.1 0-.217-.052-.25-.086l-1.296-1.322c-.314-.32-.844-.437-1.313-.19l-1 .598c-.38.26-.566.79-.428 1.23l.552 1.768c.02.068-.012.232-.078.31l-.38.516zm.82.572l.343-.466c.268-.317.372-.834.248-1.23l-.55-1.765c-.006-.028.016-.09.01-.092l.95-.568.112.017 1.297 1.322c.23.234.61.386.965.386.082 0 .16-.008.204-.02l.575-.084c.413-.036.852-.328 1.044-.694l.86-1.64c.015-.025.078-.06.12-.06.01 0 .214.034.512.108s.493.142.502.146c.03.013.076.078.078.11l-.018 1.852c-.004.414.245.88.567 1.09l.465.342c.31.26.84.37 1.23.248l1.773-.552c.042 0 .09.026.083.013l.568.947c.01.026 0 .092-.017.113l-1.322 1.297c-.295.29-.448.795-.367 1.17l.084.574c.036.413.328.852.695 1.044l1.64.86c.028.017.063.087.06.12 0 .01-.034.214-.108.512s-.143.493-.147.502c-.013.03-.078.076-.11.078l-1.862-.018c-.41 0-.87.25-1.078.567l-.342.465c-.268.317-.372.834-.248 1.23l.55 1.765c.006.027-.016.09-.01.092l-.95.568-.112-.017-1.297-1.322c-.23-.234-.61-.386-.965-.386-.082 0-.16.008-.204.02l-.575.084c-.413.036-.852.328-1.044.694l-.86 1.64c-.015.025-.078.06-.12.06-.01 0-.214-.034-.512-.108-.297-.075-.493-.142-.502-.146-.03-.013-.076-.078-.078-.11l.018-1.852c.004-.414-.245-.88-.567-1.09l-.465-.342c-.222-.188-.55-.3-.875-.3-.126 0-.246.018-.355.052l-1.774.552c-.043 0-.09-.023-.083-.013l-.568-.947c-.01-.026 0-.092.017-.113l1.322-1.297c.295-.29.448-.795.367-1.17l-.083-.573c-.036-.412-.328-.85-.695-1.043l-1.64-.86c-.028-.017-.063-.087-.06-.12 0-.01.034-.214.108-.512.075-.297.142-.493.146-.502.013-.03.078-.076.11-.078l1.862.018c.41 0 .87-.25 1.08-.567zM33 12c1.654 0 3-1.346 3-3s-1.346-3-3-3-3 1.346-3 3 1.346 3 3 3zm0-5c1.103 0 2 .897 2 2s-.897 2-2 2-2-.897-2-2 .897-2 2-2z"/></svg>