<svg xmlns="http://www.w3.org/2000/svg" width="30" height="32" viewBox="0 0 30 32"><title>genius</title><path d="M.567 24c.785 1.36 2.548 2.08 5.097 2.08 1.147 0 2.408-.162 3.723-.44C10.653 29.52 12.674 32 15 32s4.347-2.48 5.613-6.36c1.316.277 2.577.44 3.723.44 2.548 0 4.31-.72 5.096-2.08 1.016-1.76.117-4.72-2.966-8 3.083-3.28 3.982-6.24 2.966-8-.785-1.36-2.548-2.08-5.097-2.08-1.146 0-2.408.162-3.723.44C19.347 2.48 17.326 0 15 0s-4.347 2.48-5.613 6.36C8.07 6.08 6.81 5.92 5.664 5.92c-2.55 0-4.312.72-5.097 2.08C-.45 9.76.45 12.72 3.533 16 .45 19.28-.45 22.24.567 24zM15 31c-1.84 0-3.516-2.2-4.627-5.58 1.503-.38 3.066-.92 4.627-1.598 1.56.68 3.124 1.218 4.627 1.6C18.517 28.8 16.84 31 15 31zM9 16c0-1.164.062-2.297.168-3.393.893-.622 1.837-1.228 2.832-1.803.984-.568 1.99-1.077 3-1.533 1.01.456 2.016.965 3 1.534.995.574 1.938 1.18 2.832 1.803.106 1.096.168 2.23.168 3.393s-.062 2.297-.168 3.393c-.893.622-1.837 1.228-2.832 1.803-.984.568-1.99 1.077-3 1.533-1.01-.456-2.016-.965-3-1.534-.995-.574-1.938-1.18-2.832-1.803C9.062 18.297 9 17.163 9 16zm-.902 2.623c-1.146-.86-2.184-1.745-3.086-2.623.902-.878 1.94-1.762 3.086-2.623C8.038 14.23 8 15.102 8 16s.04 1.77.098 2.623zm1.223-7.337c.185-1.34.443-2.604.765-3.754 1.195.3 2.435.717 3.682 1.22-.762.368-1.522.756-2.267 1.186-.773.447-1.488.897-2.18 1.348zm6.912-2.535c1.247-.5 2.487-.917 3.682-1.218.322 1.15.58 2.413.764 3.754-.69-.45-1.406-.9-2.18-1.348-.743-.43-1.503-.818-2.266-1.187zm5.67 4.627c1.147.86 2.184 1.744 3.086 2.623-.902.878-1.94 1.762-3.086 2.623.06-.854.098-1.725.098-2.623s-.04-1.77-.098-2.623zm-1.223 7.337c-.185 1.34-.443 2.604-.765 3.754-1.195-.3-2.435-.717-3.682-1.22.763-.367 1.523-.756 2.268-1.186.773-.447 1.488-.897 2.18-1.348zm-9.18 1.348c.745.43 1.505.82 2.268 1.187-1.247.5-2.487.917-3.682 1.218-.322-1.15-.58-2.413-.764-3.754.69.45 1.405.9 2.178 1.348zM28.567 23.5c-.588 1.02-2.09 1.58-4.23 1.58-1.056 0-2.218-.147-3.432-.396.396-1.424.693-3.008.877-4.708 1.546-1.084 2.85-2.168 3.94-3.23 2.532 2.683 3.726 5.227 2.845 6.754zm-4.23-16.58c2.14 0 3.642.562 4.23 1.58.88 1.527-.314 4.07-2.846 6.753-1.088-1.06-2.393-2.145-3.94-3.23-.183-1.7-.48-3.283-.876-4.707 1.214-.25 2.377-.395 3.432-.395zM15 1c1.84 0 3.516 2.2 4.627 5.58-1.503.38-3.066.92-4.627 1.598-1.56-.68-3.124-1.218-4.627-1.6C11.483 3.2 13.16 1 15 1zM1.433 8.5c.588-1.02 2.09-1.58 4.23-1.58 1.056 0 2.218.147 3.432.396-.396 1.424-.693 3.008-.877 4.708-1.546 1.084-2.85 2.168-3.94 3.23C1.746 12.57.552 10.026 1.433 8.5zm2.845 8.247c1.09 1.06 2.394 2.145 3.94 3.23.184 1.7.48 3.283.877 4.707-1.213.25-2.375.395-3.43.395h-.002c-2.14 0-3.643-.562-4.23-1.58-.88-1.527.313-4.07 2.845-6.753zM15 18.5c1.378 0 2.5-1.12 2.5-2.5s-1.122-2.5-2.5-2.5-2.5 1.12-2.5 2.5 1.122 2.5 2.5 2.5zm0-4c.827 0 1.5.673 1.5 1.5s-.673 1.5-1.5 1.5-1.5-.673-1.5-1.5.673-1.5 1.5-1.5z"/></svg>