<svg xmlns="http://www.w3.org/2000/svg" viewBox="0 0 24 24"><title>geo-1</title><path d="M7.245 4.757l4.196 6.993-4.195 6.992-3.73-6.992 3.73-6.993zM16.09 4.5l4.2 7h-8.416l-4.2-7h8.417zm4.88 7.28c.002-.012.012-.02.012-.03 0-.012-.01-.018-.012-.03-.002-.023-.01-.04-.018-.062-.005-.012 0-.025-.005-.037l-4.5-7.5c-.006-.01-.02-.01-.026-.017-.02-.027-.044-.04-.074-.056s-.052-.03-.084-.035c-.01-.002-.018-.012-.03-.012h-9c-.013 0-.022.012-.035.014-.023.004-.04.007-.06.016-.012.005-.023 0-.033.005-.01.006-.01.02-.02.026-.018.015-.03.03-.043.048-.007.01-.022.012-.028.024l-4 7.5c-.005.008 0 .017-.003.025-.014.03-.01.06-.01.093s-.004.062.01.092c.003.008-.003.017.002.025l4 7.5c.008.016.023.023.034.036.01.013.018.022.03.032.01.01.016.02.027.028.04.024.084.037.13.037h9c.057 0 .11-.027.155-.064.01-.01.02-.018.03-.03.01-.01.02-.016.03-.028l4.5-7.5c.005-.012 0-.025.004-.037.01-.02.016-.038.018-.06z" fill="#000" fill-rule="evenodd"/></svg>