<svg xmlns="http://www.w3.org/2000/svg" viewBox="0 0 24 24"><title>geo-2b</title><g fill="#000" fill-rule="evenodd"><path d="M4.772 2.757l2.538 4.23-2.538 4.23-2.256-4.23 2.256-4.23zm5.53-.257l2.542 4.236h-5.1L5.2 2.5h5.102zm.296 9.41c.012-.01.02-.018.03-.03.01-.01.022-.016.03-.028L13.5 7.115c.007-.012 0-.025.005-.037.01-.022.016-.04.018-.062.002-.01.013-.018.013-.03 0-.01-.01-.018-.013-.03-.002-.022-.008-.04-.018-.06-.004-.013.002-.026-.005-.038L10.658 2.12c-.006-.01-.02-.01-.026-.017-.02-.027-.046-.04-.075-.056-.03-.016-.052-.03-.084-.035-.01-.002-.018-.012-.03-.012H4.76c-.014 0-.023.012-.036.014-.023.004-.04.007-.06.016-.012.005-.023 0-.033.005-.01.006-.01.02-.018.026-.02.015-.03.03-.044.048-.008.01-.023.012-.03.024L2.013 6.87c-.004.007 0 .016-.002.024-.013.03-.01.06-.01.092 0 .034-.003.063.01.093.003.007-.002.016.002.024L4.54 11.84c.007.017.022.024.033.037.01.012.018.022.03.032.01.007.016.02.027.026v.002c.04.023.084.035.13.035h5.683c.058 0 .11-.026.155-.064zM10.97 13.507l4.506 2.01.347 4.92-4.274-2.17-.58-4.76zm4.383-3.382l4.513 2.012-4.178 2.926-4.513-2.013 4.178-2.925zM21 17.61c0-.01.01-.017.01-.03l-.39-5.51c0-.012-.013-.02-.016-.03-.005-.025-.01-.043-.02-.064-.006-.01-.002-.022-.008-.03-.008-.012-.022-.012-.032-.02-.014-.017-.026-.026-.044-.038-.01-.007-.014-.022-.027-.028l-5.045-2.25c-.01-.005-.02.002-.032 0-.03-.01-.06-.006-.092-.003-.033.003-.062.004-.09.02-.01.005-.022 0-.032.007l-4.656 3.26c-.01.008-.01.023-.02.032-.017.016-.03.03-.04.05-.007.008-.02.01-.025.02-.004.01.004.022 0 .033-.007.02-.008.04-.008.063 0 .013-.012.022-.01.036l.647 5.328c0 .01.01.014.01.024.007.026.023.044.037.067.02.03.037.058.067.078.01.006.01.018.02.023l4.787 2.432c.036.02.075.027.112.027H16.122c.01 0 .014-.01.02-.01.036-.006.07-.014.1-.033.002-.002.005 0 .007-.003l4.657-3.26c.01-.007.008-.02.017-.027.025-.022.036-.048.05-.08.015-.028.028-.053.03-.086z"/></g></svg>