<svg xmlns="http://www.w3.org/2000/svg" width="32" height="32" viewBox="0 0 32 32"><title>gift1</title><path d="M24.11 10c.566-.402 1.11-.85 1.608-1.348 1.044-1.044 1.742-2.328 1.966-3.616.246-1.412-.115-2.723-.988-3.597C26 .74 25.056.373 23.966.373c-1.55 0-3.185.744-4.483 2.043-2.077 2.077-3.288 4.945-3.94 6.99-.482-2.055-1.444-4.832-3.313-6.7-1.003-1.004-2.285-1.52-3.495-1.52-.99 0-1.93.345-2.633 1.047-1.562 1.562-1.35 4.306.47 6.128.65.65 1.41 1.19 2.21 1.638h-6.78v8h2v14h24V18h2v-8h-5.89zm-3.037-5.993c.866-.866 1.948-1.384 2.892-1.384.334 0 .803.07 1.14.406.812.812.356 2.696-.978 4.03-1.373 1.373-3.22 2.318-4.826 2.94h-1.583c.58-1.8 1.627-4.265 3.356-5.994zM7.31 5.027c-.022-.284-.002-.82.38-1.202.32-.32.744-.387 1.043-.387.664 0 1.358.313 1.904.86 1.06 1.057 1.93 2.742 2.52 4.87l.048.17c-.057-.014-.114-.03-.17-.046-2.13-.59-3.814-1.462-4.872-2.52-.495-.496-.805-1.13-.853-1.744zM14 30H6V17h8v13zm0-14H4v-4h10v4zm12 14h-8V17h8v13zm2-14H18v-4h10v4z"/></svg>