<svg xmlns="http://www.w3.org/2000/svg" width="24" height="24" viewBox="0 0 24 24"><title>git-pull-request</title><path d="M20 18c0 .273-.054.53-.15.765-.102.244-.25.464-.436.65s-.406.334-.65.435c-.234.096-.49.15-.764.15s-.53-.054-.765-.15c-.244-.102-.464-.25-.65-.436s-.334-.406-.435-.65c-.096-.234-.15-.49-.15-.764s.054-.53.15-.765c.102-.244.25-.464.436-.65s.406-.334.65-.435c.234-.096.49-.15.764-.15s.53.054.765.15c.244.102.464.25.65.436s.334.406.435.65c.096.234.15.49.15.764zM8 6c0 .273-.054.53-.15.765-.102.244-.25.464-.436.65s-.406.334-.65.435C6.53 7.946 6.274 8 6 8s-.53-.054-.765-.15c-.244-.102-.464-.25-.65-.436s-.334-.406-.435-.65C4.054 6.53 4 6.274 4 6s.054-.53.15-.765c.102-.244.25-.464.436-.65s.406-.334.65-.435C5.47 4.054 5.726 4 6 4s.53.054.765.15c.244.102.464.25.65.436s.334.406.435.65c.096.234.15.49.15.764zm5 1h3c.137 0 .266.027.382.075.122.05.232.125.325.218s.167.203.218.325c.048.116.075.245.075.382v6.126c-.182.047-.36.106-.53.177-.49.203-.93.5-1.298.868s-.665.81-.868 1.3c-.196.473-.304.99-.304 1.53s.108 1.057.303 1.53c.203.49.5.93.868 1.298s.81.665 1.3.868c.473.196.99.304 1.53.304s1.057-.108 1.53-.303c.49-.203.93-.5 1.298-.868s.665-.81.868-1.3c.196-.473.304-.99.304-1.53s-.108-1.057-.303-1.53c-.203-.49-.5-.93-.868-1.298s-.81-.665-1.3-.868c-.17-.07-.347-.13-.53-.177V8c0-.405-.08-.793-.228-1.148-.152-.368-.375-.698-.65-.974s-.607-.5-.975-.65C16.793 5.08 16.405 5 16 5h-3c-.552 0-1 .448-1 1s.448 1 1 1zM5 9.874V21c0 .552.448 1 1 1s1-.448 1-1V9.874c.182-.047.36-.106.53-.177.49-.203.93-.5 1.298-.868s.666-.81.87-1.3C9.89 7.057 10 6.54 10 6s-.108-1.057-.303-1.53c-.203-.49-.5-.93-.868-1.298s-.81-.666-1.3-.87C7.057 2.11 6.54 2 6 2s-1.057.108-1.53.303c-.49.203-.93.5-1.298.868s-.666.81-.87 1.3C2.11 4.943 2 5.46 2 6s.108 1.057.303 1.53c.203.49.5.93.868 1.298s.81.666 1.3.87c.17.07.348.13.53.176z"/></svg>