<svg xmlns="http://www.w3.org/2000/svg" width="24" height="24" viewBox="0 0 24 24"><title>git-merge</title><path d="M20 18c0 .273-.054.53-.15.765-.102.244-.25.464-.436.65s-.406.334-.65.435c-.234.096-.49.15-.764.15s-.53-.054-.765-.15c-.244-.102-.464-.25-.65-.436s-.334-.406-.435-.65c-.096-.234-.15-.49-.15-.764s.054-.53.15-.765c.102-.244.25-.464.436-.65s.406-.334.65-.435c.234-.096.49-.15.764-.15s.53.054.765.15c.244.102.464.25.65.436s.334.406.435.65c.096.234.15.49.15.764zM8 6c0 .273-.054.53-.15.765-.102.244-.25.464-.436.65s-.406.334-.65.435C6.53 7.946 6.274 8 6 8s-.53-.054-.765-.15c-.244-.102-.464-.25-.65-.436s-.334-.406-.435-.65C4.054 6.53 4 6.274 4 6s.054-.53.15-.765c.102-.244.25-.464.436-.65s.406-.334.65-.435C5.47 4.054 5.726 4 6 4s.53.054.765.15c.244.102.464.25.65.436s.334.406.435.65c.096.234.15.49.15.764zM7 21v-6c.284.38.595.737.93 1.07.92.922 2.02 1.665 3.246 2.172.92.38 1.91.63 2.94.72.05.194.112.384.188.567.203.49.5.93.868 1.297s.808.665 1.298.868c.473.197.99.305 1.53.305s1.057-.108 1.53-.303c.49-.203.93-.5 1.298-.868s.665-.81.868-1.3c.196-.473.304-.99.304-1.53s-.108-1.057-.303-1.53c-.203-.49-.5-.93-.868-1.298s-.81-.665-1.3-.868C19.058 14.108 18.54 14 18 14s-1.057.108-1.53.303c-.49.203-.93.5-1.298.868s-.665.81-.868 1.3c-.065.156-.12.317-.165.483-.772-.082-1.51-.274-2.198-.56-.978-.405-1.86-1-2.598-1.738s-1.333-1.62-1.738-2.598c-.285-.69-.477-1.426-.56-2.197.166-.045.327-.1.484-.165.49-.203.93-.5 1.298-.868s.666-.807.87-1.297C9.89 7.057 10 6.54 10 6s-.108-1.057-.303-1.53c-.203-.49-.5-.93-.868-1.298s-.81-.666-1.3-.87C7.057 2.11 6.54 2 6 2s-1.057.108-1.53.303c-.49.203-.93.5-1.298.868s-.666.81-.87 1.3C2.11 4.943 2 5.46 2 6s.108 1.057.303 1.53c.203.49.5.93.868 1.298s.81.666 1.3.87c.17.07.348.13.53.176V21c0 .552.448 1 1 1s1-.448 1-1z"/></svg>