<svg xmlns="http://www.w3.org/2000/svg" width="32" height="32" viewBox="0 0 32 32"><title>git</title><path d="M31.397 14.575L17.425.605c-.804-.806-2.11-.806-2.915 0L11.264 3.85l2.443 2.443C14.1 6.106 14.537 6 15 6c1.657 0 3 1.343 3 3 0 .463-.105.902-.293 1.293l4 4c.39-.188.83-.294 1.292-.294 1.656 0 3 1.342 3 3s-1.344 3-3 3-3-1.344-3-3c0-.464.104-.903.292-1.294l-4-4c-.094.047-.192.087-.292.122v8.343c1.165.413 2 1.523 2 2.83 0 1.657-1.343 3-3 3s-3-1.343-3-3c0-1.306.835-2.417 2-2.83V11.83c-1.165-.412-2-1.522-2-2.83 0-.462.105-.9.293-1.292L9.85 5.263.603 14.51c-.805.805-.805 2.11 0 2.914l13.973 13.97c.804.806 2.11.806 2.915 0L31.398 17.49c.805-.806.805-2.112 0-2.916z"/></svg>