<svg xmlns="http://www.w3.org/2000/svg" width="24" height="24" viewBox="0 0 24 24"><title>github2</title><path d="M8 18.223c-.4.082-.742.113-1.033.11-.336 0-.61-.05-.837-.12-.23-.074-.432-.177-.614-.303-.12-.082-.234-.177-.346-.282-.078-.073-.154-.15-.23-.234-.184-.2-.353-.415-.543-.656-.104-.132-.215-.273-.33-.41l-.14-.167c-.068-.075-.138-.152-.212-.228-.1-.103-.208-.205-.325-.303-.16-.135-.34-.262-.544-.37-.185-.097-.386-.176-.604-.23-.536-.135-1.08.19-1.213.727s.19 1.08.727 1.213c.05.013.102.032.155.06.06.03.124.075.198.136.054.045.11.098.172.16.045.047.09.098.14.153l.108.126c.094.113.19.234.296.37.183.232.397.505.64.77.104.113.215.227.335.34.174.163.365.322.58.47.33.228.71.425 1.148.563.43.135.904.21 1.425.214.33.002.68-.024 1.047-.08V22c0 .552.448 1 1 1s1-.448 1-1v-3.87c0-.02 0-.045-.002-.07-.006-.083-.007-.167-.004-.25.01-.29.073-.577.187-.846.11-.258.27-.502.48-.72.144-.148.245-.346.273-.57.068-.55-.32-1.05-.87-1.117-.34-.042-.676-.094-1.005-.16-.79-.155-1.518-.384-2.147-.732-.348-.193-.665-.422-.945-.696-.25-.244-.475-.527-.67-.86-.21-.352-.387-.767-.52-1.26C4.6 10.222 4.5 9.464 4.5 8.543c-.003-.564.1-1.13.312-1.66.203-.514.506-.998.912-1.424.257-.274.35-.672.213-1.04-.18-.482-.27-.997-.257-1.52.007-.29.045-.58.117-.87.175.037.398.102.673.21.49.19 1.145.517 1.973 1.072.235.157.533.214.825.133 1.997-.557 4.242-.602 6.47.002.27.073.57.033.818-.135.83-.555 1.482-.882 1.973-1.073.274-.108.498-.172.672-.21.07.284.11.576.117.872.01.503-.07 1.017-.258 1.52-.13.353-.058.756.213 1.04.386.406.696.884.907 1.412.205.505.318 1.06.318 1.646 0 .936-.105 1.708-.28 2.347-.14.5-.32.918-.53 1.272-.2.332-.428.614-.68.856-.284.272-.603.498-.955.688-.623.336-1.343.555-2.123.7-.322.06-.65.106-.983.143-.21.023-.42.114-.585.275-.397.384-.408 1.017-.024 1.414.068.07.13.143.19.22.173.228.305.488.386.766.078.267.11.554.087.85 0 .025 0 .052-.003.08V22c0 .552.448 1 1 1s1-.448 1-1v-3.833c.037-.53-.023-1.044-.165-1.53-.037-.125-.08-.25-.127-.37.777-.172 1.563-.428 2.297-.824.492-.266.962-.595 1.388-1.004.38-.365.722-.788 1.014-1.277.31-.52.56-1.106.74-1.765.233-.84.354-1.795.354-2.878 0-.844-.162-1.652-.46-2.393-.23-.576-.54-1.11-.918-1.59.148-.56.212-1.127.198-1.686-.02-.78-.19-1.542-.49-2.245-.123-.283-.36-.482-.636-.564-.146-.042-.51-.114-1.113-.023-.348.053-.77.16-1.275.356-.56.217-1.218.544-1.984 1.03C13.55.86 11.265.892 9.176 1.4 8.41.916 7.752.59 7.195.373 6.69.177 6.266.07 5.917.017c-.602-.092-.967-.02-1.113.024-.296.09-.52.3-.635.566-.313.732-.472 1.494-.49 2.247-.013.574.055 1.14.2 1.686-.394.496-.703 1.038-.928 1.606-.307.774-.457 1.593-.452 2.41 0 1.056.118 1.994.343 2.82.178.654.422 1.235.727 1.752.287.487.624.91 1 1.275.42.41.884.742 1.37 1.012.753.416 1.56.685 2.358.867-.186.47-.287.962-.304 1.457-.005.14-.003.28.005.422z"/></svg>