<svg xmlns="http://www.w3.org/2000/svg" viewBox="0 0 455.73 455.73"><path d="M0 0v455.73h455.73V0H0zm265.67 247.037c-7.793 51.194-45.96 80.543-95.376 80.543-55.53 0-100.552-45.02-100.552-100.552 0-55.517 45.02-100.538 100.552-100.538 26.862 0 50.4 9.586 67.53 26.226l-28.856 28.857c-9.773-9.846-23.147-15.094-38.674-15.094-32.688 0-59.19 27.873-59.19 60.547 0 32.703 26.502 59.768 59.19 59.768 27.397 0 48.144-13.243 54.13-39.758h-54.13v-40.38h95.13c1.143 6.506 1.72 13.315 1.72 20.37 0 6.998-.506 13.663-1.474 20.01zm120.75-12.52h-35.234v35.218H326.16v-35.218h-35.233v-25.04h35.233v-35.234h25.026v35.233h35.233v25.04z" fill="#DD4B39"/></svg>