<svg xmlns="http://www.w3.org/2000/svg" width="24" height="24" viewBox="0 0 24 24"><title>grain</title><path d="M9.984 3.984C11.062 3.984 12 4.922 12 6s-.938 2.016-2.016 2.016S8.014 7.078 8.014 6s.892-2.016 1.97-2.016zm4.032 4.032c1.078 0 1.97.89 1.97 1.97S15.093 12 14.015 12 12 11.064 12 9.986s.938-1.97 2.016-1.97zM18 12c1.078 0 2.016.938 2.016 2.016s-.938 1.97-2.016 1.97-2.016-.892-2.016-1.97S16.922 12 18 12zm-3.984 3.984c1.078 0 1.97.938 1.97 2.016s-.892 2.016-1.97 2.016S12 19.078 12 18s.938-2.016 2.016-2.016zM18 8.016c-1.078 0-2.016-.938-2.016-2.016S16.922 3.984 18 3.984s2.016.938 2.016 2.016S19.078 8.016 18 8.016zM6 15.984c1.078 0 2.016.938 2.016 2.016S7.078 20.016 6 20.016 3.984 19.078 3.984 18 4.922 15.984 6 15.984zm0-7.968c1.078 0 2.016.89 2.016 1.97S7.078 12 6 12s-2.016-.937-2.016-2.015.938-1.97 2.016-1.97zM9.984 12c1.078 0 2.016.938 2.016 2.016s-.938 1.97-2.016 1.97-1.97-.892-1.97-1.97S8.907 12 9.985 12z"/></svg>