<svg xmlns="http://www.w3.org/2000/svg" width="24" height="24" viewBox="0 0 24 24"><title>graphql</title><path fill="#e10098" d="M14.05 2.75l4.936 2.85c.816-.858 2.173-.892 3.032-.076.148.14.274.3.377.477.59 1.03.232 2.34-.796 2.93-.175.1-.362.174-.56.222v5.7c1.147.272 1.855 1.422 1.58 2.568-.047.204-.126.4-.23.58-.593 1.024-1.902 1.375-2.928.783-.196-.113-.375-.26-.526-.43l-4.905 2.833c.373 1.124-.237 2.335-1.36 2.706-.217.07-.442.108-.67.108-1.18 0-2.14-.955-2.14-2.136 0-.205.03-.41.088-.61L5.012 18.41c-.816.854-2.17.887-3.026.07-.854-.816-.886-2.17-.07-3.026.283-.297.646-.506 1.044-.603v-5.7c-1.15-.276-1.857-1.433-1.58-2.584.047-.198.123-.39.224-.566.592-1.024 1.902-1.374 2.927-.782.178.1.34.228.48.377l4.94-2.85c-.337-1.133.31-2.322 1.44-2.657.197-.06.404-.088.61-.088 1.18 0 2.14.954 2.14 2.134 0 .21-.03.418-.09.617zm-.514.878c-.02.02-.037.04-.058.058l6.46 11.19c.027-.01.057-.016.083-.023V9.146c-1.144-.283-1.84-1.442-1.557-2.588.006-.024.012-.05.02-.072l-4.947-2.858zm-3.015.06l-.06-.06-4.945 2.85c.327 1.136-.327 2.32-1.46 2.646l-.077.02v5.71l.084.022 6.46-11.19zm2.077.506c-.39.112-.803.112-1.192 0l-6.46 11.19c.294.282.502.644.6 1.04h12.91c.098-.398.308-.76.604-1.044L12.596 4.194zm.986 16.227l4.913-2.837c-.015-.047-.027-.094-.038-.142H5.542l-.02.084 4.938 2.852c.388-.404.934-.653 1.54-.653.627 0 1.19.27 1.583.698z"/></svg>