<svg xmlns="http://www.w3.org/2000/svg" width="32" height="32" viewBox="0 0 32 32"><title>high-five1</title><path d="M19.967 10.26V6.504c0-.842.672-1.504 1.5-1.504.834 0 1.5.673 1.5 1.504V16h1V9.49c0-.828.672-1.49 1.5-1.49.834 0 1.5.668 1.5 1.49V21.5c0 4.142-3.358 7.5-7.5 7.5-3.76 0-5.99-2.05-7.752-5.017-3.912-6.582-6.556-9.596-5.47-10.69 1.1-1.105 3.716 1.257 5.722 3.44V6.51c0-.843.672-1.51 1.5-1.51.834 0 1.5.675 1.5 1.51V16h1V4.49c0-.814.672-1.49 1.5-1.49.834 0 1.5.667 1.5 1.49V15h1v-4.74z"/></svg>