<svg xmlns="http://www.w3.org/2000/svg" width="21" height="32" viewBox="0 0 21 32"><title>hourglass</title><path d="M21.02.5c0-.276-.223-.5-.5-.5H.48c-.277 0-.5.224-.5.5s.222.5.5.5H20.52c.276 0 .5-.224.5-.5zM20 6.112V2.5c0-.276-.224-.5-.5-.5H1.582c-.276 0-.5.224-.5.5v3.612c0 4.976 3.808 8.35 6.014 9.886C4.566 17.74 1 21.055 1 25.888V29.5c0 .276.224.5.5.5h18c.276 0 .5-.224.5-.5v-3.583c0-4.962-3.863-8.365-6.095-9.916C16.435 14.26 20 10.946 20 6.113zM10.5 24.19L15.31 29H5.69l4.81-4.81zm2.232-8.612c-.145.09-.232.25-.232.422s.087.33.232.422C14.617 17.617 19 20.935 19 25.917V29h-2.288c-.01-.01-.013-.025-.023-.035L11 23.275V22.5c0-.276-.224-.5-.5-.5s-.5.224-.5.5v.776l-5.69 5.69c-.01.01-.013.023-.022.034H2v-3.112c0-4.777 3.927-7.98 6.268-9.465.145-.092.232-.252.232-.423s-.087-.33-.232-.422C6.408 14.398 2 11.115 2 6.112V3h17v3.112c0 4.778-3.927 7.98-6.268 9.466zm2.81-6.606H5.726c-.18 0-.345.096-.434.25-.09.157-.088.348.002.503 1.187 2.02 2.92 3.258 4.755 4.57l.16.112c.086.062.187.093.29.093s.204-.03.29-.093c.263-.187.527-.37.79-.555 1.64-1.144 3.335-2.326 4.392-4.127.09-.154.092-.346.003-.5-.09-.157-.255-.253-.434-.253zm-4.534 4.06c-.17.117-.338.235-.507.354-1.504-1.075-2.834-2.042-3.845-3.415h7.943c-.94 1.213-2.234 2.115-3.59 3.06zM.478 32h20.044c.276 0 .5-.224.5-.5s-.224-.5-.5-.5H.48c-.277 0-.5.224-.5.5s.222.5.5.5zM10.5 19c-.276 0-.5.224-.5.5v1c0 .276.224.5.5.5s.5-.224.5-.5v-1c0-.276-.224-.5-.5-.5zm0-3c-.276 0-.5.224-.5.5v1c0 .276.224.5.5.5s.5-.224.5-.5v-1c0-.276-.224-.5-.5-.5z"/></svg>