<svg xmlns="http://www.w3.org/2000/svg" width="32" height="32" viewBox="0 0 32 32"><title>infinite</title><path d="M24.5 23.5c-2.003 0-3.887-.78-5.303-2.197L16 18.107l-3.196 3.196C11.387 22.72 9.504 23.5 7.5 23.5s-3.886-.78-5.303-2.197C.78 19.886 0 18.003 0 16s.78-3.887 2.197-5.304C3.614 9.28 5.497 8.5 7.5 8.5s3.888.78 5.304 2.196L16 13.892l3.196-3.196C20.613 9.28 22.496 8.5 24.5 8.5s3.886.78 5.302 2.196C31.22 12.113 32 13.996 32 16s-.78 3.887-2.198 5.303c-1.416 1.417-3.3 2.197-5.303 2.197zm-3.196-4.303c.854.853 1.99 1.324 3.196 1.323s2.342-.47 3.196-1.324c.854-.854 1.324-1.99 1.324-3.196s-.47-2.342-1.324-3.196c-.854-.854-1.99-1.324-3.196-1.324s-2.342.47-3.196 1.324L18.108 16l3.196 3.197zM7.5 11.48c-1.207 0-2.342.47-3.196 1.324S2.98 14.794 2.98 16c0 1.207.47 2.342 1.324 3.196S6.294 20.52 7.5 20.52c1.207 0 2.342-.47 3.196-1.324L13.892 16l-3.196-3.196c-.854-.854-1.99-1.324-3.196-1.324z"/></svg>