<svg xmlns="http://www.w3.org/2000/svg" width="32" height="28" viewBox="0 0 32 28"><title>jsfiddle</title><path d="M28.125 12.063C30.39 13 32 15.22 32 17.797 32 21.22 29.172 24 25.703 24c-.125 0-.234-.016-.344-.016H6.342C2.843 23.78 0 21.11 0 17.64c0-2.328 1.265-4.36 3.155-5.47-.125-.405-.187-.827-.187-1.28 0-2.39 1.953-4.328 4.39-4.328 1 0 1.938.344 2.69.906 1.53-3.156 4.78-5.344 8.577-5.344 5.266 0 9.516 4.203 9.516 9.375 0 .186-.015.374-.015.56zM7.313 16.22c0 2.64 2.078 4.124 4.562 4.124 1.53 0 2.64-.484 3.75-1.547-.453-.562-.953-1.11-1.422-1.672-.64.625-1.344 1.016-2.25 1.016-1.11 0-2.063-.733-2.063-1.89 0-1.14.953-1.89 2.03-1.89 3.438 0 4.173 6 9.173 6 2.438 0 4.5-1.532 4.5-4.095 0-2.594-2.078-4.11-4.547-4.11-1.53 0-2.672.44-3.766 1.517.5.547.97 1.125 1.453 1.687.625-.61 1.328-1 2.22-1 1.03 0 2.062.733 2.062 1.827 0 1.203-.875 1.97-2.047 1.97-3.328 0-4.22-6-9.094-6-2.422 0-4.562 1.483-4.562 4.06z"/></svg>