<svg xmlns="http://www.w3.org/2000/svg" width="32" height="32" viewBox="0 0 32 32"><title>key7</title><path d="M14.683 14.698c.117 0 .235-.04.33-.124L26.33 4.652l-.66-.752-11.317 9.92c-.208.183-.23.5-.046.707.1.113.237.17.376.17zM10.188 32C16.33 32 20 27.17 20 22.5c0-1.346-.322-2.83-.798-3.792l4.522-2.26c.17-.086.276-.26.276-.448v-4h3l.113-.006c.666-.045.865-.257.887-.994V7h3c.13 0 .218.014.278.023.12.02.347.054.543-.122.203-.18.194-.407.186-.608C32.004 6.22 32 6.125 32 6V1.47C32 .66 31.34 0 30.53 0h-3.874c-.354 0-.698.13-.97.364L12.5 11.924c-.65-.13-1.63-.3-2.313-.3C4.57 11.625 0 16.195 0 21.813S4.57 32 10.188 32zm0-19.375c.5 0 1.36.12 2.354.328.155.034.314-.01.432-.113l13.37-11.722c.088-.076.2-.118.312-.118h3.875c.26 0 .47.21.47.47V6h-3.5c-.276 0-.5.224-.5.5V11h-3.5c-.276 0-.5.224-.5.5v4.19l-4.724 2.363c-.13.065-.227.186-.262.328s-.006.294.08.413c.44.607.906 2.114.906 3.707 0 4.178-3.296 8.5-8.812 8.5C5.122 31 1 26.878 1 21.812s4.122-9.187 9.188-9.187zM8.5 27c1.93 0 3.5-1.57 3.5-3.5S10.43 20 8.5 20 5 21.57 5 23.5 6.57 27 8.5 27zm0-6c1.378 0 2.5 1.122 2.5 2.5S9.878 26 8.5 26 6 24.878 6 23.5 7.122 21 8.5 21z"/></svg>