<svg xmlns="http://www.w3.org/2000/svg" width="32" height="32" viewBox="0 0 32 32"><title>lab1</title><path d="M19.332 19.04s-1.664 2.126-3.79 0c-2.062-2-3.562 0-3.562 0l-4.967 9.79c-.144.534.173 1.082.706 1.225h16.496c.533-.143.85-.69.707-1.224l-5.59-9.79zm7.607 9.29l-7.98-13.428v-.025l-.014-7.87h.55c.827 0 1.5-.67 1.5-1.498s-.673-1.5-1.5-1.5h-7.994c-.827 0-1.498.672-1.498 1.5 0 .827.67 1.498 1.498 1.498h.482l-.016 7.87L5.06 28.33c-.428 1.6.52 3.242 2.12 3.67h17.64c1.6-.428 2.55-2.07 2.12-3.67zm-2.387 2.668l-17.108-.02c-1.065-.285-1.697-1.38-1.412-2.445l6.947-13.616L13 6.01h-1.497c-.275 0-.5-.225-.5-.5s.225-.5.5-.5h7.995c.275 0 .498.224.498.5 0 .275-.223.5-.498.5H18l.025 8.874 7.94 13.666c.285 1.067-.348 2.163-1.412 2.448zM16.48 2.512c0 .552.448 1 1 1s1-.448 1-1-.447-1-1-1-1 .447-1 1zm1-2.5c.828 0 1.5-.67 1.5-1.5s-.672-1.5-1.5-1.5-1.5.67-1.5 1.5.672 1.5 1.5 1.5zm-4 2.5c.553 0 1-.448 1-1s-.447-1-1-1-1 .448-1 1 .447 1 1 1z"/></svg>