<svg xmlns="http://www.w3.org/2000/svg" width="32" height="32" viewBox="0 0 32 32"><title>lab2</title><path d="M20.682 3.732C20.21 3.26 19.582 3 18.914 3s-1.295.26-1.77.733l-1.41 1.412c-.473.472-.734 1.1-.734 1.77 0 .47.13.92.37 1.312l-13.576 5.44c-.908.398-1.56 1.217-1.742 2.188-.185.977.125 1.98.834 2.687l12.72 12.58c.548.548 1.276.86 2.045.877h.08c.2 0 .406-.02.61-.062.993-.206 1.807-.893 2.176-1.828l5.342-13.376c.402.265.875.407 1.367.407.67 0 1.297-.26 1.768-.732L28.4 15c.477-.474.738-1.103.738-1.773s-.262-1.3-.732-1.768L20.682 3.73zM16.66 29.367c-.125.313-.398.544-.728.612-.076.015-.153.02-.23.02-.253-.006-.498-.108-.68-.292L2.29 17.12c-.233-.233-.336-.567-.274-.893.06-.324.28-.598.582-.73l6.217-2.49c4.19 1.393 8.38.05 12.57 4.522L16.66 29.366zM26.99 13.58l-1.414 1.413c-.195.196-.512.196-.707 0l-1.767-1.767-1.432 3.59.12-.304c-3.01-3.005-6.07-3.384-8.83-3.723-.886-.11-1.746-.224-2.59-.406l8.49-3.4-1.715-1.716c-.195-.195-.195-.512 0-.707l1.414-1.414c.194-.195.51-.195.706 0l7.725 7.727c.2.195.2.512.002.707zM16.5 21c1.378 0 2.5-1.12 2.5-2.5S17.88 16 16.5 16 14 17.12 14 18.5s1.122 2.5 2.5 2.5zm0-4c.828 0 1.5.672 1.5 1.5s-.672 1.5-1.5 1.5c-.83 0-1.5-.672-1.5-1.5s.67-1.5 1.5-1.5zm13-17C28.12 0 27 1.12 27 2.5S28.12 5 29.5 5 32 3.88 32 2.5 30.88 0 29.5 0zm0 4c-.828 0-1.5-.672-1.5-1.5S28.672 1 29.5 1s1.5.672 1.5 1.5S30.328 4 29.5 4zM8 17c0 1.103.897 2 2 2s2-.897 2-2-.897-2-2-2-2 .897-2 2zm2-1c.552 0 1 .447 1 1s-.448 1-1 1-1-.447-1-1 .448-1 1-1zm2 7c0-.552.448-1 1-1s1 .448 1 1-.448 1-1 1-1-.448-1-1zM28 8c0-.552.448-1 1-1s1 .448 1 1-.448 1-1 1-1-.448-1-1z"/></svg>