<svg xmlns="http://www.w3.org/2000/svg" width="24" height="28" viewBox="0 0 24 28"><title>language</title><path d="M10.22 16.844c-.032.11-.798-.25-1-.328-.204-.094-1.126-.61-1.36-.766s-1.125-.89-1.234-.938c-.562.86-1.28 1.875-2.094 2.828-.28.328-1.125 1.39-1.64 1.72-.08.046-.532.093-.595.062.25-.187.97-1.078 1.28-1.437.392-.453 2.25-3.047 2.563-3.64.328-.595 1.312-2.563 1.36-2.75-.157-.017-1.392.405-1.72.515-.313.094-1.172.297-1.234.344-.063.063-.016.25-.047.313s-.314.203-.485.234c-.156.048-.516.064-.734 0-.202-.046-.39-.25-.437-.327 0 0-.063-.094-.078-.36.187-.062.5-.077.844-.17s1.187-.345 1.64-.5 1.328-.485 1.594-.548c.28-.047.984-.516 1.36-.64s.64-.282.655-.204 0 .423-.017.517c-.016.078-.766 1.547-.875 1.78-.063.126-.5.954-1.203 2.048.25.11.78.328 1 .438.266.125 2.125.906 2.22.938s.265.75.233.876zM7.015 9.25c.047.266-.03.375-.063.438-.156.297-.547.5-.78.594s-.626.187-.94.187c-.14-.017-.42-.064-.765-.407-.187-.203-.328-.75-.266-.688s.516.125.72.078.687-.187.905-.25c.234-.078.703-.203.86-.22.155 0 .28.064.327.267zm10.906 2.016l.984 3.547-2.172-.656zM.61 23.766l10.843-3.625V4.017L.61 7.656v16.11zM20 18.813l1.594.484L18.766 9.03l-1.563-.483-3.375 8.375 1.594.484.703-1.72 3.297 1.017zM12.14 3.78l8.954 2.876V.718zM17 24.454l2.47.203-.845 2.5-.625-1.03c-1.266.81-2.828 1.436-4.312 1.686-.453.094-.97.187-1.422.187h-1.313c-1.656 0-4.672-.985-5.984-1.938-.095-.078-.126-.14-.126-.25 0-.172.125-.297.28-.297.142 0 .876.453 1.08.547 1.405.703 3.374 1.344 4.952 1.344 1.953 0 3.28-.25 5.063-1.016.515-.234.968-.53 1.452-.797zm7-16.86v16.86C11.922 20.61 11.906 20.61 11.906 20.61c-.25.108-11.453 3.89-11.61 3.89-.124 0-.233-.078-.28-.203 0-.016-.016-.03-.016-.047V7.406c.016-.047.03-.125.063-.156.094-.11.22-.14.313-.172.047-.016 1-.328 2.328-.78v-6l8.72 3.093C11.53 3.36 21.25 0 21.39 0c.172 0 .313.125.313.328v6.53z"/></svg>