<svg xmlns="http://www.w3.org/2000/svg" viewBox="0 0 100 100"><style>.st0{fill-rule:evenodd;clip-rule:evenodd;} .st1{fill-rule:evenodd;clip-rule:evenodd;fill:none;stroke:#000000;stroke-width:1.4173;stroke-miterlimit:22.9256;} .st2{fill-rule:evenodd;clip-rule:evenodd;fill:none;stroke:#000000;stroke-width:0.7087;stroke-miterlimit:22.9256;} .st3{fill-rule:evenodd;clip-rule:evenodd;stroke:#000000;stroke-width:0.216;stroke-miterlimit:22.9256;} .st4{fill-rule:evenodd;clip-rule:evenodd;fill:none;stroke:#000000;stroke-width:0.5669;stroke-miterlimit:22.9256;} .st5{fill-rule:evenodd;clip-rule:evenodd;stroke:#000000;stroke-width:0.5669;stroke-miterlimit:22.9256;}</style><path class="st0" d="M49.886 7c-6.7 2.455-10.93 11.36-10.93 17.58 0 5.752 3.62 13.808 9.47 16.927V51.67l-3.26-1.883c-.16-6.727-5.996-14.104-11.42-17.156-5.897-3.31-16.423-4.366-22.03.166-.953 7.15 5.43 15.584 11.328 18.894 5.487 3.084 14.988 4.216 20.8.7l4.583 2.648v16.505l-4.27-1.04c-1.903-6.45-9.443-12.06-15.468-13.604-6.554-1.672-16.995.03-21.24 5.86.932 7.153 9.28 13.647 15.834 15.318 5.996 1.533 15.44-.27 20.22-4.97l4.924 1.295V91.78c0 .6.613 1.222 1.458 1.222s1.458-.73 1.458-1.223l-.02-17.302 5.204-1.188c4.77 4.737 14.174 6.55 20.19 5.013 6.556-1.67 14.9-8.166 15.833-15.318-4.244-5.826-14.684-7.532-21.237-5.86-6.014 1.536-13.534 7.124-15.457 13.56l-4.513.86V55.036l4.586-2.648c5.812 3.515 15.312 2.382 20.8-.702 5.9-3.31 12.28-11.744 11.33-18.894-5.608-4.53-16.134-3.475-22.03-.165-5.427 3.05-11.263 10.426-11.423 17.156l-3.264 1.884V41.508c5.848-3.118 9.47-11.175 9.47-16.93 0-6.217-4.23-15.123-10.927-17.578zm1.467 16.897l6.4-3.696c.33 1.293.52 2.75.53 4.38 0 .347-.02.708-.053 1.08l-6.88 3.958.003-5.72zM57.39 29.5c-1.116 3.31-3.225 6.646-6.038 8.36v-4.874L57.39 29.5zm-8.955 8.392c-2.838-1.704-4.95-5.063-6.064-8.393l6.065 3.485v4.907zm-6.898-12.238c-.033-.37-.05-.73-.05-1.074-.012-1.633.16-3.094.475-4.39l6.464 3.707.01 5.722-6.9-3.966zm1.432-8.247c1.295-2.56 3.3-4.065 5.438-4.522v7.662l-5.44-3.14zm8.356-4.5c2.11.484 4.09 1.993 5.397 4.523l-5.38 3.106c0-4.01-.013-4.79-.017-7.63zm23.008 53.09l-5.556 1.37 2.044-7.087c.412-.145.814-.27 1.202-.368 1.535-.392 2.962-.615 4.276-.695l-1.966 6.78zm-7.013-4.073l-1.81 6.248-5.637 1.387c1.21-3.015 4.276-5.79 7.448-7.636zM60.336 72.45l5.87-1.446 4.758 4.975c-3.868-.128-8.143-1.232-10.628-3.53zm14.458 3.31l-5.317-5.56 5.56-1.36 5.01 5.253c-1.18.55-2.525 1.03-4.04 1.417-.383.098-.788.182-1.213.25zm7.854-3.165l-4.356-4.538 8.43-2.074c-.022 2.24-1.326 4.656-4.073 6.612zM86 63.155c-3.615.888-4.08.987-8.4 2.05l1.713-5.906c3.32.413 5.605 1.906 6.687 3.856zM26.288 66l-2.02-6.96c1.155.103 2.392.315 3.708.65.58.15 1.194.35 1.826.6l2.042 7.08-5.556-1.37zm7.057-3.924c2.996 1.85 5.784 4.486 6.858 7.35l-5.09-1.252-1.768-6.098zm6.16 10.182c-2.305 2.038-6.026 3.138-9.557 3.42l4.467-4.672 5.09 1.252zm-13.553 3.376c-.7-.078-1.358-.193-1.956-.346-1.27-.324-2.42-.715-3.455-1.156l5.048-5.29 5.56 1.36-5.196 5.432zm-8.09-2.918c-3.064-1.993-4.53-4.53-4.58-6.884l9.05 2.227-4.47 4.657zm-3.896-9.72c1.124-2.084 3.61-3.66 7.262-3.976l1.795 6.188c-4.57-1.125-4.827-1.172-9.057-2.21zM28.86 40.467v-7.043c1.122.407 2.3.946 3.523 1.633.47.264.954.576 1.442.928l-.01 7.344-4.955-2.862zm7.87-1.94c2.562 2.658 4.71 6.13 4.964 9.35L36.73 45.01v-6.485zm3.456 11.848c-2.998 1.47-7.26 1.47-10.932.652l6.018-3.49 4.914 2.838zm-14.67-.554c-.393-.176-.765-.36-1.11-.555-1.382-.775-2.57-1.597-3.58-2.445l6.57-3.82 4.96 2.854-6.84 3.966zM18.7 44.7c-2.322-2.8-2.913-5.68-2.16-7.947l7.948 4.588-5.676 3.278c-.038.023-.076.05-.112.082zm-.564-10.394c1.678-1.534 4.388-2.28 7.81-1.677v6.165c-3.975-2.295-4.295-2.462-7.81-4.49zm52.633 6.16l-4.954 2.862-.01-7.24c.537-.395 1.07-.743 1.587-1.034 1.17-.657 2.3-1.18 3.377-1.58v6.992zm-7.87-1.792v6.337l-4.848 2.8c.29-3.14 2.363-6.516 4.846-9.136zm-3.44 11.69l4.897-2.827 6.065 3.517c-3.7.814-7.98.808-10.963-.69zm14.716-.508l-6.902-4.003L72.23 43l6.657 3.87c-.998.83-2.165 1.634-3.518 2.394-.37.207-.772.405-1.197.592zm6.836-5.075c-.06-.067-.126-.123-.194-.162L75.14 41.34l8.07-4.657c.797 2.3.202 5.245-2.2 8.098zm.574-10.527c-3.6 2.076-3.892 2.226-7.9 4.54v-6.14c3.452-.642 6.194.08 7.9 1.6z"/></svg>