<svg xmlns="http://www.w3.org/2000/svg" viewBox="0 0 455.731 455.731"><path fill="#00C200" d="M0 0h455.73v455.73H0z"/><path d="M393.272 219.605c.766-4.035 1.145-7.43 1.32-10.093.287-4.395-.04-10.92-.158-12.963-4.048-70.41-77.096-126.504-166.616-126.504-92.118 0-166.793 59.397-166.793 132.667 0 67.346 63.088 122.97 144.82 131.526 4.998.522 8.6 5.033 8.047 10.026l-3.48 31.322c-.79 7.11 6.562 12.283 13.005 9.173 69.054-33.325 110.346-67.61 135.004-97.313 4.488-5.405 19.12-25.904 22.102-31.288 6.332-11.43 10.697-23.705 12.75-36.555z" fill="#FFF"/><path d="M136.103 229.588v-55.882c0-4.712-3.82-8.532-8.532-8.532-4.71 0-8.53 3.82-8.53 8.532v64.414c0 4.712 3.82 8.532 8.53 8.532H161.7c4.712 0 8.532-3.82 8.532-8.532s-3.82-8.532-8.532-8.532h-25.595zM188.73 246.652H185c-3.68 0-6.666-2.985-6.666-6.667V171.84c0-3.68 2.985-6.666 6.667-6.666h3.73c3.683 0 6.668 2.985 6.668 6.667v68.145c0 3.682-2.985 6.667-6.667 6.667zM257.678 173.706v39.35s-34.073-44.442-34.593-45.026c-1.628-1.827-4.027-2.95-6.69-2.85-4.64.176-8.2 4.232-8.2 8.876v64.063c0 4.71 3.82 8.53 8.532 8.53s8.532-3.82 8.532-8.53v-39.113s34.59 44.83 35.098 45.312c1.51 1.427 3.536 2.31 5.773 2.33 4.74.044 8.612-4.147 8.612-8.885v-64.06c0-4.71-3.82-8.53-8.532-8.53s-8.532 3.82-8.532 8.53zM338.73 173.706c0-4.712-3.82-8.532-8.533-8.532H296.07c-4.712 0-8.532 3.82-8.532 8.532v64.414c0 4.712 3.82 8.532 8.532 8.532h34.127c4.712 0 8.532-3.82 8.532-8.532s-3.82-8.532-8.533-8.532h-25.595v-15.144h25.595c4.712 0 8.532-3.82 8.532-8.532s-3.82-8.532-8.533-8.532h-25.595v-15.144h25.595c4.712.002 8.532-3.818 8.532-8.53z" fill="#00C500"/></svg>