<svg xmlns="http://www.w3.org/2000/svg" viewBox="0 0 455.731 455.731"><path fill="#0084B1" d="M0 0h455.73v455.73H0z"/><g fill="#FFF"><path d="M107.255 69.215c20.873.017 38.088 17.257 38.043 38.234-.05 21.964-18.278 38.52-38.3 38.042-20.308.41-38.155-16.55-38.15-38.188 0-20.985 17.28-38.105 38.407-38.09zM129.43 386.47H84.71c-5.804 0-10.51-4.704-10.51-10.508V185.18c0-5.804 4.706-10.51 10.51-10.51h44.72c5.805 0 10.51 4.706 10.51 10.51v190.783c0 5.803-4.705 10.508-10.51 10.508zM386.884 241.682c0-39.996-32.423-72.42-72.42-72.42h-11.47c-21.882 0-41.214 10.918-52.842 27.606-1.268 1.82-2.442 3.708-3.52 5.658-.373-.056-.594-.085-.6-.075v-23.417c0-2.41-1.952-4.363-4.362-4.363h-55.795c-2.41 0-4.363 1.953-4.363 4.363V382.11c0 2.41 1.952 4.362 4.36 4.363l57.012.014c2.41 0 4.364-1.953 4.364-4.363V264.8c0-20.28 16.175-37.118 36.454-37.347 10.352-.117 19.737 4.03 26.5 10.8 6.676 6.67 10.803 15.894 10.803 26.078v117.81c0 2.408 1.953 4.36 4.36 4.362l57.153.014c2.41 0 4.364-1.953 4.364-4.363v-140.47z"/></g></svg>