<svg xmlns="http://www.w3.org/2000/svg" width="25" height="28" viewBox="0 0 25 28"><title>linux</title><path d="M10.36 6.422c-.314.03-.204.313-.376.313-.156.016-.125-.344.375-.313zm1.36.22c-.157.046-.173-.25-.454-.173.453-.204.61.108.453.17zm-5.486 6.67c-.14-.047-.11.234-.25.453-.11.203-.39.36-.172.39.078.017.297-.17.39-.39.08-.266.157-.406.032-.453zm13.36 5.61c0-.28-.61-.547-.86-.656.423-1.406.235-1.97-.046-3.297-.22-1-1.14-2.36-1.86-2.782.188.156.532.61.892 1.297.625 1.172 1.25 2.906.844 4.344-.156.56-.53.64-.78.655-1.095.125-.454-1.313-.907-3.266-.516-2.19-1.047-2.345-1.172-2.517-.64-2.844-1.344-2.562-1.547-3.625-.172-.953.828-1.734-.53-2-.423-.078-1.017-.5-1.25-.53s-.36-1.58.515-1.626c.86-.063 1.016.97.86 1.375-.25.406.015.562.437.422.344-.11.125-1.017.203-1.142-.22-1.313-.766-1.5-1.328-1.61-2.156.173-1.188 2.548-1.406 2.33-.314-.33-1.22-.032-1.22-.235.016-1.22-.39-1.922-.953-1.937-.625-.016-.875.86-.906 1.36-.046.468.267 1.452.5 1.374.157-.047.423-.36.142-.344-.14 0-.36-.344-.39-.75-.017-.406.14-.812.67-.797.61.015.61 1.233.548 1.28-.203.14-.453.406-.484.453-.203.328-.594.422-.75.562-.266.28-.328.594-.125.703.72.406.485.875 1.485.906.656.03 1.14-.094 1.594-.234.343-.11 1.452-.344 1.686-.75.11-.172.234-.172.313-.125.155.078.186.375-.204.47-.547.155-1.094.452-1.594.64-.484.203-.64.28-1.094.36-1.03.186-1.797-.376-1.11.296.235.22.454.36 1.048.345 1.313-.047 2.766-1.625 2.906-.922.03.156-.406.344-.75.516-1.22.593-2.078 1.78-2.86 1.374-.702-.375-1.405-2.11-1.39-1.328.016 1.203-1.578 2.266-.844 3.64-.484.126-1.563 2.423-1.72 3.61-.093.688.064 1.53-.108 2-.234.688-1.297-.656-.953-2.297.063-.282 0-.345-.078-.204-.423.766-.188 1.844.155 2.594.14.328.5.47.766.75.548.625 2.704 2.22 3.08 2.61.483.452.343 1.515-.657 1.624.516.97 1.016 1.062 1 2.64.594-.312.36-1 .11-1.436-.173-.313-.392-.453-.345-.53.03-.048.344-.314.516-.11.53.594 1.53.703 2.594.562 1.078-.125 2.234-.5 2.766-1.36.25-.405.422-.546.53-.468.126.063.173.344.157.812-.015.5-.218 1.016-.358 1.437-.14.485-.187.813.28.83.126-.876.376-1.735.44-2.61.077-1-.642-2.844.14-3.766.203-.25.453-.28.797-.28.046-1.25 1.968-1.157 2.608-.642zM9.78 6c.064-.39-.124-.672-.218-.703-.187-.047-.156.234-.063.203.062 0 .14.094.108.234-.03.187-.016.313.125.313.016 0 .047 0 .047-.047zm6.548 3.078c-.063-.297-.28-.187-.53-.344-.298-.187-.36-.5-.47-.39-.328.358.406 1.108.72 1.17.186.032.327-.218.28-.437zm-2.78-3.328c.015-.375-.314-.562-.392-.547-.203.016-.14.11-.047.14.124.032.25.25.28.485 0 .03.156-.03.156-.078zm.843-3.64c.017-.08-.186-.173-.327-.282-.125-.125-.25-.234-.375-.234-.313.03-.156.36-.203.516-.063.172-.297.313-.14.438.14.11.233-.172.53-.28.078-.032.438.015.516-.157zm8.83 20.953c1.92 1.188-.72 2.172-1.86 2.75-.89.453-2.078 1.453-2.516 1.875-.328.313-1.687.47-2.453.078-.89-.453-.42-1.172-1.796-1.22-.688-.015-1.36-.015-2.03-.015-.595.017-1.19.048-1.798.064-2.063.047-2.266 1.375-3.594 1.328-.906-.03-2.047-.75-4.016-1.156-1.375-.28-2.703-.36-2.984-.97s.344-1.296.39-1.89C.61 23.11-.03 22.03.44 21.626c.406-.36 1.266-.095 1.828-.407.594-.345.844-.61.844-1.345.22.75-.016 1.36-.5 1.656-.297.188-.844.282-1.297.235-.36-.03-.578.016-.672.156-.14.173-.093.485.08.892s.374.672.343 1.172c-.016.5-.578 1.094-.484 1.516.03.156.186.297.577.406.625.172 1.766.344 2.875.61 1.234.312 2.516.874 3.313.765 2.375-.327 1.016-2.874.64-3.483-2.015-3.156-3.343-5.22-4.405-4.406-.266.22-.28-.53-.266-.827.047-1.03.562-1.406.875-2.203.593-1.516 1.046-3.25 1.952-4.14.672-.876 1.734-2.298 1.937-3.048-.173-1.625-.22-3.344-.25-4.844-.032-1.61.218-3.016 2.03-4C10.298.094 10.876 0 11.485 0c1.078-.016 2.28.297 3.047.86 1.22.905 1.984 2.827 1.89 4.202-.062 1.078.126 2.188.47 3.344.406 1.36 1.047 2.312 2.078 3.406 1.234 1.313 2.203 3.89 2.484 5.53.25 1.532-.094 2.485-.422 2.532-.5.078-.812 1.656-2.375 1.594-1-.047-1.094-.64-1.375-1.156-.453-.797-.906-.547-1.078.297-.094.42-.03 1.046.11 1.515.28.984.186 1.906.015 3.047-.33 2.156 1.515 2.562 2.75 1.53 1.218-1.015 1.483-1.17 3.015-1.702 2.328-.797 1.547-1.5.297-1.922-1.125-.375-1.172-2.266-.766-2.625.094 2.03 1.156 2.328 1.594 2.61z"/></svg>