<svg xmlns="http://www.w3.org/2000/svg" width="32" height="32" viewBox="0 0 32 32"><title>location4</title><path d="M16.002 17.746c3.31 0 6-2.692 6-6s-2.69-6-6-6-6 2.69-6 6 2.69 6 6 6zm0-11c2.758 0 5 2.242 5 5s-2.242 5-5 5-5-2.242-5-5 2.242-5 5-5zM16 0C9.382 0 4 5.316 4 12c0 7 6 14.162 10.376 19.195.016.02.718.805 1.586.805h.077c.866 0 1.57-.785 1.585-.805C22.002 26.162 28.002 19.002 28.002 12 28.002 5.317 22.62 0 16 0zm.117 29.883c-.02.02-.082.064-.135.098-.01-.026-.084-.085-.13-.132C12.19 25.63 6 18.514 6 12 6 6.488 10.487 2 16 2c5.516 0 10.002 4.487 10.002 10.002 0 6.512-6.188 13.63-9.885 17.88z"/></svg>