<svg xmlns="http://www.w3.org/2000/svg" width="32" height="32" viewBox="0 0 32 32"><title>lock5</title><path d="M25 13V9c0-4.97-4.03-9-9-9S7 4.03 7 9v4c-1.657 0-3 1.343-3 3v7c0 4.97 4.03 9 9 9h6c4.97 0 9-4.03 9-9v-7c0-1.658-1.344-3-3-3zM9 9c0-3.866 3.134-7 7-7s7 3.134 7 7v4h-2V9.002c0-2.762-2.238-5-5-5s-5 2.238-5 5V13H9V9zm11 0v4h-8V9c0-2.21 1.79-4 4-4s4 1.79 4 4zm6 10v4c0 3.86-3.14 7-7 7h-6c-3.86 0-7-3.14-7-7v-7c0-.552.448-1 1-1h18c.55 0 1 .448 1 1v3zm-10 0c1.104 0 2 .895 2 2 0 .61-.328 1.768-.666 2.682-.273.738-.552 1.316-1.334 1.316-.72 0-1.06-.584-1.333-1.326C14.333 22.76 14 21.607 14 21c0-1.105.896-2 2-2z"/></svg>