<svg xmlns="http://www.w3.org/2000/svg" width="32" height="32" viewBox="0 0 32 32"><title>magnet</title><path d="M28 0h-8l2 18c0 3.314-2.686 6-6 6s-6-2.686-6-6l2-18H4L2 18c0 7.732 6.268 14 14 14s14-6.268 14-14L28 0zm-3.69 26.31c-2.22 2.218-5.17 3.44-8.31 3.44s-6.09-1.222-8.31-3.44c-2.19-2.192-3.41-5.096-3.44-8.19L5.378 7.97H8.85l-1.1 9.906V18c0 2.205.857 4.276 2.415 5.835S13.795 26.25 16 26.25s4.274-.857 5.833-2.415c1.558-1.558 2.416-3.63 2.416-5.834v-.124l-.015-.124-1.087-9.783h3.472l1.128 10.15c-.03 3.094-1.25 5.998-3.44 8.19z"/></svg>