<svg xmlns="http://www.w3.org/2000/svg" width="24" height="24" viewBox="0 0 24 24"><title>mailchimp</title><path fill="#ffe01b" d="M17.98 11.34c.165-.02.332-.02.497 0 .09-.204.104-.557.024-.94-.12-.572-.28-.918-.612-.864s-.346.468-.226 1.04c.067.32.186.595.32.765zm-2.86.453c.24.105.385.174.442.114.037-.038.026-.11-.03-.203-.118-.193-.36-.388-.617-.497-.19-.08-.41-.128-.643-.128-.373 0-.717.12-.996.326l.005-.003c-.16.117-.31.28-.29.378.01.033.032.057.088.065.132.015.59-.217 1.12-.25.374-.023.684.094.922.2zm-.48.274c-.31.05-.48.152-.59.247-.095.082-.153.173-.153.237l.024.058.052.02c.07 0 .228-.064.228-.064.207-.08.447-.127.698-.127.107 0 .212.008.314.025h-.01c.154.017.23.027.262-.027.01-.015.023-.05-.008-.1-.073-.118-.387-.317-.814-.266zm2.375 1.006c.21.104.442.063.518-.09.076-.155-.034-.364-.245-.467-.21-.104-.442-.063-.518.09-.076.155.034.364.245.467zm1.355-1.186c-.17-.003-.314.185-.317.42-.004.236.13.43.302.432s.314-.186.318-.42c.003-.236-.132-.43-.303-.433zM6.866 16.13c-.042-.053-.112-.037-.18-.02-.048.012-.103.02-.16.02h-.008c-.117 0-.22-.057-.284-.146-.08-.12-.074-.3.01-.505l.04-.093c.14-.308.37-.825.11-1.317-.193-.37-.51-.602-.89-.65-.045-.006-.095-.01-.146-.01-.33 0-.628.14-.837.365-.38.42-.438.99-.364 1.19.027.074.07.095.1.1.064.008.16-.04.22-.2l.016-.053c.026-.085.076-.243.157-.37.124-.19.335-.312.575-.312.14 0 .27.042.38.114l-.004-.002c.267.175.37.5.256.81-.06.162-.154.47-.133.72.043.513.357.718.638.74.275.01.467-.144.515-.257.03-.066.005-.107-.01-.125z"/><path fill="#ffe01b" d="M22.69 15.194c-.01-.037-.077-.286-.17-.586l-.19-.51c.374-.563.38-1.066.33-1.35-.053-.353-.2-.654-.495-.964-.295-.312-.9-.63-1.75-.868l-.445-.124c-.002-.018-.023-1.053-.043-1.497-.013-.32-.04-.822-.196-1.315-.184-.67-.506-1.253-.91-1.627 1.11-1.152 1.804-2.422 1.802-3.51-.003-2.096-2.57-2.73-5.736-1.417l-.67.285L13.1.617l-.114-.112C9.376-2.65-1.904 9.912 1.7 12.964l.79.668c-.155.403-.245.87-.245 1.357 0 .153.01.304.026.453v-.018c.084.84.516 1.644 1.217 2.266.665.59 1.54.966 2.39.965 1.402 3.24 4.61 5.228 8.37 5.34 4.033.12 7.42-1.776 8.84-5.182.092-.24.485-1.317.485-2.267 0-.956-.54-1.352-.882-1.352zM6.19 17.744c-.098.018-.21.028-.326.028h-.05.002c-1.218-.034-2.534-1.132-2.665-2.436-.146-1.44.59-2.548 1.89-2.81.13-.027.28-.043.433-.043.04 0 .08 0 .118.003h-.004c.73.04 1.803.6 2.048 2.19.217 1.41-.128 2.844-1.446 3.07zm-1.36-6.08c-.81.157-1.524.617-1.96 1.252-.26-.218-.747-.64-.833-.804-.697-1.325.76-3.902 1.778-5.357C6.33 3.16 10.268.437 12.093.93c.296.085 1.278 1.225 1.278 1.225S11.55 3.168 9.858 4.58c-2.278 1.758-4 4.312-5.03 7.084zm12.787 5.542c.025-.012.042-.037.042-.066v-.006c-.003-.034-.032-.06-.067-.06h-.008s-1.908.283-3.71-.38c.195-.638.717-.407 1.507-.343.194.013.42.02.65.02 1.065 0 2.094-.15 3.067-.433l-.078.02c.815-.236 1.887-.7 2.72-1.357.28.618.38 1.298.38 1.298s.218-.04.4.073c.17.107.297.327.21.896-.174 1.063-.625 1.926-1.383 2.72-.466.503-1.016.92-1.63 1.23l-.033.014c-.304.165-.663.32-1.035.446l-.05.014c-2.86.935-5.785-.093-6.728-2.3-.068-.144-.133-.318-.184-.497l-.006-.025c-.4-1.455-.06-3.2 1.007-4.3.064-.07.13-.152.13-.255 0-.087-.054-.178-.1-.243-.374-.542-1.667-1.466-1.407-3.254.186-1.285 1.308-2.19 2.353-2.135l.265.016c.454.027.85.085 1.223.1.624.028 1.185-.063 1.85-.618.224-.187.404-.35.708-.4.033-.006.112-.035.27-.027.172.008.328.06.46.15l-.003-.003c.533.355.608 1.215.636 1.845.016.36.06 1.228.074 1.478.034.57.183.65.486.75.17.057.33.1.562.164.705.2 1.123.4 1.387.66.158.16.23.332.253.496.084.608-.47 1.36-1.938 2.04-1.605.747-3.55.936-4.895.786l-.47-.053c-1.077-.145-1.69 1.247-1.045 2.2.416.616 1.55 1.016 2.683 1.016 2.6 0 4.598-1.112 5.34-2.073l.06-.085c.037-.055.007-.085-.04-.054-.606.416-3.303 2.07-6.19 1.57 0 0-.35-.056-.67-.18-.253-.1-.785-.345-.85-.892 2.33.72 3.794.04 3.794.04zm-3.688-.436zM9.473 6.74c.895-1.036 1.996-1.936 2.982-2.44.034-.018.07.02.052.052-.08.142-.23.447-.277.677v.008c0 .022.017.04.04.04.007 0 .015-.002.02-.007.615-.418 1.682-.867 2.62-.924.04-.003.06.05.026.074-.154.12-.293.258-.41.413-.006.007-.01.015-.01.024 0 .022.018.04.04.04.657.005 1.584.235 2.188.575.04.023.012.102-.034.092-.914-.21-2.41-.37-3.964.01-1.387.34-2.446.862-3.218 1.425-.04.028-.086-.024-.055-.06z"/></svg>