<svg xmlns="http://www.w3.org/2000/svg" viewBox="0 0 100 100"><path d="M43.498 61.845h-22.9c-.138 0-.25.112-.25.25V77.08h-9.92c-.137 0-.25.11-.25.25v2.542c0 .138.113.25.25.25h22.885c.138 0 .25-.112.25-.25v-7.635c0-.138-.112-.25-.25-.25h-2.526c-.138 0-.25.112-.25.25v4.842h-7.142V64.885h17.302v4.795c0 .14.112.25.25.25H61.05v9.942c0 .138.112.25.25.25h25.17v9.938c0 .138.112.25.25.25h2.548c.138 0 .25-.112.25-.25V77.33c0-.138-.112-.25-.25-.25H64.093v-9.89c0-.138-.112-.25-.25-.25H43.748v-4.846c0-.137-.112-.25-.25-.25z"/><path d="M71.214 46.815V69.68c0 .14.112.25.25.25h17.804c.138 0 .25-.11.25-.25V57c0-.14-.112-.25-.25-.25h-7.616c-.138 0-.25.11-.25.25v2.542c0 .138.112.25.25.25h4.82v7.148H74.256V49.607h15.01c.14 0 .25-.112.25-.25V11.2c0-.137-.11-.25-.25-.25h-2.546c-.138 0-.25.113-.25.25v35.365H71.465c-.138 0-.25.112-.25.25z"/><path d="M79.1 90.31c.14 0 .25-.112.25-.25v-2.55c0-.14-.11-.25-.25-.25H53.902v-9.93c0-.14-.112-.25-.25-.25H40.946c-.138 0-.25.11-.25.25v9.93H10.43c-.14 0-.25.11-.25.25v2.55c0 .138.11.25.25.25h33.068c.138 0 .25-.112.25-.25v-9.938h7.112v7.137h-2.027v-4.837c0-.138-.112-.25-.25-.25H46.04c-.137 0-.25.112-.25.25v9.928H8.137v-7.134h30.27c.137 0 .25-.112.25-.25V67.19c0-.138-.113-.25-.25-.25H25.69c-.138 0-.25.112-.25.25v7.59c0 .138.112.25.25.25h2.545c.138 0 .25-.112.25-.25v-4.85h7.118v12.242H8.135V75.03h9.912c.138 0 .25-.112.25-.25V46.815c0-.138-.112-.25-.25-.25H15.5c-.137 0-.25.112-.25.25v25.172H8.137V39.443h30.27c.137 0 .25-.112.25-.25v-2.545c0-.138-.113-.25-.25-.25h-9.918v-7.136h9.917c.138 0 .25-.112.25-.25V16.294c0-.138-.112-.25-.25-.25H15.5c-.137 0-.25.112-.25.25v2.55c0 .14.113.25.25.25h20.105v7.12H15.5c-.137 0-.25.11-.25.25v2.547c0 .14.113.25.25.25h9.942v7.137H8.136V8.907H45.79v20.105c0 .138.113.25.25.25h22.873c.14 0 .25-.112.25-.25V16.294c0-.138-.11-.25-.25-.25h-9.916V11.2c0-.137-.11-.25-.25-.25h-2.54c-.138 0-.25.113-.25.25v7.646c0 .138.112.25.25.25h9.94v7.118H48.832V6.13c0-.138-.112-.25-.25-.25H5.333c-.137 0-.25.112-.25.25v89.023c0 .138.113.25.25.25h43.25c.137 0 .25-.112.25-.25V90.31H79.1z"/><path d="M94.354 5.88H51.11c-.14 0-.25.112-.25.25v17.812c0 .138.11.25.25.25H63.84c.138 0 .25-.112.25-.25v-2.555c0-.138-.112-.25-.25-.25h-9.94V8.907h22.406v27.49H46.04c-.137 0-.25.113-.25.25v2.546c0 .138.113.25.25.25h4.82v7.122H30.786c-.138 0-.25.112-.25.25v2.542c0 .138.112.25.25.25h22.866c.138 0 .25-.112.25-.25v-9.914H79.1c.14 0 .25-.112.25-.25V8.908h12.22v42.75H76.56c-.14 0-.25.112-.25.25v12.73c0 .137.11.25.25.25h7.613c.138 0 .25-.113.25-.25v-2.542c0-.138-.112-.25-.25-.25H79.35V54.7h12.22v17.287H69.16V44.513h15.01c.14 0 .25-.112.25-.25V11.2c0-.137-.11-.25-.25-.25h-2.52c-.138 0-.25.113-.25.25v30.29H56.207c-.14 0-.25.11-.25.25v9.917h-27.47v-7.144h20.095c.138 0 .25-.112.25-.25V41.74c0-.14-.112-.25-.25-.25h-4.835v-7.134h30.26c.137 0 .25-.112.25-.25V11.2c0-.137-.113-.25-.25-.25H61.3c-.138 0-.25.113-.25.25v2.552c0 .138.112.25.25.25h9.914v17.306H43.748V11.2c0-.137-.112-.25-.25-.25h-33.07c-.137 0-.25.113-.25.25v22.906c0 .138.113.25.25.25h12.716c.138 0 .25-.112.25-.25v-2.548c0-.138-.112-.25-.25-.25h-9.917v-7.116h20.086c.138 0 .25-.112.25-.25v-2.555c0-.138-.112-.25-.25-.25H13.227v-7.135h27.47v17.306h-9.91c-.138 0-.25.112-.25.25v2.548c0 .138.112.25.25.25h9.91v7.133H25.692c-.138 0-.25.11-.25.25v12.71c0 .138.112.25.25.25h33.054c.14 0 .25-.112.25-.25v-9.937h7.148v17.332h-17.31v-2.053h15.01c.137 0 .25-.112.25-.25V46.815c0-.138-.113-.25-.25-.25H61.3c-.138 0-.25.112-.25.25v9.934H23.394V41.74c0-.14-.112-.25-.25-.25H10.43c-.14 0-.25.11-.25.25v27.94c0 .14.11.25.25.25h2.547c.138 0 .25-.11.25-.25V44.514h7.12v15.03c0 .137.113.25.25.25h25.194v4.843c0 .138.113.25.25.25h20.105v9.895c0 .14.11.25.25.25H91.57v17.32h-7.147v-9.927c0-.138-.112-.25-.25-.25H58.996v-9.936c0-.138-.11-.25-.25-.25h-17.8c-.138 0-.25.112-.25.25v2.543c0 .138.112.25.25.25h15.01v9.936c0 .138.112.25.25.25h25.195v7.135H51.11c-.14 0-.25.113-.25.25v2.554c0 .138.11.25.25.25h43.244c.138 0 .25-.112.25-.25V6.13c0-.138-.112-.25-.25-.25z"/></svg>