<svg xmlns="http://www.w3.org/2000/svg" width="24" height="24" viewBox="0 0 24 24"><title>meetup1</title><path fill="#ed1c40" d="M23.978 20.238c-.304-1.93-3.874-.444-4.096-2.56-.313-2.997 4.15-9.458 3.797-11.97-.314-2.256-1.842-2.73-3.166-2.757-1.284-.02-1.623.183-2.058.436-.253.146-.612.435-1.112-.04-.334-.32-.557-.537-.905-.82-.183-.142-.467-.324-.946-.395-.476-.07-1.098 0-1.492.168-.395.172-.702.466-1.026.75-.323.282-1.147 1.197-1.91.858-.336-.145-1.46-.706-2.273-1.055-1.563-.676-3.822.42-4.636 1.867C2.944 6.867.557 15.32.193 16.432c-.81 2.502 1.032 4.54 3.51 4.424 1.05-.05 1.75-.43 2.41-1.638.385-.693 3.98-10.087 4.25-10.543.196-.323.843-.753 1.39-.475.55.283.66.87.58 1.42-.136.896-2.67 6.63-2.77 7.276C9.4 18 9.92 18.61 11.068 18.67c.783.04 1.566-.237 2.183-1.41.35-.652 4.35-8.666 4.702-9.202.39-.586.703-.78 1.103-.758.31.015.8.096.678 1.016-.122.905-3.343 6.78-3.676 8.22-.456 1.928.602 3.875 2.34 4.73 1.113.545 5.97 1.475 5.578-1.028z"/></svg>