<svg xmlns="http://www.w3.org/2000/svg" width="24" height="24" viewBox="0 0 24 24"><title>microgenetics</title><path fill="red" d="M12.008 6c2.595 0 4.31 1.263 5.583 2.726l.25.293c.08.1.163.2.24.3.435.568.81 1.145 1.17 1.673.24.356.466.693.69 1.008l.227.32c.074.106.148.212.24.31.928 1.172 1.89 1.9 3.283 1.992.195-.845.3-1.72.3-2.62s-.104-1.777-.3-2.622c-1.395.09-2.355.82-3.3 1.99-.18-.245-.358-.51-.556-.795-.375-.566-.81-1.208-1.32-1.845 1.006-1.17 2.25-2.175 3.932-2.557C20.453 2.49 16.523 0 12.008 0c-4.5 0-8.44 2.49-10.49 6.173 1.68.384 2.923 1.388 3.93 2.556.087.09.17.18.25.284l.237.3c.48.615.914 1.245 1.305 1.845l.555.825.24.33c.074.103.165.21.24.314 1.05 1.438 2.114 2.43 3.75 2.43 1.65 0 2.7-.99 3.764-2.43l.374.554c.45.66.932 1.38 1.455 2.055-1.274 1.47-3 2.73-5.596 2.73-2.594 0-4.304-1.276-5.58-2.73l-.48-.6c-.434-.57-.81-1.155-1.17-1.68-.238-.36-.464-.69-.688-1.007l-.226-.33c-.074-.104-.15-.21-.24-.314C2.664 10.2 1.703 9.464.31 9.374.113 10.225.01 11.1.01 12s.1 1.776.29 2.62c1.397-.09 2.354-.818 3.294-1.99.172.246.354.51.544.796.375.566.806 1.208 1.313 1.845-1.008 1.17-2.252 2.176-3.93 2.558C3.567 21.51 7.495 24 12.01 24c4.515 0 8.44-2.49 10.49-6.173-1.68-.384-2.922-1.388-3.93-2.556-.086-.09-.17-.18-.25-.284l-.236-.3c-.48-.615-.916-1.245-1.305-1.845l-.554-.84c-.074-.11-.154-.225-.23-.33-.078-.11-.154-.22-.232-.325-1.05-1.44-2.1-2.43-3.75-2.43s-2.698.99-3.75 2.43l-.374-.56c-.436-.67-.916-1.38-1.456-2.06C7.703 7.264 9.383 6 12.008 6z"/></svg>