<svg xmlns="http://www.w3.org/2000/svg" width="24" height="24" viewBox="0 0 24 24"><title>my_location</title><path d="M12 18.984c3.89 0 6.984-3.094 6.984-6.984S15.89 5.016 12 5.016 5.016 8.11 5.016 12 8.11 18.984 12 18.984zm8.953-7.968h2.063v1.97h-2.063c-.47 4.17-3.797 7.5-7.97 7.968v2.063h-1.968v-2.063c-4.172-.47-7.5-3.797-7.97-7.97H.984v-1.968h2.063c.47-4.172 3.797-7.5 7.97-7.97V.985h1.968v2.063c4.172.47 7.5 3.797 7.97 7.97zm-8.953-3c2.203 0 3.984 1.78 3.984 3.984s-1.78 3.984-3.984 3.984S8.016 14.204 8.016 12 9.796 8.016 12 8.016z"/></svg>