<svg xmlns="http://www.w3.org/2000/svg" width="32" height="32" viewBox="0 0 32 32"><title>nintendogamecube</title><path d="M9.087 20.17l6.272 3.62v-7.243l-6.276-3.62v7.245z"/><path d="M6.387 21.728l8.973 5.177V32L1.973 24.276V8.823l4.413 2.547v10.36zM16 8.195L9.73 11.82 16 15.44l6.273-3.623L16 8.197z"/><path d="M16 5.084l7.547 4.367 4.413-2.546L16 0 2.63 7.72l4.41 2.543L16 5.083zm9.61 16.644v-5.264l-2.696 1.556v2.152l-6.272 3.62v.007-7.25l13.385-7.723v15.45L16.64 32.006v-5.09l8.97-5.183z"/></svg>