<svg xmlns="http://www.w3.org/2000/svg" viewBox="0 0 100 100"><path d="M90 55h-2.5v-7.5H85V45h-2.5v5H85v2.5h-2.5V50H80v5h-2.5v-5H80v-5h-2.5v2.5H75V50h-5v-2.5h-2.5V45H65v5h2.5v2.5H70v5h-2.5v-5H65V50h-2.5v-5h-5v2.5H60v5h2.5V55H65v2.5h-2.5V55H60v2.5h-2.5V55H60v-2.5h-2.5v-5H55V45h-2.5v5H55v2.5h-2.5V55H55v2.5h-2.5V55H50v2.5h-2.5V55H50v-2.5h2.5V50H50v-5h-5v2.5h2.5v5H45v-5h-2.5v5H40V55h-2.5v-2.5H40v-5h-2.5V50H35v5h-2.5v2.5H30V55h2.5v-5H35v-2.5h-5V45h-2.5v5H30v2.5h-2.5V50H25v-5h-2.5v2.5H20V50h2.5v2.5H25V55h2.5v2.5H25V60h2.5v2.5H25V60h-2.5v-2.5H25V55h-2.5v-2.5H20V55h-2.5v-2.5H20V50h-2.5v-2.5H15V45h-2.5v5H15v5h-2.5v-5H10v-5H7.5v5H5v45h90V60h-2.5v-2.5H95V55h-2.5v-2.5H95V50h-2.5v-2.5H90V55zm-72.5 2.5H20V60h-2.5v-2.5zm-5 0H15V60h-2.5v-2.5zm-5-5H10v5H7.5v-5zm0 7.5H10v2.5H7.5V60zM10 70H7.5v-2.5H10V65h2.5v2.5H10V70zm5 5h-2.5v-2.5H15V75zm0-12.5h2.5V65H15v-2.5zm5 7.5h-2.5v-2.5H20V65h2.5v2.5H20V70zm5 5h-2.5v-2.5H25V75zm47.5-22.5H75V55h-2.5v-2.5zM60 60h2.5v2.5H60V60zm-10 0h2.5v2.5H50V60zm-10-2.5h2.5V55H45v2.5h-2.5V60H40v-2.5zm-5 0h2.5V60H35v-2.5zM30 60h2.5v2.5H30V60zm0 10h-2.5v-2.5H30V65h2.5v2.5H30V70zm5 5h-2.5v-2.5H35V75zm0-10v-2.5h2.5V65H40v2.5h-2.5V65H35zm7.5 10H40v-2.5h2.5V75zm2.5-5h-2.5v-2.5H45V70zm0-10h2.5v2.5H45V60zm2.5 5H50v2.5h-2.5V65zm5 10H50v-2.5h2.5V75zm2.5-5h-2.5v-2.5H55V70zm0-10h2.5v2.5H55V60zm2.5 5H60v2.5h-2.5V65zm5 10H60v-2.5h2.5V75zm2.5-5h-2.5v-2.5H65V70zm2.5-5H65v-2.5h2.5V60H70v2.5h-2.5V65zm5 10H70v-2.5h2.5V75zm0-7.5H70V65h2.5v2.5zm0-10H75V60h2.5v2.5H75V60h-2.5v-2.5zM75 65h2.5v2.5H75V65zm5 10h-2.5v-2.5H80V75zm5-7.5h-2.5V70H80v-2.5h2.5V65H85v2.5zm0-10h-2.5V60H85v2.5h-2.5V60H80v-2.5h2.5V55H85v2.5zm2.5 0H90V60h-2.5v-2.5zM90 75h-2.5v-2.5H90V75zm2.5-7.5H90V65h-2.5v-2.5H90V65h2.5v2.5zM62.5 32.5H65V40h-2.5zM72.5 12.5H75V15h-2.5zM50 12.5h2.5V15H50zM35 15h2.5v2.5H35zM30 20h2.5v2.5H30zM25 22.5h2.5V25H25zM25 27.5h2.5V30H25zM25 32.5h2.5V35H25zM25 37.5h2.5V40H25zM25 42.5h2.5V45H25zM22.5 40H25v2.5h-2.5zM20 42.5h2.5V45H20zM17.5 40H20v2.5h-2.5zM15 42.5h2.5V45H15zM12.5 40H15v2.5h-2.5zM10 42.5h2.5V45H10zM7.5 40H10v2.5H7.5zM5 42.5h2.5V45H5zM5 35h2.5v5H5zM5 30h2.5v2.5H5zM5 25h2.5v2.5H5zM20 17.5h2.5V20H20zM10 15h2.5v2.5H10zM10 22.5h2.5V25H10zM15 22.5h2.5V25H15zM20 25h2.5v2.5H20zM17.5 27.5H20V30h-2.5zM20 30h2.5v2.5H20zM17.5 32.5H20V35h-2.5zM20 35h2.5v5H20zM15 37.5h2.5V40H15zM10 37.5h2.5V40H10zM12.5 35H15v2.5h-2.5zM10 32.5h2.5V35H10zM12.5 30H15v2.5h-2.5zM27.5 30H30v2.5h-2.5zM27.5 35H30v2.5h-2.5zM27.5 40H30v2.5h-2.5zM30 37.5h5V40h-5zM35 40h2.5v2.5H35zM40 40h2.5v2.5H40zM37.5 42.5H40V45h-2.5zM30 42.5h5V45h-5z"/><path d="M17.5 45H20v2.5h-2.5zM35 45h2.5v2.5H35zM40 45h2.5v2.5H40zM42.5 42.5H45V45h-2.5zM42.5 37.5H45V40h-2.5zM42.5 32.5H45V35h-2.5zM42.5 27.5H45V30h-2.5zM42.5 20H45v2.5h-2.5zM37.5 22.5H40V25h-2.5zM37.5 27.5H40V30h-2.5zM32.5 25H35v2.5h-2.5zM50 42.5h2.5V45H50zM50 27.5h2.5V30H50zM50 22.5h2.5V25H50zM45 25h2.5v2.5H45zM45 30h2.5v2.5H45zM45 35h2.5v2.5H45zM55 37.5h2.5V40H55zM55 32.5h2.5V35H55zM55 27.5h2.5V30H55zM55 20h2.5v2.5H55zM60 15h2.5v2.5H60zM62.5 22.5H65V25h-2.5zM57.5 25H60v2.5h-2.5zM62.5 27.5H65V30h-2.5zM57.5 30H60v2.5h-2.5zM57.5 35H60v2.5h-2.5zM52.5 40H55v2.5h-2.5zM55 42.5h2.5V45H55zM57.5 40h5v2.5h-5zM62.5 42.5H65V45h-2.5zM65 40h2.5v2.5H65zM67.5 37.5H70V40h-2.5zM70 35h2.5v2.5H70zM67.5 32.5H70V35h-2.5zM67.5 27.5H70V30h-2.5zM70 25h2.5v2.5H70zM67.5 20H70v2.5h-2.5zM75 22.5h2.5V25H75zM75 27.5h2.5V30H75zM72.5 30H75v2.5h-2.5zM77.5 32.5H80V35h-2.5zM80 30h2.5v2.5H80zM85 27.5h2.5V30H85zM80 25h2.5v2.5H80zM80 20h2.5v2.5H80zM87.5 20H90v2.5h-2.5zM87.5 25H90v2.5h-2.5zM87.5 30H90v2.5h-2.5zM85 32.5h2.5V35H85zM82.5 35H85v2.5h-2.5zM80 37.5h2.5V40H80zM77.5 40H80v2.5h-2.5zM75 42.5h2.5V45H75zM70 45h5v2.5h-5zM67.5 42.5H70V45h-2.5zM80 42.5h2.5V45H80zM82.5 40H85v2.5h-2.5zM85 37.5h2.5V40H85zM87.5 40H90v2.5h-2.5zM90 42.5h2.5V45H90zM92.5 45H95v2.5h-2.5zM85 42.5h2.5V45H85zM87.5 45H90v2.5h-2.5zM92.5 40H95v2.5h-2.5zM92.5 32.5H95V35h-2.5zM92.5 25H95v5h-2.5zM10 27.5h2.5V30H10zM32.5 30H35v5h-2.5zM50 32.5h2.5V40H50zM37.5 32.5H40V40h-2.5zM75 35h2.5v5H75zM90 35h2.5v5H90zM70 40h5v2.5h-5zM45 40h5v2.5h-5z"/></svg>