<svg xmlns="http://www.w3.org/2000/svg" viewBox="0 0 100 100"><path d="M17.934 50c0 2.312-1.875 4.186-4.186 4.186-2.312 0-4.187-1.874-4.187-4.186s1.876-4.186 4.188-4.186c2.31 0 4.186 1.874 4.186 4.186zM36.06 81.395c0 2.312-1.874 4.186-4.186 4.186s-4.186-1.873-4.186-4.185c0-2.312 1.874-4.186 4.186-4.186s4.186 1.873 4.186 4.185zM72.312 81.395c0 2.312-1.874 4.186-4.186 4.186s-4.186-1.873-4.186-4.185c0-2.312 1.874-4.186 4.186-4.186s4.186 1.873 4.186 4.185zM90.438 50c0 2.312-1.874 4.186-4.186 4.186S82.066 52.312 82.066 50s1.874-4.186 4.186-4.186 4.186 1.874 4.186 4.186zM72.312 18.605c0 2.312-1.874 4.186-4.186 4.186s-4.186-1.873-4.186-4.185c0-2.312 1.874-4.186 4.186-4.186s4.186 1.873 4.186 4.185zM36.06 18.605c0 2.312-1.874 4.186-4.186 4.186s-4.186-1.873-4.186-4.185c0-2.312 1.874-4.186 4.186-4.186s4.186 1.873 4.186 4.185zM56.28 50c0 3.468-2.812 6.28-6.28 6.28-3.468 0-6.28-2.812-6.28-6.28 0-3.468 2.812-6.28 6.28-6.28 3.468 0 6.28 2.812 6.28 6.28zM73.358 60.465c0 2.89-2.342 5.233-5.232 5.233s-5.233-2.343-5.233-5.233c0-2.89 2.343-5.232 5.233-5.232 2.89 0 5.232 2.342 5.232 5.232zM55.232 70.93c0 2.89-2.342 5.233-5.232 5.233s-5.233-2.343-5.233-5.233c0-2.89 2.343-5.232 5.233-5.232 2.89 0 5.232 2.342 5.232 5.232zM37.106 60.465c0 2.89-2.342 5.233-5.232 5.233s-5.233-2.343-5.233-5.233c0-2.89 2.344-5.232 5.234-5.232s5.232 2.342 5.232 5.232zM73.358 39.535c0 2.89-2.342 5.232-5.232 5.232s-5.233-2.342-5.233-5.232 2.343-5.233 5.233-5.233c2.89 0 5.232 2.343 5.232 5.233zM55.232 29.07c0 2.89-2.342 5.232-5.232 5.232s-5.233-2.342-5.233-5.232S47.11 23.837 50 23.837c2.89 0 5.232 2.343 5.232 5.233zM37.106 39.535c0 2.89-2.342 5.232-5.232 5.232s-5.233-2.342-5.233-5.232 2.344-5.233 5.234-5.233 5.232 2.343 5.232 5.233zM16.887 29.07c0 1.734-1.406 3.14-3.14 3.14-1.733 0-3.14-1.406-3.14-3.14 0-1.734 1.407-3.14 3.14-3.14 1.734 0 3.14 1.406 3.14 3.14zM53.14 8.14c0 1.733-1.406 3.14-3.14 3.14-1.734 0-3.14-1.407-3.14-3.14C46.86 6.406 48.266 5 50 5c1.734 0 3.14 1.406 3.14 3.14zM16.887 70.93c0 1.734-1.406 3.14-3.14 3.14-1.733 0-3.14-1.406-3.14-3.14 0-1.734 1.407-3.14 3.14-3.14 1.734 0 3.14 1.406 3.14 3.14zM53.14 91.86c0 1.734-1.406 3.14-3.14 3.14-1.734 0-3.14-1.406-3.14-3.14 0-1.733 1.406-3.14 3.14-3.14 1.734 0 3.14 1.407 3.14 3.14zM89.392 70.93c0 1.734-1.406 3.14-3.14 3.14-1.734 0-3.14-1.406-3.14-3.14 0-1.734 1.406-3.14 3.14-3.14 1.734 0 3.14 1.406 3.14 3.14zM89.392 29.07c0 1.734-1.406 3.14-3.14 3.14-1.734 0-3.14-1.406-3.14-3.14 0-1.734 1.406-3.14 3.14-3.14 1.734 0 3.14 1.406 3.14 3.14z" color="#000"/></svg>