<svg xmlns="http://www.w3.org/2000/svg" viewBox="0 0 100 100"><path d="M89.517 26.603c0-.35-.183-.673-.48-.854l-12.84-7.798-.016-.007-.013-.01-.01-.005-12.738-7.734c-.022-.017-.04-.036-.063-.05l-12.84-7.798-.016-.006c-.004-.003-.008-.008-.013-.01-.035-.02-.073-.03-.11-.044-.04-.018-.08-.038-.122-.05-.04-.01-.083-.013-.125-.018-.044-.007-.088-.016-.133-.016s-.088.01-.133.016c-.042.005-.084.007-.125.02-.043.01-.083.03-.124.047-.036.016-.074.024-.11.044-.005.004-.01.01-.014.012l-.015.006-12.84 7.797c-.008.005-.014.013-.02.018l-12.813 7.78c-.018.01-.03.025-.048.038l-12.792 7.77c-.3.18-.48.504-.48.853v46.801c0 .09.012.176.034.26.007.025.02.05.03.074.02.056.04.112.07.164.014.026.035.048.053.073.033.045.064.09.104.13.024.025.054.043.08.065.036.03.07.063.11.088l12.794 7.77c.017.012.03.026.046.037l12.84 7.797c.01.005.02.007.027.012L49.48 97.65c.008.005.017.006.024.01l.008.007c.03.017.062.024.093.037.047.02.092.044.14.058.066.018.134.023.202.027.018 0 .034.006.053.006h.003c.02 0 .036-.006.054-.007.068-.005.136-.01.2-.028.05-.013.092-.036.138-.056.03-.014.065-.02.097-.04.002 0 .004-.004.008-.006.007-.004.016-.006.022-.01l12.807-7.776c.008-.005.018-.007.026-.012l12.84-7.797c.012-.007.02-.018.03-.024l12.814-7.78c.042-.026.075-.06.112-.09.024-.022.054-.04.077-.063.037-.037.065-.08.096-.124.02-.027.044-.052.06-.08.028-.05.046-.1.065-.152.01-.028.026-.055.035-.085.02-.084.034-.17.034-.26V42.216v-.003-15.598-.006-.007zm-2 32.984v12.04l-9.913-6.02 9.913-6.02zm-65.12 6.02l-9.914 6.02v-12.04l9.913 6.02zm-8.358-26.12l-1.557.945v-12.04l9.913 6.02-8.357 5.075zM86.59 57.81l-9.913 6.02V51.79l9.54 5.794.373.226zm-69.465-2.257l6.198-3.763v12.04l-9.913-6.02 3.715-2.257zm43.785 17.85l-9.913 6.02v-12.04l9.913 6.02zm-11.913 6.02l-9.914-6.02 9.914-6.02v12.04zM26.25 34.414l9.906-6.017v12.03l-.8-.483-9.106-5.53zm46.664.507l-9.077 5.512v-12.04l9.913 6.02-.836.508zM60.91 57.8l-9.913 6.02V51.78l3.09 1.877L60.91 57.8zm-11.913 6.02l-9.914-6.02 9.914-6.02v12.04zm-9.914-21.614l9.914-6.02v12.04l-9.914-6.02zm-.92-1.78V28.393l9.907 6.016-9.907 6.015zm0 15.593V43.986l9.906 6.016-2.52 1.53-7.387 4.486zm12.834-7.794v-12.04l9.913 6.02-2 1.215-7.913 4.806zm10.84-7.797l-9.914-6.022 9.914-6.02v12.04zM26.25 50.012l9.906-6.016v12.03l-7.968-4.838-1.938-1.177zm11.913 9.578l9.907 6.017-9.907 6.016V59.59zm23.674-3.568l-6.183-3.754-3.73-2.266 6.536-3.97 3.377-2.05v12.04zm2.927-13.812l9.913-6.02v12.04l-9.913-6.02zm-15.767-9.584l-9.914-6.02 9.914-6.02v12.04zM25.323 36.19l9.913 6.02-9.913 6.02V36.19zm0 15.6l6.285 3.816 3.628 2.203-9.913 6.02V51.79zm10.833 7.8v12.032l-9.906-6.016 9.906-6.015zm25.68 12.036l-9.913-6.02 9.914-6.02v12.04zm2-12.04l9.914 6.02-9.913 6.02v-12.04zm0-3.554v-12.04l9.914 6.02-9.508 5.774-.405.246zm12.84-19.842l9.914 6.02-9.913 6.02V36.19zm-14.84-11.36l-3.376-2.052-6.537-3.97 9.914-6.02v12.04zm-.926 1.776l-9.913 6.02v-12.04l7.914 4.807 2 1.213zm-22.747-1.782v-12.03l9.907 6.016-9.907 6.014zM23.323 48.23l-9.913-6.02 9.913-6.022v12.04zm41.44 9.58l.373-.226 9.54-5.794v12.04l-9.912-6.02zm-39.44-37.227l9.913 6.02-9.913 6.02v-12.04zm-12.84 35.45v-12.04l9.913 6.02-1.412.857-8.5 5.162zm12.84 11.35l9.913 6.02-9.913 6.022v-12.04zm12.84 7.802l9.907 6.017-9.907 6.016V75.185zm23.67 12.032L51.927 81.2l9.906-6.016v12.033zm12.844-19.833v12.04l-9.913-6.02 9.913-6.02zm2.927-17.37l9.913-6.02V56.03l-.405-.246-9.508-5.773zm9.913-9.582L78.44 34.92l-.836-.508 9.913-6.02v12.04zm-12.84-7.81l-9.91-6.018 9.91-6.018v12.037zm-10.84-7.797V12.79l9.91 6.018-9.91 6.017zm12.84 7.798v-12.04l9.913 6.02-9.913 6.02zM50.997 4.98L60.91 11l-9.913 6.02V4.98zm-2 0v12.04L39.083 11l9.914-6.02zm-12.84 7.8v12.032l-9.907-6.016 9.906-6.015zm-12.834 7.803v12.04l-9.913-6.02 9.913-6.02zm0 46.8v12.04l-9.913-6.02 9.913-6.02zm12.833 7.81v12.032L26.25 81.21l9.906-6.016zm12.84 19.825l-9.913-6.02 9.914-6.02v12.04zm2.004 0v-12.04L60.913 89 51 95.02zm12.84-7.792V75.194l9.906 6.016-9.906 6.016zm12.837-7.802v-12.04l9.913 6.02-9.913 6.02z"/></svg>