<svg xmlns="http://www.w3.org/2000/svg" viewBox="0 0 100 100"><circle cx="15.2" cy="84.8" r="10.2"/><circle cx="15.2" cy="67.4" r="2"/><circle cx="32.6" cy="50" r="2"/><circle cx="32.6" cy="84.8" r="2"/><circle cx="32.6" cy="67.4" r="10.2"/><circle cx="15.2" cy="50" r="10.2"/><circle cx="15.2" cy="32.6" r="2"/><circle cx="32.6" cy="15.2" r="2"/><circle cx="15.2" cy="15.2" r="10.2"/><circle cx="32.6" cy="32.6" r="10.2"/><circle cx="50" cy="84.8" r="10.2"/><circle cx="50" cy="67.4" r="2"/><circle cx="67.4" cy="50" r="2"/><circle cx="67.4" cy="84.8" r="2"/><circle cx="67.4" cy="67.4" r="10.2"/><circle cx="50" cy="50" r="10.2"/><circle cx="50" cy="32.6" r="2"/><circle cx="67.4" cy="15.2" r="2"/><circle cx="50" cy="15.2" r="10.2"/><circle cx="84.8" cy="84.8" r="10.2"/><circle cx="84.8" cy="67.4" r="2"/><circle cx="84.8" cy="50" r="10.2"/><circle cx="84.8" cy="32.6" r="2"/><circle cx="84.8" cy="15.2" r="10.2"/><circle cx="67.4" cy="32.6" r="10.2"/></svg>