<svg xmlns="http://www.w3.org/2000/svg" version="1" viewBox="0 0 100 100"><circle stroke="#000" stroke-width="2" stroke-linecap="round" stroke-linejoin="round" stroke-miterlimit="10" cx="81.999" cy="18" r="8"/><path stroke="#000" stroke-width="2" stroke-linecap="round" stroke-linejoin="round" stroke-miterlimit="10" d="M60.998 24.75c-3.727 0-6.748-3.022-6.748-6.75s3.02-6.75 6.748-6.75c3.73 0 6.75 3.02 6.75 6.75 0 3.728-3.02 6.75-6.75 6.75z"/><circle stroke="#000" stroke-width="2" stroke-linecap="round" stroke-linejoin="round" stroke-miterlimit="10" cx="42.5" cy="18" r="5.5"/><circle stroke="#000" stroke-width="2" stroke-linecap="round" stroke-linejoin="round" stroke-miterlimit="10" cx="26.499" cy="18" r="4.25"/><circle stroke="#000" stroke-width="2" stroke-linecap="round" stroke-linejoin="round" stroke-miterlimit="10" cx="12.999" cy="18" r="2.999"/><circle stroke="#000" stroke-width="2" stroke-linecap="round" stroke-linejoin="round" stroke-miterlimit="10" cx="81.999" cy="34" r="8"/><path stroke="#000" stroke-width="2" stroke-linecap="round" stroke-linejoin="round" stroke-miterlimit="10" d="M60.998 40.75c-3.727 0-6.748-3.022-6.748-6.75s3.02-6.75 6.748-6.75c3.73 0 6.75 3.022 6.75 6.75s-3.02 6.75-6.75 6.75z"/><circle stroke="#000" stroke-width="2" stroke-linecap="round" stroke-linejoin="round" stroke-miterlimit="10" cx="42.5" cy="33.999" r="5.499"/><circle stroke="#000" stroke-width="2" stroke-linecap="round" stroke-linejoin="round" stroke-miterlimit="10" cx="26.499" cy="33.999" r="4.25"/><circle stroke="#000" stroke-width="2" stroke-linecap="round" stroke-linejoin="round" stroke-miterlimit="10" cx="12.999" cy="33.999" r="3"/><circle stroke="#000" stroke-width="2" stroke-linecap="round" stroke-linejoin="round" stroke-miterlimit="10" cx="81.999" cy="49.999" r="7.999"/><path stroke="#000" stroke-width="2" stroke-linecap="round" stroke-linejoin="round" stroke-miterlimit="10" d="M60.998 56.748c-3.727 0-6.748-3.02-6.748-6.75 0-3.727 3.02-6.748 6.748-6.748 3.73 0 6.75 3.02 6.75 6.75 0 3.727-3.02 6.748-6.75 6.748z"/><circle stroke="#000" stroke-width="2" stroke-linecap="round" stroke-linejoin="round" stroke-miterlimit="10" cx="42.5" cy="49.999" r="5.498"/><circle stroke="#000" stroke-width="2" stroke-linecap="round" stroke-linejoin="round" stroke-miterlimit="10" cx="26.499" cy="50" r="4.25"/><circle stroke="#000" stroke-width="2" stroke-linecap="round" stroke-linejoin="round" stroke-miterlimit="10" cx="12.999" cy="49.998" r="3"/><circle stroke="#000" stroke-width="2" stroke-linecap="round" stroke-linejoin="round" stroke-miterlimit="10" cx="81.999" cy="65.999" r="8"/><path stroke="#000" stroke-width="2" stroke-linecap="round" stroke-linejoin="round" stroke-miterlimit="10" d="M60.998 72.75c-3.727 0-6.748-3.022-6.748-6.75s3.02-6.75 6.748-6.75c3.73 0 6.75 3.02 6.75 6.75s-3.02 6.75-6.75 6.75z"/><circle stroke="#000" stroke-width="2" stroke-linecap="round" stroke-linejoin="round" stroke-miterlimit="10" cx="42.5" cy="65.999" r="5.499"/><circle stroke="#000" stroke-width="2" stroke-linecap="round" stroke-linejoin="round" stroke-miterlimit="10" cx="26.499" cy="65.999" r="4.25"/><circle stroke="#000" stroke-width="2" stroke-linecap="round" stroke-linejoin="round" stroke-miterlimit="10" cx="12.999" cy="65.999" r="3"/><circle stroke="#000" stroke-width="2" stroke-linecap="round" stroke-linejoin="round" stroke-miterlimit="10" cx="81.999" cy="82" r="8"/><path stroke="#000" stroke-width="2" stroke-linecap="round" stroke-linejoin="round" stroke-miterlimit="10" d="M60.998 88.75c-3.727 0-6.748-3.022-6.748-6.75s3.02-6.75 6.748-6.75c3.73 0 6.75 3.02 6.75 6.75s-3.02 6.75-6.75 6.75z"/><circle stroke="#000" stroke-width="2" stroke-linecap="round" stroke-linejoin="round" stroke-miterlimit="10" cx="42.5" cy="82" r="5.5"/><circle stroke="#000" stroke-width="2" stroke-linecap="round" stroke-linejoin="round" stroke-miterlimit="10" cx="26.499" cy="82" r="4.25"/><circle stroke="#000" stroke-width="2" stroke-linecap="round" stroke-linejoin="round" stroke-miterlimit="10" cx="12.999" cy="82" r="3"/></svg>