<svg xmlns="http://www.w3.org/2000/svg" viewBox="0 0 100 100"><g fill-rule="evenodd" clip-rule="evenodd"><circle cx="39.914" cy="50.17" r="4.971"/><circle cx="39.914" cy="68.683" r="4.971"/><circle cx="39.914" cy="31.613" r="4.971"/><path d="M50.38 8.312V91.72L95.137 49.81 50.38 8.312zm9.782 65.34c-2.745 0-4.97-2.224-4.97-4.97 0-2.745 2.224-4.97 4.97-4.97 2.745 0 4.97 2.224 4.97 4.97 0 2.746-2.224 4.97-4.97 4.97zm0-18.512c-2.745 0-4.97-2.225-4.97-4.97 0-2.746 2.224-4.972 4.97-4.972 2.745 0 4.97 2.225 4.97 4.97 0 2.747-2.224 4.972-4.97 4.972zm0-18.31c-2.745 0-4.97-2.226-4.97-4.972 0-2.745 2.224-4.97 4.97-4.97 2.745 0 4.97 2.224 4.97 4.97 0 2.746-2.224 4.97-4.97 4.97zm16.11 18.31c-2.744 0-4.97-2.225-4.97-4.97 0-2.746 2.225-4.972 4.97-4.972 2.746 0 4.972 2.225 4.972 4.97 0 2.747-2.226 4.972-4.97 4.972z"/><circle cx="23.507" cy="50.17" r="4.971"/></g></svg>