<svg xmlns="http://www.w3.org/2000/svg" viewBox="0 0 100 100"><path fill-rule="evenodd" clip-rule="evenodd" d="M81.5 61.5c-6.075 0-11-4.926-11-11s4.925-11 11-11 11 4.925 11 11-4.925 11-11 11zm0-20c-4.97 0-9 4.03-9 9s4.03 9 9 9 9-4.03 9-9-4.03-9-9-9zm0-11c-6.075 0-11-4.925-11-11s4.925-11 11-11 11 4.925 11 11-4.925 11-11 11zm0-20c-4.97 0-9 4.03-9 9s4.03 9 9 9 9-4.03 9-9-4.03-9-9-9zm-31 82c-6.075 0-11-4.926-11-11 0-6.075 4.925-11 11-11s11 4.925 11 11c0 6.074-4.925 11-11 11zm0-20c-4.97 0-9 4.03-9 9s4.03 9 9 9 9-4.03 9-9-4.03-9-9-9zm0-11c-6.075 0-11-4.926-11-11s4.925-11 11-11 11 4.925 11 11-4.925 11-11 11zm0-20c-4.97 0-9 4.03-9 9s4.03 9 9 9 9-4.03 9-9-4.03-9-9-9zm0-11c-6.075 0-11-4.925-11-11s4.925-11 11-11 11 4.925 11 11-4.925 11-11 11zm0-20c-4.97 0-9 4.03-9 9s4.03 9 9 9 9-4.03 9-9-4.03-9-9-9zm-31 82c-6.075 0-11-4.926-11-11 0-6.075 4.925-11 11-11s11 4.925 11 11c0 6.074-4.925 11-11 11zm0-20c-4.97 0-9 4.03-9 9s4.03 9 9 9 9-4.03 9-9-4.03-9-9-9zm0-11c-6.075 0-11-4.926-11-11s4.925-11 11-11 11 4.925 11 11-4.925 11-11 11zm0-20c-4.97 0-9 4.03-9 9s4.03 9 9 9 9-4.03 9-9-4.03-9-9-9zm0-11c-6.075 0-11-4.925-11-11s4.925-11 11-11 11 4.925 11 11-4.925 11-11 11zm0-20c-4.97 0-9 4.03-9 9s4.03 9 9 9 9-4.03 9-9-4.03-9-9-9zm62 60c6.075 0 11 4.925 11 11 0 6.074-4.925 11-11 11s-11-4.926-11-11c0-6.075 4.925-11 11-11zm0 20c4.97 0 9-4.03 9-9s-4.03-9-9-9-9 4.03-9 9 4.03 9 9 9z"/></svg>