<svg xmlns="http://www.w3.org/2000/svg" width="32" height="32" viewBox="0 0 32 32"><title>open1</title><path d="M28 31H4c-1.657 0-3-1.344-3-3V14c0-1.657 1.343-3 3-3h24c1.656 0 3 1.343 3 3v14c0 1.656-1.344 3-3 3zM8 18.04c-1.657 0-3 1.568-3 3.5 0 1.935 1.343 3.5 3 3.5s3-1.565 3-3.5c0-1.932-1.344-3.5-3-3.5zm7.78.858c-.115-.237-.27-.422-.458-.553-.19-.132-.426-.22-.707-.268-.2-.037-.49-.055-.87-.055h-1.783v6.914h1.008V22.92h.842c.81 0 1.368-.356 1.68-.693.308-.338.463-1.812.463-2.3 0-.28-.06-.792-.175-1.03zm5.244 5.047h-3.058v-2.008h2.956v-.93h-2.956v-2.055h3.05v-.93H17.02v6.914h4.004v-.99zm5.93-5.922h-.914v5.31l-3.012-5.31H22v6.914h.978v-5.06l3.012 5.06h.965v-6.914zm-13.13 3.907h-.854v-2.977h.838c.343 0 .578.017.706.05.197.056.357.167.478.337s.182.375.182.613c0 .33-.103 1.522-.31 1.704s-.552.273-1.04.273zM8 24.125c-1.104 0-2-1.12-2-2.5s.896-2.5 2-2.5 2 1.12 2 2.5-.896 2.5-2 2.5zM25 11l-7.322-5.45c-.344.277-.775.45-1.25.45-.662 0-1.244-.325-1.607-.82L7 11H6l8.493-6.518c-.038-.155-.065-.315-.065-.482 0-1.104.896-2 2-2 1.105 0 2 .896 2 2 0 .36-.103.692-.27.984L26 11h-1z"/></svg>