<svg xmlns="http://www.w3.org/2000/svg" width="22" height="28" viewBox="0 0 22 28"><title>pagelines</title><path d="M21.906 17.234c-3.14 7.797-10.672 3.078-10.672 3.078C8.922 24.984 5.11 27.984.704 28 .31 28 0 27.687 0 27.297s.313-.688.703-.688c3.672-.017 6.875-2.44 8.97-6.282-2.345.906-6.767 1.594-9.22-4.688 6.22-2.562 9.078.64 10.172 2.594.562-1.39.97-2.906 1.234-4.547 0 0-7.97 1.25-8.532-5.594 6.797-2.734 8.703 4.375 8.703 4.375.095-.953.188-3 .188-3.047 0 0-6.062-4.202-2.172-9.42 7.11 2.452 3.5 9.265 3.5 9.265.03.094.03 1.36 0 1.906 0 0 2.578-5.077 7.78-3.28-.233 7.64-8.093 6.062-8.093 6.062-.25 1.563-.64 3.047-1.14 4.422 0 0 4.733-5.234 9.81-1.14z"/></svg>