<svg xmlns="http://www.w3.org/2000/svg" width="289.421" height="289.421" viewBox="0 0 289.421 289.421"><path d="M198.05 111.68c0-59.462-48.382-107.84-107.845-107.84-29.425 0-56.922 11.633-77.413 32.756-.333.34-.6.732-.822 1.153C4.24 46.262 0 57.204 0 68.703c0 25.44 20.695 46.137 46.13 46.137 7.834 0 14.204 6.37 14.204 14.198 0 4.068-1.754 7.95-4.807 10.643-.29.254-.543.537-.764.844-.35.312-.698.63-1.026.958-.16.14-.318.29-.462.452-.07.074-.134.155-.2.236-7.95 8.57-12.32 19.677-12.32 31.32 0 22.515 16.105 41.617 38.294 45.43 2.784.482 5.35.714 7.847.714.913 0 1.812-.062 2.714-.127l-.004-.03c.2.02.398.035.598.035 59.464.01 107.846-48.368 107.846-107.83zm-109.2 97.11c-2.49.175-5.043.05-7.983-.454-17.014-2.92-29.36-17.575-29.36-34.835 0-9.008 3.426-17.605 9.638-24.21.02-.02.042-.042.066-.062.263-.28.56-.533.85-.79l.812-.733c.273-.252.514-.535.72-.838 4.78-4.682 7.492-11.104 7.492-17.824 0-13.756-11.19-24.95-24.953-24.95-19.505 0-35.38-15.873-35.38-35.385 0-9.133 3.494-17.813 9.842-24.44.292-.31.544-.652.75-1.022C39.7 24.76 64.11 14.596 90.21 14.596c53.534 0 97.088 43.557 97.088 97.09 0 53.254-43.098 96.635-96.24 97.092-.407-.074-.838-.096-1.263-.064-.015-.01-.94.077-.946.077z"/><path d="M48.213 40.095c-10.13 0-18.368 8.242-18.368 18.367 0 10.13 8.24 18.368 18.368 18.368 10.125 0 18.367-8.24 18.367-18.368 0-10.126-8.247-18.367-18.367-18.367zM94.67 63.837c10.128 0 18.367-8.24 18.367-18.368 0-10.127-8.24-18.368-18.367-18.368-10.126 0-18.368 8.24-18.368 18.367 0 10.13 8.242 18.367 18.368 18.367zM140.97 76.83c10.128 0 18.36-8.24 18.36-18.368 0-10.125-8.232-18.367-18.36-18.367-10.134 0-18.373 8.242-18.373 18.367 0 10.13 8.238 18.368 18.373 18.368zM135.594 104.32c0 10.127 8.234 18.37 18.36 18.37 10.13 0 18.373-8.243 18.373-18.37 0-10.124-8.242-18.367-18.373-18.367-10.126 0-18.36 8.237-18.36 18.368zM140.97 170.31c10.128 0 18.36-8.242 18.36-18.368 0-10.126-8.232-18.368-18.36-18.368-10.134 0-18.373 8.24-18.373 18.368 0 10.125 8.238 18.368 18.373 18.368zM77.917 151.64c-10.13 0-18.368 9.646-18.368 21.493 0 11.853 8.238 21.502 18.367 21.502 10.125 0 18.368-9.65 18.368-21.502 0-11.848-8.243-21.492-18.368-21.492zm0 32.244c-4.134 0-7.617-4.924-7.617-10.75 0-5.818 3.482-10.742 7.617-10.742s7.617 4.924 7.617 10.74c0 5.828-3.483 10.752-7.617 10.752zM287.847 97.673c-1.25-1.247-3.036-1.803-4.763-1.49l-12.204 2.22c-1.004.183-1.926.645-2.677 1.332l-95.183 87.582c-1.082.997-1.7 2.383-1.732 3.843 0 .062.03.114.03.183-.115 0-.22-.058-.336-.053-1.52.086-2.94.815-3.9 2.01l-30.57 38.165c-.923 1.155-1.25 2.57-1.106 3.937-2.366-.818-4.848-1.345-7.428-1.345-6.124 0-11.87 2.415-16.187 6.783-2.99 3.022-7.007 15.88-11.926 38.205-.394 1.795.15 3.67 1.457 4.966 1.017 1.02 2.386 1.57 3.796 1.57.39 0 .784-.047 1.175-.13l24.078-5.402c1.604-.395 9.8-2.576 13.792-6.62 6.262-6.34 8.008-15.464 5.435-23.454.36.074.72.21 1.093.21 1.186 0 2.372-.383 3.358-1.175l38.175-30.57c1.188-.96 1.917-2.377 2-3.9.006-.108-.046-.21-.046-.313.02 0 .04.01.062.01h.116c1.46-.03 2.854-.66 3.847-1.73l87.58-95.187c.688-.748 1.15-1.677 1.33-2.677l2.22-12.202c.32-1.74-.234-3.52-1.483-4.767zM136.52 265.858c-1.227 1.25-5.505 2.94-8.62 3.716l-15.624 3.51c2.767-11.54 5.895-22.732 7.17-24.695 2.28-2.31 5.31-3.582 8.536-3.582 3.225 0 6.257 1.272 8.536 3.58 4.758 4.83 4.758 12.66 0 17.47zm140.297-154.68l-82.737 89.913-9.658-9.657 89.918-82.73 3.028-.554-.55 3.03z"/></svg>