<svg xmlns="http://www.w3.org/2000/svg" width="22" height="28" viewBox="0 0 22 28"><title>paperclip5</title><path d="M21.938 21.64c0 2.44-1.86 4.298-4.297 4.298-1.374 0-2.702-.594-3.67-1.563L1.827 12.25C.718 11.125.062 9.594.062 8.016c0-3.313 2.61-5.953 5.922-5.953 1.594 0 3.125.64 4.266 1.766l9.453 9.468c.094.094.156.22.156.344 0 .328-.876 1.203-1.204 1.203-.14 0-.266-.063-.36-.156L8.83 5.204C8.078 4.47 7.062 4.002 6 4.002c-2.22 0-3.938 1.797-3.938 4 0 1.062.438 2.078 1.188 2.828l12.125 12.14c.594.595 1.422.985 2.266.985 1.33 0 2.313-.984 2.313-2.312 0-.86-.39-1.672-.984-2.266L9.89 10.3c-.25-.235-.593-.376-.937-.376-.594 0-1.047.438-1.047 1.047 0 .345.156.673.39.923l6.407 6.406c.094.093.156.218.156.343 0 .328-.892 1.22-1.22 1.22-.125 0-.25-.064-.344-.157L6.89 13.3c-.625-.61-.984-1.47-.984-2.328 0-1.72 1.344-3.062 3.063-3.062.874 0 1.718.36 2.327.984l9.078 9.078c.984.97 1.563 2.297 1.563 3.672z"/></svg>