<svg xmlns="http://www.w3.org/2000/svg" width="32" height="32" viewBox="0 0 32 32"><title>paperplane1</title><path d="M31.543.16C31.377.053 31.188 0 31 0c-.193 0-.387.055-.555.168l-30 20c-.31.205-.48.566-.44.936.04.37.28.688.624.824l7.823 3.13 3.68 6.44c.175.308.502.5.856.503H13c.35 0 .677-.185.857-.485l2.077-3.463 9.695 3.877c.118.047.243.07.37.07.17 0 .338-.043.49-.13.264-.147.445-.407.496-.706l5-30c.065-.393-.11-.787-.443-1.004zM3.136 20.777L26.31 5.327 9.46 23.362c-.088-.053-.167-.123-.265-.162l-6.06-2.423zm7.053 3.29l-.008-.01L29.125 3.78l-16.15 25.163-2.786-4.877zm15.027 5.542l-8.54-3.417c-.204-.08-.415-.107-.624-.12L29.205 5.687 25.217 29.61z"/></svg>