<svg xmlns="http://www.w3.org/2000/svg" width="48" height="48" viewBox="0 0 48 48"><title>phone9</title><path d="M24 0C15.45 0 6.88 1.53 3.77 4.58c-2.58 2.53-3.44 7-3.73 9.83 0 0-.04.28-.04.4 0 1.11.9 2 2 2 .13 0 4.94-.39 7.84-.63.07-.01.14-.02.21-.04 1.08-.03 1.95-.91 1.95-2l.01-3.94c0-1.22.99-2.2 2.21-2.2h19.56c1.22 0 2.21.98 2.21 2.2l.01 3.94c0 1.09.87 1.97 1.95 2 .07.02.14.03.21.04 2.9.24 7.71.63 7.84.63 1.1 0 2-.89 2-2 0-.12-.04-.4-.04-.4-.29-2.83-1.15-7.3-3.73-9.83C41.12 1.53 32.55 0 24 0zm0 26c-2.21 0-4 1.79-4 4s1.79 4 4 4 4-1.79 4-4-1.79-4-4-4zm-3-9v-2.5c0-1.38-1.12-2.5-2.5-2.5S16 13.12 16 14.5V17L2.51 31.41C1.58 32.32 1 33.59 1 34.99V39c0 2.21 1.79 4 4 4h1v2.5C6 46.88 7.12 48 8.5 48s2.5-1.12 2.5-2.5V43h26v2.5c0 1.38 1.12 2.5 2.5 2.5s2.5-1.12 2.5-2.5V43h1c2.21 0 4-1.79 4-4v-4.01c0-1.4-.58-2.67-1.51-3.58L32 17v-2.5c0-1.38-1.12-2.5-2.5-2.5S27 13.12 27 14.5V17h-6zm3 5c4.42 0 8 3.58 8 8s-3.58 8-8 8-8-3.58-8-8 3.58-8 8-8z"/></svg>