<svg xmlns="http://www.w3.org/2000/svg" width="32" height="32" viewBox="0 0 32 32"><title>pin2</title><path d="M32 8c0-4.416-3.586-8-8-8-2.984 0-5.562 1.658-6.938 4.086 0-.002.004-.004.004-.006-.367-.035-.723-.11-1.098-.11-6.63 0-12 5.37-12 12 0 2.526.79 4.866 2.12 6.796L0 32l9.29-6.062c1.91 1.28 4.206 2.03 6.68 2.03 6.628 0 12-5.37 12-12 0-.345-.07-.67-.103-1.007C30.32 13.595 32 11.007 32 8zM15.97 23.97c-4.415 0-8-3.587-8-8s3.585-8 8-8l.03.003c0-.008.004-.014.004-.02 0 .016-.004.03-.004.047 0 .695.117 1.355.28 1.998l-3.17 3.174c-1.563 1.562-1.563 4.094 0 5.656s4.093 1.562 5.655 0l3.14-3.14c.66.18 1.345.304 2.06.308-.016 4.402-3.594 7.973-7.996 7.973zM24 12c-2.203 0-4-1.795-4-4s1.797-4 4-4 4 1.795 4 4-1.797 4-4 4z"/></svg>