<svg xmlns="http://www.w3.org/2000/svg" width="32" height="32" viewBox="0 0 32 32"><title>pin4</title><path d="M18.973 17.802l-7.794-4.5c-.957-.553-2.18-.225-2.733.73-.552.958-.224 2.18.732 2.733l7.792 4.5c.957.553 2.18.225 2.732-.732.554-.956.226-2.18-.73-2.73zm-6.428-4.866l6.062 3.5 2.062-5.738-4.187-2.416-3.938 4.654zm-4.47 14.74l5.8-7.044-2.598-1.5-3.2 8.544zm15.1-20.15l-5.196-3c-.72-.415-1.636-.17-2.05.548-.415.718-.168 1.635.55 2.05l5.195 3c.718.413 1.635.168 2.05-.55s.167-1.635-.55-2.05z"/></svg>