<svg xmlns="http://www.w3.org/2000/svg" viewBox="0 0 455.731 455.731"><path fill="#C9353D" d="M0 0h455.73v455.73H0z"/><path d="M160.6 382C86.224 350.92 37.808 262.343 68.6 172.382c30.46-88.99 128.99-135.594 217.71-102.648 88.973 33.04 132.98 131.213 98.487 219.22-35.71 91.112-131.442 123.348-203.22 100.617 5.366-13.252 11.472-26.33 15.945-39.942 4.492-13.672 7.356-27.878 10.725-41.037 2.9 2.44 5.814 5.028 8.866 7.44 15.862 12.535 33.806 13.752 52.606 9.232 19.977-4.803 35.764-16.13 47.455-32.78 19.774-28.16 26.752-60.02 21.973-93.546-4.942-34.668-25.47-59.756-57.65-72.39-48.487-19.033-94.453-12.625-134.27 22.26-30.62 26.83-40.915 72.314-26.186 107.724 5.105 12.274 13.173 21.907 25.38 27.695 6.185 2.933 8.81 1.737 10.6-4.724.134-.48.296-.954.472-1.42 3.427-9.04 2.627-16.473-3.474-25.2-11.118-15.906-9.135-34.32-3.77-51.96 10.17-33.456 40.06-55.778 75.115-56.102 9.39-.087 19.057.718 28.15 2.937 27.05 6.6 44.515 27.518 46.265 55.253 1.404 22.242-2.072 43.85-11.742 64.16-4.788 10.054-11.107 18.995-20.512 25.324-8.834 5.945-18.495 8.34-28.978 5.602-14.443-3.774-22.642-16.95-18.99-31.407 3.787-14.985 8.686-29.69 12.4-44.69 1.57-6.344 2.395-13.234 1.75-19.696-1.756-17.6-18.386-25.808-33.932-17.215-10.89 6.02-16.132 16.08-18.564 27.72-2.505 11.99-1.292 23.81 2.61 35.438.784 2.337.9 5.224.347 7.634-7.063 30.8-14.617 61.49-21.306 92.37-1.952 9.01-1.59 18.526-2.24 27.814-.122 1.78-.016 3.575-.016 5.94z" fill="#FFF"/></svg>