<svg xmlns="http://www.w3.org/2000/svg" width="42" height="32" viewBox="0 0 42 32"><title>pricetags</title><path d="M40.5 0h-10c-.69 0-1.574.376-2.047.87l-1.33 1.34c-.194.196-.192.513.004.707.194.194.513.193.707-.003l1.334-1.346C29.453 1.27 30.088 1 30.5 1h10c.275 0 .5.224.5.5v10.05c0 .41-.27 1.045-.574 1.336l-14.08 13.972c-.202.19-.536.186-.73-.008l-2.65-2.65c-.194-.194-.51-.194-.706 0s-.195.513 0 .708l2.648 2.65c.294.292.684.44 1.074.44.382 0 .765-.14 1.062-.424L41.126 13.6c.498-.477.874-1.36.874-2.05V1.5c0-.827-.673-1.5-1.5-1.5zm-1.462 5c0-1.103-.897-2-2-2s-2 .897-2 2 .897 2 2 2 2-.897 2-2zm-3 0c0-.55.448-1 1-1s1 .45 1 1-.448 1-1 1-1-.45-1-1zM16.462 4c-.69 0-1.574.376-2.048.87L.42 19c-.567.593-.56 1.548.022 2.13L10.87 31.556c.285.286.667.443 1.076.443.396 0 .77-.15 1.06-.426l14.08-13.972c.5-.478.876-1.36.876-2.053V5.5c0-.827-.673-1.5-1.5-1.5h-10zM27 5.5v10.05c0 .41-.31 1.045-.612 1.336l-14.08 13.972c-.196.185-.54.18-.73-.008L1.148 20.423c-.194-.196-.198-.53-.012-.723L15.13 5.568c.285-.297.92-.568 1.332-.568h10c.275 0 .538.224.538.5zM23 7c-1.103 0-2 .897-2 2s.897 2 2 2 2-.897 2-2-.897-2-2-2zm0 3c-.552 0-1-.45-1-1s.448-1 1-1 1 .45 1 1-.448 1-1 1z"/></svg>