<svg xmlns="http://www.w3.org/2000/svg" width="24" height="24" viewBox="0 0 24 24"><title>public</title><path d="M17.906 17.39c1.313-1.405 2.11-3.327 2.11-5.39 0-3.328-2.064-6.234-5.017-7.406v.422c0 1.078-.94 1.97-2.017 1.97h-1.97V9c0 .564-.468.985-1.03.985h-1.97V12h6c.564 0 .985.423.985.985v3h.984c.89 0 1.64.61 1.922 1.406zm-6.89 2.532V18C9.938 18 9 17.062 9 15.984V15l-4.78-4.78c-.142.562-.235 1.17-.235 1.78 0 4.078 3.094 7.453 7.03 7.922zM12 2.016c5.53 0 9.984 4.453 9.984 9.984S17.53 21.984 12 21.984 2.016 17.53 2.016 12 6.47 2.016 12 2.016z"/></svg>