<svg xmlns="http://www.w3.org/2000/svg" width="35" height="32" viewBox="0 0 35 32"><title>puzzle</title><path d="M20.042 3.907C20.042 1.962 18.482 0 15 0c-3.067 0-5.13 1.57-5.13 3.907 0 1.364.553 1.986.918 2.398.193.217.27.315.27.413 0 .162 0 .26-.557.282H4.404C2.058 7 0 8.87 0 11v3.732c.038.944.57 1.53 1.392 1.53.467 0 .813-.266 1.15-.525C2.99 15.392 3.5 15 4.5 15 6.196 15 8 16.402 8 19c0 2.63-1.828 4.462-3.47 4.462-.99 0-1.507-.43-1.965-.807-.343-.284-.697-.578-1.174-.578-.82 0-1.353.587-1.39 1.55v4.103C0 29.965 2.1 32 4.402 32h6.13c.927-.038 1.526-.585 1.526-1.396 0-.487-.278-.8-.523-1.076-.328-.37-.666-.75-.666-1.734 0-1.766 1.605-2.907 4.086-2.907s4.086 1.14 4.086 2.907c0 .984-.34 1.365-.666 1.734-.245.276-.523.59-.523 1.076 0 .822.585 1.356 1.548 1.395h3.942c2.152 0 3.656-1.677 3.656-4.078v-4.65c.026-.122.334-.588.804-.588.096 0 .193.08.41.27.41.368 1.03.923 2.392.923C32.788 23.877 35 22.202 35 19c0-3.454-2.01-5-4-5-1.344 0-2.12.614-2.634 1.02-.228.18-.442.35-.564.35-.47 0-.78-.468-.802-.57 0-.01 0-.017-.002-.025v-3.583C26.998 8.762 25.46 7 23.342 7h-3.92c-.014 0-.027-.002-.04-.003-.53-.02-.53-.117-.53-.28 0-.097.08-.194.272-.412.365-.41.918-1.034.918-2.398zm-1.666 1.735c-.245.276-.523.59-.523 1.077 0 .55.25 1.21 1.47 1.276.024.003.047.004.07.004h3.95C25.085 8 26 9.606 26 11.192v3.633c0 .036-.007.07 0 .105.092.61.842 1.44 1.802 1.44.47 0 .816-.275 1.185-.566C29.463 15.427 30.004 15 31 15c1.822 0 3 1.57 3 4 0 2.664-1.76 3.876-3.396 3.876-.98 0-1.36-.34-1.727-.667-.276-.247-.59-.526-1.075-.526-.96 0-1.71.83-1.802 1.44-.007.034 0 .07 0 .105v4.693c0 1.53-.823 3.077-2.658 3.077h-3.92c-.57-.023-.57-.285-.57-.396 0-.097.08-.195.272-.413.365-.41.918-1.033.918-2.397 0-1.945-1.572-3.907-5.086-3.907-3.04 0-5.085 1.57-5.085 3.907 0 1.364.553 1.986.92 2.398.19.218.27.316.27.414 0 .112 0 .374-.548.396h-6.11C2.687 31 1 29.38 1 27.73v-4.082c.022-.57.28-.57.392-.57.116 0 .32.168.537.347.497.413 1.252 1.037 2.602 1.037C6.69 24.462 9 22.267 9 19c0-3.248-2.318-5-4.5-5-1.34 0-2.08.568-2.568.945-.222.17-.414.318-.54.318-.11 0-.37 0-.392-.55V11c0-1.768 1.794-3 3.403-3h6.115c.016 0 .03 0 .047-.002 1.235-.046 1.494-.722 1.494-1.28 0-.487-.278-.8-.523-1.076-.328-.37-.666-.75-.666-1.735C10.87 2.167 12.53 1 15 1c2.455 0 4.042 1.14 4.042 2.907 0 .984-.34 1.366-.666 1.735z"/></svg>