<svg xmlns="http://www.w3.org/2000/svg" width="32" height="32" viewBox="0 0 32 32"><title>radioactive</title><path d="M16 29.958c-7.71 0-13.958-6.25-13.958-13.958S8.292 2.042 16 2.042c7.71 0 13.96 6.25 13.96 13.958S23.71 29.958 16 29.958zm6.92-24.406c-3.723-2.5-6.88-2.088-6.88-2.088l-.002 9.008c-1.27.032-2.36.732-2.958 1.76L5.453 9.348s-2.02 1.98-2.02 6.464 1.936 6.653 1.936 6.653l7.722-4.676c.6 1.02 1.687 1.71 2.947 1.74l.002 9.135s3.157.41 6.88-2.087c3.724-2.5 4.315-5.07 4.315-5.07l-7.982-3.888c.254-.486.41-1.03.41-1.617 0-.53-.125-1.027-.334-1.48l8.075-3.813s-.76-2.657-4.485-5.155zm-6.794 12.47c-1.116 0-2.02-.906-2.02-2.022s.904-2.02 2.02-2.02 2.02.904 2.02 2.02-.904 2.02-2.02 2.02z"/></svg>