<svg xmlns="http://www.w3.org/2000/svg" width="32" height="32" viewBox="0 0 32 32"><title>safe</title><path d="M27 29l-2-.062V31h-3v-2H10.064L10 31H7v-1.938L5 29c-1.104 0-2-.896-2-2V3c0-1.104.896-2 2-2h22c1.104 0 2 .896 2 2v24c0 1.104-.896 2-2 2zM26 4H6v3.958l-.98-.02v3.083H6v7.918H5V22h1v4h20V4zm-1 21H7v-3h1v-3.062H7V11h1l.02-3.042H7V5h18v20zM14.562 10.562c-2.21 0-4 1.79-4 4s1.79 4 4 4 4-1.79 4-4-1.79-4-4-4zm8.938.956c0-.553-.447-1-1-1-.552 0-1 .447-1 1 0 .366.207.673.5.847v5.29c-.293.173-.5.48-.5.846 0 .553.448 1 1 1 .553 0 1-.447 1-1 0-.393-.232-.725-.562-.888v-5.205c.33-.164.562-.496.562-.89zm-9 4.732c-.828 0-1.5-.672-1.5-1.5 0-.83.672-1.5 1.5-1.5.83 0 1.5.67 1.5 1.5 0 .828-.67 1.5-1.5 1.5z"/></svg>