<svg xmlns="http://www.w3.org/2000/svg" viewBox="0 0 100 100"><title>•SET8-v2</title><path d="M62.52 15.74a55.51 55.51 0 0 0-10.32 1 52.21 52.21 0 0 0-14.91-2.1c-17.35 0-30.94 7.59-30.94 17.28V50.18c0 8.46 10.53 15.49 25.22 17v2.51c0 9.69 13.6 17.28 31 17.28s30.89-7.57 30.89-17.26V33c0-9.67-13.59-17.26-30.94-17.26zM90.06 33c0 7.52-12.62 13.87-27.54 13.87S35 40.54 35 33s12.59-13.86 27.52-13.86S90.06 25.49 90.06 33zM37.29 18a53 53 0 0 1 7.94.61C36.94 21.67 31.57 26.93 31.57 33v12.42C19.2 44.07 9.75 38.29 9.75 31.87 9.75 24.35 22.36 18 37.29 18zm-5.72 30.86v5.75C19 53.25 9.75 47.55 9.75 41v-1.15c4.25 4.63 12.11 8.02 21.82 9.01zM9.75 50.22V49c4.24 4.63 12.12 8 21.82 9v5.75C19 62.42 9.75 56.72 9.75 50.22zm80.31 19.49c0 7.52-12.62 13.88-27.54 13.88S35 77.23 35 69.71v-1.18c5.08 5.56 15.38 9.28 27.54 9.28S85 74.09 90.06 68.53zm0-9.72v.55c0 7.52-12.62 13.87-27.54 13.87S35 68.06 35 60.54v-1.19c5.08 5.56 15.38 9.29 27.54 9.29S85 64.91 90.06 59.35zm0-9.19v.56c0 7.53-12.62 13.88-27.54 13.88S35 58.89 35 51.36v-1.18c5.08 5.56 15.38 9.29 27.54 9.29S85 55.74 90.06 50.18zm0-8.61c0 7.52-12.62 13.88-27.54 13.88S35 49.71 35 42.19V41c5.08 5.56 15.38 9.28 27.54 9.28S85 46.57 90.06 41z"/></svg>