<svg xmlns="http://www.w3.org/2000/svg" width="24" height="24" viewBox="0 0 24 24"><title>settings_phone</title><path d="M18.984 9H21v2.016h-2.016V9zm1.032 6.516c.563 0 .984.422.984.984v3.516c0 .563-.422.984-.984.984C10.64 21 3 13.36 3 3.984 3 3.42 3.422 3 3.984 3H7.5c.563 0 .984.422.984.984 0 1.266.188 2.438.563 3.563.094.328.047.75-.234 1.03L6.61 10.782c1.453 2.814 3.797 5.157 6.61 6.61l2.202-2.203c.28-.28.703-.328 1.03-.234 1.126.375 2.298.563 3.564.563zm-3-6.516v2.016H15V9h2.016zm-4.032 0v2.016h-1.97V9h1.97z"/></svg>