<svg xmlns="http://www.w3.org/2000/svg" width="24" height="24" viewBox="0 0 24 24"><title>settings4</title><path d="M9.998 8.498c2.04 0 3.702 1.53 3.95 3.502h3.516c-.033-.472-.097-.935-.212-1.38l2.84-1.64-2-3.465-2.837 1.638c-.895-.88-2.01-1.532-3.255-1.877V1.998H7.998v3.278c-1.245.344-2.36.996-3.256 1.876L1.906 5.515l-2 3.466 2.838 1.64c-.155.602-.247 1.228-.247 1.878s.09 1.277.247 1.878l-2.84 1.64 2.002 3.465 2.835-1.636c.896.88 2.013 1.532 3.258 1.876v3.278H12v-7.055c-.59.344-1.27.556-2.002.556-2.21 0-4-1.792-4-4s1.79-4.002 4-4.002zm13 9.502c0-.37-.066-.722-.16-1.062l1.856-1.072-1-1.73-1.843 1.064c-.5-.51-1.14-.875-1.852-1.06V12H18v2.14c-.715.183-1.354.548-1.856 1.06l-1.84-1.064-1 1.73 1.853 1.07c-.095.34-.162.693-.162 1.064s.067.724.162 1.065l-1.853 1.07 1 1.73 1.84-1.064c.502.512 1.142.877 1.856 1.06V24h1.998v-2.14c.713-.186 1.352-.55 1.853-1.06l1.846 1.064 1-1.73-1.858-1.072c.094-.34.16-.692.16-1.062zm-4.002 1.998c-1.104 0-1.998-.895-1.998-1.998s.895-1.998 1.998-1.998 1.998.895 1.998 1.998-.894 1.998-1.998 1.998z"/></svg>