<svg xmlns="http://www.w3.org/2000/svg" width="32" height="32" viewBox="0 0 32 32"><title>share2</title><path d="M27 22c-1.41 0-2.685.586-3.594 1.526l-13.47-6.734c.042-.258.064-.522.064-.79s-.022-.535-.063-.792l13.47-6.734c.908.94 2.182 1.526 3.593 1.526 2.76 0 5-2.24 5-5s-2.24-5-5-5-5 2.24-5 5c0 .27.022.534.063.79l-13.47 6.735C7.686 11.587 6.412 11 5 11c-2.76 0-5 2.24-5 5s2.24 5 5 5c1.41 0 2.685-.585 3.594-1.525l13.47 6.734c-.042.257-.064.52-.064.79 0 2.76 2.24 5 5 5s5-2.24 5-5-2.24-5-5-5z"/></svg>