<svg xmlns="http://www.w3.org/2000/svg" width="24" height="24" viewBox="0 0 24 24"><title>share6</title><path d="M20 16c-1.2 0-2.266.542-3 1.382L9.676 13.72c.2-.538.324-1.113.324-1.72s-.125-1.182-.324-1.72L17 6.618C17.734 7.458 18.8 8 20 8c2.206 0 4-1.795 4-4s-1.794-4-4-4-4 1.795-4 4c0 .287.033.566.09.836L8.62 8.57c.004.004.005.008.008.01C7.716 7.613 6.432 7 5 7c-2.757 0-5 2.243-5 5s2.243 5 5 5c1.432 0 2.716-.613 3.628-1.58-.003.002-.004.006-.007.01l7.47 3.734c-.057.27-.09.55-.09.836 0 2.205 1.794 4 4 4s4-1.795 4-4-1.794-4-4-4zm0-14c1.103 0 2 .896 2 2s-.897 2-2 2-2-.896-2-2 .897-2 2-2zM5 15c-1.654 0-3-1.346-3-3s1.346-3 3-3 3 1.346 3 3-1.346 3-3 3zm15 7c-1.103 0-2-.896-2-2s.897-2 2-2 2 .896 2 2-.897 2-2 2z"/></svg>