<svg xmlns="http://www.w3.org/2000/svg" width="32" height="32" viewBox="0 0 32 32"><title>share</title><path d="M27.998 24c-.97 0-1.828.39-2.523.965l-6.096-4.352c.386-.797.62-1.672.62-2.613 0-1.293-.422-2.488-1.117-3.465l7.13-7.137C26.608 7.746 27.264 8 28 8c2.21 0 4-1.79 4-4s-1.79-4-4-4-4 1.79-4 4c0 .738.258 1.39.602 1.984l-7.13 7.137C16.483 12.42 15.296 12 14 12c-2.29 0-4.258 1.3-5.27 3.19l-4.816-1.608C3.72 12.684 2.957 12 2 12c-1.105 0-2 .895-2 2s.895 2 2 2c.504 0 .953-.203 1.305-.512l4.79 1.598c-.048.3-.095.602-.095.914 0 3.312 2.688 6 6 6 1.648 0 3.145-.668 4.23-1.746l6.057 4.324c-.172.445-.29.918-.29 1.422 0 2.207 1.79 4 4 4s4-1.793 4-4-1.788-4-4-4z"/></svg>