<svg xmlns="http://www.w3.org/2000/svg" width="24" height="24" viewBox="0 0 24 24"><title>shield3</title><path d="M12 20.863c-.38-.215-.972-.57-1.655-1.05-.68-.475-1.442-1.067-2.175-1.76-.85-.803-1.64-1.725-2.22-2.74-.08-.136-.153-.275-.223-.416-.248-.496-.44-1.01-.566-1.536C5.058 12.92 5 12.467 5 12V5.693l7-2.625 7 2.625V12c0 .466-.057.92-.16 1.36-.125.528-.318 1.04-.567 1.537-.07.14-.145.28-.223.417-.58 1.014-1.37 1.936-2.22 2.74-.733.692-1.495 1.285-2.175 1.76-.684.478-1.275.833-1.655 1.05zm.447 2.03c.028-.013 1.04-.52 2.355-1.44.74-.52 1.583-1.172 2.402-1.948.945-.894 1.878-1.967 2.582-3.2.096-.168.188-.34.276-.515.31-.618.56-1.276.723-1.97.138-.583.215-1.19.215-1.82V5c0-.426-.267-.79-.65-.936l-8-3c-.235-.09-.484-.082-.7 0l-8 3c-.4.15-.647.527-.65.936v7c0 .63.077 1.237.214 1.82.164.695.414 1.353.723 1.97.087.176.18.347.276.516.704 1.233 1.637 2.306 2.582 3.2.82.776 1.663 1.43 2.402 1.947 1.314.92 2.327 1.428 2.355 1.442.292.146.62.136.894 0z"/></svg>