<svg xmlns="http://www.w3.org/2000/svg" width="24" height="24" viewBox="0 0 24 24"><title>signal1</title><path fill="#2592e9" d="M12.012 2.598c-5.22 0-9.452 3.9-9.452 8.71 0 3.015 1.22 5.3 3.155 6.773H5.71l.234 3.043v.004c0 .017 0 .03.004.046v.006c.024.143.15.254.3.254.054 0 .1-.015.145-.035l.01-.01L9.3 19.718c.854.196 1.767.3 2.71.3 5.22 0 9.452-3.9 9.452-8.71 0-4.81-4.233-8.71-9.454-8.71h.004zM10.39.72c.525-.065 1.06-.104 1.605-.104.38 0 .75.02 1.12.052l.056-.614C12.78.02 12.393 0 11.998 0c-.57 0-1.135.036-1.69.11l.082.61zm3.797.094c.915.165 1.785.436 2.61.795l.252-.568c-.133-.056-.264-.112-.398-.165-.762-.3-1.55-.524-2.355-.67l-.11.607zm9.17 10.556c-.016.915-.156 1.806-.406 2.655l.59.175c.268-.903.417-1.854.432-2.83h-.616zM6.744 1.814c.81-.39 1.678-.698 2.586-.902L9.197.308c-.63.14-1.25.33-1.853.57-.297.116-.586.244-.867.38l.27.556zm13.65 1.4c-.706-.65-1.485-1.208-2.33-1.674l-.31.54c.81.446 1.56.982 2.224 1.597l.415-.462v-.002zM15.15 22.05c.946-.24 1.846-.59 2.687-1.03l-.315-.532c-.786.413-1.63.738-2.52.967l.15.596zM3.678 4.006c.63-.638 1.347-1.2 2.13-1.675L5.48 1.8c-.698.423-1.35.915-1.945 1.474-.102.094-.2.19-.3.29l.44.44h.002zm19.48 11.28l-.568-.236c-.35.832-.804 1.613-1.355 2.33l.495.37c.577-.758 1.06-1.586 1.424-2.465h.003zm-2.43-10.852c.605.675 1.12 1.425 1.533 2.228l.555-.274c-.435-.852-.98-1.645-1.627-2.366l-.465.413h.003zm2.553 3.003l-.568.244c.313.828.52 1.703.604 2.61l.615-.06c-.087-.957-.304-1.893-.65-2.794zM6.386 22.85l-.97.424-.33-1.025-.586.19.438 1.346c.03.083.09.15.167.188.04.017.083.026.126.026s.085-.01.124-.026l1.283-.563-.25-.56zm3.823-1.194c-.08-.016-.158-.027-.238-.04l-.465-.08c-.06-.01-.12 0-.172.023l-1.95.852.27.554 1.845-.803.37.06c.07.016.14.025.21.037l.13-.604zm3.727.02c-.633.104-1.28.156-1.942.156-.273 0-.525-.015-.772-.038l-.02.615c.252.023.512.04.792.04.698 0 1.383-.06 2.048-.167l-.104-.606h-.003zM1.517 7.116c.37-.825.852-1.598 1.425-2.302l-.47-.407c-.61.745-1.116 1.557-1.508 2.427l-.01.02.563.262zM20.532 18.21c-.612.65-1.31 1.23-2.07 1.728l.34.515c.805-.524 1.54-1.14 2.19-1.83l-.46-.413zM.97 14.55c-.188-.795-.293-1.675-.323-2.67H.03c.03 1.07.146 2.005.346 2.843l.594-.172zM.538 7.926c-.297.91-.468 1.853-.51 2.813l.615.03c.042-.923.21-1.816.487-2.662l-.592-.18zm4.2 13.26l-.59-1.815c-.02-.06-.057-.11-.106-.147-.232-.182-.45-.366-.66-.558l-.422.446c.194.185.408.363.63.542l.56 1.717.587-.185zM2.63 17.893c-.59-.69-1.037-1.45-1.355-2.315l-.573.23c.04.106.083.215.126.32.33.797.77 1.51 1.342 2.176l.46-.41z"/></svg>