<svg xmlns="http://www.w3.org/2000/svg" width="24" height="24" viewBox="0 0 24 24"><title>skyliner</title><path fill="#2fcea0" d="M7.96 17.563c-.18-.037-.365.044-.46.203-.475 1.02-1.576 1.592-2.684 1.395-.203-1.107.373-2.212 1.397-2.68.204-.125.27-.392.146-.597-.068-.11-.183-.188-.312-.205-1.577-.297-3.193.262-4.252 1.47C.546 18.864.074 21.03.5 23.112c.03.185.175.33.36.36.497.08 1 .12 1.507.12 1.834.1 3.625-.582 4.93-1.874.89-1.055 1.26-2.453 1.008-3.81-.02-.186-.16-.336-.345-.374v.027zM23.78.203c-.17-.17-.522-.09-.522-.09C22.62.04 21.98.004 21.34.002 17.184-.04 13.185 1.578 10.232 4.5c-.36.362-.7.742-1.02 1.14-1.402-.65-3.008-.71-4.455-.166-2.287.984-3.623 3.787-4.73 6.67-.086.225.026.477.25.563.144.055.304.03.425-.064 1.566-1.162 3.618-1.444 5.44-.748L5.6 13.856c-.05.184.026.377.187.48C7.253 15.43 8.554 16.73 9.65 18.19c.103.163.298.24.482.188l1.963-.54c.72 1.827.436 3.894-.75 5.457-.147.188-.115.463.072.61.12.096.285.12.428.064 2.883-1.108 5.686-2.442 6.665-4.72.544-1.447.487-3.05-.16-4.452.394-.326.77-.672 1.132-1.036 3.38-3.44 5-8.24 4.392-13.026 0 0 .076-.352-.096-.524v-.01zm-2.44.667c.564 0 1.128.03 1.69.088.078.77.102 1.548.07 2.322-.612-.066-1.185-.34-1.624-.77-.438-.438-.713-1.01-.777-1.624.21-.01.422-.018.636-.018l.006.002zM10.847 5.112C13.262 2.716 16.438 1.24 19.828.94c.07.677.33 1.318.75 1.855l-2.7 2.697c-1.528-1.203-3.74-.94-4.945.59-1.005 1.278-1.005 3.078 0 4.356l-3.147 3.147c-.81-.785-1.69-1.498-2.626-2.13.662-2.395 1.932-4.58 3.686-6.343zm7.524 3.16c0 1.468-1.188 2.66-2.657 2.66-1.47 0-2.66-1.19-2.66-2.657 0-1.47 1.19-2.66 2.657-2.66h.003c1.467 0 2.656 1.19 2.657 2.656zM1.314 11.268c.94-2.255 2.09-4.27 3.78-4.995 1.153-.428 2.427-.396 3.558.09C7.64 7.78 6.872 9.36 6.387 11.033c-1.645-.667-3.498-.58-5.074.233v.003zm8.89 6.19c-1.073-1.37-2.31-2.605-3.682-3.678l.395-1.434c1.845 1.275 3.444 2.874 4.722 4.718l-1.435.393zm7.51 1.424c-.728 1.698-2.738 2.848-4.99 3.79.81-1.58.893-3.433.225-5.075 1.676-.49 3.258-1.26 4.678-2.28.484 1.135.515 2.413.083 3.567l.003-.003zm-5.187-2.06c-.63-.937-1.34-1.816-2.123-2.628l3.147-3.148c1.53 1.203 3.744.94 4.946-.59 1.006-1.278 1.006-3.078 0-4.356l2.698-2.698c.535.418 1.177.677 1.85.75-.3 3.387-1.772 6.563-4.166 8.98-1.763 1.753-3.947 3.02-6.343 3.683l-.008.007z"/></svg>