<svg xmlns="http://www.w3.org/2000/svg" width="32" height="32" viewBox="0 0 32 32"><title>speedometer</title><path d="M16-.034C7.16-.034-.035 7.158-.035 16S7.16 32.034 16 32.034 32.035 24.842 32.035 16 24.84-.034 16-.034zm0 31C7.748 30.966 1.035 24.252 1.035 16S7.748 1.034 16 1.034 30.965 7.748 30.965 16 24.252 30.966 16 30.966zm.5-24.913c.305 0 .553-.247.553-.553v-2c0-.306-.248-.553-.553-.553s-.553.247-.553.553v2c0 .306.248.553.553.553zm-11 8.894h-2c-.305 0-.553.247-.553.553s.248.553.553.553h2c.305 0 .553-.247.553-.553s-.248-.553-.553-.553zm20.447.553c0 .306.248.553.553.553h2c.305 0 .553-.247.553-.553s-.248-.553-.553-.553h-2c-.305 0-.553.247-.553.553zM8.575 10.128c.142 0 .283-.054.39-.162.217-.216.217-.565 0-.78L7.392 7.608c-.215-.218-.564-.218-.78 0s-.216.564 0 .78l1.575 1.575c.107.11.25.163.39.163zm15.316 10.98c-.215-.216-.564-.216-.78 0s-.216.566 0 .782l1.5 1.5c.108.108.25.162.39.162s.284-.054.392-.162c.216-.216.216-.565 0-.78l-1.5-1.5zm1-13.217c.217-.215.217-.564 0-.78s-.564-.217-.78 0l-1.575 1.575c-.216.216-.216.565 0 .78.108.11.25.163.39.163s.284-.054.392-.162L24.89 7.89zM8.61 21.61l-1.5 1.5c-.217.215-.217.564 0 .78.107.108.248.162.39.162s.283-.054.39-.162l1.5-1.5c.217-.216.217-.565 0-.78s-.565-.217-.78 0zM19.5 24h-7c-.89-.034-1.535.61-1.535 1.5v.957c0 .898.674 1.603 1.535 1.543h7c.86.06 1.535-.645 1.535-1.543V25.5c0-.89-.646-1.534-1.535-1.5zm.465 2.457c0 .257-.146.534-.465.568h-7c-.32-.034-.465-.312-.465-.025v-.957c0-.84.17-1.01.465-1.043h7c.296.034.465.204.465.5v.957zM16 18.667c.712 0 1.382-.277 1.885-.78.91-.912 1.024-2.32.34-3.356l2.653-2.652c.208-.21.208-.547 0-.756-.21-.21-.547-.21-.756 0l-2.656 2.656c-1.025-.655-2.473-.543-3.35.336-1.04 1.04-1.04 2.73 0 3.77.502.506 1.172.783 1.884.783zm-.942-3.61c.25-.25.586-.39.942-.39s.69.14.943.39c.52.52.52 1.366 0 1.886-.503.504-1.38.504-1.885 0-.52-.52-.52-1.366 0-1.885z"/></svg>