<svg xmlns="http://www.w3.org/2000/svg" width="29" height="32" viewBox="0 0 29 32"><title>streetsign</title><path d="M15 31.5V22c0-.276-.133-1-.41-1s-.59.224-.59.5v10c0 .276.314.5.59.5s.41-.224.41-.5zm.09-29.938V.5c0-.276-.223-.5-.5-.5s-.5.224-.5.5v1.062c0 .276.225.5.5.5s.5-.223.5-.5zm-11.2 1.91L.323 6.268C.118 6.457 0 6.724 0 7s.118.542.354.758l3.505 2.745c.306.283.853.497 1.272.497H18.96c.573 0 1.04-.463 1.04-1.033V4.033C20 3.463 19.533 3 18.96 3H5.132c-.42 0-.966.214-1.242.47zM19 9.966c0 .015-.018.033-.04.033H5.132c-.17 0-.47-.117-.625-.258L.97 7.03l3.567-2.8c.125-.113.425-.23.595-.23L19 4.033v5.934zm6.14 2.53c-.306-.283-.853-.497-1.272-.497H10.04C9.467 12 9 12.463 9 13.033v5.935c0 .57.467 1.032 1.04 1.032h13.828c.42 0 .966-.214 1.243-.47l3.567-2.8c.205-.188.323-.455.323-.73s-.118-.542-.354-.758l-3.505-2.745zM10 13h13.868c.17 0 .47.117.625.258l3.536 2.713-3.567 2.8c-.125.113-.425.23-.595.23H10v-6z"/></svg>