<svg xmlns="http://www.w3.org/2000/svg" width="32" height="32" viewBox="0 0 32 32"><title>sun</title><path d="M16 26c1.105 0 2 .895 2 2v2c0 1.105-.895 2-2 2s-2-.895-2-2v-2c0-1.105.895-2 2-2zm0-20c-1.105 0-2-.895-2-2V2c0-1.105.895-2 2-2s2 .895 2 2v2c0 1.105-.895 2-2 2zm14 8c1.105 0 2 .895 2 2s-.895 2-2 2h-2c-1.105 0-2-.895-2-2s.895-2 2-2h2zM6 16c0 1.105-.895 2-2 2H2c-1.105 0-2-.895-2-2s.895-2 2-2h2c1.105 0 2 .895 2 2zm19.9 7.07l1.413 1.415c.78.78.78 2.047 0 2.828s-2.047.78-2.828 0L23.07 25.9c-.78-.782-.78-2.048 0-2.83s2.048-.78 2.83 0zM6.1 8.93L4.688 7.514c-.78-.78-.78-2.047 0-2.828s2.047-.78 2.828 0L8.93 6.1c.78.782.78 2.048 0 2.83s-2.048.78-2.83 0zm19.8 0c-.782.78-2.048.78-2.83 0s-.78-2.048 0-2.83l1.415-1.413c.78-.78 2.047-.78 2.828 0s.78 2.047 0 2.828L25.9 8.93zM6.1 23.07c.782-.78 2.048-.78 2.83 0s.78 2.048 0 2.83l-1.415 1.413c-.78.78-2.047.78-2.828 0s-.78-2.047 0-2.828L6.1 23.07zM16 8c-4.418 0-8 3.582-8 8s3.582 8 8 8 8-3.582 8-8-3.582-8-8-8zm0 13c-2.76 0-5-2.24-5-5s2.24-5 5-5 5 2.24 5 5-2.24 5-5 5z"/></svg>