<svg xmlns="http://www.w3.org/2000/svg" width="32" height="32" viewBox="0 0 32 32"><title>switch</title><path d="M30 16c0 7.732-6.268 14-14 14S2 23.732 2 16c0-3.408 1.226-6.523 3.25-8.95.154-.284.368-.53.635-.71.045-.047.085-.1.13-.146.002.023.012.045.014.068C6.317 6.1 6.645 6 7 6c1.104 0 2 .896 2 2 0 .696-.355 1.308-.895 1.666.035.026.06.058.096.084C6.827 11.462 6 13.633 6 16c0 5.523 4.477 10 10 10s10-4.477 10-10c0-2.367-.826-4.538-2.2-6.25.035-.026.06-.058.095-.084C23.355 9.308 23 8.696 23 8c0-1.104.896-2 2-2 .354 0 .682.1.97.262.003-.023.013-.045.015-.068.045.046.085.1.13.146.268.18.48.426.636.71C28.774 9.477 30 12.592 30 16zm-13 2h-2c-.553 0-1-.447-1-1V3c0-.552.447-1 1-1h2c.553 0 1 .448 1 1v14c0 .553-.447 1-1 1z"/></svg>