<svg xmlns="http://www.w3.org/2000/svg" width="32" height="32" viewBox="0 0 32 32"><title>target-arrow</title><path d="M9 23.77l-1 1V28H7v-2.23l-1.293 1.294L5 26.357 6.357 25H4v-1h3.357l1-1H6v-1h3.357l5.322-5.322L14 16l3-1-1 3-.613-.614L10 22.772v3.23H9v-2.23zM7.78 21C6.653 19.274 6 17.214 6 15 6 8.925 10.925 4 17 4s11 4.925 11 11-4.925 11-11 11c-2.214 0-4.274-.654-6-1.78v-1.07l.085-.086C12.74 24.28 14.787 25 17 25c5.523 0 10-4.477 10-10S22.523 5 17 5 7 9.477 7 15c0 2.227.728 4.285 1.96 5.947L8.907 21H7.78zm6.223-5.858C14 15.095 14 15.048 14 15c0-1.657 1.343-3 3-3s3 1.343 3 3-1.343 3-3 3c-.048 0-.095 0-.142-.003l.282-.988.015-.016C18.187 16.914 19 16.052 19 15c0-1.105-.895-2-2-2-1.056 0-1.92.818-1.995 1.856l-1.002.286zm-2.888 3.65C10.41 17.7 10 16.398 10 15c0-3.866 3.134-7 7-7s7 3.134 7 7-3.134 7-7 7c-1.383 0-2.672-.4-3.758-1.093l.727-.727c.888.52 1.924.82 3.03.82 3.313 0 6-2.686 6-6s-2.687-6-6-6c-3.315 0-6 2.686-6 6 0 1.12.306 2.168.84 3.065l-.726.726z"/></svg>