<svg xmlns="http://www.w3.org/2000/svg" width="32" height="32" viewBox="0 0 32 32"><title>target3</title><path d="M31 14h-3.173C26.982 8.98 23.02 5.025 18 4.18V1c0-.553-.447-1-1-1h-2c-.553 0-1 .447-1 1v3.18c-5.02.845-8.982 4.8-9.827 9.82H1c-.553 0-1 .447-1 1v2c0 .553.447 1 1 1h3.173c.845 5.02 4.806 8.976 9.827 9.82V31c0 .553.447 1 1 1h2c.553 0 1-.447 1-1v-3.18c5.02-.845 8.982-4.8 9.827-9.82H31c.553 0 1-.447 1-1v-2c0-.553-.447-1-1-1zm-7.254 0H18V8.262c2.81.725 5.02 2.93 5.746 5.738zM14 8.262V14H8.253C8.978 11.193 11.19 8.987 14 8.262zM8.253 18H14v5.737c-2.81-.723-5.022-2.93-5.747-5.737zM18 23.737V18h5.746c-.725 2.808-2.937 5.014-5.746 5.737z"/></svg>