<svg xmlns="http://www.w3.org/2000/svg" width="24" height="24" viewBox="0 0 24 24"><title>target10</title><path d="M23 12c0-1.488-.296-2.91-.833-4.207-.558-1.347-1.375-2.558-2.388-3.57s-2.225-1.832-3.572-2.39C14.91 1.297 13.488 1 12 1s-2.91.296-4.207.833c-1.347.558-2.558 1.375-3.57 2.39s-1.832 2.223-2.39 3.57C1.296 9.09 1 10.513 1 12s.296 2.91.833 4.207c.558 1.347 1.375 2.558 2.388 3.57s2.225 1.832 3.572 2.39C9.09 22.703 10.512 23 12 23s2.91-.296 4.207-.833c1.347-.558 2.558-1.375 3.57-2.388s1.832-2.225 2.39-3.572C22.703 14.91 23 13.488 23 12zm-2 0c0 1.22-.243 2.383-.68 3.442-.457 1.1-1.125 2.092-1.956 2.922s-1.822 1.5-2.922 1.955c-1.06.437-2.22.68-3.442.68s-2.383-.243-3.442-.68c-1.1-.457-2.092-1.125-2.922-1.956-.83-.83-1.5-1.822-1.955-2.922C3.244 14.382 3 13.222 3 12s.243-2.383.68-3.442c.457-1.1 1.125-2.092 1.956-2.922s1.822-1.5 2.922-1.955C9.618 3.244 10.778 3 12 3s2.383.243 3.442.68c1.1.457 2.092 1.125 2.922 1.956.83.83 1.5 1.822 1.955 2.922.437 1.06.68 2.22.68 3.442zm-2 0c0-.946-.188-1.85-.53-2.677-.355-.857-.875-1.628-1.52-2.273s-1.415-1.165-2.273-1.52C13.85 5.188 12.947 5 12 5s-1.85.188-2.677.53c-.858.356-1.628.876-2.273 1.52S5.886 8.465 5.53 9.323C5.188 10.15 5 11.053 5 12s.188 1.85.53 2.677c.355.857.875 1.628 1.52 2.273s1.415 1.165 2.273 1.52c.826.342 1.73.53 2.677.53s1.85-.188 2.677-.53c.857-.355 1.628-.875 2.273-1.52s1.165-1.415 1.52-2.273c.342-.826.53-1.73.53-2.677zm-2 0c0 .68-.135 1.324-.378 1.912-.253.61-.624 1.162-1.086 1.624s-1.013.833-1.624 1.086C13.324 16.865 12.68 17 12 17s-1.324-.135-1.912-.378c-.61-.253-1.162-.624-1.624-1.086s-.833-1.013-1.086-1.624C7.135 13.324 7 12.68 7 12s.135-1.324.378-1.912c.253-.61.624-1.162 1.086-1.624s1.013-.833 1.624-1.086C10.676 7.135 11.32 7 12 7s1.324.135 1.912.378c.61.253 1.162.624 1.624 1.086s.833 1.013 1.086 1.624c.243.588.378 1.233.378 1.912zm-2 0c0-.405-.08-.793-.228-1.148-.152-.368-.375-.698-.65-.974s-.607-.5-.975-.65C12.793 9.08 12.405 9 12 9s-.793.08-1.148.228c-.368.152-.698.375-.974.65s-.5.607-.65.975C9.08 11.207 9 11.595 9 12s.08.793.228 1.148c.152.368.375.698.65.974s.607.5.975.65c.354.147.742.228 1.147.228s.793-.08 1.148-.228c.368-.152.698-.375.974-.65s.5-.607.65-.975c.147-.354.228-.742.228-1.147zm-2 0c0 .137-.027.266-.075.382-.05.122-.125.232-.218.325s-.203.167-.325.218c-.116.048-.245.075-.382.075s-.266-.027-.382-.075c-.122-.05-.232-.125-.325-.218s-.167-.203-.218-.325C11.027 12.266 11 12.137 11 12s.027-.266.075-.382c.05-.122.125-.232.218-.325s.203-.167.325-.218c.116-.048.245-.075.382-.075s.266.027.382.075c.122.05.232.125.325.218s.167.203.218.325c.048.116.075.245.075.382z"/></svg>