<svg xmlns="http://www.w3.org/2000/svg" width="24" height="24" viewBox="0 0 24 24"><title>th-list1</title><path d="M19 17h-7c-1.103 0-2 .897-2 2s.897 2 2 2h7c1.103 0 2-.897 2-2s-.897-2-2-2zM19 10h-7c-1.103 0-2 .897-2 2s.897 2 2 2h7c1.103 0 2-.897 2-2s-.897-2-2-2zM19 3h-7c-1.103 0-2 .897-2 2s.897 2 2 2h7c1.103 0 2-.897 2-2s-.897-2-2-2zM7.5 19c0 1.38-1.12 2.5-2.5 2.5S2.5 20.38 2.5 19s1.12-2.5 2.5-2.5 2.5 1.12 2.5 2.5zM7.5 12c0 1.38-1.12 2.5-2.5 2.5S2.5 13.38 2.5 12 3.62 9.5 5 9.5s2.5 1.12 2.5 2.5zM7.5 5c0 1.38-1.12 2.5-2.5 2.5S2.5 6.38 2.5 5 3.62 2.5 5 2.5 7.5 3.62 7.5 5z"/></svg>