<svg xmlns="http://www.w3.org/2000/svg" width="24" height="28" viewBox="0 0 24 28"><title>thumbs-o-up</title><path d="M4 21c0-.547-.453-1-1-1s-1 .453-1 1 .453 1 1 1 1-.453 1-1zm18-9c0-1.062-.953-2-2-2h-5.5c0-1.828 1.5-3.156 1.5-5 0-1.828-.36-3-2.5-3-1 1.016-.484 3.406-2 5-.438.453-.812.938-1.203 1.422C9.594 9.328 7.735 12 6.5 12H6v10h.5c.875 0 2.312.562 3.156.86 1.72.593 3.5 1.14 5.344 1.14h1.89c1.767 0 3-.703 3-2.61 0-.296-.03-.593-.077-.874.656-.36 1.016-1.25 1.016-1.97 0-.374-.095-.75-.282-1.077.53-.5.828-1.126.828-1.86 0-.5-.22-1.234-.547-1.61.733-.015 1.17-1.42 1.17-2zm2-.016c0 .906-.266 1.797-.766 2.547.094.345.14.72.14 1.08 0 .78-.202 1.562-.593 2.25.032.218.048.452.048.67 0 1-.328 2-.938 2.782.03 2.953-1.984 4.688-4.875 4.688H15c-2.22 0-4.282-.656-6.345-1.375C8.202 24.47 6.935 24 6.5 24H2c-1.11 0-2-.89-2-2V12c0-1.11.89-2 2-2h4.28c.61-.406 1.672-1.813 2.14-2.422.532-.688 1.08-1.36 1.673-2 .938-1 .438-3.47 2-5C12.468.218 12.968 0 13.5 0c1.624 0 3.186.578 3.952 2.094.484.953.547 1.86.547 2.906 0 1.094-.282 2.03-.75 3H20c2.155 0 4 1.828 4 3.984z"/></svg>