<svg xmlns="http://www.w3.org/2000/svg" width="24" height="28" viewBox="0 0 24 28"><title>thumbs-o-down</title><path d="M4 7c0-.547-.453-1-1-1s-1 .453-1 1 .453 1 1 1 1-.453 1-1zm18 9c0-.578-.438-1.984-1.172-2 .328-.375.547-1.11.547-1.61 0-.733-.297-1.358-.828-1.858.187-.328.28-.703.28-1.078 0-.72-.358-1.61-1.015-1.97.047-.28.078-.577.078-.874C19.89 4.782 18.734 4 17 4h-2c-1.845 0-3.626.548-5.345 1.142-.844.297-2.28.86-3.156.86H6v10h.5c1.233 0 3.093 2.67 3.796 3.577.39.483.766.968 1.203 1.42 1.515 1.595 1 3.985 2 5 2.14 0 2.5-1.17 2.5-3 0-1.843-1.5-3.17-1.5-5H20c1.046 0 2-.937 2-2zm2 .016C24 18.172 22.156 20 20 20h-2.75c.47.97.75 1.906.75 3 0 1.03-.063 1.97-.547 2.906C16.687 27.422 15.125 28 13.5 28c-.53 0-1.03-.22-1.406-.578-1.563-1.53-1.078-4-2-5.016-.594-.625-1.14-1.297-1.672-1.984-.47-.61-1.53-2.016-2.14-2.422H2c-1.11 0-2-.89-2-2V6c0-1.11.89-2 2-2h4.5c.438 0 1.703-.47 2.156-.625C10.906 2.595 12.86 2 15.266 2h1.75c2.843 0 4.89 1.687 4.874 4.61v.077c.61.78.938 1.78.938 2.78 0 .22-.016.454-.047.673.392.688.595 1.47.595 2.25 0 .36-.047.734-.14 1.078.5.75.765 1.64.765 2.547z"/></svg>