<svg xmlns="http://www.w3.org/2000/svg" width="28" height="28" viewBox="0 0 28 28"><title>ticket4</title><path d="M16 7.063L20.937 12 12 20.937 7.063 16zM12.703 22.36l9.656-9.657c.39-.39.39-1.016 0-1.406L16.702 5.64c-.375-.374-1.03-.374-1.406 0L5.64 15.298c-.39.39-.39 1.016 0 1.406l5.657 5.656c.187.186.438.28.703.28s.516-.094.703-.28zm13.89-9.954l-14.17 14.187c-.782.766-2.064.766-2.83 0l-1.968-1.97c1.172-1.17 1.172-3.077 0-4.25s-3.078-1.17-4.25 0l-1.953-1.968c-.78-.766-.78-2.047 0-2.828L15.594 1.42c.766-.78 2.047-.78 2.828 0l1.953 1.954c-1.172 1.172-1.172 3.078 0 4.25s3.078 1.172 4.25 0l1.97 1.953c.765.78.765 2.063 0 2.828z"/></svg>