<svg xmlns="http://www.w3.org/2000/svg" viewBox="0 0 455.731 455.731"><path fill="#2F4F6E" d="M0 0h455.73v455.73H0z"/><path d="M336.473 330.067v55.802c-.103.042-.214.085-.317.128-6.63 3.105-13.374 5.953-20.228 8.544-16.307 6.16-33.172 9.59-50.586 10.337-1.536.06-3.07.162-4.615.24-3.37 0-10.56-.087-10.79-.095-5.38-.146-10.732-.566-16.068-1.27-8.76-1.167-17.312-3.165-25.6-6.27-13.167-4.916-24.773-12.2-34.398-22.528-7.463-8.012-12.464-17.242-14.437-28.085-1.5-8.278-2.093-16.616-2.093-25.006-.034-41.613-.017-84.18-.017-125.792H119.26v-50.75c4.21-1.663 8.444-3.12 12.553-5.026 21.73-10.097 37.624-26.095 47.712-47.815 4.933-10.637 7.703-21.926 9.608-33.455.463-2.797.832-5.61 1.244-8.415h50.27l.016 89.806h84.102v55.655H240.62s.052 99.01.13 102.313c.18 7.523.54 15.03 1.69 22.484 1.244 8.012 5.25 14.223 12 18.666 6.615 4.35 13.915 6.837 21.773 7.678 7.815.84 15.57.25 23.264-1.304 13.43-2.703 25.613-8.347 36.996-15.845z" fill="#FFF"/></svg>