<svg xmlns="http://www.w3.org/2000/svg" width="32" height="32" viewBox="0 0 32 32"><title>tux</title><path d="M17.74 23.03c-2.562 1.19-4.943 1.178-6.543 1.062-1.908-.138-3.442-.66-4.117-1.117-.416-.28-.98-.173-1.262.243s-.173.98.243 1.262c1.085.734 3.003 1.28 5.006 1.424.34.024.712.04 1.114.04 1.743 0 3.957-.166 6.326-1.268.455-.212.652-.752.44-1.207s-.75-.653-1.207-.442zM27.84 21.68c.087-7.896.9-22.82-14.218-21.613C-1.3 1.27 2.656 17.036 2.434 22.316 2.237 25.11 1.31 28.525 0 32h4.034c.415-1.473.72-2.93.85-4.317.244.17.504.334.782.49.452.267.84.62 1.25.996.962.875 2.05 1.867 4.18 1.99.143.01.287.013.427.013 2.153 0 3.625-.942 4.81-1.7.566-.362 1.056-.675 1.517-.826 1.31-.41 2.454-1.072 3.31-1.914.133-.13.257-.267.373-.405.476 1.746 1.13 3.71 1.853 5.672H32c-2.068-3.195-4.2-6.324-4.158-10.318zM3.878 17.386c-.148-2.578 1.085-4.746 2.754-4.843s3.142 1.913 3.29 4.49c.01.14.012.277.013.414-.53.133-1.006.326-1.434.55 0-.018-.002-.037-.004-.056-.143-1.463-.924-2.567-1.745-2.467s-1.37 1.367-1.227 2.83c.062.64.246 1.208.5 1.64-.063.05-.242.182-.45.333l-.57.42c-.622-.815-1.048-1.987-1.124-3.31zm16.91 6.37c-.058 1.362-1.84 2.643-3.486 3.158l-.01.003c-.683.222-1.294.613-1.94 1.026-1.085.695-2.208 1.413-3.83 1.413-.105 0-.214-.003-.322-.01-1.485-.086-2.18-.72-3.06-1.52-.463-.423-.942-.86-1.56-1.223l-.014-.008c-1.335-.753-2.163-1.69-2.216-2.506-.026-.407.154-.758.537-1.045.832-.624 1.39-1.032 1.76-1.302.41-.3.532-.39.624-.477.067-.062.137-.13.214-.205.764-.742 2.043-1.985 4.005-1.985 1.2 0 2.527.462 3.942 1.372.666.434 1.246.634 1.98.887.506.174 1.078.372 1.844.7l.012.005c.715.293 1.56.83 1.52 1.716zm-.393-3.2c-.137-.07-.28-.135-.43-.196-.69-.296-1.245-.496-1.704-.656.255-.497.412-1.116.427-1.79.035-1.637-.79-2.966-1.844-2.968s-1.936 1.322-1.97 2.96c-.002.054-.002.107-.002.16-.648-.3-1.286-.515-1.91-.65l-.008-.184v-.002c-.06-2.982 1.77-5.45 4.086-5.513s4.245 2.303 4.305 5.285v.002c.027 1.348-.333 2.59-.95 3.552z"/></svg>