<svg xmlns="http://www.w3.org/2000/svg" width="24" height="24" viewBox="0 0 24 24"><title>twoo</title><path fill="#ff7102" d="M10.116 16.877c.064-.054.13-.11.19-.168-1.21 1.175-2.757 1.755-4.292 1.734H5.99c-1.544-.025-3.08-.656-4.244-1.894-.733-.78-1.233-1.708-1.507-2.69v-.008c-.605-2.2-.066-4.674 1.604-6.406 2.346-2.434 6.072-2.492 8.46-.205l1.757 1.846 4.23 4.484h.017c.045.046.09.076.12.12.854.78 2.16.75 2.985-.104.87-.9.9-2.37.047-3.285-.093-.104-.198-.194-.304-.27l-.24-.165c-.824-.45-1.875-.3-2.58.42-.105.105-.195.226-.27.346-.3.466-.406 1.02-.346 1.562l-1.514-1.53L12.45 9c.286-.563.657-1.095 1.114-1.57.105-.104.21-.21.318-.306-.064.055-.13.11-.19.168 1.21-1.176 2.757-1.754 4.292-1.734h.023c1.545.025 3.08.656 4.246 1.895.732.78 1.232 1.708 1.506 2.694v.006c.604 2.197.065 4.676-1.606 6.405-2.346 2.434-6.072 2.494-8.46.205l-1.213-1.286-.542-.58-4.225-4.502-.004-.015c-.017 0-.017-.015-.017-.015-.045-.046-.09-.09-.12-.136-.855-.78-2.16-.765-2.985.105-.87.9-.9 2.37-.045 3.272.09.105.195.18.3.27l.24.15c.825.436 1.876.3 2.58-.436.105-.104.196-.225.27-.345.302-.464.405-1.033.346-1.574l1.514 1.56L11.552 15c-.285.564-.657 1.096-1.115 1.57-.104.104-.21.21-.318.305l-.004.004z"/></svg>