<svg xmlns="http://www.w3.org/2000/svg" width="26" height="28" viewBox="0 0 26 28"><title>umbrella4</title><path d="M14 12.938V22c0 2.173-1.828 4-4 4s-4-1.827-4-4c0-.546.453-1 1-1s1 .454 1 1c0 1.048.953 2 2 2s2-.952 2-2V12.94c.328-.11.656-.172 1-.172s.672.063 1 .172zm12 .42c0 .267-.234.5-.5.5-.14 0-.25-.062-.36-.155-.905-.844-1.75-1.437-3.046-1.437-1.484 0-2.766.922-3.61 2.094-.186.266-.327.547-.5.812-.108.172-.233.266-.437.266-.22 0-.344-.094-.453-.266-.172-.266-.313-.547-.5-.812-.844-1.172-2.11-2.094-3.594-2.094s-2.75.922-3.594 2.094c-.187.266-.328.547-.5.812-.11.172-.234.266-.453.266-.203 0-.328-.094-.438-.266-.172-.266-.313-.547-.5-.812-.844-1.172-2.125-2.094-3.61-2.094-1.296 0-2.14.594-3.046 1.437-.11.094-.22.156-.36.156-.266 0-.5-.235-.5-.5 0-.048 0-.08.016-.11C1.453 7.344 7.156 4 13 4c5.812 0 11.578 3.344 12.984 9.25.016.03.016.063.016.11zM14 2v1.53c-.328-.015-.672-.03-1-.03s-.672.016-1 .03V2c0-.547.453-1 1-1s1 .453 1 1z"/></svg>