<svg xmlns="http://www.w3.org/2000/svg" width="28" height="28" viewBox="0 0 28 28"><title>universal-access</title><path d="M21.47 10.266c-.126-.53-.657-.86-1.204-.734-2.234.53-4.266.97-6.266.97s-4.03-.44-6.266-.97c-.547-.125-1.078.203-1.203.734-.124.547.204 1.078.735 1.203 1.656.39 3.203.733 4.734.905-.064 5.28-.642 6.75-1.298 8.437l-.14.328c-.204.516.062 1.094.577 1.297.108.047.233.063.358.063.406 0 .78-.234.938-.64l.125-.314c.44-1.125.845-2.172 1.11-4.047h.656c.266 1.874.672 2.92 1.11 4.046l.124.313c.156.405.53.64.938.64.125 0 .25-.016.36-.063.515-.203.78-.78.577-1.297l-.14-.328c-.657-1.687-1.235-3.156-1.298-8.437 1.53-.172 3.078-.516 4.734-.906.532-.126.86-.657.735-1.204zM16 8c0-1.11-.89-2-2-2s-2 .89-2 2 .89 2 2 2 2-.89 2-2zm9 6c0 6.078-4.922 11-11 11S3 20.078 3 14 7.922 3 14 3s11 4.922 11 11zM14 2C7.39 2 2 7.39 2 14s5.39 12 12 12 12-5.39 12-12S20.61 2 14 2zm14 12c0 7.734-6.266 14-14 14S0 21.734 0 14 6.266 0 14 0s14 6.266 14 14z"/></svg>