<svg xmlns="http://www.w3.org/2000/svg" width="24" height="24" viewBox="0 0 24 24"><title>users3</title><path d="M18 21v-2c0-.675-.134-1.322-.38-1.912-.253-.613-.624-1.163-1.084-1.623s-1.01-.832-1.623-1.085c-.59-.246-1.238-.38-1.913-.38H5c-.675 0-1.322.134-1.912.38-.613.253-1.163.624-1.623 1.084S.633 16.474.38 17.087C.134 17.677 0 18.325 0 19v2c0 .552.448 1 1 1s1-.448 1-1v-2c0-.408.08-.795.227-1.147.152-.366.375-.697.652-.974s.607-.5.973-.653C4.205 16.08 4.593 16 5 16h8c.408 0 .795.08 1.147.227.366.152.697.375.974.652s.5.607.653.973c.146.352.227.74.227 1.147v2c0 .552.448 1 1 1s1-.448 1-1zM14 7c0-.675-.134-1.322-.38-1.912-.253-.613-.624-1.163-1.084-1.623s-1.01-.832-1.623-1.085C10.323 2.134 9.675 2 9 2s-1.322.134-1.912.38c-.613.253-1.163.624-1.624 1.084s-.83 1.01-1.085 1.624C4.133 5.678 4 6.325 4 7s.134 1.322.38 1.912c.253.613.624 1.163 1.084 1.623s1.01.832 1.623 1.085c.59.246 1.238.38 1.913.38s1.322-.134 1.912-.38c.613-.253 1.163-.624 1.623-1.084s.832-1.01 1.085-1.623c.246-.59.38-1.238.38-1.913zm-2 0c0 .408-.08.795-.227 1.147-.152.366-.375.697-.652.974s-.607.5-.973.653C9.795 9.92 9.407 10 9 10s-.795-.08-1.147-.227c-.366-.152-.697-.374-.974-.652s-.5-.607-.653-.973C6.08 7.795 6 7.407 6 7s.08-.795.227-1.147c.152-.366.375-.697.652-.974s.607-.5.973-.653C8.205 4.08 8.593 4 9 4s.795.08 1.147.227c.366.152.697.375.974.652s.5.607.653.973c.146.352.227.74.227 1.147zm12 14v-2c0-.61-.11-1.198-.314-1.742-.21-.562-.517-1.075-.902-1.52-.652-.752-1.528-1.31-2.53-1.575-.533-.14-1.08.177-1.22.71s.176 1.082.71 1.223c.607.16 1.136.498 1.528.952.232.267.415.575.54.91.12.323.188.674.188 1.042v2c0 .552.448 1 1 1s1-.448 1-1zM15.752 4.1c.395.1.75.275 1.055.503.317.238.582.536.782.873s.333.713.39 1.106c.053.377.035.772-.066 1.167-.087.34-.228.648-.41.92-.19.283-.424.53-.695.732-.315.235-.676.41-1.064.51-.534.14-.854.688-.713 1.222s.687.854 1.22.713c.638-.167 1.233-.455 1.754-.844.448-.335.842-.746 1.16-1.22.306-.46.54-.976.685-1.538.168-.654.198-1.314.107-1.947-.095-.656-.318-1.282-.65-1.842s-.773-1.056-1.303-1.454c-.51-.383-1.104-.674-1.76-.842-.534-.137-1.08.186-1.216.72s.187 1.08.722 1.218z"/></svg>