<svg xmlns="http://www.w3.org/2000/svg" viewBox="0 0 455.731 455.731"><path fill="#7D3DAF" d="M0 0h455.73v455.73H0z"/><g fill="#FFF"><path d="M371.996 146.9l-.09-.36c-7.28-29.43-40.1-61.01-70.24-67.58l-.34-.07c-48.75-9.3-98.18-9.3-146.92 0l-.35.07c-30.13 6.57-62.95 38.15-70.24 67.58l-.08.36c-9 41.1-9 82.78 0 123.88l.08.36c6.98 28.175 37.355 58.304 66.37 66.59v32.852c0 11.89 14.49 17.73 22.73 9.15l33.285-34.6c7.22.405 14.443.63 21.666.63 24.54 0 49.09-2.32 73.46-6.97l.34-.07c30.14-6.57 62.96-38.15 70.24-67.58l.09-.36c9-41.1 9-82.78 0-123.88zm-26.34 117.92c-4.86 19.2-29.78 43.07-49.58 47.48-25.92 4.93-52.047 7.037-78.147 6.314-.52-.014-1.02.187-1.38.56-3.705 3.8-24.304 24.947-24.304 24.947l-25.85 26.53c-1.89 1.97-5.21.63-5.21-2.09v-54.42c0-.9-.642-1.664-1.525-1.837l-.014-.003c-19.8-4.41-44.71-28.28-49.58-47.48-8.1-37.15-8.1-74.81 0-111.96 4.87-19.2 29.78-43.07 49.58-47.48 45.27-8.61 91.17-8.61 136.43 0 19.81 4.41 44.72 28.28 49.58 47.48 8.11 37.15 8.11 74.81 0 111.96z"/><path d="M270.937 289.942c-3.044-.924-5.945-1.545-8.64-2.663-27.915-11.583-53.607-26.525-73.958-49.43-11.574-13.025-20.632-27.73-28.29-43.292-3.63-7.38-6.69-15.05-9.81-22.668-2.843-6.948 1.346-14.126 5.757-19.36 4.14-4.914 9.465-8.674 15.233-11.445 4.502-2.163 8.943-.916 12.23 2.9 7.11 8.25 13.638 16.922 18.925 26.485 3.25 5.882 2.36 13.072-3.533 17.075-1.432.973-2.737 2.115-4.07 3.214-1.17.962-2.272 1.935-3.074 3.24-1.466 2.385-1.536 5.2-.592 7.793 7.266 19.968 19.513 35.495 39.61 43.858 3.217 1.34 6.447 2.897 10.152 2.465 6.205-.725 8.214-7.53 12.562-11.087 4.25-3.475 9.68-3.52 14.26-.624 4.578 2.898 9.017 6.01 13.43 9.153 4.33 3.086 8.642 6.105 12.637 9.623 3.84 3.383 5.164 7.82 3 12.412-3.96 8.408-9.72 15.403-18.033 19.868-2.347 1.26-5.15 1.667-7.797 2.482-3.044-.925 2.647-.815 0 0zM227.942 131.47c36.515 1.024 66.506 25.257 72.933 61.357 1.095 6.15 1.485 12.44 1.972 18.683.205 2.626-1.282 5.12-4.116 5.155-2.926.035-4.243-2.414-4.433-5.04-.376-5.195-.637-10.414-1.353-15.567-3.78-27.2-25.47-49.705-52.545-54.534-4.075-.727-8.245-.918-12.372-1.35-2.61-.275-6.026-.433-6.604-3.676-.485-2.72 1.81-4.884 4.4-5.023.703-.04 1.41-.007 2.118-.004 36.515 1.024-.707-.002 0 0z"/><path d="M283.434 203.407c-.06.456-.092 1.528-.36 2.538-.968 3.666-6.526 4.125-7.806.425-.38-1.098-.436-2.347-.438-3.53-.013-7.733-1.694-15.46-5.594-22.188-4.01-6.916-10.134-12.73-17.318-16.248-4.344-2.127-9.042-3.45-13.803-4.237-2.08-.344-4.184-.553-6.275-.844-2.534-.352-3.887-1.967-3.767-4.464.112-2.34 1.822-4.024 4.372-3.88 8.38.476 16.474 2.287 23.924 6.232 15.15 8.023 23.803 20.687 26.33 37.597.113.765.297 1.524.355 2.293.143 1.9.233 3.8.38 6.304-.06.456-.147-2.504 0 0z"/><path d="M260.722 202.523c-3.055.055-4.69-1.636-5.005-4.437-.22-1.953-.392-3.932-.858-5.832-.92-3.742-2.908-7.21-6.056-9.503-1.486-1.082-3.17-1.87-4.934-2.38-2.24-.647-4.568-.47-6.804-1.017-2.428-.595-3.77-2.56-3.39-4.84.348-2.072 2.365-3.69 4.63-3.526 14.157 1.022 24.275 8.34 25.72 25.007.1 1.176.22 2.42-.04 3.544-.447 1.926-1.873 2.89-3.264 2.985-3.055.055 1.39-.094 0 0z"/></g></svg>