<svg xmlns="http://www.w3.org/2000/svg" viewBox="0 0 455.731 455.731"><path fill="#1AB7EA" d="M0 0h455.73v455.73H0z"/><path d="M49.642 157.084l17.626 22.474s22.033-17.186 29.965-17.186c4.927 0 15.423 5.73 22.033 25.558 6.61 19.83 34.44 122.62 36.134 127.35 7.607 21.26 17.626 60.812 48.473 66.54s70.065-25.557 91.657-48.472c21.592-22.914 106.64-120.74 110.165-179.35 3.26-54.19-14.517-66.764-22.474-71.827-14.54-9.253-38.777-12.337-61.69-4.406s-57.727 33.93-66.98 80.2c0 0 31.286-11.457 42.743-.44s8.373 35.252-1.322 53.32-37.014 59.93-47.15 61.25c-10.135 1.323-18.067-18.507-19.39-23.795-1.32-5.29-18.066-77.998-24.235-120.3s-33.05-49.355-45.83-49.355c-12.778 0-34.81 9.696-109.723 78.44z" fill="#FFF"/></svg>