<svg xmlns="http://www.w3.org/2000/svg" viewBox="0 0 455.731 455.731"><path fill="#01B488" d="M0 0h455.73v455.73H0z"/><path d="M275.297 171.076c-1.142-9.132-6.85-50.796 22.83-50.796s13.127 66.206 13.127 66.206h49.596c3.356-11.18 5.766-24.85 5.766-41.094 0-53.65-38.24-72.485-65.065-72.485s-75.908 10.844-75.908 85.612 57.645 98.167 57.645 98.167c-15.41 34.245-54.792 76.48-54.792 76.48-71.914-81.046-81.616-214.03-81.616-214.03L96 120.654c33.388 251.686 132.495 262.17 132.495 262.17 43.947-7.258 99.88-114.15 99.88-114.15 9.132 1.14 37.098-4.566 37.098-4.566V227.01c-74.766 16.55-89.034-46.802-90.176-55.934z" fill="#FFF"/></svg>