<svg xmlns="http://www.w3.org/2000/svg" width="32" height="32" viewBox="0 0 32 32"><title>wallet2</title><path d="M16 20c0-1.105.895-2 2-2s2 .895 2 2-.895 2-2 2-2-.895-2-2zm13-7V4c0-1.657-1.344-3-3-3H5.5C2.467 1 0 3.468 0 6.5v20C0 29.532 2.467 32 5.5 32h18c3.032 0 5.5-2.468 5.5-5.5V25c4-3 4-9 0-12zM5.5 3H26c.55 0 1 .448 1 1v6.184c-.314-.112-.648-.184-1-.184V5c0-.553-.45-1-1-1H4c-.553 0-1 .447-1 1v3.943c-.618-.63-1-1.49-1-2.443C2 4.567 3.566 3 5.5 3zM25 6H4V5h21v1zm0 1v1H4V7h21zm0 2v1H5.5c-.54 0-1.044-.132-1.5-.35V9h21zm2 17.5c0 1.933-1.567 3.5-3.5 3.5h-18C3.566 30 2 28.433 2 26.5V10.74c.95.786 2.17 1.26 3.5 1.26H26c.55 0 1 .448 1 1v2h-9c-2.762 0-5 2.238-5 5s2.24 5 5 5h9v1.5zm1.277-3.5H18c-1.654 0-3-1.346-3-3s1.346-3 3-3h9c.617-.008 1.23-.307 1.602-.804.104-.14.185-.297.25-.46.01-.023.025-.04.033-.063.72.943 1.115 2.1 1.115 3.327 0 1.538-.62 2.965-1.723 4z"/></svg>