<svg xmlns="http://www.w3.org/2000/svg" width="32" height="32" viewBox="0 0 32 32"><title>weather</title><path d="M16 5.938c.552 0 1-.448 1-1v-2c0-.552-.448-1-1-1s-1 .448-1 1v2c0 .552.448 1 1 1zm7.777 2.635L25.19 7.16c.392-.392.392-1.024 0-1.415s-1.022-.39-1.413 0L22.363 7.16c-.39.39-.39 1.022 0 1.413s1.023.39 1.414 0zM4 15.938h2c.552 0 1-.448 1-1s-.448-1-1-1H4c-.552 0-1 .448-1 1s.448 1 1 1zm21-1c0 .552.448 1 1 1h2c.552 0 1-.448 1-1s-.448-1-1-1h-2c-.552 0-1 .448-1 1zM8.22 8.573c.392.39 1.025.39 1.415 0s.39-1.023 0-1.414L8.22 5.744c-.39-.39-1.022-.39-1.413 0s-.39 1.023 0 1.414L8.22 8.572zm.882 7.365h2c-.066-.323-.102-.658-.102-1 0-2.762 2.238-5 5-5s5 2.238 5 5c0 .342-.035.677-.102 1h2c.05-.33.102-.658.102-1 0-3.86-3.14-7-7-7s-7 3.14-7 7c0 .342.055.67.102 1zm18.898 2H4c-.552 0-1 .448-1 1s.448 1 1 1h24c.552 0 1-.448 1-1s-.448-1-1-1zm0 4H4c-.552 0-1 .448-1 1s.448 1 1 1h24c.552 0 1-.448 1-1s-.448-1-1-1zm0 4H4c-.552 0-1 .448-1 1s.448 1 1 1h24c.552 0 1-.448 1-1s-.448-1-1-1z"/></svg>