<svg xmlns="http://www.w3.org/2000/svg" width="32" height="32" viewBox="0 0 32 32"><title>webpack</title><path d="M28.02 24.16L16.47 30.666v-5.068l7.198-3.942 4.355 2.503zm.79-.712V9.84l-4.227 2.43v8.746l4.228 2.432zM3.9 24.16l11.554 6.506v-5.068l-7.198-3.942L3.9 24.16zm-.79-.712V9.84l4.23 2.43v8.746l-4.23 2.432zM3.606 8.96l11.85-6.674v4.9l-7.65 4.19-4.2-2.415zm24.712 0l-11.85-6.674v4.9l7.65 4.19 4.2-2.415zM15.454 24.446L8.352 20.56v-7.704l7.1 4.083v7.507zm1.014 0l7.1-3.887v-7.704l-7.1 4.083v7.507zm-7.635-12.48l7.13-3.905 7.128 3.905-7.128 4.1-7.13-4.1z"/></svg>