<svg xmlns="http://www.w3.org/2000/svg" width="32" height="32" viewBox="0 0 32 32"><title>whatsapp</title><path d="M27.28 4.65C24.288 1.65 20.307 0 16.063 0 7.324 0 .212 7.112.212 15.856c0 2.794.73 5.525 2.12 7.925L.08 32l8.405-2.206c2.32 1.262 4.925 1.93 7.575 1.93h.006c8.738 0 15.856-7.112 15.856-15.855 0-4.24-1.65-8.22-4.644-11.22zm-11.21 24.4c-2.37 0-4.69-.637-6.714-1.837l-.48-.288-4.988 1.306 1.33-4.862-.312-.5c-1.325-2.094-2.02-4.52-2.02-7.012 0-7.27 5.913-13.18 13.19-13.18 3.518 0 6.83 1.374 9.318 3.86 2.488 2.495 3.856 5.8 3.856 9.326-.006 7.275-5.92 13.188-13.18 13.188zm7.224-9.875c-.394-.2-2.344-1.156-2.706-1.288s-.625-.2-.894.2c-.262.394-1.025 1.288-1.256 1.556-.23.262-.462.3-.856.1s-1.675-.62-3.188-1.97c-1.175-1.05-1.975-2.35-2.206-2.743s-.025-.613.175-.806c.18-.175.394-.463.594-.694s.262-.394.394-.662c.132-.262.07-.494-.03-.694s-.894-2.15-1.22-2.944c-.318-.775-.65-.67-.893-.68-.23-.013-.494-.013-.756-.013s-.693.1-1.055.494c-.363.395-1.387 1.357-1.387 3.307s1.42 3.83 1.62 4.1c.2.262 2.793 4.27 6.768 5.98.944.407 1.68.65 2.256.838.95.3 1.813.256 2.494.156.762-.112 2.344-.955 2.675-1.88s.332-1.72.232-1.88c-.094-.176-.356-.276-.756-.476z"/></svg>