<svg xmlns="http://www.w3.org/2000/svg" width="32" height="32" viewBox="0 0 32 32"><title>wind2</title><path d="M30 14c0-2.21-1.795-4-4-4-2.21 0-4 1.79-4 4h2c0-1.105.888-2 2-2 1.105 0 2 .888 2 2 0 1.105-.89 2-2.004 2H3v2h23.002C28.21 18 30 16.205 30 14zm-9-4c0-2.21-1.795-4-4-4-2.21 0-4 1.79-4 3.997V10h2c0-1.105.888-2 2-2 1.105 0 2 .888 2 2 0 1.105-.897 2-2.006 2H5v2h12.004C19.21 14 21 12.205 21 10zm5 13c0 1.657-1.347 3-3 3-1.657 0-3-1.342-3-2.99V23h2c0 .552.444 1 1 1 .552 0 1-.444 1-1 0-.552-.45-1-1.007-1H9v-2h14c1.657 0 3 1.347 3 3z"/></svg>