<svg xmlns="http://www.w3.org/2000/svg" width="32" height="32" viewBox="0 0 32 32"><title>yingyang</title><path d="M16 2.984C8.8 2.984 2.985 8.8 2.985 16 2.985 23.2 8.8 29.016 16 29.016c7.2 0 13.016-5.816 13.016-13.016S23.2 2.984 16 2.984zm-.046 5.205c.93 0 1.687.754 1.687 1.687s-.755 1.688-1.686 1.688c-.933 0-1.688-.756-1.688-1.688s.755-1.688 1.688-1.688zm.228 19.95c-3.54 0-6.26-2.643-6.26-6.064 0-3.305 2.502-6.067 5.857-6.064 0 0 6.297-.31 6.297-6.083 0-3.47-2.1-5.568-6.085-6.084 7.173.398 12.148 5.373 12.148 12.147 0 6.61-5.44 12.148-11.958 12.148zm-.167-7.826c-.932 0-1.688.755-1.688 1.688 0 .932.756 1.688 1.688 1.688s1.688-.756 1.688-1.688c0-.933-.756-1.688-1.688-1.688z"/></svg>